<svg id="Layer_1" data-name="Layer 1" xmlns="http://www.w3.org/2000/svg" viewBox="0 0 917.89 1076.35"><defs><style>.cls-1{opacity:0.2;}.cls-2{fill:#15afd0;}</style></defs><title>bg</title><g class="cls-1"><polygon class="cls-2" points="0 912.48 66.55 1076.35 67.42 1076.35 0 910.34 0 912.48"/><path class="cls-2" d="M915.49,926.15a5.65,5.65,0,0,0-6.46.36l-80.12-89.1a5.89,5.89,0,0,0,.75-1,5.68,5.68,0,1,0-10.46-3.77L721.81,826a5.68,5.68,0,1,0-10.56,2.9l-238,164.85a6,6,0,0,0-1.09-1L574.26,829a5.67,5.67,0,0,0,7-8.61L684.92,722.5a5.19,5.19,0,0,0,.87.65,5.67,5.67,0,1,0-1.42-1.24L580.76,819.78a6.41,6.41,0,0,0-.87-.66,5.68,5.68,0,0,0-5.58-.2l-54.43-89a5.69,5.69,0,0,0-1.9-10.13l23.77-131.35a5.52,5.52,0,1,0-.79-.14L517.19,719.66a5.7,5.7,0,0,0-3.22.6L449.42,614.71a5.63,5.63,0,0,0,1.54-1.64,5.68,5.68,0,0,0-9.68-6,6.18,6.18,0,0,0-.39.77L328.5,569.54a5.67,5.67,0,1,0-.65,1.53,6.18,6.18,0,0,0,.39-.77l112.39,38.34a5.24,5.24,0,0,0-.16.88l-221.28-6.66a5.68,5.68,0,0,0-6.83-5.33l-67-237a5.68,5.68,0,1,0-4.91-.5,5.63,5.63,0,0,0,4.13.71l67,237.06a5.65,5.65,0,0,0-2.9,2.36l0,0L0,493.3H0v.91H0L208.29,600.87a5.71,5.71,0,0,0-.4,3L35.33,641.66a5.65,5.65,0,0,0-6.73-3.92L0,545.34v2.72L27.83,638A5.67,5.67,0,0,0,25,646.1L0,662.9v1l25.42-17.11a5.49,5.49,0,0,0,1.49,1.34,5.59,5.59,0,0,0,3.11.84l40,427.41h.81l-40-427.48a5.8,5.8,0,0,0,2.44-1L102.59,729a5.61,5.61,0,0,0-.86,1.06,5.68,5.68,0,0,0,3.88,8.58L72.14,1076.35H73L106.41,738.7a5.45,5.45,0,0,0,1.56-.17l112.17,337.82H221L108.73,738.27a5.46,5.46,0,0,0,1-.55L319.87,1003a5.46,5.46,0,0,0-1,1.21,5.68,5.68,0,0,0,1.38,7.48l-42.72,64.7h1l42.43-64.26a5.68,5.68,0,0,0,6.77-9L497.57,804.45a2.7,2.7,0,0,0,.39.27,5.73,5.73,0,0,0,1.06.51l-72.09,256.36a5.66,5.66,0,0,0-6.6,7.1l-21.24,7.66h2.37l19.14-6.9a5.66,5.66,0,0,0,5.95,3.33l.74,3.57h.83l-.78-3.74a5.67,5.67,0,0,0,1.76-10.07l37.09-60.26a5.65,5.65,0,0,0,2.63.65l5.29,73.42h.8l-5.28-73.48a5.24,5.24,0,0,0,1.54-.45l40.29,73.93h.92L471.88,1002a5.3,5.3,0,0,0,.54-.39l71,74.71h1.12L473,1001.08a5.4,5.4,0,0,0,.64-.85,5.65,5.65,0,0,0,.43-.85l212.84,68.82a5.68,5.68,0,0,0,2.53,6.2,5.15,5.15,0,0,0,.7.36l-.57,1.59h13.27l-5.55-3.87a5.67,5.67,0,0,0-1.08-7.14L798.84,933.18l.17.12a5.65,5.65,0,0,0,5.55.22l86.06,142.83h.94l-86.3-143.24a5.68,5.68,0,1,0-8.11-7.62,5.65,5.65,0,0,0-.84,3L711,935.39a5.67,5.67,0,0,0-1.06-2.53L820.8,837.47a5.46,5.46,0,0,0,1.05.84,5.67,5.67,0,0,0,6.46-.36L908.42,927a6.1,6.1,0,0,0-.75,1,5.68,5.68,0,1,0,7.82-1.86ZM691.15,714.45h0Zm0,0h0ZM544.75,578.93Zm0,0ZM325.39,564.22Zm0,0ZM519,721.43Zm0,0ZM215.9,599.22Zm0,0Zm-7.82,5.47a5.67,5.67,0,0,0,10.28,1.38,5.85,5.85,0,0,0,.81-2.41l219.61,6.61-403,32.13ZM35.56,643.22l405-32.28a5.66,5.66,0,0,0,8.22,4.19l64.55,105.54a5.67,5.67,0,0,0-2.22,3.29L35.54,643.81A3.88,3.88,0,0,0,35.56,643.22Zm74,85a5.67,5.67,0,0,0-6.34.27L33.87,647.31a6,6,0,0,0,.86-1.06,6.07,6.07,0,0,0,.4-.81l228,75.79a5.28,5.28,0,0,0-.17,1.36l-150.73,9.68A5.67,5.67,0,0,0,109.54,728.19Zm211,274.26L110.4,737.22a5.66,5.66,0,0,0,1.84-4.15L263,723.4a5.68,5.68,0,0,0,6.31,4.87l53,273.39A5.89,5.89,0,0,0,320.5,1002.45Zm6.57.13a2.7,2.7,0,0,0-.39-.27,5.66,5.66,0,0,0-3.66-.8l-53-273.4a5.63,5.63,0,0,0,3.37-2.5,5.08,5.08,0,0,0,.4-.81l221.6,73.68a5.71,5.71,0,0,0,1.52,5.45Zm169-205.67a5.08,5.08,0,0,0-.4.81L274.1,724a5.68,5.68,0,0,0-10.35-4.38,5.08,5.08,0,0,0-.4.81l-228-75.8,0-.06,475.52,80.14a5.68,5.68,0,0,0,8.26,5.59l54.42,89a5.63,5.63,0,0,0-1.53,1.65,5.26,5.26,0,0,0-.44.89l-65.18-20.66a5.68,5.68,0,0,0-10.36-4.3Zm-67.93,266.37Zm0,0Zm41.16-71.68a5.67,5.67,0,0,0-3.82,10.26l-37.1,60.26a4.82,4.82,0,0,0-.7-.31L499.4,806.86Zm1.87,1.78Zm0,0Zm.27-1.15a5.67,5.67,0,0,0-1.35-.51l30.31-186.19a5.68,5.68,0,0,0,5.35-2.68,6,6,0,0,0,.43-.88l65.18,20.65a5.7,5.7,0,0,0,2.19,5.92ZM799.59,927a2.82,2.82,0,0,1,4.8,3,2.94,2.94,0,0,1-.62.69h0a2.54,2.54,0,0,0,.61-.69A2.8,2.8,0,1,0,799.6,927a2.62,2.62,0,0,0-.39,1.28h0A2.82,2.82,0,0,1,799.59,927ZM473.7,994.36l238-164.85a5.59,5.59,0,0,0,1.44,1.29,5.77,5.77,0,0,0,2,.76l-9.63,99a5.65,5.65,0,0,0-5.73,6.69L474.2,995.45A5.64,5.64,0,0,0,473.7,994.36Zm232.15-58.55-.06.64-.13.1-.07.07-.12,0h0l-.06-.8Zm-18.26,130.78a5.59,5.59,0,0,0-.42.85L474.33,998.61a5.63,5.63,0,0,0,.07-2.38L700,938.05a5.63,5.63,0,0,0,2.4,3,5.77,5.77,0,0,0,2,.76l-11.87,122A5.67,5.67,0,0,0,687.59,1066.59Zm7.22-.9Zm0,0Zm15.43-126.47a5.6,5.6,0,0,0,.83-3l85.31-6.88a5.67,5.67,0,0,0,1.82,3.37L695.58,1064.85l-.17-.12a5.58,5.58,0,0,0-2-.76l11.87-122.05A5.68,5.68,0,0,0,710.24,939.23Zm-.81-7a5.58,5.58,0,0,0-3.08-1.6l9.63-99a5.64,5.64,0,0,0,5.77-4.88l97.4,6.73a5.67,5.67,0,0,0,1.12,3.38ZM827.2,829.6Zm0,0Z"/><polygon class="cls-2" points="917.89 163.87 851.34 0 850.47 0 917.89 166.01 917.89 163.87"/><path class="cls-2" d="M2.4,150.21a5.71,5.71,0,0,0,6.47-.36L89,238.94a5.57,5.57,0,0,0-.75,1,5.68,5.68,0,0,0,9.68,6,5.62,5.62,0,0,0,.78-2.18l97.4,6.73a5.68,5.68,0,1,0,10.56-2.91l238-164.85a5.39,5.39,0,0,0,1.09,1L343.63,247.38a5.67,5.67,0,0,0-7,8.61L233,353.86a5.6,5.6,0,0,0-.86-.66,5.7,5.7,0,1,0,1.41,1.24l103.62-97.86a5.54,5.54,0,0,0,.86.65,5.67,5.67,0,0,0,5.59.2l54.43,89a5.69,5.69,0,0,0,1.89,10.13L376.14,487.92a5.66,5.66,0,1,0,2.37.8,5.61,5.61,0,0,0-1.58-.67L400.7,356.7a5.64,5.64,0,0,0,3.23-.61l64.54,105.55a5.68,5.68,0,1,0,8.14,7.6,5.56,5.56,0,0,0,.39-.77l112.39,38.34a5.69,5.69,0,1,0,.66-1.53,5.06,5.06,0,0,0-.39.77l-112.4-38.34a5.31,5.31,0,0,0,.16-.87l221.29,6.66a5.66,5.66,0,0,0,6.82,5.32l67,237.06a5.65,5.65,0,1,0,.77-.22l-67-237.06a5.63,5.63,0,0,0,2.91-2.36l0,0L917.89,583.05h0v-.9h0L709.6,475.49a5.61,5.61,0,0,0,.4-3l172.56-37.76a5.6,5.6,0,0,0,2.47,3.23,5.67,5.67,0,0,0,4.26.7l28.6,92.4v-2.73l-27.83-89.92a5.57,5.57,0,0,0,2.78-2.31,5.67,5.67,0,0,0,.09-5.8l25-16.8v-1l-25.42,17.1a5.49,5.49,0,0,0-1.49-1.34,5.64,5.64,0,0,0-3.1-.84L847.87,0h-.8l40,427.49a5.61,5.61,0,0,0-2.44,1l-69.32-81.15a5.56,5.56,0,0,0,.85-1.07,5.67,5.67,0,0,0-3.88-8.57L845.75,0h-.81L811.48,337.65a5.88,5.88,0,0,0-1.56.17L697.75,0h-.85L809.16,338.08a5.14,5.14,0,0,0-1,.56L598,73.4a6,6,0,0,0,1-1.21,5.68,5.68,0,0,0-1.38-7.48L640.37,0h-1L597,64.27a5.67,5.67,0,0,0-6.76,9L420.33,271.9c-.13-.09-.26-.19-.4-.27a5.64,5.64,0,0,0-1.05-.51L491,14.76a5.66,5.66,0,0,0,6.6-7.1L518.81,0h-2.38L497.29,6.9a5.55,5.55,0,0,0-2.21-2.53,5.63,5.63,0,0,0-3.74-.79L490.6,0h-.82l.78,3.75a5.6,5.6,0,0,0-3.29,2.48,5.66,5.66,0,0,0,1.52,7.58L451.7,74.07a5.52,5.52,0,0,0-2.63-.64L443.79,0H443l5.29,73.48a5.88,5.88,0,0,0-1.55.45L406.43,0h-.92L446,74.32a5,5,0,0,0-.54.4L374.49,0h-1.11l71.5,75.27a6.09,6.09,0,0,0-.64.85,5.75,5.75,0,0,0-.43.86L231,8.15A5.69,5.69,0,0,0,228.44,2a6.61,6.61,0,0,0-.7-.36L228.31,0H215l5.55,3.88A5.67,5.67,0,0,0,221.67,11L119.06,143.17l-.18-.12a5.7,5.7,0,0,0-5.55-.22L27.27,0h-.94l86.31,143.25a5.55,5.55,0,0,0-1.57,1.66,5.68,5.68,0,1,0,10.51,2.93l85.3-6.88a5.67,5.67,0,0,0,1.06,2.53L97.1,238.89a5.38,5.38,0,0,0-1-.84,5.67,5.67,0,0,0-6.47.36L9.47,149.31a5.89,5.89,0,0,0,.75-1,5.68,5.68,0,1,0-7.82,1.86ZM226.74,361.9Zm0,0ZM373.14,497.42Zm0,0Zm219.35,14.7Zm0,0ZM398.93,354.92Zm0,0ZM702,477.13h0Zm0,0Zm7.82-5.48a5.62,5.62,0,0,0-2.46-3.23,5.66,5.66,0,0,0-8.62,4.26l-219.62-6.61,403-32.12Zm172.51-38.53L477.39,465.41a5.68,5.68,0,0,0-8.23-4.18L404.62,355.68a5.63,5.63,0,0,0,1.53-1.65,5.49,5.49,0,0,0,.68-1.63l475.53,80.14C882.34,432.74,882.33,432.94,882.33,433.13Zm-74-85a5.67,5.67,0,0,0,6.35-.27L884,429a5.56,5.56,0,0,0-.85,1.07,5.13,5.13,0,0,0-.41.81l-228-75.79a6.34,6.34,0,0,0,.17-1.37l150.72-9.67A5.65,5.65,0,0,0,808.35,348.16ZM597.39,73.9l210.1,265.24a5.38,5.38,0,0,0-1,1.21,5.6,5.6,0,0,0-.84,2.93L654.93,353a5.65,5.65,0,0,0-6.31-4.87l-53-273.4A5.54,5.54,0,0,0,597.39,73.9Zm-6.57-.12.39.27a5.66,5.66,0,0,0,3.66.8l53,273.39a5.65,5.65,0,0,0-3.36,2.5,5.14,5.14,0,0,0-.41.81l-221.6-73.68a5.7,5.7,0,0,0-1.52-5.44Zm-169,205.66a6.15,6.15,0,0,0,.41-.81l221.6,73.68a5.68,5.68,0,0,0,10.34,4.39,6.84,6.84,0,0,0,.41-.81l228,75.79a.17.17,0,0,0,0,.07L407,351.6a5.66,5.66,0,0,0-8.25-5.58l-54.43-89a5.8,5.8,0,0,0,1.54-1.65,6,6,0,0,0,.43-.88l65.18,20.65a5.68,5.68,0,0,0,10.36,4.3ZM489.72,13.07Zm0,0ZM448.56,84.75a5.67,5.67,0,0,0,3.83-10.26l37.09-60.26a6.29,6.29,0,0,0,.7.32L418.5,269.49ZM446.7,83Zm0,0Zm-.27,1.14a5.42,5.42,0,0,0,1.35.51l-30.3,186.19a5.69,5.69,0,0,0-5.35,2.68,5.56,5.56,0,0,0-.44.88L346.5,253.72a5.67,5.67,0,0,0-2.18-5.91ZM118.3,149.37a2.82,2.82,0,1,1-4.79-3,2.74,2.74,0,0,1,.62-.69h0a3.11,3.11,0,0,0-.61.69,2.8,2.8,0,1,0,5.17,1.65h0A2.85,2.85,0,0,1,118.3,149.37ZM444.19,82l-238,164.85a5.77,5.77,0,0,0-1.45-1.28,5.58,5.58,0,0,0-2-.76l9.64-99a5.67,5.67,0,0,0,5-2.7,5.6,5.6,0,0,0,.74-4L443.69,80.9A6,6,0,0,0,444.19,82ZM212.05,140.54l.06-.64.12-.1.07-.06.13,0h0l.06.81ZM230.3,9.77a5.25,5.25,0,0,0,.42-.86L443.56,77.74a5.63,5.63,0,0,0-.06,2.38L217.88,138.3a5.64,5.64,0,0,0-2.41-3,5.58,5.58,0,0,0-2-.76l11.88-122A5.68,5.68,0,0,0,230.3,9.77Zm-7.22.89Zm0,0ZM207.66,137.13a5.56,5.56,0,0,0-.84,3L121.52,147a5.68,5.68,0,0,0-1.83-3.36L222.31,11.51l.18.12a5.72,5.72,0,0,0,2,.76l-11.87,122A5.65,5.65,0,0,0,207.66,137.13Zm.8,7a5.85,5.85,0,0,0,1.06.84,5.53,5.53,0,0,0,2,.76l-9.63,99a5.66,5.66,0,0,0-5.77,4.88l-97.4-6.73a5.69,5.69,0,0,0-1.12-3.38ZM90.69,246.75Zm0,0Z"/></g></svg>