<svg id="Layer_1" data-name="Layer 1" xmlns="http://www.w3.org/2000/svg" xmlns:xlink="http://www.w3.org/1999/xlink" viewBox="0 0 665.93 628.4"><defs><style>.cls-1,.cls-12,.cls-28,.cls-29,.cls-36,.cls-38,.cls-39,.cls-6{fill:none;}.cls-2{fill:#1c2956;}.cls-3{fill:#9cd2f2;}.cls-4{clip-path:url(#clip-path);}.cls-5{fill:#fdfeff;}.cls-6,.cls-7{stroke:#1587b3;}.cls-12,.cls-28,.cls-29,.cls-36,.cls-38,.cls-39,.cls-6,.cls-7{stroke-miterlimit:10;}.cls-12,.cls-6,.cls-7{stroke-width:2px;}.cls-7,.cls-9{fill:#fff;}.cls-8{clip-path:url(#clip-path-2);}.cls-10{fill:#ed926f;}.cls-11{fill:#f3f6f9;}.cls-12{stroke:#fff;}.cls-13{fill:#f8a488;}.cls-14{fill:#febe10;}.cls-15{fill:#164884;}.cls-16{fill:url(#linear-gradient);}.cls-17{fill:url(#linear-gradient-2);}.cls-18{clip-path:url(#clip-path-3);}.cls-19{fill:#e0ac9b;}.cls-20{fill:#292929;opacity:0.15;}.cls-21{fill:#3cbfbc;}.cls-22{fill:#e48266;}.cls-23{fill:#fffffd;}.cls-24{fill:url(#linear-gradient-3);}.cls-25{fill:url(#linear-gradient-4);}.cls-26{fill:#14416d;}.cls-27{fill:url(#linear-gradient-5);}.cls-28{stroke:#010101;}.cls-29{stroke:#c9cdd1;}.cls-30{fill:url(#linear-gradient-6);}.cls-31{fill:#1587b3;}.cls-32{fill:#1d7f90;}.cls-33{fill:#e33471;}.cls-34{fill:url(#linear-gradient-7);}.cls-35{fill:url(#linear-gradient-8);}.cls-36{stroke:#e33471;stroke-width:0.5px;}.cls-37{fill:url(#linear-gradient-9);}.cls-38{stroke:#26333e;stroke-width:0.75px;}.cls-39{stroke:#140d0e;}.cls-40{clip-path:url(#clip-path-4);}.cls-41{fill:url(#linear-gradient-10);}.cls-42{clip-path:url(#clip-path-5);}.cls-43{fill:#f69d1d;}.cls-44{fill:url(#linear-gradient-11);}</style><clipPath id="clip-path"><rect class="cls-1" x="275.36" y="6.56" width="222.7" height="486.68" rx="22.96"/></clipPath><clipPath id="clip-path-2"><path class="cls-1" d="M333.48,403.41h0a40.87,40.87,0,0,1-40.87-40.88h0a40.87,40.87,0,0,1,40.87-40.87h0a40.87,40.87,0,0,1,40.87,40.87h0A40.87,40.87,0,0,1,333.48,403.41Z"/></clipPath><linearGradient id="linear-gradient" x1="246.98" y1="204.12" x2="266.4" y2="255.45" gradientUnits="userSpaceOnUse"><stop offset="0.27" stop-color="#010101" stop-opacity="0.91"/><stop offset="0.56" stop-color="#116190" stop-opacity="0"/></linearGradient><linearGradient id="linear-gradient-2" x1="240.76" y1="307.07" x2="260.91" y2="360.34" xlink:href="#linear-gradient"/><clipPath id="clip-path-3"><path class="cls-1" d="M248.33,171.32c4.23-.64,3.38,3.78,6.4.75.69-.7,3.87-5.47,4-6.45.49-4.75-1.72-14.83-4.5-17.57-2.61-2.56-7.87-2.92-11.5-2.47-7.42.92-12.93,3.79-12.08,15.37.49,6.6,5.24,10.6,13.63,10.14,1.68-.09,2.22.11,3.91.06a1.12,1.12,0,0,1,.65.13C249,171.41,248.51,171.18,248.33,171.32Z"/></clipPath><linearGradient id="linear-gradient-3" x1="526.32" y1="330.13" x2="522.72" y2="377.7" gradientUnits="userSpaceOnUse"><stop offset="0.27" stop-color="#010101" stop-opacity="0.91"/><stop offset="0.56" stop-color="#e0ac9b" stop-opacity="0"/></linearGradient><linearGradient id="linear-gradient-4" x1="472.57" y1="597.21" x2="494" y2="452.54" gradientUnits="userSpaceOnUse"><stop offset="0" stop-color="#22418e"/><stop offset="0.01" stop-color="#3cbfbc"/><stop offset="1" stop-color="#aadfeb"/></linearGradient><linearGradient id="linear-gradient-5" x1="475.84" y1="581.65" x2="547.63" y2="440.14" xlink:href="#linear-gradient-4"/><linearGradient id="linear-gradient-6" x1="552.3" y1="400.68" x2="534.03" y2="423.57" gradientUnits="userSpaceOnUse"><stop offset="0.27" stop-color="#010101" stop-opacity="0.91"/><stop offset="0.53" stop-color="#fffffd" stop-opacity="0"/></linearGradient><linearGradient id="linear-gradient-7" x1="272.64" y1="474.39" x2="277.14" y2="563.52" gradientUnits="userSpaceOnUse"><stop offset="0.27" stop-color="#010101" stop-opacity="0.91"/><stop offset="0.56" stop-color="#e33471" stop-opacity="0"/></linearGradient><linearGradient id="linear-gradient-8" x1="581.55" y1="566.74" x2="588.53" y2="616.14" xlink:href="#linear-gradient-7"/><linearGradient id="linear-gradient-9" x1="75.89" y1="479.37" x2="68.62" y2="528.27" xlink:href="#linear-gradient-7"/><clipPath id="clip-path-4"><path class="cls-1" d="M333.48,278.66h0a40.87,40.87,0,0,1-40.87-40.87h0a40.87,40.87,0,0,1,40.87-40.87h0a40.87,40.87,0,0,1,40.87,40.87h0A40.87,40.87,0,0,1,333.48,278.66Z"/></clipPath><linearGradient id="linear-gradient-10" x1="332.77" y1="236.54" x2="338.47" y2="258.99" xlink:href="#linear-gradient-3"/><clipPath id="clip-path-5"><path class="cls-1" d="M333.48,153.92h0A40.87,40.87,0,0,1,292.61,113h0a40.87,40.87,0,0,1,40.87-40.87h0A40.87,40.87,0,0,1,374.35,113h0A40.87,40.87,0,0,1,333.48,153.92Z"/></clipPath><linearGradient id="linear-gradient-11" x1="332.77" y1="111.79" x2="338.47" y2="134.25" xlink:href="#linear-gradient-3"/></defs><title>1</title><rect class="cls-2" x="267.89" y="0.34" width="237.63" height="500.57" rx="27.21"/><rect class="cls-3" x="275.36" y="6.56" width="222.7" height="486.68" rx="22.96"/><g class="cls-4"><rect class="cls-5" x="261.67" y="-0.46" width="252.69" height="46.38"/><rect class="cls-5" x="260.07" y="442.54" width="303.87" height="68.77"/><rect class="cls-5" x="248.88" y="297.01" width="276.68" height="12.79"/><rect class="cls-5" x="248.88" y="170.66" width="276.68" height="12.79"/></g><path class="cls-2" d="M328.63,1.78l1,9.63c.66,6.3,6.68,11.13,13.89,11.13h86.4c7.21,0,13.23-4.83,13.88-11.13l1-9.63Z"/><line class="cls-6" x1="390.15" y1="97.05" x2="482.91" y2="97.05"/><line class="cls-6" x1="390.15" y1="108.25" x2="482.91" y2="108.25"/><line class="cls-6" x1="390.15" y1="119.44" x2="482.91" y2="119.44"/><path class="cls-1" d="M333.48,153.92h0A40.87,40.87,0,0,1,292.61,113h0a40.87,40.87,0,0,1,40.87-40.87h0A40.87,40.87,0,0,1,374.35,113h0A40.87,40.87,0,0,1,333.48,153.92Z"/><path class="cls-1" d="M333.48,278.66h0a40.87,40.87,0,0,1-40.87-40.87h0a40.87,40.87,0,0,1,40.87-40.87h0a40.87,40.87,0,0,1,40.87,40.87h0A40.87,40.87,0,0,1,333.48,278.66Z"/><line class="cls-6" x1="390.15" y1="220.2" x2="482.91" y2="220.2"/><line class="cls-6" x1="390.15" y1="231.39" x2="482.91" y2="231.39"/><line class="cls-6" x1="390.15" y1="242.59" x2="482.91" y2="242.59"/><line class="cls-6" x1="390.15" y1="341.74" x2="482.91" y2="341.74"/><line class="cls-6" x1="390.15" y1="352.94" x2="482.91" y2="352.94"/><line class="cls-6" x1="390.15" y1="364.13" x2="482.91" y2="364.13"/><path class="cls-7" d="M333.48,403.41h0a40.87,40.87,0,0,1-40.87-40.88h0a40.87,40.87,0,0,1,40.87-40.87h0a40.87,40.87,0,0,1,40.87,40.87h0A40.87,40.87,0,0,1,333.48,403.41Z"/><g class="cls-8"><path class="cls-2" d="M342.2,328.91a16.16,16.16,0,0,0-4.33-.42,28.89,28.89,0,0,0-10.95,3.11,26.63,26.63,0,0,0-6.64,4.14A13.59,13.59,0,0,0,317,340c-.8,1.74-.5,3.31-.56,5.19-.13,4.58-.29,9.17-.07,13.75.27,5.79-.8,13.33,5.43,16.51,2.25,1.15,4.93,1,7.45.72a60.71,60.71,0,0,0,14.17-3.5c3.15-1.2,6.31-2.5,7.65-5.81a24.14,24.14,0,0,0,1.56-6.92c.2-2.34-.26-4.55,0-6.85a38,38,0,0,0-.62-12.8,16.79,16.79,0,0,0-3.76-8A12.3,12.3,0,0,0,342.2,328.91Z"/><path class="cls-9" d="M377.86,425.8a53.71,53.71,0,0,0-1.19-5.82,24.54,24.54,0,0,0-2.06-5.61,23.51,23.51,0,0,0-1.49-2.57,6,6,0,0,1-.75-1.19c-.14-.46-.13-1-.24-1.44a6.62,6.62,0,0,0-.77-1.69l-.93-1.61c-.23-.4-.45-.8-.71-1.18-2-3.05-5.34-4.57-8.75-5.51-3.6-1-7.35-1.11-11-1.83a26.77,26.77,0,0,0-3.2-.45,77.8,77.8,0,0,0-13.38.7c-1.75.2-3.49.41-5.24.64-2.26.3-4.52.62-6.78.94-1,.14-2,.16-3,.31s-2.22.34-3.32.6c-4,.94-8,2-11.62,4a25.57,25.57,0,0,0-4.89,3.7c-.63.6-1.47,1.07-2.17,1.61s-1.46,1.15-2.18,1.75a52.21,52.21,0,0,0-7.72,8,42.4,42.4,0,0,0-4.17,6.6Z"/><path class="cls-10" d="M324,372.84c1.12-5.09,6.95-9.19,11.76-10.25a8.33,8.33,0,0,1,4.35,0c3.4,1.11,5.09,5.17,5.67,8.42.84,4.68.79,9.69,1.17,14.43.22,2.75.45,5.62,1.66,8.14,1.45,3,4.09,4.24,7.34,4.62,0,3.09-1.45,6-3,8.64a20.15,20.15,0,0,1-6.9,7.42,16,16,0,0,1-10.55,2.11,21.39,21.39,0,0,1-11.18-5.88,27.81,27.81,0,0,1-4.89-5.74c-.22-.38-3.33-4.92-3.07-5l2.44-.46a9.19,9.19,0,0,0,1.8-.48c2.65-1.15,2.93-4.5,3.2-7a71.68,71.68,0,0,0,.16-13.74,28.4,28.4,0,0,1-.18-4A8.69,8.69,0,0,1,324,372.84Z"/><path class="cls-10" d="M346.18,343.7a21.41,21.41,0,0,0-3.47-2.56,15.17,15.17,0,0,0-7.65-2.63c-5.14-.13-11.5,1.54-13.34,6.92a30.6,30.6,0,0,0-1,5.46c-.64,4.45-1.87,8.82-2.13,13.31a19.69,19.69,0,0,0,1.74,9.93,14.91,14.91,0,0,0,7.93,6.76c7.63,3.21,18.67,1.84,21.2-7.13a24.62,24.62,0,0,0,1.27-6.78,32.13,32.13,0,0,0-1.31-6.85,55.47,55.47,0,0,1-.92-9.27C348.31,348.29,348.14,345.62,346.18,343.7Z"/><path class="cls-2" d="M317.45,344.19c.38,2.49,2.76,4.59,6.47,4.63,7.06.08,21.19-.92,25.16-8a4,4,0,0,0-.06-4.28,5.39,5.39,0,0,0-3.1-1.74c-5.73-1.44-11.71.27-17.52,1.31-2.46.44-5,.77-7.19,2C318.24,339.69,317.13,342.08,317.45,344.19Z"/><path class="cls-11" d="M331.22,366.29a3,3,0,0,0,2.12,2.9,6.93,6.93,0,0,0,2.86.18,5,5,0,0,0,3-3.08Z"/><path class="cls-2" d="M352.59,372.88c0-.08,0-.17,0-.25.25-3.09.34-6.2.28-9.3-.05-2.22-.13-5.18-1.07-7.22a1.6,1.6,0,0,0-.23-.4,1.29,1.29,0,0,0-1.5-.29c-1.29.57-.94,2.71-1.09,3.88-.51,4,.24,9.71-4.11,11.67a12.87,12.87,0,0,1-6.23.74,30.49,30.49,0,0,0-6.33-.14c-1.39.2-2.73.66-4.13.77-3.42.26-5.37-2.48-6.65-5.28a39.58,39.58,0,0,1-2-6.15l-2-7.47c-.07-.24-.2-.53-.44-.51s-.32.25-.37.45a41.84,41.84,0,0,0-.78,7.59,33.55,33.55,0,0,0,2.62,15.32c1.15,2.94,2.22,6.4,5.1,8A24.81,24.81,0,0,0,342.44,386c3.08-.91,6.13-2.48,7.92-5.14C351.92,378.56,352.35,375.68,352.59,372.88Z"/><path class="cls-10" d="M346.9,354.93a5.39,5.39,0,0,0,.1,6.1c2.74,3.42,6.6-.1,5.69-4.16C351.93,353.44,348.81,352.21,346.9,354.93Z"/><path class="cls-2" d="M347.12,366.74a3.55,3.55,0,0,0-.47-.09,9.19,9.19,0,0,1-1.66-.06c-1.22-.32-1.59-1.82-2.23-2.92-1.75-3.06-6.15-4-9.31-3.09a7.4,7.4,0,0,0-4.18,2.9,7.74,7.74,0,0,1-.9,1.28c-1,.94-2.51.86-3.82,1.21-2.67.73-6.38,4.26-2.88,6.6,2.46,1.65,6-.93,7.39-2.85a27.86,27.86,0,0,0,2.07-3.49c.64-1.21.9-1.61,2.31-1.76a8,8,0,0,1,5.24.83c1.51,1,2.29,3.65,3.14,5.21a6.72,6.72,0,0,0,1.85,2.42c1.62,1.13,4.45.07,5.14-1.73C349.42,369.61,349,367.26,347.12,366.74Z"/><path class="cls-10" d="M317.16,354.93a5.39,5.39,0,0,0,.1,6.1c2.74,3.42,6.6-.1,5.7-4.16C322.19,353.44,319.07,352.21,317.16,354.93Z"/></g><line class="cls-12" x1="389.61" y1="377.77" x2="459.98" y2="377.77"/><line class="cls-12" x1="389.61" y1="384.97" x2="459.98" y2="384.97"/><line class="cls-12" x1="389.61" y1="392.17" x2="459.98" y2="392.17"/><line class="cls-12" x1="389.61" y1="399.36" x2="459.98" y2="399.36"/><line class="cls-12" x1="389.61" y1="259.42" x2="459.98" y2="259.42"/><line class="cls-12" x1="389.61" y1="266.62" x2="459.98" y2="266.62"/><line class="cls-12" x1="389.61" y1="273.82" x2="459.98" y2="273.82"/><line class="cls-12" x1="389.61" y1="281.01" x2="459.98" y2="281.01"/><line class="cls-12" x1="389.61" y1="134.68" x2="459.98" y2="134.68"/><line class="cls-12" x1="389.61" y1="141.88" x2="459.98" y2="141.88"/><line class="cls-12" x1="389.61" y1="149.07" x2="459.98" y2="149.07"/><line class="cls-12" x1="389.61" y1="156.27" x2="459.98" y2="156.27"/><path class="cls-6" d="M333.48,403.41h0a40.87,40.87,0,0,1-40.87-40.88h0a40.87,40.87,0,0,1,40.87-40.87h0a40.87,40.87,0,0,1,40.87,40.87h0A40.87,40.87,0,0,1,333.48,403.41Z"/><path class="cls-13" d="M259.64,179.69c-2.29-5.49-2.49-11.1-2.81-16.78-2.3-.72-6.15.41-9.1.92-1.78.3-7.49.45-8,2.36-.59,2.2,2.32,5.86,3.25,7.69a23.24,23.24,0,0,1,2.42,12.45c-.28,2.47-1.23,4.85-1.37,7.34a11.27,11.27,0,0,0,.64,4.46c2.87,8.05,8.68-.09,13.16-1,3.72-.77,9.73-1.57,8.14-6.86A52.77,52.77,0,0,1,259.64,179.69Z"/><path class="cls-13" d="M248.33,171.32c4.23-.64,3.38,3.78,6.4.75.69-.7,4-6.49,3.78-7.46-1.2-6-1.53-13.82-4.31-16.56-3.27-3.22-9.33-3.7-13.6-4.08-3-.26-6.32.32-8.13,2.69-1.44,1.89-1.56,4.45-1.61,6.84-.11,4.87-1,10.25,2.36,14.24,2.7,3.21,7,4.21,11,4,1.68-.09,2.22-.53,3.91-.58a1.12,1.12,0,0,1,.65.13C249,171.41,248.51,171.18,248.33,171.32Z"/><path class="cls-13" d="M217,449.87c.87,7,1.66,14.07,1.91,21.16.21,5.88-2.58,14.54,1.79,19.15s10.52,3.29,14.2-1.55c5.9-7.77,3.4-20.47,5-29.63a346.21,346.21,0,0,0,4.72-40.87c.34-6.08.39-12.64-3-17.69-5.64-8.36-18.32-6.37-23.42,1.43-3.68,5.62-4.12,12.73-3.93,19.44C214.5,430.89,215.81,440.37,217,449.87Z"/><path class="cls-2" d="M235.34,481.21c-2.66,1.3-5.24,2.47-8.14,1.55a16.5,16.5,0,0,1-7.3-5.07,5.81,5.81,0,0,0-1.13-1.14c-1.65-1.07-3.87.22-5,1.83s-1.82,3.61-3.41,4.77a9.67,9.67,0,0,1-2.38,1.14c-3.24,1.19-6.48,2.43-9.74,3.56-2.7.94-7,3.24-9.78,3.24-1.28.46-2.65,1.11-3.17,2.36a3.53,3.53,0,0,0,.81,3.56c2,2.32,4.82,2.91,7.75,3,4.42.19,9,.45,13.4.5,3.45,0,6.64-1.5,9.92-2.33,3.66-.94,5.82.23,9.22,1.5,14.64,5.44,16.33-10.49,12.67-20.51C237.84,479.9,236.6,480.59,235.34,481.21Z"/><path class="cls-14" d="M233.1,288.87c7-7.43,18.88-6.12,28.58-3.25,13.24,3.93,9.69,19.51,5.27,29-3.09,6.66-5.05,10.34-6.11,17.88a93.25,93.25,0,0,1-7.33,25.34c-1.56,3.46-3.37,7-3.5,10.75-.2,5.59,3.3,10.89,2.8,16.47-.39,4.23-3,8-3.56,12.19-.45,3.5.6,7,1.35,10.43a62,62,0,0,1,.85,21.18c-1.19,9-3.19,6.51-11.15,6.76-3.56.11-42.25-2-42.19-2.3q3.6-19.64,7.21-39.27a59.22,59.22,0,0,0,1.09-7.83,79.35,79.35,0,0,0-.37-9.37c-1.95-29.47,7.32-64.08,26.29-87.13C232.58,289.45,232.84,289.15,233.1,288.87Z"/><path class="cls-15" d="M271.67,271l-.09-1.32a249.6,249.6,0,0,1,.05-34.7c.38-5.4,1.47-10.9,1.21-16.29a155.2,155.2,0,0,0-1.73-16.08c-.78-5.08-2.76-16.09-9.14-16.74-4.87-.5-13.33-.59-17.3,2.77-2.07,1.76-3.21,5.6-4.92,7.81-2.18,2.83-4.77,5.33-7.18,8-4.88,5.35-9.35,12.48-7.31,19.43,1.32,4.48,5.2,8.12,5.49,12.78.15,2.45-.72,4.93-.17,7.31.5,2.19,2.12,3.93,3.24,5.88,2.84,4.94,2.26,10.75,1,16.06-.93,3.81-4.64,8.64-2.73,12.57,1.39,2.84,6,2.63,8.63,2.9q6.45.67,12.93,1.12a38.21,38.21,0,0,1,7.27,1.29c2.3.65,5,2.42,7.31,1a5.06,5.06,0,0,0,1.51-1.58C272,279.67,271.94,275.25,271.67,271Z"/><path class="cls-16" d="M265.37,209.14c.86,12.29-2.47,24.44-5.76,36.31a16.37,16.37,0,0,1-2.09,5.15,5.52,5.52,0,0,1-4.68,2.56c-7.78-.56-11.56-20.5-9.86-26.56,2.29-8.12,14.63-17.3,21.16-21.66A7.63,7.63,0,0,1,265.37,209.14Z"/><path class="cls-17" d="M265.69,307.77c-3.05-3.65-8.53,1.78-11.49,3.59-7.37,4.49-14.93,9.05-23.38,10.79-2.85.58-5.83.87-8.44,2.1,9.27,10.89,18.65,21.71,28.37,32.21,3.54-3.12,5.08-10.43,6-14.4,1.75-7.44,4.07-14.73,6.37-22C264.12,316.91,268.34,310.93,265.69,307.77Z"/><path class="cls-13" d="M203.13,182.7a76.43,76.43,0,0,1,1.55-7.95,1.29,1.29,0,0,1,2.49.68c-.1.41-.19.82-.29,1.22a1.28,1.28,0,0,1,1.27,1.61l-.21.74a1.45,1.45,0,0,1,1.32.53c-.35,1.36-1,2.62-.59,4.06s2.6,2.81,2.49,3.49c0,0,0,0,.05,0l.19.16a.15.15,0,0,0,.24-.1.43.43,0,0,0,.21-.09c1.73,2.14,4.33,3,4.05,9.44-.07,1.61.11,12.64-.54,12.61-2.14-.08-6-1-8.11-1.25-.42-.05-3.62,2.63-3.81,0-.12-1.71,4.18-13.25,4.15-14.09a2.37,2.37,0,0,0-.15-.73c-.35-.56-.31-1.09-.74-1.61-.15-.17-.3-.35-.44-.54h0c-.11-.14-.22-.28-.31-.42a20,20,0,0,1-2.53-4.33,3.45,3.45,0,0,1,0-2.39A1.37,1.37,0,0,1,203.13,182.7Z"/><path class="cls-15" d="M265.24,199.33c-.13-.49-.28-1-.45-1.46a9.26,9.26,0,0,0-2.07-3.55,9.06,9.06,0,0,0-4.31-2.17A19.15,19.15,0,0,0,240.66,197a28.82,28.82,0,0,0-4.51,6.11,63.74,63.74,0,0,0-4.28,8.89,12.66,12.66,0,0,1-2,3.91,14.28,14.28,0,0,1-4.13,2.71c-5.07,2.72-8.72,6.75-12,11.34-.74-3.69.46-7.45,1.29-11.12a56.8,56.8,0,0,0,1.33-15.16,1.15,1.15,0,0,0-.28-.83,1.14,1.14,0,0,0-.73-.2l-10.24-.29a1.4,1.4,0,0,0-1.79,1.46c-1.61,9.43-7.5,17.94-7.79,27.49-.13,4.33.9,8.6,1.93,12.8.93,3.78,5.85,14.17,11.07,12.6,8.54-2.57,17-6.22,23.52-12.59a28.72,28.72,0,0,1,4.22-3.81c3.23-2.1,7.47-2.37,10.47-4.8s4-6.52,6.23-9.66c2.38-3.4,6.14-5.65,8.72-8.92A20.39,20.39,0,0,0,265.24,199.33Z"/><path class="cls-2" d="M214.15,188.62c-2.21-8.86-5.59-17.44-8.68-26-.57-1.58-3.09-.92-2.54.7l.36,1.12a.64.64,0,0,0,0,.41L205,169.6a145.77,145.77,0,0,0,4.87,14l.9,2.58c.3,1.06.58,2.13.85,3.19A1.34,1.34,0,0,0,214.15,188.62Z"/><path class="cls-13" d="M210,186.62c.34-.75.67-.39,1,0a.67.67,0,0,0,.35.6.66.66,0,0,0,.67-.15,2.85,2.85,0,0,0,.93-1.85l0,0a1,1,0,0,1-.13-.53l-.24-.17a4,4,0,0,1-1.4-1.41l-.55-1.57c-.26-1,1.23-1.6,2-.22.53.95,1.64,1,2.12,1.43a2.93,2.93,0,0,1,1.13,1.92h0a14.18,14.18,0,0,1,.2,3.45c0,.11,0,.22,0,.33a6.72,6.72,0,0,1-1.29,6.71c-.23.26-.61-.12-.38-.38l.17-.22a.26.26,0,0,1-.07-.16c-1-.15-2.55-1.51-3.69-3.89a10.49,10.49,0,0,1-.82-1.66C209.51,188.38,209.7,187.31,210,186.62Z"/><g class="cls-18"><path class="cls-2" d="M230,163.69a4.1,4.1,0,0,0,5-.43c.47-.42,1.08.35.61.77a5.1,5.1,0,0,1-6.15.45C228.83,164.14,229.42,163.36,230,163.69Z"/></g><path class="cls-19" d="M244.66,155.65a2.59,2.59,0,0,1,.59-.85,2.78,2.78,0,0,1,2.57,1.78c.46,1.24,0,3.06-1.48,3.24a3.13,3.13,0,0,1-2.06-.52q0-.56,0-1.17A13,13,0,0,1,244.66,155.65Z"/><path class="cls-13" d="M222.37,375.37c0,.17,0,.34,0,.52.14,3.18,2.76,5.76,5.63,7.13,4.66,2.24,10,2.82,14.69,4.91a22,22,0,0,1,3.27,1.94,8.28,8.28,0,0,1,1.73,1.44,9.39,9.39,0,0,1,1.25,2.54c.79,2,2.71,6.54,5,7.13,2.51.65,5.08-2.62,5.88-4.53a67,67,0,0,0,3.2-7.74,9.82,9.82,0,0,0-1-8.09c-2.45-3.54-7.3-4.16-11.33-5.69s-7.55-3.69-11.3-5.57c-3.09-1.55-7.44-4.09-11-3.87-2.92.18-4.41,3.51-5.27,6.3A13.88,13.88,0,0,0,222.37,375.37Z"/><path class="cls-2" d="M256,376.77c.84,3.29,2.77,7.83,1.34,11a7.27,7.27,0,0,1-4.85,4.37c-1,.28-2,.38-3,.69a3.85,3.85,0,0,0-2.4,1.81,3.47,3.47,0,0,0,.48,3.36c1.26,1.8,3.45,2.49,4.91,4.06a14.17,14.17,0,0,1,2.11,4c2.19,4.65,3.22,9.09,4.47,14.06.56,2.23,1.54,4.61,3.61,5.6a5.51,5.51,0,0,0,4.8-.2c8-4.08,4.1-18.79,2-25.36-.81-2.56-1.83-5.26-1.1-7.84.54-1.89,2-3.46,2.74-5.28,1.3-3.07.42-8.41-2.9-10.26C267.1,376.09,255.64,375.51,256,376.77Z"/><path class="cls-13" d="M174.4,361.49c.68-5.71,5.27-14.3,9.9-17.87,7.49-5.79,20.6,2.42,27.15,6.25,12.2,7.14,23.87,15.5,35.88,23.06A10.6,10.6,0,0,1,250,375c2.69,3.24.43,8.57-3.32,10.47s-8.24,1.35-12.39.66c-14.52-2.41-28.13-6.72-42.09-11.19-5-1.61-14.81-3.38-17.22-8.66A9,9,0,0,1,174.4,361.49Z"/><path class="cls-2" d="M241.12,132.92c-.58.8-1.16,1.6-1.68,2.41-2.52,3.95-1.64,8,.57,11.88a27.32,27.32,0,0,1,2.31,3.93c1.05,2.83,0,6,.65,9,.58,2.7,2.51,4.87,4.36,6.92,3.53,3.9,6.39,6.21,11.57,5,3.52-.81,9.43-2.92,12.14-5.53,3.7-3.57,3-10.74,2.81-15.37q-1-20.19-.32-40.42c.21-6.56,1.07-13.2,1-19.75,0-5.08.47-11.15-1.33-16-1.33-3.59-4.44-6.78-8.26-7-3.16-.21-6.13,1.59-8.42,3.77a24.61,24.61,0,0,0-5.46,26.73c.89,2.06,2.06,4.47.9,6.4a7.18,7.18,0,0,1-2.3,2c-3.5,2.35-6.58,5.92-6.75,10.13-.14,3.41,1.64,6.76,1.09,10.13A14.11,14.11,0,0,1,241.12,132.92Z"/><path class="cls-14" d="M271.74,275.62H230.86c-.36,2.46-.83,4.91-1.4,7.27-.84,3.53-3.9,4.9-7.11,6.31-13.77,6-28.6,9.51-42,16.22s-26,17.66-29.31,32.31c-1.61,7-2.38,15.3,1.79,21.39,5.05,7.4,13.26,10.12,20,15.5,2.86,2.28,5.24,5.4,8.72,6.51,3,.94,6.36.27,9.15,1.65,3.69,1.82,5.57,6.89,9.66,7.35q3.87-16.42,7.73-32.84c.83-3.51,4.4-8.89,1.83-11.26-1.36-1.26-17.55-5.4-18.6-4.79,6.58-3.79,14.74-2.44,22.33-2.27a66.53,66.53,0,0,0,32.22-7.76c4.72-2.48,8.71-5.92,13.15-8.72,4.94-3.12,9.43-7,11.64-12.52,2.45-6.16,2.28-13,2-19.51C272.39,285.51,272.08,280.56,271.74,275.62Z"/><path class="cls-2" d="M227.55,151a5.62,5.62,0,0,1-.53-.46,8.48,8.48,0,0,1-1.82-3.76,13.55,13.55,0,0,1-.55-6.58c.5-2.17,2.19-4.2,4.4-4.44.73-.08,1.47,0,2.19-.1a5,5,0,0,0,3.24-2.81c.7-1.3,1.14-2.75,2-4a13.25,13.25,0,0,1,4.1-3.59c2.45-1.54,5.39-2.93,8.15-2.06,3,.93,4.61,4.18,4.91,7.26s-.41,6.17-.56,9.27a39.51,39.51,0,0,1-.29,5.44c-1.05,5.76-7,5.59-11.72,6.19C237.6,151.82,230.8,153.38,227.55,151Z"/><path class="cls-20" d="M602.32,576.88H380a9.59,9.59,0,0,1-9.6-9.59h0a9.6,9.6,0,0,1,9.6-9.6h222.3a9.6,9.6,0,0,1,9.6,9.6h0A9.59,9.59,0,0,1,602.32,576.88Z"/><path class="cls-20" d="M341.63,591.28H292.06a6.4,6.4,0,0,1-6.4-6.4h0a6.4,6.4,0,0,1,6.4-6.4h49.57a6.4,6.4,0,0,1,6.4,6.4h0A6.4,6.4,0,0,1,341.63,591.28Z"/><path class="cls-21" d="M417.31,569.58H604.79c10.28-3.8,19.94-9,28-16.35,21.61-19.72,21.74-49.58,9.65-74.15a106.75,106.75,0,0,1-10.86-50c.25-8.4,1.49-16.84.43-25.18-2.23-17.67-15-33-31-40.81s-34.74-8.78-52.22-5.38C520.43,363.24,497.69,381,495,410.88c-1.53,17.16,1.76,34.48.26,51.64-1.27,14.5-7.22,29.9-18.73,38a31,31,0,0,1-6.92,3.7c-8.08,3.1-17.17,2.69-25.25,5.8-5.54,2.13-10.33,5.81-14.95,9.54-3.7,3-7.47,6.19-9.33,10.56-2.28,5.34-4.1,12.69-5.82,18.4a25.34,25.34,0,0,0,1.35,18.1A24,24,0,0,0,417.31,569.58Z"/><path class="cls-2" d="M521.46,461.12c-5.35-5.13-11.08-9.91-16.11-15.36-7.61-8.23-13.8-18.92-12.6-30.06.42-3.92,1.73-7.92.63-11.7-.85-2.93-3-5.24-4.63-7.84-3.93-6.39-4.23-14.66-1.5-21.65A33.21,33.21,0,0,1,502,358.15c3-1.69,6.32-3.07,8.62-5.65,7.46-8.4,1.41-22.19,7.59-31.34,5.85-8.68,22.19-.23,28.5,3.87a26.83,26.83,0,0,1,7.22,6.41c3.65,5.24,5.4,11.58,6.39,17.89.61,3.9,1.11,8.18,3.92,10.95s6.74,3.19,10.33,4.37a26.75,26.75,0,0,1,14.16,11.16c2.34,3.78,3.82,8.26,7.24,11.11,3,2.51,7,3.34,10.59,4.93,21.1,9.34,20.77,38.09,17.45,57.18-2.37,13.58-6.82,27.76-17.53,36.44A38.51,38.51,0,0,1,588,493.24c-7.28,1-12.78-6.14-19.53-8.76a21.31,21.31,0,0,0-6.27-1.57c-1.84-.11-3.69.14-5.52-.08-6.23-.75-12.14-3.22-17.87-5.67a22.82,22.82,0,0,1-4.77-2.5,27.88,27.88,0,0,1-4.86-5.25A92.14,92.14,0,0,0,521.46,461.12Z"/><path class="cls-22" d="M503.71,408.25A58,58,0,0,1,458.89,446c2.51,4.31,3.55,8.24,4.9,13,13.94.18,28.5-3.71,38.43-13.51s13.86-26.21,6.79-38.22C508.14,405.85,504.26,406.64,503.71,408.25Z"/><path class="cls-23" d="M496.2,400.16c2.35-6.36,6.55-12.54,9.55-18.34q2.61-5,5.21-10.08c1.16-2.24,2.53-7,5.13-8,2.09-.78,4.59,1,6.5,1.72,2.81,1,5.7,1.77,8.52,2.78,5.6,2,11.15,4.58,15.25,9S553.5,388,553,394.4c-.28,3.66-1.86,7.07-2.71,10.64a50,50,0,0,0-.86,12.76,376.48,376.48,0,0,0,3,39.4c.3,2.28.61,4.7-.28,6.83-2.25,5.35-16.43,4-21.47,4.43-8.06.71-17.34,2.65-24.94-1a200.38,200.38,0,0,1-1.45-25.09c0-7,2-14.05-2.45-20.05-3.86-5.23-8.35-9.89-7.14-16.87A29.76,29.76,0,0,1,496.2,400.16Z"/><path class="cls-13" d="M513.83,361.08a39.68,39.68,0,0,0,0-6.54c-.2-1.77-1.48-2.51-2.82-3.61a18.71,18.71,0,0,1-5.58-8.63c-2.72-8-3.07-17.73,4.4-23.35,4.22-3.18,10.43-3.75,14.87-.87,6.31,4.09,7.18,12.83,7.4,20.35q.25,8.77.52,17.56c.19,6.29.69,14.21-5.88,17.52a10.5,10.5,0,0,1-7.41.74,7.86,7.86,0,0,1-3.85-2.26C513,369.17,513.65,364.55,513.83,361.08Z"/><path class="cls-24" d="M515.88,353.57c.56.94,1.3,1.85,1.76,2.84.69,1.47,1.18,3,1.83,4.51a22.82,22.82,0,0,0,5,7.22,7.65,7.65,0,0,0,3.3,2.11,3.36,3.36,0,0,0,3.56-1.09,5.08,5.08,0,0,0,.67-2.27c1-7.27,1.47-14.71.08-21.9C528.4,349.82,521.89,353.68,515.88,353.57Z"/><path class="cls-25" d="M369.91,567.8a27.72,27.72,0,0,0,2.3,1.78H571.48c8.86-4.14,17-9.72,23.08-17.34,7.73-9.77,11.43-23.29,7.36-35.06-2.14-6.2-6.24-11.56-10.84-16.25a83.81,83.81,0,0,0-45.69-23.79l9.69,1.12c-22.88-6.08-47-4.4-70.63-2.67l-65,4.74c-14.28,1-28.7,1.39-38.8,12.29a77.89,77.89,0,0,0-19.92,42.09C359.17,546.53,361,559.92,369.91,567.8Z"/><path class="cls-13" d="M356.75,559.4l9.24-9.5A79.76,79.76,0,0,0,375.33,539,39.31,39.31,0,0,0,380.44,528c1-3.49,1.46-7.41-.3-10.58-2-3.55-6.39-5.25-10.43-4.84s-7.71,2.57-10.81,5.2c-7,5.94-11.53,14.11-15.77,22.13a151,151,0,0,1-15.05,23.63c-1.92,2.44-3.9,5.67-2.48,8.42,1.13,2.2,3.89,2.91,6.35,3.14,5.09.47,10-.4,13.62-4.15Z"/><path class="cls-2" d="M330.57,562.36a3,3,0,0,0-2.14-.3c-2.07.54-3.57,3.26-5.61,4.25a44.27,44.27,0,0,1-9.45,3.15c-1.9.44-3.83.77-5.76,1.09l-8.91,1.52a21.27,21.27,0,0,0-6,1.64c-5.18,2.59-4.48,8.65.47,10.92,3.64,1.67,8.44,1.68,12.34,1.07,9.94-1.55,19.9,1.1,29.86,0,7.49-.82,9.59-6.37,11.61-12.9.31-1,.69-2,1-3-2.4-1-5.55-.57-8.17-1.52a20.21,20.21,0,0,1-6.58-3.93A13,13,0,0,0,330.57,562.36Z"/><path class="cls-26" d="M554,465.87c-.94-3.9-2.34-7.92-5.25-10.45s-7.7-2.91-10.12.17c-.82,1-1.29,2.36-2.12,3.39-2.5,3.11-8.76,1-12,.93-5-.13-10.09.17-15.13.5-12.28.83-24.54,1.9-36.81,3l-34.33,3c-5.83.51-11.69,1.26-17.52,1.58-5.06.28-9.2-.88-14.17,1.44-4.17,1.95-7.69,5-11.19,8-5.22,4.48-10.52,8.88-15.7,13.42-3,2.59-5.88,5.23-8.72,7.95-8,7.62-15.29,15.87-22.61,24.11L329.8,543.72c11.74,9.08,22.4,19.47,32.87,30,1.86-1.69,3.67-3.7,4.95-4.85,2.72-2.43,5.37-5,7.94-7.56a11.56,11.56,0,0,0,3.14-4.5c.41-1.41.29-2.92.6-4.35,1-4.67,6.05-7,9.68-10.12,5.23-4.46,6-10.71,9.37-16.28,3-5,9.06-7.16,13.15-11.29,3.81-3.86,5.7-9.21,8.95-13.55,2.66-3.56,9.19-8.49,13.67-5.21,3.55,2.61,3,8.58,7.34,10.72,2.94,1.46,6.48,1.38,9.65,1.95,10.82,1.92,21.75,3,32.67,4.06l18.65,1.83c10.35,1,21,2,31-1,7.95-2.36,15.67-7.74,19.67-15.71a26.7,26.7,0,0,0,2.13-6.06C557.13,483.48,555.84,473.66,554,465.87Z"/><path class="cls-13" d="M563.65,392.36c12.16,6.79,14.06,21.71,14.45,35,.2,6.82-.19,13.8-2.75,20.12-6.87,16.94-27.67,21.2-43.92,20.63a184.78,184.78,0,0,1-61.21-12.68,36.34,36.34,0,0,1,1.19-10.57,152.67,152.67,0,0,0,38,5.05c9.29.06,18.72-.75,27.38-3.8,5.59-2,11.09-5.15,13.53-10.12,4.38-8.91-2.94-18.47-4-27.33-.37-3.12-.71-6.37.39-9.3a19.09,19.09,0,0,1,2-3.57,13.48,13.48,0,0,1,4-4.43c2.53-1.52,5.8-1.3,8.52-.15C562.08,391.54,562.89,391.94,563.65,392.36Z"/><path class="cls-2" d="M406.37,466.53h85.7a3.42,3.42,0,0,0,1.69-.43h0c2.36-1.35,1.19-4.36-1.69-4.36h-85.7a3.42,3.42,0,0,0-1.69.43h0C402.32,463.51,403.49,466.53,406.37,466.53Z"/><path class="cls-2" d="M405.78,466.75H487.1a1.24,1.24,0,0,0,1-1.95l-27.73-40.69a1.24,1.24,0,0,0-1-.55H378.05a1.25,1.25,0,0,0-1,1.95l27.73,40.7A1.24,1.24,0,0,0,405.78,466.75Z"/><path class="cls-2" d="M514.53,325.18a12.09,12.09,0,0,1,7.22.18,13.86,13.86,0,0,1,6.56,5c2,2.81,2.2,5.2,2.51,8.58q1,11.53,2.08,23.08a8.63,8.63,0,0,0,.88,3.63,6.85,6.85,0,0,0,4,2.78c2.81.9,6,1,8.58-.5a10.42,10.42,0,0,0,4.54-7.32,30.55,30.55,0,0,0-.19-8.85c-.78-6.59-.21-14.55-3.59-20.46-2.3-4.54-5.65-8.44-9-12.26-3.18-3.62-6.51-7.3-10.84-9.42a31.19,31.19,0,0,0-7.7-2.35c-5.14-1-10.72-1.48-15.41.86s-9.77,12-4.06,15.82a9,9,0,0,0,2.66,1.06,18.24,18.24,0,0,0,7.18,1C511.62,325.88,513.1,325.49,514.53,325.18Z"/><path class="cls-13" d="M526.67,335.3c1.29-2.28,4.1-3.71,6.54-2.22s2.14,5.31,0,7.11-5.51,1.34-6.38-1.4a3.44,3.44,0,0,1-.12-1.54A1.72,1.72,0,0,1,526.67,335.3Z"/><path class="cls-27" d="M471.67,541c-4.24.2-8.47.46-12.7.82-7,.59-14.41,1.12-20.78-1.89a28.29,28.29,0,0,1-6.14-4.14c-37.56-32,59.47-47.81,78.23-44.18,7.38,1.43,14.42,4.26,21.72,6.06s15.19,2.52,22.2-.22c4.58-1.8,8.53-5,13.12-6.74,9.1-3.49,23.11-.67,26.56,9.3,4.13,11.88-2,22.59-13.17,27.46-7.34,3.19-15.4,3.48-22.78,6.44-8,3.24-17.06,3.59-25.65,4.47C512,540.45,491.82,540,471.67,541Z"/><path class="cls-23" d="M550.4,417.25a40.7,40.7,0,0,0-6.09,2l-5.16-8.39c-3.14-5.11-5.91-10.54-8.79-15.84-2.07-3.81-2.07-8.19-1.09-12.32.64-2.7.47-5,.81-7.63.51-3.83,1.9-7.57,2.4-11.45.1-.78,18.77,5.92,20.85,7.61A73.73,73.73,0,0,1,578,409.43c-4.24.41-8.08,2.57-12.09,4C560.88,415.24,555.53,415.93,550.4,417.25Z"/><path class="cls-28" d="M516,344.59a4.51,4.51,0,0,1-6,0"/><path class="cls-29" d="M432.7,440.66a4.4,4.4,0,1,0-4.68,7.46"/><path class="cls-13" d="M463.15,531.19c-2.19-6.2-3.55-12.8-5.47-19.11a28.88,28.88,0,0,0-3.61-8.21,11.86,11.86,0,0,0-7.18-5.05c-5-1-10.07,2.64-12.39,7.22-6,11.91-.88,25.11,6.92,34.67,2.65,3.25,5.53,6.3,8.26,9.49s4.72,7.41,7.53,10.42c4.32,4.64,11.84,1.61,15.38-2.57,4.24-5-1.22-11.8-4.11-16A46.35,46.35,0,0,1,463.15,531.19Z"/><path class="cls-2" d="M470.57,548c-.37.31-.77.77-1.37,1.31-2.57,2.33-5.22,4.77-8.71,5.53-1.67.37-3.43,0-5.1.37s-3.38,1.84-2.94,3.49c.55,2.11,2,3.19,2.27,5.46a32.78,32.78,0,0,1-.14,8.22A71.65,71.65,0,0,1,450,589c-1.15,3-3.4,7.6-1,10.57,1.76,2.21,5.24,2,7.81.84,3.84-1.75,6.75-5.08,8.94-8.69s3.76-7.55,5.69-11.3a64.75,64.75,0,0,1,6.23-9.86,23.08,23.08,0,0,0,3.06-4.61,10.24,10.24,0,0,0-1.88-10.6c-1.72-2-3.93-6.23-6.23-7.42C471.62,547.37,471.14,547.48,470.57,548Z"/><path class="cls-15" d="M412.59,505.53c.68,1.78,1,3.66,1.6,5.48a44.91,44.91,0,0,0,4.43,9l12.55,21.38,6.27,10.69c.27.47.74,1.47,1.31,2.64q17-9.94,33.24-21.19c-2.44-4-5.22-7.84-5.78-12.42-.29-2.32,0-4.69-.25-7-.69-5.61-4.71-10.14-8.07-14.7-6-8.16-10.27-17.43-15.36-26.2-.6-1-1.22-2.08-1.85-3.1a66.35,66.35,0,0,0-12.83-15.68,51.24,51.24,0,0,0-8.27-5.58c-2.44-1.42-4.25-3.45-6.9-4.55-11.55-4.74-20.63,4.58-21,16.25-.25,8.29,3.46,16.16,7.56,23.37q4.23,7.44,9.12,14.46A33.7,33.7,0,0,1,412.59,505.53Z"/><path class="cls-30" d="M539.14,403a82.11,82.11,0,0,1-3,28.62c.5-1.74,5.38-4.79,6.77-6.17,1.57-1.58,5.41-4.46,5.64-6.8S546,413,544.9,411.28A91.85,91.85,0,0,0,539.14,403Z"/><path class="cls-6" d="M202.33,153.45l-17.89-10.94h-87A16.17,16.17,0,0,1,81.3,126.3V112.22A16.17,16.17,0,0,1,97.42,96h88.8a16.16,16.16,0,0,1,16.11,16.21Z"/><ellipse class="cls-31" cx="158.82" cy="119.26" rx="3.4" ry="3.42"/><ellipse class="cls-31" cx="138.42" cy="119.26" rx="3.4" ry="3.42"/><ellipse class="cls-31" cx="118.02" cy="119.26" rx="3.4" ry="3.42"/><path class="cls-20" d="M287.84,556.09H261a5.84,5.84,0,0,1-5.85-5.84h0A5.85,5.85,0,0,1,261,544.4h26.83a5.84,5.84,0,0,1,5.84,5.85h0A5.83,5.83,0,0,1,287.84,556.09Z"/><path class="cls-21" d="M269.31,493.8c-1.47-5.69-3.44-11.65-1.84-17.31,1.07-3.77,3.64-7,4.68-10.76,1.71-6.14-.85-12.76.27-19,1.06-6,5.28-10.85,7.55-16.47,3-7.41,2.5-15.8,5-23.37.81-2.43,2-4.88,4.21-6.26s5.45-1.21,6.89.91a7,7,0,0,1,.83,4.24c-.64,15.73-13.4,29.87-11.07,45.45.67,4.43,2.55,8.9,1.44,13.24s-4.9,7.38-6.73,11.42c-2,4.43-1.47,9.54-.82,14.35s1.35,9.86-.38,14.41c-.89,2.35-8.26,10.49-10.84,6.26-.31-.5,1.95-6.44,2-7.56A31,31,0,0,0,269.31,493.8Z"/><path class="cls-32" d="M263.46,500.66c0-.12,0-.24,0-.37-.19-3.75-2.81-6.92-5.63-9.4-4.68-4.11-9.11-14.8-9.93-21-.57-4.28.16-8.63-.16-12.93-.51-6.65-3.48-12.81-5.46-19.18a66,66,0,0,1-3-18.13c-.06-2.42.25-5.28,2.34-6.52a4.82,4.82,0,0,1,5.5.92,11.2,11.2,0,0,1,2.83,5.19c2.86,9.5,1.78,20,5.89,29.09,1.88,4.12,4.8,7.85,5.64,12.3.92,4.84-.77,9.94.44,14.71,2,8,9.84,12.54,10.48,21.2a13.92,13.92,0,0,0,.34,2.89,15.63,15.63,0,0,0,2.28,3.87c2.15,3.26,5.57,10.42,2.08,13.28-6.36,5.2-13.84-5.83-13.95-11.26C263.12,503.75,263.47,502.21,263.46,500.66Z"/><path class="cls-32" d="M283.39,489.76a20.24,20.24,0,0,1,2.58-6.17c2.4-3.39,6.84-5.33,8.1-9.29a28,28,0,0,0,.62-5.1,11,11,0,0,1,4.42-7.74,8.17,8.17,0,0,1,8.67-.48c3.39,2,4.43,6.42,5.07,10.33,2,12.16,3,25.33-2.91,36.14a3.21,3.21,0,0,1-1.06,1.3c-1.37.85-3.08-.53-3.84-2-3.64-6.87.91-16-2.68-22.86-.28-.55-.71-1.13-1.33-1.16a1.69,1.69,0,0,0-1.23.69c-1.83,2.05-2.05,5.15-3.86,7.21-1.62,1.86-4.27,2.56-6,4.36-1.42,1.5-2,3.58-2.53,5.58-1,3.6-2,18-7.32,11.77C275.48,506.91,281.72,495.44,283.39,489.76Z"/><path class="cls-33" d="M275,553.66h-.74a20.5,20.5,0,0,1-20.35-18L250.63,509h47.51l-2.75,26.29A20.52,20.52,0,0,1,275,553.66Z"/><path class="cls-34" d="M273.17,522q12.06-3.33,24.06-7l.29-.12.62-6H250.63l2.2,18C259.62,525.28,266.5,523.89,273.17,522Z"/><path class="cls-33" d="M296.17,511.85h-43a5.71,5.71,0,0,1-5.53-4.32h0a5.7,5.7,0,0,1,5.53-7.08h43a5.7,5.7,0,0,1,5.62,6.63h0A5.71,5.71,0,0,1,296.17,511.85Z"/><rect class="cls-20" x="558.36" y="613.76" width="53.62" height="14.3" rx="4"/><path class="cls-33" d="M556,563.92l56.2,1.14-5,40.41a24.53,24.53,0,0,1-23.1,17.3h0a24.54,24.54,0,0,1-24.45-20Z"/><path class="cls-2" d="M599.46,470c0-.07,0-.14,0-.21-.43-6,3.78-11.89,2.61-17.84a2.31,2.31,0,0,0-.92-1.63c-.95-.54-2.09.3-2.77,1.15-4.16,5.22-3.75,12.1-3,18.33.83,6.69-2.46,12.12-3.52,18.68-.74,4.57.11,8.7-.84,13.14-1.11,5.23-1.76,10-.08,15.21.7,2.21,1.74,4.43,1.53,6.75-.25,2.82-2.27,5.12-3.35,7.74-2.89,7,1.09,15.79-2.88,22.23-.41.66-1,1.35-1.82,1.31-1,0-1.48-1.09-1.81-2-4.48-12.25-9-26.07-7.16-39.27.4-2.88,1.14-5.73,1.34-8.64a46.69,46.69,0,0,0-.38-8q-1-9.43-2-18.86a6.84,6.84,0,0,0-.94-3.31,2.32,2.32,0,0,0-3-.81,3.09,3.09,0,0,0-1.06,2.14c-1.1,6.37,1.33,12.88.75,19.33-.32,3.61-1.57,7.07-2.26,10.63-1.53,7.86,1,18.1,2.44,25.9,1.06,5.55,1.56,11.25,2.35,16.84.43,3,1.71,5.94,2,8.91.25,2.28-1.65,9.82-3.88,4.49a15.38,15.38,0,0,1-1.14-6.93,20.42,20.42,0,0,0,.17-3.74,3.62,3.62,0,0,0-1.94-3c-1.19-.49-2.62,0-3.76-.62-1.33-.67-1.66-2.37-1.85-3.85-.55-4.43-1.08-9.07.47-13.27a23.76,23.76,0,0,0,1.44-4c.61-3.38-2.11-4.87-2.73-7.77-.58-2.74,1.54-5.11,1.88-7.71a4.84,4.84,0,0,0-2.72-4.89,3.88,3.88,0,0,1-1.54-.89,2.68,2.68,0,0,1,0-2.44,46.62,46.62,0,0,1,1.82-4.73,4.11,4.11,0,0,0-6.77-4.52c-1.44,1.55-1.44,3.9-1.35,6,.54,12.84,1.09,25.74,3.66,38.32a90.79,90.79,0,0,0,8.7,24.92c2,3.62,4.8,6.88,6.53,10.53,2.49,5.25,4.14,12.63,11.82,11.07,4.31-.88,7.6-4.3,10.36-7.72,4.12-5.1,7.86-12,5-17.91-.78-1.61-2-3-2.56-4.69a12.43,12.43,0,0,1-.4-4.39,88.94,88.94,0,0,1,1.92-15.42c1.24-5.83,3.72-12.74,2-18.71-1.49-5.08-3.2-9.09-1.86-14.69s5.8-10.72,5.64-16.61C603.46,479.51,599.91,475.06,599.46,470Z"/><path class="cls-32" d="M566,550.17a46.09,46.09,0,0,1,2.15,14.56c-.05,3.53-.47,7.16-.14,10.64h41.25a27.74,27.74,0,0,0,1.4-12.3c-.59-4.65-2.15-10.05,1-13.5,1.06-1.15,2.54-1.89,3.52-3.11,2.4-3,1-7.38-.72-10.8-3-6-4.67-12-.51-17.75,3.22-4.44,8.67-7.54,9.83-13.27,1.55-7.67-6.24-16-2.35-22.76,1.07-1.88,2.88-3.2,4.21-4.9a11.79,11.79,0,0,0,1.76-11.18c-.87-2.34-3.11-5.52-5.65-6.29-3.65-1.1-3.62.61-4.85,4.13a51.7,51.7,0,0,0-2.81,20c.61,10.23-3.43,21.57-5.07,31.69-.89,5.49-1.94,11-3,16.41a103.13,103.13,0,0,1-2.18,10.16c-.5,1.64-3,4.88-2.86,6.38-1.12-13.2,5.56-25.75,7.26-38.89a5.74,5.74,0,0,0-.31-3.44,23.15,23.15,0,0,0-1.76-2.11c-2.67-3.71.86-12.35,1.41-16.69,1-7.51,1.29-15.14,1.84-22.69.68-9.13,2-17.93.88-27.18a1.5,1.5,0,0,0-.36-1,1,1,0,0,0-1.41.19,2.85,2.85,0,0,0-.56,1.47c-2.13,13.36-2.72,27-4.81,40.48-2.29,14.64-3.92,29.31-5.57,44-1.59,14.2-5.06,28.3-6.74,42.56-.37,3.12-1.43,7-4.55,7.41-2.76.34-4.87-2.64-5.22-5.4-.93-7.41,5.47-13.5,8.24-20.44a28.49,28.49,0,0,0,1-16.11c-1.11-5.46-3.23-11.67.06-16.17,1.32-1.82,3.39-3.05,4.43-5a11.32,11.32,0,0,0,1-4.87,110,110,0,0,0-.49-15.72c-.46-4.54-2.16-9.44-1.77-14,.75-8.88,3.22-17.56,2.74-26.6-.42-7.81-6.62,4.31-6.8,7.46-.23,4.13.48,8.3-.09,12.4-.65,4.62-2.93,9.13-2.2,13.74a4,4,0,0,1,0,1.81c-.19.58-.89,1-1.42.74a1.34,1.34,0,0,1-.53-.74c-3.08-7.82,4.25-21.73-2.24-28.23-5.14,6.37-3.9,20.93-3.55,28.7.89,19.89,4.27,40.07.47,59.86a6.44,6.44,0,0,1-1.74,3.86c-1.81,1.56-4.81.68-6.35-1.15s-2.06-4.29-2.67-6.6-1.49-4.75-3.45-6.14c-2,2.07-2.47,5.2-2.1,8S565.09,547.44,566,550.17Z"/><polygon class="cls-35" points="609.98 586.51 563.55 605.09 557.05 574.81 609.98 586.51"/><rect class="cls-33" x="550.56" y="558.66" width="66.86" height="27.86" rx="3.9"/><path class="cls-20" d="M276.06,620.07H29.77a9.59,9.59,0,0,1-9.59-9.6h0a9.59,9.59,0,0,1,9.59-9.6H276.06a9.6,9.6,0,0,1,9.6,9.6h0A9.6,9.6,0,0,1,276.06,620.07Z"/><path class="cls-22" d="M111.8,448c.14-3.81-4.16-7.07-7.78-5a11.49,11.49,0,0,0-3.47,3.79,214.47,214.47,0,0,0-12.12,19.58c-3,5.76-5.52,11.81-9.09,17.26s-8.87,9-11.84,14.82c-2.3,4.53-3,10.52.15,15.34a15.38,15.38,0,0,0,13.64,6.58,18,18,0,0,0,12.29-6.77c6.61-7.82,7.33-17.83,9.23-27.44q3.15-16,7.68-31.79A28.74,28.74,0,0,0,111.8,448Z"/><path class="cls-22" d="M140,529.06a77.69,77.69,0,0,1,1.23-28.37c1.22-4.93,3.57-10.27,8.35-12,8.74-3.14,15,5.79,17,12.79,1.49,5.15,3.46,10.36,4.7,15.49,1.57,6.52,2.37,13.35,3.33,20,2,13.57,3.39,27.21,4.7,40.85a18.92,18.92,0,0,1-.21,7.08,10.38,10.38,0,0,1-7.7,7,11.91,11.91,0,0,1-10.18-2.8,12.76,12.76,0,0,1-3.24-4.49,31,31,0,0,1-1.58-6,67.06,67.06,0,0,0-4.05-12.75c-1.73-4-4.7-7.63-6.17-11.68A121,121,0,0,1,140,529.06Z"/><path class="cls-26" d="M180.77,563.26c-1.3-7.71-3.88-15.34-5.49-23.07-1.68-8.08-3.06-16.23-4.55-24.35A163.9,163.9,0,0,0,149,459a16.61,16.61,0,0,0-2.53-3.4c-2.25-2.16-5.46-3-8.55-3.31a22.59,22.59,0,0,0-11.39,1.3,13.16,13.16,0,0,0-3.68,2.43,50.16,50.16,0,0,0-7.68,5.48C92.79,480.34,78,506.3,59.59,528.92c-5.2,6.41-10.5,12.94-12.91,21-2.51,8.32-7.34,15.23-8.13,24.24,0,.43-.06.86-.08,1.28a32.47,32.47,0,0,0,4.07,17.78c3.94,6.82,9.68,9,17.31,9.95a55.47,55.47,0,0,0,19.64-1c5.06-1.2,12.26-2.74,16.33-6.08a28.65,28.65,0,0,0,4.34-4.79c8-10.27,15.13-20.58,20.33-32.56,4.3-9.92,7.1-20.4,10.62-30.53.31.87.61,1.74.92,2.6,2.56,6.9,4.85,14.86,8.78,21.11a68.8,68.8,0,0,1,4.81,9.36c.83,1.89,2.87,9.64,4.59,10.5,6.29-.33,12.57-.86,18.83-1.53,2.4-.64,4.81-1.26,7.23-1.81,1.72-.73,3.43-1.52,5.13-2.31A27.36,27.36,0,0,1,180.77,563.26Z"/><path class="cls-13" d="M157.24,440.78c0-.08,0-.16-.05-.24a18.54,18.54,0,0,0-1-4A22.68,22.68,0,0,0,154,432c-.58-1.05-1.18-2.09-1.78-3.14a35.52,35.52,0,0,1-4-9c-.77-3-1.13-6-2.21-8.93-.44-1.17-2.35-1.09-2.31.32A54.1,54.1,0,0,0,145,421.57c0,.13,0,.26,0,.39a.32.32,0,0,0,0,.09,25.32,25.32,0,0,0-.14,3.12,2.7,2.7,0,0,0-1.17,2.11l-.06,0c-1.58-.85-3.11,1.49-1.52,2.35l.06,0c-1,.17-1.86,1.38-.87,2.23a32.85,32.85,0,0,1,9.26,12.31,3.6,3.6,0,0,0,1.93,2,3,3,0,0,0,3.51.3,1.31,1.31,0,0,0,1.2-.73,1.66,1.66,0,0,0,.51-1,2,2,0,0,0,.24-1.3A9.53,9.53,0,0,0,157.24,440.78Z"/><path class="cls-13" d="M157.22,440.18a15.11,15.11,0,0,0-1.18-3.55c-2.88-5.57-14.93-6.95-16.06.73a.43.43,0,0,1-.06.17,6.37,6.37,0,0,0,2.2,3.38c.68.59,1.73.5,2.44,1a3.18,3.18,0,0,1,1.05,1.73c1.72,3.27,1.27,7.37.1,11.14a6.21,6.21,0,0,0,1.87-.36,10.08,10.08,0,0,1,5.28-.13c1.4.5,2.3,2.55,4.06,2.22.84-.16,1.12-1.2,1.2-2A45.51,45.51,0,0,0,157.22,440.18Z"/><path class="cls-2" d="M214.58,598a4.56,4.56,0,0,0-1.45-2.15,10.4,10.4,0,0,0-3.88-1.37,46.71,46.71,0,0,1-21.66-11.62c-2-1.89-4.73-7.08-7.68-7-2.78,0-4.78,3.55-7,4.83a22,22,0,0,1-17,2.1c-1,4.81-.5,10.32-.12,14.82a4.11,4.11,0,0,0,.6,2.12,4.65,4.65,0,0,0,3.1,1.4c12.13,2.08,24.25,2.68,36.45,3.91,4.39.43,8.92,1.34,13.33.63,1.88-.3,4.15-.84,5.17-2.64A6.6,6.6,0,0,0,214.58,598Z"/><path class="cls-13" d="M49.73,435.64c1.69-2.33,3.41-4.66,5-7.08a82.08,82.08,0,0,0,8.91-20.27c.72-2.36,2-5.75,4.9-5.58,2.44.15,5.07,2.25,7.29,3.17,5,2.05,9.81,3.92,14.59,6.36l.36.2C87.18,425.37,80.4,438.34,75.85,451Q70,467.24,65.55,483.92h-.23c-4.12-.52-10.64-1.09-14.09-3.59-2.74-2-5.27-5.57-6.91-8.49a28.49,28.49,0,0,1-2.26-23C43.75,444,46.7,439.81,49.73,435.64Z"/><path class="cls-13" d="M85.3,430.94a76.25,76.25,0,0,1-8.24-.42c-1.13-.09-2.54-.29-3.92-.36a9.71,9.71,0,0,0-3.45.32c-3.31,1.13-3.71,4.44-7.15,1-1.91-1.93-5-4.89-4.84-7.78a14.1,14.1,0,0,1,1.37-4.39,101.66,101.66,0,0,0,5.09-15.11c.82-3.27,1.48-6.59,2-9.92.37-2.5-.23-4,1.81-5.28,1.73-1.11,5.32-1,7.32-1.07,3.28,0,6.16-1.83,9.3-2.54,3.79-.86,7.21-2.76,11.13-3.35,2-.31,4.26-.34,6,.76a7.62,7.62,0,0,1,2.8,3.72c1.3,3.23,1.39,6.81,1.26,10.29-.38,9.61-.93,21.22-7.7,28.78A15.85,15.85,0,0,1,93.86,429,18.89,18.89,0,0,1,85.3,430.94Z"/><path class="cls-14" d="M87.45,447.39a82,82,0,0,0-8.94-7.24c-12.86-9.31-27.09-9.79-38,2.25-16.42,18.1-22.34,43.71-21.89,68.14.27,14.7,2.62,29.25,5.46,43.65,1.43,7.22,3,14.41,4.51,21.63,1.21,6,.59,11.27,5.29,15.87,1.29,1.26,3.33,2.26,4.8,1.23a4.37,4.37,0,0,0,1.14-1.38c3.4-5.65,5.14-12.12,7.51-18.27,2.75-7.17,6-13.48,13.43-15.94,8.76-2.9,17.43-9.2,25.24-14,2.19-1.35,3.2-1.11,2.72-3.21-3.61-15.6-2.72-30.93.86-46.41,1.51-6.51,2.44-14.07,5-20.23,3-7.15,2.6-13.28-2-20.05A36.73,36.73,0,0,0,87.45,447.39Z"/><path class="cls-13" d="M245.34,597c1-3.63-2.3-7.88-4.29-10.42-4.62-5.9-8.66-12.21-12.82-18.43s-7.31-12.8-15.31-14.27c-6.11-1.12-14.14,2.67-13,9.86.6,3.63,3,6.66,5.36,9.5l6.57,8L221,592.31a29.32,29.32,0,0,0,4.86,5C229.57,600.09,243.53,603.35,245.34,597Z"/><path class="cls-15" d="M217.88,587.29q6.63-3.76,13.11-7.76a11.23,11.23,0,0,0,3.9-3.36c.05-.07-4.56-7.24-5-7.85q-4.51-6.23-9.29-12.25c-6.18-7.81-12.65-15.4-19.28-22.84-7.17-8-14.54-15.9-22-23.69-6.68-7-12.53-14.83-21.78-18.38l-.16-.06a50.87,50.87,0,0,0-11.88-.66c-15.52.95-24.71,9.55-36.14,19l-25,20.67c-16,13.2-32,26.43-46.75,41-.68.67-1.36,1.36-2,2.06a23.71,23.71,0,0,0-3.46,4.54c-3.42,6.14-.95,12.45,1.92,18.22,5.22,10.51,16.47,15.87,28.07,17.33C75.81,615,89.46,611,101,603.63c5.86-3.78,9.78-7.9,14-13.19,4.6-5.77,9.81-10.48,13-17.3,1.65-3.52,2.75-7.29,4.76-10.61,2.68-4.43,6.88-7.91,8.81-12.7,1.21-3,1.5-6.4,3.38-9,4.57-6.39,7.75,0,10.53,3.19s5.29,4.7,8.83,6.59c4.36,2.32,8,6.3,12.13,9.06,3.57,2.38,7.36,4.47,10.61,7.26,2.29,2,4.27,4.25,6.36,6.43a119.35,119.35,0,0,0,9.43,8.7c1.57,1.32,3.16,2.6,4.77,3.88,1.26,1,2.82,3.44,4.4,3.84,1.91.48,4.17-1.49,5.82-2.43Z"/><path class="cls-13" d="M154.33,450.19a5.81,5.81,0,0,1-2.23-.14,52.76,52.76,0,0,0-5.39-.2,31,31,0,0,1-3.49,11c-2.3,4.55-5.07,8.84-7.39,13.38-.78,1.53-1.6,3.13-2.39,4.76-3.26,7.47-5.61,15.4-4.36,23.57a9.78,9.78,0,0,0,1.71,4.49,2.82,2.82,0,0,0,2.07,1.07,31.59,31.59,0,0,0,7.59.12,17.41,17.41,0,0,0,3.55-1c4.37-3.2,7.5-8.93,9.16-13.52,2.44-6.75,2.69-13.79,3.73-20.79,1.11-7.42.91-15.27,1.31-22.77.05-.79,0-1.79-.78-2.08s-1.48.42-1.94,1.08A2.52,2.52,0,0,1,154.33,450.19Z"/><path class="cls-2" d="M133.21,439.27l7,8.11a2,2,0,0,0,3.41-1.05l6-51.75a2,2,0,0,0-.46-1.5l-7.71-8.91a1.47,1.47,0,0,0-2.58.79l-6.14,52.82A1.93,1.93,0,0,0,133.21,439.27Z"/><path class="cls-14" d="M44.11,451.35c.75-4.69,6.06-7.89,10-9.88,12.26-6.13,25.41,0,35.35,7.21,6.8,4.93,13.86,10.16,17.56,17.7,1.05,2.14,1.91,4.56,3.9,5.87,2.92,1.93,7,.64,10.2,1.92,2.78,1.08,5.19,5.44,8.12,5.72,1.48.15,6.7-3.93,5.47-5a139.57,139.57,0,0,0,20.94,15c0,.06,0,.11,0,.16-1.05,6.17-2.4,12.88-7.2,16.89-5.66,4.73-14,4-21.2,2.62-14.45-2.75-28.12-8-42.18-11.79-17.64-4.8-41.49-13.34-40.49-35.14C44.69,459.22,43.62,454.41,44.11,451.35Z"/><path class="cls-2" d="M223.61,611.27a4.41,4.41,0,0,1-3-1,3.62,3.62,0,0,1-.73-1.84c-1.14-6.32-1.68-10.89.28-16.95a46.15,46.15,0,0,0,12.19,1.69c2.28,0,6.07,0,8-1.48,1.49-1.17,1.91-5.51,3.25-5.87a1.46,1.46,0,0,1,1.25.5c2.61,2.31,4.45,5.46,7.35,7.39,2.45,1.62,5.41,2.21,8.29,2.77L272,598.71c2.41.46,4.95,1,6.73,2.69,3.23,3.08,2.41,6.69-1.39,8.56a18.56,18.56,0,0,1-5.75,1.5c-7.59,1.06-15.88.42-23.57.51C239.88,612.06,231.73,611.9,223.61,611.27Z"/><path class="cls-2" d="M59.68,407.61a25.41,25.41,0,0,0,.37-4.05c0-3.27-.28-6.52-.18-9.79.16-5.07,1.57-10.55,5.66-13.55,2.36-1.74,5.33-2.43,7.8-4s4.45-4.18,6.8-6.13a19,19,0,0,1,9.74-4.18c3.1-.39,5.9,1,8.9.2,2.31-.65,4.27-2.18,6.47-3.14s5-1.24,6.79.4c2.08,2,1.49,5.36.59,8.08a76.09,76.09,0,0,1-3.22,8.09,7.17,7.17,0,0,0-.91,3c0,.66.2,1.3.18,2a3.92,3.92,0,0,1-2.36,3.15,11.45,11.45,0,0,1-4,.87l-13.9,1.28c-3.51.33-7.28.93-9.56,4-2.73,3.72-.69,8.93-3.62,12.56-3.34,4.13-7.93,7.69-12.19,10.82a3.8,3.8,0,0,1-2.5,1A2.68,2.68,0,0,1,58.39,416a7.69,7.69,0,0,1,.23-3.23C59,411,59.4,409.33,59.68,407.61Z"/><path class="cls-13" d="M72.91,403.61c-2.17-.92-5.56-.94-7.36.38s-2,4.26-1.65,6.26a5.32,5.32,0,0,0,4.29,4.47c4.73.86,5.81-3.33,6.6-6.84a4,4,0,0,0-.07-2.86,3,3,0,0,0-1-1A7.68,7.68,0,0,0,72.91,403.61Z"/><path class="cls-13" d="M149.54,436.33a2.37,2.37,0,0,0-1.23.46c-.92.61-1.86,1.2-2.8,1.77A2.13,2.13,0,0,1,144,439c-.78-.17-1.07-1.1-1.57-1.72s-2.13-1.57-3-1c-1.46.92-.83,2.76.09,3.79,1.3,2.33,3.67,4,5.64,5.68.7.62,1.6,1.27,2.48,1a2.14,2.14,0,0,0,.78-.52c1.37-1.32,1.86-3.22,2.33-5,.34-1.29,1-3.68-.42-4.61A1.51,1.51,0,0,0,149.54,436.33Z"/><path class="cls-22" d="M110.31,435c-2.64,2.1-1.55,8.61,1.23,6.65,8.18-5.77,10.31-10.5,21.47-12.17,3.33-.51,4.53-4,1.17-3.54C122.14,427.7,119.84,427.35,110.31,435Z"/><path class="cls-22" d="M130,432.75a2.57,2.57,0,0,0-.67-.06,7.24,7.24,0,0,0-4.9,2c-1,1-1.68,2.65-3.18,3a1.15,1.15,0,0,1-1-.16,1.28,1.28,0,0,1-.36-.7,3.8,3.8,0,0,1,.55-2.95,9.54,9.54,0,0,1,2-2.1,5.07,5.07,0,0,0,.85-.75,1.47,1.47,0,0,0,.4-1c-.11-1.58-1.89-1.84-3-1.39-3.83,1.52-7.74,3.09-10.9,5.73a32.26,32.26,0,0,0-5.48,6.35c-1.55,2.22-2.52,4.73-4.14,7a3,3,0,0,0,.31,3.88,55,55,0,0,0,4.17,3.91c1.4,1.12,3.15,1.48,4.38,2.92a.64.64,0,0,0,.31-.42c.72-2.1,1.14-4.34,1.94-6.4a6.18,6.18,0,0,1,3.12-3.41c1.58-.73,3.38-1.07,4.88-2a15.71,15.71,0,0,0,4.1-3.91c1.15-1.47,2.2-3,3.44-4.44,1.1-1.24,2.79-1.46,3.92-2.68a1.58,1.58,0,0,0,.5-1.42A1.44,1.44,0,0,0,130,432.75Z"/><path class="cls-36" d="M95.33,423.65a2.72,2.72,0,0,1-2.76,2.3"/><path class="cls-36" d="M69.63,406.83c-1.18-.19-2.13,1.17-2,2.35a5.87,5.87,0,0,0,1.71,3.07"/><path class="cls-37" d="M60.77,488.05a187.35,187.35,0,0,0,27.72,11.07,149.77,149.77,0,0,0-5.63,17.78A22.31,22.31,0,0,1,80.77,523a1.21,1.21,0,0,1-.74.68,1.26,1.26,0,0,1-.79-.21c-6.83-3.71-9.37-12-13.26-18.74-2.81-4.89-6.7-9.53-7.13-15.15C58.79,488.85,60.1,487.72,60.77,488.05Z"/><path class="cls-38" d="M143.51,500.35a2.06,2.06,0,0,1,1.19,1,7.82,7.82,0,0,1-8.82,3.17"/><path class="cls-39" d="M92.5,414.15a5,5,0,0,0,6.61.57"/><path class="cls-6" d="M137.16,303.31c0,29.48,0,57.67,0,57.67L113,346.16a15.89,15.89,0,0,0-8.3-2.33H17.26A15.92,15.92,0,0,1,1.34,327.91V303.33a15.92,15.92,0,0,1,15.92-15.92h104A15.9,15.9,0,0,1,137.16,303.31Z"/><line class="cls-6" x1="95.92" y1="310.44" x2="34.82" y2="310.44"/><line class="cls-6" x1="95.92" y1="318.09" x2="34.82" y2="318.09"/><path class="cls-6" d="M526,193.05c0,32.6,0,99.16,0,99.16l26.8-16.39a17.58,17.58,0,0,1,9.18-2.58H647a17.61,17.61,0,0,0,17.6-17.61V193.07A17.6,17.6,0,0,0,647,175.46H543.55A17.59,17.59,0,0,0,526,193.05Z"/><rect class="cls-9" x="564.69" y="195.18" width="24.62" height="24.62"/><rect class="cls-9" x="564.69" y="229.94" width="24.62" height="24.62"/><rect class="cls-9" x="609.58" y="195.18" width="24.62" height="24.62"/><rect class="cls-33" x="609.58" y="229.94" width="24.62" height="24.62"/><polyline class="cls-6" points="566.14 200.46 577.88 214.05 596.41 187.75"/><polyline class="cls-6" points="566.14 236.66 577.88 250.25 596.41 223.96"/><polyline class="cls-6" points="609.59 200.46 621.33 214.05 640 187.94"/><path class="cls-7" d="M333.48,278.66h0a40.87,40.87,0,0,1-40.87-40.87h0a40.87,40.87,0,0,1,40.87-40.87h0a40.87,40.87,0,0,1,40.87,40.87h0A40.87,40.87,0,0,1,333.48,278.66Z"/><g class="cls-40"><path class="cls-2" d="M328.53,258.05a67.41,67.41,0,0,0,18-2.4c5-1.38,10.11-3.48,13.57-7.4,1.75-2,3-4.93,1.71-7.22-1.11-1.91-3.52-2.51-5.44-3.59-3.46-1.94-5.4-5.56-6.7-9.17s-1.42-8.34-4-11.31c-1.64-1.9-5.09-2.5-7.45-2.58-3.46-.12-7.19.38-10.15,2.31-4.23,2.75-6.15,7.25-7.16,12.06-.53,2.49-.56,5.08-1.24,7.54-1.25,4.58-4.58,8.26-6.87,12.42a4.26,4.26,0,0,0-.72,2.84,3.82,3.82,0,0,0,1.16,1.81c3.79,3.77,9.57,4.65,14.93,4.69Z"/><path class="cls-10" d="M325.64,230.82l.05-.09a6.74,6.74,0,0,1,1.89-2.09c2.64-2,7.05-2.79,10-1.15a5.45,5.45,0,0,1,2.58,4.13,21.55,21.55,0,0,1,0,4.25c-.3,5.5.4,21.8,3.55,22.71,4.07,1.17,2.78,4.73,4.07,4.49-4.85.91-8.65,8.33-13.56,8.94s-11.07-8.46-15.07-11.36c2.62-.28,4.61-1.4,5.35-4.15,1.72-6.4,1.22-13.16.62-19.8C325,234.72,324.74,232.59,325.64,230.82Z"/><path class="cls-15" d="M371.41,272.41c-2.86-4.18-7.14-7-11.76-8.9a66.45,66.45,0,0,0-7.14-2.39c-1.21-.34-2.42-.66-3.63-1a15.08,15.08,0,0,0-3.53-.88c.22,1-1.2,2.34-1.87,3a13.64,13.64,0,0,1-11.27,3.26A19.64,19.64,0,0,1,321.62,260c-1.1.16-2.2.38-3.3.58-1.86.35-3.65,1-5.52,1.52-4.22,1.22-8.91,2.8-10.88,6.73-1.61,3.22-.89,7.07.08,10.53.28,1,.58,2,.85,3h72.42A27.2,27.2,0,0,0,371.41,272.41Z"/><ellipse class="cls-10" cx="331.98" cy="230.05" rx="12.78" ry="16.5"/><path class="cls-10" d="M322.27,229.9a3.38,3.38,0,0,0-4.78,0,2.47,2.47,0,0,0-.7,1.08,2.58,2.58,0,0,0-.3,1.31,3.37,3.37,0,0,0,1,2.38,3.49,3.49,0,0,0,2.39,1,3.44,3.44,0,0,0,2.39-1,2.5,2.5,0,0,0,.7-1.08,2.56,2.56,0,0,0,.29-1.3A3.38,3.38,0,0,0,322.27,229.9Z"/><path class="cls-10" d="M347.13,229.9a3.38,3.38,0,0,0-4.78,0,2.47,2.47,0,0,0-.7,1.08,2.57,2.57,0,0,0-.29,1.31,3.32,3.32,0,0,0,1,2.38,3.49,3.49,0,0,0,2.39,1,3.44,3.44,0,0,0,2.39-1,2.41,2.41,0,0,0,.7-1.08,2.56,2.56,0,0,0,.29-1.3A3.38,3.38,0,0,0,347.13,229.9Z"/><path class="cls-2" d="M345.6,215.32l-.21-.26a11.67,11.67,0,0,0-7.37-4.61,45.06,45.06,0,0,0-7.53-.08c-3.76.07-7.62-.34-11.18.85s-6.74,4.66-6,8.35c.63,3.24,4.08,5.32,7.38,5.5s6.49-1.1,9.55-2.36c2.54-1,5.23-2.54,7.88-3.2a3.78,3.78,0,0,1,3.08.54c2.61,2,1.07,6,3.1,8.24a1.87,1.87,0,0,0,1.18.65,2,2,0,0,0,1.74-1C349.83,224.19,348.26,218.64,345.6,215.32Z"/><path class="cls-9" d="M328.49,239.09c.67,3.91,5.51,3.91,6.71.12"/><path class="cls-41" d="M340.32,242.67c-.07.74-2.76,2-3.34,2.28a16.5,16.5,0,0,1-7.77,1.17c2,2.27,4.08,4.42,6.22,6.49a57.35,57.35,0,0,1,4.22,4.32C341.34,256.44,340.32,248.28,340.32,242.67Z"/></g><path class="cls-7" d="M333.48,153.92h0A40.87,40.87,0,0,1,292.61,113h0a40.87,40.87,0,0,1,40.87-40.87h0A40.87,40.87,0,0,1,374.35,113h0A40.87,40.87,0,0,1,333.48,153.92Z"/><g class="cls-42"><path class="cls-2" d="M328.58,122.28a8.7,8.7,0,0,0,1,2.25c.79,1.25,2,2.3,2.42,3.72a9.93,9.93,0,0,1-.06,4.37c-1.14,8,1.11,17.22,6.56,23.29a14.49,14.49,0,0,0,1.75,1.66h21.11c.62-.4,1.23-.83,1.81-1.29a18.52,18.52,0,0,0,4.68-5.22c1-1.82,1.69-3.84,2.55-5.75a73.12,73.12,0,0,0,3.15-6.79c.78-2.37.94-5.11-.36-7.25-1.73-2.82-5.68-4.12-6.44-7.34-.51-2.13.57-4.65-.69-6.44-1.76-2.48-6.12-1-8.32-3.15-1.28-1.23-1.35-3.2-1.46-5s-.48-3.79-2-4.67c-1-.57-2.29-.48-3.37-.94-1.62-.69-2.48-2.49-2.83-4.22a41.11,41.11,0,0,0-.91-5.21c-1.14-3.31-5.7-4.58-8.88-4.7-3.46-.12-7.19.39-10.15,2.31-2.71,1.77-6,5.28-5.88,8.71s3.21,5.9,4.58,9C328.51,113.58,327.4,118.32,328.58,122.28Z"/><path class="cls-10" d="M325.64,106.07l.05-.08a6.67,6.67,0,0,1,1.89-2.1c2.64-2,7.05-2.78,10-1.15a5.47,5.47,0,0,1,2.58,4.13,21.66,21.66,0,0,1,0,4.26c-.3,5.49.4,21.79,3.55,22.7,4.07,1.18,2.78,4.74,4.07,4.49-4.85.92-8.65,8.34-13.56,9s-11.07-8.46-15.07-11.37c2.62-.27,4.61-1.39,5.35-4.15,1.72-6.4,1.22-13.15.62-19.79C325,110,324.74,107.85,325.64,106.07Z"/><path class="cls-9" d="M349.16,157.57c0-.22-.05-.45-.08-.67-.4-3.6-.66-7.21-.85-10.83-.09-1.83-.17-3.67-.23-5.51-.05-1.38.37-4.06-.39-5.18-2.36,1.6-4.41,4.05-6.56,6q-3.51,3.14-7.16,6.1c-.28.23-12.92-10.56-14.32-11.41-1.38,1-1.49,5.38-1.83,7a39.57,39.57,0,0,0-1.11,8.16q0,3.18.05,6.36Z"/><path class="cls-43" d="M375.27,157.57a27.15,27.15,0,0,0-3.86-9.9c-5.12-7.5-15.27-10.53-23.53-12.89-3.87-1.1-4.06,1.17-4.72,5.08a86.68,86.68,0,0,0-.78,8.83c-.19,2.88-.39,5.9-.58,8.88Z"/><path class="cls-43" d="M302.85,157.57h25.09c-.59-2.38-1.33-4.76-1.89-7-1-3.92-2.64-8-3.77-12-.34-1.2-.55-2.45-.91-3.64-2.71.09-5.93,1.6-8.57,2.36-4.22,1.21-8.91,2.8-10.88,6.73-1.61,3.21-.89,7.06.08,10.52C302.28,155.56,302.58,156.56,302.85,157.57Z"/><ellipse class="cls-10" cx="331.98" cy="105.31" rx="12.78" ry="16.5"/><path class="cls-10" d="M322.27,105.15a3.55,3.55,0,0,0-2.39-1,3.49,3.49,0,0,0-2.39,1,2.5,2.5,0,0,0-.7,1.09,2.54,2.54,0,0,0-.3,1.3,3.41,3.41,0,0,0,1,2.39,3.38,3.38,0,0,0,4.78,0,2.59,2.59,0,0,0,.7-1.09,2.51,2.51,0,0,0,.29-1.3A3.4,3.4,0,0,0,322.27,105.15Z"/><path class="cls-10" d="M347.13,105.15a3.53,3.53,0,0,0-2.39-1,3.49,3.49,0,0,0-2.39,1,2.5,2.5,0,0,0-.7,1.09,2.53,2.53,0,0,0-.29,1.3,3.36,3.36,0,0,0,1,2.39,3.38,3.38,0,0,0,4.78,0,3.76,3.76,0,0,0,1-2.39A3.4,3.4,0,0,0,347.13,105.15Z"/><path class="cls-2" d="M345.56,90.58h0l-.21-.26a9.67,9.67,0,0,0-.88-.93,23.28,23.28,0,0,0-10.18-6.51,20.8,20.8,0,0,0-13.58.45,10.61,10.61,0,0,0-3.56,2.15,5.63,5.63,0,0,0-1.8,3.66,4.26,4.26,0,0,0,.09,1.07,6.49,6.49,0,0,0-1.73,2.23,3.83,3.83,0,0,0-.07,2.84,4.23,4.23,0,0,0-1.1,2.51,2.26,2.26,0,0,0,1.29,2.06,3.8,3.8,0,0,0,1.05,3.71,5.86,5.86,0,0,0,5.84.69c5.15-1.93,9.61-5.49,14.38-8.19a10.56,10.56,0,0,1,2.95-1.28,3.78,3.78,0,0,1,3.08.53c2.61,2,1.07,6,3.1,8.25a1.85,1.85,0,0,0,1.18.64,2,2,0,0,0,1.74-1C349.83,99.44,348.26,93.89,345.56,90.58Z"/><path class="cls-2" d="M345,157.57l7.84-2.89-4.23-19.92L344,133.23a165.86,165.86,0,0,0-2.6,18q-.24,3.19-.43,6.39Z"/><path class="cls-2" d="M328.4,157.57c-.22-1.53-.48-3.06-.79-4.58-.23-1.14-4.26-19.27-5.13-19.1l-4.54.87-1.38,22.81Z"/><path class="cls-9" d="M328.49,114.35c.67,3.9,5.51,3.9,6.71.11"/><path class="cls-44" d="M340.32,117.92c-.07.75-2.76,2-3.34,2.29a16.5,16.5,0,0,1-7.77,1.17c2,2.27,4.08,4.41,6.22,6.49a57.22,57.22,0,0,1,4.22,4.31C341.34,131.7,340.32,123.53,340.32,117.92Z"/></g></svg>