<svg id="Layer_1" data-name="Layer 1" xmlns="http://www.w3.org/2000/svg" xmlns:xlink="http://www.w3.org/1999/xlink" viewBox="0 0 826.48 564.82"><defs><style>.cls-1{fill:#6280c0;}.cls-2{fill:#b55d42;}.cls-3{fill:#323342;}.cls-4{fill:#4060ac;}.cls-5{fill:#3c3c50;}.cls-6{fill:url(#_åçûìßííûé_ãðàäèåíò_211);}.cls-7{fill:#814842;}.cls-8{fill:#febe10;}.cls-9{fill:#fbb615;}.cls-10{fill:#f6851f;}.cls-11{fill:#fff;}.cls-12{fill:#dde8f7;}.cls-13{fill:#2aaae2;}.cls-14{fill:#f79e84;}.cls-15{fill:#febf4f;}.cls-16{fill:#df8364;}.cls-17{fill:#c0def4;}</style><linearGradient id="_åçûìßííûé_ãðàäèåíò_211" x1="-1161.33" y1="519.61" x2="-1185.93" y2="113.63" gradientTransform="matrix(-1, 0, 0, 1, -975.67, 0)" gradientUnits="userSpaceOnUse"><stop offset="0.01" stop-color="#5f67b0"/><stop offset="0.63" stop-color="#473d7c"/><stop offset="1" stop-color="#3b2862"/></linearGradient></defs><title>2</title><g id="plants"><path class="cls-1" d="M102.12,432.67a1.93,1.93,0,0,0-1.2.42c-2,1.43-2.94,4.17-3,6.84a30,30,0,0,0,1.3,7.92q1.47,5.83,2.8,11.72c-3.72-3.41-7.75-8-11.59-11.34,0,0,0,0-.11-.09l-.46-.41a.17.17,0,0,1,.17-.06A93.91,93.91,0,0,0,80,434.19a22.87,22.87,0,0,0-5.51-4.85c-2.17-1.25-4.27-2.63-6.76-2.13a4,4,0,0,0-2.47,1.32,3.31,3.31,0,0,0-.4,2.58c.78,4.74,5,8.6,9.39,11.76,3.43,2.45,9.83,4.56,14.7,6.55a1.21,1.21,0,0,0,.4.09q5.59,5.22,11.07,10.71a49.9,49.9,0,0,0-13.28-2.82c-2.76-.2-5.66-.14-8.14,1.15a1.44,1.44,0,0,0-.84.85,1.36,1.36,0,0,0,.17.9c1.75,3.85,6.51,4.93,10.64,5.45,6.2.78,12.44,1.43,18.67,1.93q4.69,5,9.26,10.13c-2.32-.4-4.65-.8-7-1.18a20,20,0,0,0-6.9-.34,6.18,6.18,0,0,0-5,4,2.16,2.16,0,0,0-.08,1.26,2.63,2.63,0,0,0,.73,1.05c3.17,3.18,7.68,3.46,11.68,3.49,4.26,0,8.23-.9,12.29-1.58q5.11,6,10.07,12.36a44.08,44.08,0,0,0-8.85-2.57c-2.52-.44-5.2-.65-7.58.41a1.36,1.36,0,0,0-.84.77,1.5,1.5,0,0,0,.08.91c1.29,4,5.58,5.47,9.33,6.34,5.35,1.26,9.75,2.22,14.72,3.13q4.77,6.42,9.36,13.1l-5.48-1.33a18.52,18.52,0,0,0-6.66-.74,6.63,6.63,0,0,0-5.29,3.83,2.32,2.32,0,0,0-.22,1.3,2.4,2.4,0,0,0,.57,1.12c2.71,3.45,7,4,10.94,4.23a56.76,56.76,0,0,0,11.22-.86q4.22,6.42,8.25,13A41.84,41.84,0,0,0,156.2,537a17.36,17.36,0,0,0-4.31-.92,8.64,8.64,0,0,0-3.26.38,1.38,1.38,0,0,0-.93.71,1.91,1.91,0,0,0,0,1c.81,4.42,4.89,6.54,8.49,8,4.35,1.71,8,3.1,12,4.46l.81.28,1.06,1.89,5.14-8.25c.86-4.87,1.78-9.94,2.24-14.49.52-5,.8-10.67-1.8-14.47a2.1,2.1,0,0,0-.89-.84,1.49,1.49,0,0,0-1.16.16c-2.09,1-3.49,3.65-4.07,6.39a36.85,36.85,0,0,0-.42,8.48A92.5,92.5,0,0,0,170.47,545c-.5-.43-1-.84-1.53-1.24q-5.2-9.07-10.82-17.7a16.7,16.7,0,0,0-1.68-2.84,72.31,72.31,0,0,0,5.49-16.63,23.69,23.69,0,0,0,.62-6.61,11.31,11.31,0,0,0-2.36-6.39,3.13,3.13,0,0,0-2-1.25,2.41,2.41,0,0,0-1.84,1c-2.7,3-3.22,8.14-3.22,13,0,4.63-.22,8.41.51,13.08-3.32-4.86-6.74-9.56-10.23-14.17a3.2,3.2,0,0,0,.25.27c.2-6.46.48-13.89.41-20.36-.05-4.7-.39-10-3.4-13.21a2,2,0,0,0-1-.67,1.55,1.55,0,0,0-1.13.3c-2,1.21-3.05,3.82-3.34,6.44a31.53,31.53,0,0,0,.53,7.91q.85,5.71,1.56,11.45-5.54-6.9-11.32-13.4l.21,0c-.8-.88-1.6-1.76-2.41-2.62a65,65,0,0,0,3.69-16.45,21.82,21.82,0,0,0-.13-6.44,11.28,11.28,0,0,0-3.16-6.06,3.56,3.56,0,0,0-2.15-1.09,2.38,2.38,0,0,0-1.78,1.07c-2.42,3.07-2.35,8.07-1.79,12.78.55,4.54.77,8.24,2.09,12.81l.28.33q-5-5.34-10.09-10.4c.1,0-.24-.41-.78-1h0c-.37-6.53-1.25-14.17-1.91-20.7-.48-4.75-1.34-10.08-4.88-13A2.24,2.24,0,0,0,102.12,432.67Zm5.53,31.9c-.33-.31-.65-.6-.93-.84A7.41,7.41,0,0,1,107.65,464.57Z"/><path class="cls-1" d="M93,532.49a1.06,1.06,0,0,0-.36.65,5,5,0,0,0,1.32,4.16,17.38,17.38,0,0,0,3.62,3q2.9,2,5.75,4.07c-3-.06-6.49-.53-9.46-.51t-.09,0h-.36a.09.09,0,0,1,0-.09,54.48,54.48,0,0,0-9.62-2,13.42,13.42,0,0,0-4.29,0c-1.44.29-2.89.5-3.79,1.67a2.32,2.32,0,0,0-.58,1.54A1.93,1.93,0,0,0,76,546.2c2.17,1.78,5.52,1.84,8.66,1.54,2.46-.25,6.08-1.79,9-2.79a.72.72,0,0,0,.21-.12c3,.09,6,.23,9,.44a28.82,28.82,0,0,0-6.92,3.88,8.78,8.78,0,0,0-3.14,3.65.9.9,0,0,0,0,.7.92.92,0,0,0,.42.33c2.26,1,4.77-.35,6.78-1.72q4.55-3.08,9-6.35c2.65.24,5.31.54,8,.88l-3.52,2.16a11.6,11.6,0,0,0-3.16,2.52,3.62,3.62,0,0,0-.64,3.67,1.38,1.38,0,0,0,.46.59,1.6,1.6,0,0,0,.72.18c2.62.17,4.71-1.45,6.48-3a40.22,40.22,0,0,0,4.79-5.44c3,.46,6.12,1,9.2,1.55a25.09,25.09,0,0,0-4.89,2.29,7.58,7.58,0,0,0-3.17,3.1.8.8,0,0,0-.07.66.9.9,0,0,0,.38.37c2.11,1.26,4.57.25,6.55-.81,2.84-1.52,5.15-2.79,7.68-4.31,3,.65,6.1,1.37,9.17,2.15-1,.5-1.95,1-2.92,1.53a10.47,10.47,0,0,0-3.21,2.24,3.86,3.86,0,0,0-.85,3.73,1.3,1.3,0,0,0,.4.65,1.43,1.43,0,0,0,.69.27c2.52.47,4.63-1,6.43-2.36a32.42,32.42,0,0,0,4.6-4.7c2.89.79,5.77,1.64,8.66,2.54a25.67,25.67,0,0,0-3.65,1.23,10.56,10.56,0,0,0-2.25,1.26,5.17,5.17,0,0,0-1.29,1.42.83.83,0,0,0-.13.67,1.07,1.07,0,0,0,.37.45c2.05,1.63,4.66,1,6.8.21,2.56-.92,4.72-1.74,7-2.66l.47-.18c.4.13.8.27,1.19.42l-.92-5.61c-1.5-2.48-3.06-5.06-4.61-7.23-1.7-2.4-3.77-5-6.38-5.67a1.15,1.15,0,0,0-.71,0,.9.9,0,0,0-.45.52,5.33,5.33,0,0,0,.68,4.37,21.22,21.22,0,0,0,3.09,3.89,53.91,53.91,0,0,0,6.53,6.17l-1.14,0q-5.79-2-11.59-3.6a9.81,9.81,0,0,0-1.83-.6,43.24,43.24,0,0,0-4-9.43,14,14,0,0,0-2.28-3.14,6.7,6.7,0,0,0-3.5-1.9,1.87,1.87,0,0,0-1.35.21,1.45,1.45,0,0,0-.42,1.15c0,2.36,1.73,4.82,3.61,7a45.23,45.23,0,0,0,5.27,5.55c-3.33-.85-6.65-1.6-10-2.28l.22,0c-2.41-2.91-5.15-6.28-7.68-9.1-1.83-2-4-4.25-6.59-4.5a1.22,1.22,0,0,0-.69.09.93.93,0,0,0-.38.57,5,5,0,0,0,1,4.11,18.19,18.19,0,0,0,3.29,3.27c1.72,1.46,3.42,2.93,5.1,4.43-3.4-.59-6.77-1.1-10.14-1.52l.08-.09-2.07-.22a38.06,38.06,0,0,0-4.73-8.65,12.53,12.53,0,0,0-2.54-2.78,6.56,6.56,0,0,0-3.72-1.44A2,2,0,0,0,109,533a1.37,1.37,0,0,0-.37,1.15c.12,2.29,2.08,4.46,4.14,6.31a42.44,42.44,0,0,0,5.87,4.82l.24,0c-2.83-.28-5.64-.51-8.44-.67,0,0-.26-.09-.73-.14h0c-2.68-2.73-6-5.74-8.83-8.36-2-1.9-4.47-3.91-7.15-3.83A1.27,1.27,0,0,0,93,532.49Zm14.74,11.88H107A4.65,4.65,0,0,1,107.71,544.37Z"/><path class="cls-1" d="M754.17,481.2c-7.59-4.94-33.3,49.39-39.88,78.13H724C740.34,529.1,762,487.22,754.17,481.2Z"/><path class="cls-1" d="M773.23,508.36c1.14-1.85,2.31-4,1.56-6-1.35-3.48-6.94-2.62-10.1-.3-3.75,2.75-6.47,6.57-9.11,10.32-10.59,15-21.32,30.34-28.49,46.94h11.35Q757,534.57,773.23,508.36Z"/><path class="cls-1" d="M731.32,486.16c.42-2.09.74-4.5-.69-6.07-2.53-2.78-7.53-.13-9.7,3.07-2.56,3.79-3.75,8.23-4.9,12.57a531.72,531.72,0,0,0-13.34,63.6h9.63A662.49,662.49,0,0,0,731.32,486.16Z"/><path class="cls-1" d="M783.54,532.83a6.46,6.46,0,0,0,.73-6.37c-4.61-9.79-26.9,12.72-42.76,32.87H759C768.41,551,777,542.31,783.54,532.83Z"/><path class="cls-1" d="M788.89,551a2.16,2.16,0,0,0-.46-2.26,2.46,2.46,0,0,0-1.66-.31c-5.53.36-10.44,3.61-15,6.73q-3,2.08-6.08,4.18h17.26C785.8,557.05,788.15,554.37,788.89,551Z"/><path class="cls-1" d="M707.84,498.75c.17-4.45.34-9-1-13.21-1.14-3.55-5.19-7.16-8.48-5-1.85,1.22-2.25,3.61-2.47,5.73a644.58,644.58,0,0,0-3.37,73.06h10.19C707.18,533.23,707,519.1,707.84,498.75Z"/><path class="cls-1" d="M675.47,495.38a6.86,6.86,0,0,0-3.39,5.61c-1,18.7,4.25,38.59,9.34,58.34h8.33C691.13,534.23,687.49,488.54,675.47,495.38Z"/><path class="cls-1" d="M667.77,525.45c-1.79-5-3.79-10.16-8.1-13.34a2.48,2.48,0,0,0-1.56-.61c-.85.07-1.44.87-1.8,1.62-2.41,5-.32,10.8,1.8,15.84q6.4,15.22,13,30.37h6.7C675.82,547.79,671.79,536.5,667.77,525.45Z"/></g><polygon class="cls-2" points="201.21 539.14 196.68 530.12 212.9 495.07 193.57 490.6 179.65 532.13 181.14 543.59 201.21 539.14"/><path class="cls-3" d="M174,554.65l.59.22s53.13,1.86,67.33.8a26.3,26.3,0,0,1,1.17,5H212.6a174.16,174.16,0,0,0-19.75-3.71v3.7h-18c-1.15,0-.69-5.74-.69-5.74S174.06,554.72,174,554.65Z"/><path class="cls-4" d="M178,532.08s10.21,5.56,17.26,3.3a8.22,8.22,0,0,0,4.73-3.73c1.06.71,6.55,5.16,10.93,8.73a30,30,0,0,0,6.89,4.24,27.85,27.85,0,0,0,5.23,1.72c6,1.32,14.17,3.36,16.22,5a10.18,10.18,0,0,1,2.72,4.35c-14.2,1.06-67.33-.8-67.33-.8l-.59-.22C171.18,550.42,173.61,541.79,178,532.08Z"/><polygon class="cls-2" points="184.66 539.14 180.12 530.12 181.16 499.51 163.44 514.48 163.1 532.13 164.59 543.59 184.66 539.14"/><path class="cls-5" d="M157.46,554.65l.58.22s53.14,1.86,67.33.8a25.44,25.44,0,0,1,1.17,5H196.05a174.16,174.16,0,0,0-19.75-3.71v3.7h-18c-1.14,0-.68-5.74-.68-5.74A2.53,2.53,0,0,1,157.46,554.65Z"/><path class="cls-1" d="M161.4,532.08s10.21,5.56,17.26,3.3a8.23,8.23,0,0,0,4.72-3.73c1.07.71,6.56,5.16,10.93,8.73a30.19,30.19,0,0,0,6.89,4.24,28.09,28.09,0,0,0,5.23,1.72c6,1.32,14.18,3.36,16.22,5a10,10,0,0,1,2.72,4.35c-14.19,1.06-67.33-.8-67.33-.8l-.58-.22C154.62,550.42,157.06,541.79,161.4,532.08Z"/><path class="cls-6" d="M193.57,459.86c-1.74,20.94-3.17,39.27-4,50.26l-7.36-4.29S187.21,483.23,193.57,459.86Z"/><path class="cls-5" d="M159.6,519.13h31.07l.51-8.53L210.84,517l35.33-83.17a78,78,0,0,0,2.18-55.21l-24.8-74.18-38.89,5.67H159.19c0,1.78-2,51,2.73,98.8,0,0-5.09,25.43-5.68,40S159.6,519.13,159.6,519.13Zm35.52-73.92,4.48-74.49L215,407.53S203.48,420.29,195.12,445.21Z"/><path class="cls-7" d="M174.37,176c-1.08-6.92-3.28-15-3.2-15.28l21,5.41.88,6.13A87.47,87.47,0,0,1,174.37,176Z"/><path class="cls-2" d="M191.48,197.19c-7.87,3.2-18.61-.45-24.95-9.71l2.73-.89c2.47-1.36,4.17-2.56,4.79-3.66.83-1.46.82-3.61.18-7.68a46.17,46.17,0,0,0,18.42-5.61l2,12.72,7.92.28C202.35,183.61,200.31,193.6,191.48,197.19Z"/><path class="cls-8" d="M255.89,241.05c-7.24-19.75-18.93-31.23-25.37-43.8l-.09-.17a26.28,26.28,0,0,0-20.82-13.89l-5.06-.5c-2.76-.28-5.13-.52-6.13-.64-1,6.71-6.19,11.73-13.27,12.81a16,16,0,0,1-16.61-8.42c-2,1.09-4.61,2.29-7.55,3.62-1.7.77-3.53,1.58-5.46,2.44-3.37,1.5-10,3.05-11.61,4.75h0l-.28.3c-4.68,3.86-7.25,10.15-8.27,16.31-2.32,13.93-7.21,34.94-8.07,55.94-.17,4.07,5.79-.36,7.82,3.17,4.25,7.35,1.91,12.25,10,11.38l12.06-6.52q.18,8.55.37,17.09.22,9.56.46,19.13c11.08.16,23.15-.13,36.06-1.12,12.25-.94,23.66-2.38,34.12-4.1q-.52-11.71-.78-23.89-.3-13.67-.23-26.76l4.39,3.95c9.07,7,22.52,2.49,25.2-8.66,0-.1.05-.21.07-.32A21.56,21.56,0,0,0,255.89,241.05Zm-56.16-27.2Z"/><path class="cls-2" d="M203.74,197.65A8.37,8.37,0,0,1,205,196c.3-.13,3.05,1.59,1.67,5.41s-9.37,14.18-9.37,14.18c-.28.9,2.89,10.46,3.28,13.62s-2.28,5.65-2.33,5.91-15.36,9.57-15.36,9.57l-8.51-2.84-3.49-2.32,14.92-10.17-1-8.39a15.08,15.08,0,0,1,1.89-9.18l8.65-15.14a2,2,0,0,1,2.48-.86h0a2,2,0,0,1,1.08,2.59l-.17.41,1.17-2.22a1.87,1.87,0,0,1,2.27-.89l.32.12a1.85,1.85,0,0,1,1.24,1.87Z"/><path class="cls-9" d="M133.51,259.86,180.28,230l15.49,26L149.3,282.13a13.67,13.67,0,1,1-15.79-22.27Z"/><path class="cls-5" d="M222,235.52l-19.54,1.39a2.65,2.65,0,0,1-2.83-2.8L201.89,195a2.67,2.67,0,0,1,2.46-2.5l19.53-1.38a2.66,2.66,0,0,1,2.84,2.8L224.47,233A2.65,2.65,0,0,1,222,235.52Z"/><path class="cls-2" d="M212.46,203.49l12.3,5.77-1-4.38-8.55-3.29a2.13,2.13,0,0,1-.37-2.83h0c.67-.95,1.81-.83,2.94-.53,4.22,1.14,6.38,1,9.38,2.77,2.35,1.41,5.9,5.78,8.15,8.74a5.87,5.87,0,0,1,.66,6l-3.34,7.8a5.86,5.86,0,0,1-7.76,2.86l-13-4.19-1.36-.62-.09,0h0c-.33-.14-.64-.28-.94-.39a2.29,2.29,0,0,1-1.47-2.26,2.2,2.2,0,0,1,2.31-2l9.8,2.09-9.93-3.78a2.17,2.17,0,0,1-1.61-2.31,2.09,2.09,0,0,1,2.44-1.79l11.5,2.88-12.07-6.89a2,2,0,0,1-.71-2.91A2.13,2.13,0,0,1,212.46,203.49Z"/><path class="cls-2" d="M236.35,213.09s-1.41,16.23-3.72,17.82a3.92,3.92,0,0,1-1.21.54,6.43,6.43,0,0,1-7.63-4.18l-1.66-4.68Z"/><path class="cls-5" d="M192.49,124.06c-1.49-3.28-3.11-4-4.23-4.18a4.92,4.92,0,0,0-2.93.5,2,2,0,0,1-2.44-.46,4.79,4.79,0,0,0-5-1.72,4.4,4.4,0,0,0-2.17,1.56,2.16,2.16,0,0,1-2.76.57,5.63,5.63,0,0,0-4.72-.37,5.43,5.43,0,0,0-3.33,3.53,2.12,2.12,0,0,1-2.43,1.46,5,5,0,0,0-3.9.89,4.56,4.56,0,0,0-1.86,3.9,1.89,1.89,0,0,1-1.23,1.8,4,4,0,0,0-2,1.78,3.56,3.56,0,0,0,.22,3.59,1.78,1.78,0,0,1-.1,2,3,3,0,0,0-.49,1.07,3.66,3.66,0,0,0,1.53,3.53,1.76,1.76,0,0,1,.53,2.17c-.91,1.9-.62,3.85.53,4.82a3.11,3.11,0,0,0,1.49.66,2.87,2.87,0,0,1,2.21,2.07c2.07,7.18,6.52,11.71,10.84,11.63a7.49,7.49,0,0,0,4.27-1.57l21.38-14.83C195.79,148.21,193.52,126.33,192.49,124.06Z"/><path class="cls-2" d="M193.3,138.73s6.16,19,5.5,24.88-8,9.17-16.93,7.72-12.33-9.88-12.33-9.88l-5.71-12.18,2.25-17L190.47,131Z"/><path class="cls-2" d="M166.59,154.08s-4.64-2.51-7.19,1.49,7.4,12.65,11.39,5.8Z"/><path class="cls-5" d="M165.48,152.85l1.5,3.2s3.66.24,3.11-2.77-3.42-10.56-3.42-10.56A74.2,74.2,0,0,1,193.55,136l.25-2.09L189,128.28l-25.23,3.85L161.4,145.8Z"/><path class="cls-10" d="M149.59,249.2a.68.68,0,0,0,.36-.1l27.45-17a.69.69,0,0,0-.73-1.18l-27.45,17a.69.69,0,0,0,.37,1.28Z"/><path class="cls-10" d="M155.17,278.48a.67.67,0,0,0,.31-.07L168.33,272a.69.69,0,0,0-.62-1.24l-12.85,6.42a.7.7,0,0,0-.31.93A.69.69,0,0,0,155.17,278.48Z"/><path class="cls-10" d="M152,243.88a.71.71,0,0,0,.69-.58l3.13-18.64a.7.7,0,0,0-.57-.8.69.69,0,0,0-.8.57l-3.14,18.64a.7.7,0,0,0,.57.8Z"/><path class="cls-10" d="M227,259a.44.44,0,0,0,.16,0,.69.69,0,0,0,.51-.84l-1.85-7.52a.69.69,0,1,0-1.35.33l1.85,7.53A.7.7,0,0,0,227,259Z"/><rect class="cls-5" x="270.57" y="98.06" width="238.15" height="464.19" rx="32.55"/><rect class="cls-11" x="275.89" y="103.87" width="227.36" height="451.84" rx="26.7"/><rect class="cls-12" x="297.65" y="269.88" width="185.21" height="72.44" rx="10"/><rect class="cls-12" x="297.65" y="357.89" width="185.21" height="72.44" rx="10"/><rect class="cls-12" x="297.65" y="183.18" width="185.21" height="13.32" rx="6.27"/><rect class="cls-12" x="297.65" y="212.08" width="185.21" height="13.32" rx="6.27"/><rect class="cls-12" x="297.65" y="240.98" width="185.21" height="13.32" rx="6.27"/><rect class="cls-12" x="297.65" y="445.91" width="185.21" height="13.32" rx="6.27"/><circle class="cls-12" cx="325.15" cy="151.32" r="16.91"/><rect class="cls-12" x="357.6" y="145.1" width="118.63" height="12.44" rx="5.86"/><rect class="cls-13" x="264.22" y="212.25" width="213.02" height="55.57" rx="26.18"/><circle class="cls-11" cx="294.07" cy="240.03" r="19.21"/><path class="cls-13" d="M303,238.47a1.8,1.8,0,0,1,0,3.12l-6.17,3.56-6.16,3.56a1.8,1.8,0,0,1-2.7-1.56V232.92a1.8,1.8,0,0,1,2.7-1.56l6.16,3.55Z"/><rect class="cls-11" x="322.19" y="230.35" width="2.57" height="19.04" rx="1.21"/><rect class="cls-11" x="381.38" y="230.35" width="2.57" height="19.04" rx="1.21"/><rect class="cls-11" x="440.57" y="230.35" width="2.57" height="19.04" rx="1.21"/><rect class="cls-11" x="329.59" y="226.75" width="2.57" height="26.24" rx="1.21"/><rect class="cls-11" x="366.59" y="226.75" width="2.57" height="26.24" rx="1.21"/><rect class="cls-11" x="336.99" y="232.84" width="2.57" height="14.06" rx="1.21"/><rect class="cls-11" x="418.38" y="232.84" width="2.57" height="14.06" rx="1.21"/><rect class="cls-11" x="373.99" y="232.84" width="2.57" height="14.06" rx="1.21"/><rect class="cls-11" x="403.58" y="232.84" width="2.57" height="14.06" rx="1.21"/><rect class="cls-11" x="425.78" y="232.84" width="2.57" height="14.06" rx="1.21"/><rect class="cls-11" x="344.39" y="228.98" width="2.57" height="21.78" rx="1.21"/><rect class="cls-11" x="388.78" y="228.98" width="2.57" height="21.78" rx="1.21"/><rect class="cls-11" x="433.17" y="228.98" width="2.57" height="21.78" rx="1.21"/><rect class="cls-11" x="359.19" y="231.3" width="2.57" height="17.15" rx="1.21"/><rect class="cls-11" x="447.97" y="231.3" width="2.57" height="17.15" rx="1.21"/><rect class="cls-11" x="396.18" y="231.3" width="2.57" height="17.15" rx="1.21"/><rect class="cls-11" x="351.79" y="220.06" width="2.57" height="39.62" rx="1.21"/><rect class="cls-11" x="410.98" y="220.06" width="2.57" height="39.62" rx="1.21"/><rect class="cls-1" x="314.57" y="308.27" width="213.02" height="55.57" rx="26.18"/><circle class="cls-11" cx="344.42" cy="336.05" r="19.21"/><path class="cls-1" d="M353.37,334.49a1.8,1.8,0,0,1,0,3.12l-6.16,3.56L341,344.73a1.8,1.8,0,0,1-2.7-1.56V328.94a1.8,1.8,0,0,1,2.7-1.56l6.17,3.56Z"/><rect class="cls-11" x="498.32" y="326.38" width="2.57" height="19.04" rx="1.21" transform="translate(999.22 671.79) rotate(180)"/><rect class="cls-11" x="439.13" y="326.38" width="2.57" height="19.04" rx="1.21" transform="translate(880.84 671.79) rotate(180)"/><rect class="cls-11" x="379.95" y="326.38" width="2.57" height="19.04" rx="1.21" transform="translate(762.46 671.79) rotate(-180)"/><rect class="cls-11" x="490.93" y="322.77" width="2.57" height="26.24" rx="1.21" transform="translate(984.42 671.79) rotate(-180)"/><rect class="cls-11" x="453.93" y="322.77" width="2.57" height="26.24" rx="1.21" transform="translate(910.44 671.79) rotate(180)"/><rect class="cls-11" x="483.53" y="328.86" width="2.57" height="14.06" rx="1.21" transform="translate(969.63 671.79) rotate(-180)"/><rect class="cls-11" x="402.14" y="328.86" width="2.57" height="14.06" rx="1.21" transform="translate(806.86 671.79) rotate(180)"/><rect class="cls-11" x="446.53" y="328.86" width="2.57" height="14.06" rx="1.21" transform="translate(895.64 671.79) rotate(-180)"/><rect class="cls-11" x="416.94" y="328.86" width="2.57" height="14.06" rx="1.21" transform="translate(836.45 671.79) rotate(180)"/><rect class="cls-11" x="394.74" y="328.86" width="2.57" height="14.06" rx="1.21" transform="translate(792.06 671.79) rotate(180)"/><rect class="cls-11" x="476.13" y="325" width="2.57" height="21.78" rx="1.21" transform="translate(954.83 671.79) rotate(-180)"/><rect class="cls-11" x="431.74" y="325" width="2.57" height="21.78" rx="1.21" transform="translate(866.04 671.79) rotate(180)"/><rect class="cls-11" x="387.34" y="325" width="2.57" height="21.78" rx="1.21" transform="translate(777.26 671.79) rotate(180)"/><rect class="cls-11" x="461.33" y="327.32" width="2.57" height="17.15" rx="1.21" transform="translate(925.23 671.79) rotate(180)"/><rect class="cls-11" x="372.55" y="327.32" width="2.57" height="17.15" rx="1.21" transform="translate(747.67 671.79) rotate(180)"/><rect class="cls-11" x="424.34" y="327.32" width="2.57" height="17.15" rx="1.21" transform="translate(851.25 671.79) rotate(180)"/><rect class="cls-11" x="468.73" y="316.09" width="2.57" height="39.62" rx="1.21" transform="matrix(-1, 0, 0, -1, 940.03, 671.79)"/><rect class="cls-11" x="409.54" y="316.09" width="2.57" height="39.62" rx="1.21" transform="matrix(-1, 0, 0, -1, 821.65, 671.79)"/><circle class="cls-1" cx="458.08" cy="507.39" r="24.92"/><rect class="cls-11" x="451.69" y="489.53" width="12.78" height="25.25" rx="6.02"/><path class="cls-11" d="M458.09,519.24a11.92,11.92,0,0,1-11.7-10.13,1.05,1.05,0,1,1,2.08-.32,9.71,9.71,0,0,0,19.23,0,1.05,1.05,0,1,1,2.08.32,11.9,11.9,0,0,1-11.31,10.12Z"/><path class="cls-11" d="M458.08,524a1,1,0,0,1-1.05-1.05v-4.73a1,1,0,1,1,2.1,0v4.73A1,1,0,0,1,458.08,524Z"/><path class="cls-11" d="M464.32,525.25H451.85a2.32,2.32,0,0,1,2.32-2.33H462a2.32,2.32,0,0,1,2.32,2.33Z"/><rect class="cls-12" x="297.65" y="486.79" width="131.08" height="44.86" rx="21.14"/><rect class="cls-13" x="274.48" y="410.55" width="213.02" height="55.57" rx="26.18"/><circle class="cls-11" cx="304.33" cy="438.34" r="19.21"/><rect class="cls-11" x="332.45" y="428.66" width="2.57" height="19.04" rx="1.21"/><rect class="cls-11" x="391.64" y="428.66" width="2.57" height="19.04" rx="1.21"/><rect class="cls-11" x="450.83" y="428.66" width="2.57" height="19.04" rx="1.21"/><rect class="cls-11" x="339.85" y="425.06" width="2.57" height="26.24" rx="1.21"/><rect class="cls-11" x="376.85" y="425.06" width="2.57" height="26.24" rx="1.21"/><rect class="cls-11" x="347.25" y="431.15" width="2.57" height="14.06" rx="1.21"/><rect class="cls-11" x="428.64" y="431.15" width="2.57" height="14.06" rx="1.21"/><rect class="cls-11" x="384.24" y="431.15" width="2.57" height="14.06" rx="1.21"/><rect class="cls-11" x="413.84" y="431.15" width="2.57" height="14.06" rx="1.21"/><rect class="cls-11" x="436.04" y="431.15" width="2.57" height="14.06" rx="1.21"/><rect class="cls-11" x="354.65" y="427.29" width="2.57" height="21.78" rx="1.21"/><rect class="cls-11" x="399.04" y="427.29" width="2.57" height="21.78" rx="1.21"/><rect class="cls-11" x="443.43" y="427.29" width="2.57" height="21.78" rx="1.21"/><rect class="cls-11" x="369.45" y="429.61" width="2.57" height="17.15" rx="1.21"/><rect class="cls-11" x="458.23" y="429.61" width="2.57" height="17.15" rx="1.21"/><rect class="cls-11" x="406.44" y="429.61" width="2.57" height="17.15" rx="1.21"/><rect class="cls-11" x="362.05" y="418.37" width="2.57" height="39.62" rx="1.21"/><rect class="cls-11" x="421.24" y="418.37" width="2.57" height="39.62" rx="1.21"/><rect class="cls-11" x="332.45" y="428.66" width="2.57" height="19.04" rx="1.21"/><rect class="cls-11" x="339.85" y="425.06" width="2.57" height="26.24" rx="1.21"/><rect class="cls-11" x="376.85" y="425.06" width="2.57" height="26.24" rx="1.21"/><rect class="cls-11" x="347.25" y="431.15" width="2.57" height="14.06" rx="1.21"/><rect class="cls-11" x="384.24" y="431.15" width="2.57" height="14.06" rx="1.21"/><rect class="cls-11" x="354.65" y="427.29" width="2.57" height="21.78" rx="1.21"/><rect class="cls-11" x="369.45" y="429.61" width="2.57" height="17.15" rx="1.21"/><rect class="cls-11" x="362.05" y="418.37" width="2.57" height="39.62" rx="1.21"/><path class="cls-13" d="M299.64,447.3a1.89,1.89,0,0,1-1.89-1.89V431.27a1.89,1.89,0,0,1,3.78,0v14.14A1.89,1.89,0,0,1,299.64,447.3Z"/><path class="cls-13" d="M309,447.3a1.89,1.89,0,0,1-1.89-1.89V431.27a1.89,1.89,0,0,1,3.78,0v14.14A1.89,1.89,0,0,1,309,447.3Z"/><g id="man_2" data-name="man 2"><path class="cls-14" d="M646.52,503.42c0-18.47-24,2.4-24,2.4s1.16,6.26,1.84,13.08c.76,7.44-.7,15.55-3.17,16.91-26.77,14.85,20.84,10,20.84,10l6.48-7.74S646.52,528.76,646.52,503.42Z"/><path class="cls-15" d="M584.51,551.16c-.29,3.44,1.2,9.54,1.2,9.54,22.18,3.2,64.44.48,64.44.48s.27-1,1.75-8.39h0C599.91,557,584.51,551.16,584.51,551.16Z"/><path class="cls-11" d="M619.77,540.78l4.63,1.71a7.77,7.77,0,0,0,4.26,2.76,3.73,3.73,0,0,1,2.83,3.38l-14.21,2-5.59-2.72Z"/><path class="cls-5" d="M584.51,551.16s15.4,5.86,67.39,1.63c1-4.9-1.54-10.79-3.36-14.84-9.88,5.36-16.07,7-19.88,7.3-4.76,1.6-11.16,3.65-11.51,3.19-.56-.73,7.67-6.24,7.67-6.24a1.3,1.3,0,0,0,.09-1.83c-1.74-2-4.94-5.66-4.94-5.67-.93.71-1.64,1.17-1.64,1.17-3.43,2-33.82,15.29-33.82,15.29Z"/><path class="cls-14" d="M565.76,503.42c4.3-18-24,2.4-24,2.4h0c.75,7.44-7.81,28.63-10.27,30-26.77,14.85,20.84,10,20.84,10l6.47-7.74S560.2,526.65,565.76,503.42Z"/><path class="cls-15" d="M494.81,551.16c-.28,3.44,1.21,9.54,1.21,9.54,22.17,3.2,64.44.48,64.44.48s.26-1,1.75-8.39h0C510.21,557,494.81,551.16,494.81,551.16Z"/><path class="cls-11" d="M530.07,540.78l4.64,1.71a7.77,7.77,0,0,0,4.25,2.76,3.75,3.75,0,0,1,2.84,3.38l-14.21,2L522,547.93Z"/><path class="cls-5" d="M494.81,551.16s15.4,5.86,67.4,1.63c1-4.9-1.55-10.79-3.37-14.84-9.87,5.36-16.06,7-19.88,7.3-4.76,1.6-11.16,3.65-11.5,3.19-.56-.73,7.67-6.24,7.67-6.24a1.3,1.3,0,0,0,.09-1.83c-1.75-2-4.94-5.66-4.94-5.67-.93.71-1.64,1.17-1.64,1.17-3.43,2-33.83,15.29-33.83,15.29Z"/><path class="cls-5" d="M647.68,408c-1.41-70.7-9.54-103.7-14.41-117.32h.07c-2.17-6.07-3.7-8.3-3.7-8.3l-7.21-11.77-2.9,5.07-8-3.1-26.66-10.35L570.57,284.3s-.65,3.41-1.75,9.1q14.8,1.11-.07,0c-4.53,23.49-16.55,86.07-20.87,110.69-3.81,21.75-9.29,68.09-12.15,93.08-1.16,10.15-1.88,16.79-1.88,16.79l14.37-.47,19.46-.63s2.42-5.95,5.52-16.9a362.28,362.28,0,0,0,12.54-78.8c.13-2.44,8-46.53,12.46-71,.25-1.35.48-2.65.7-3.87,7,43.13,13.89,118.73,16.77,152.28.91,10.49,1.42,16.88,1.42,16.88l18.06-.59,15.92-.51c.92-5.36,1-11.15,1.92-17C660.22,448.47,647.68,408,647.68,408Z"/><path class="cls-5" d="M635.41,137.39l-.15,14.2s-7.58,17.16-11.79,14.73c-3.46-2,8.07-20,8.07-20Z"/><path class="cls-16" d="M619.85,176.1c1-6.56,3.11-14.2,3-14.48L603,166.74l-.84,5.81A82.5,82.5,0,0,0,619.85,176.1Z"/><path class="cls-14" d="M602.34,137s-6.78,19.9-6.19,26.06,8.24,9.78,17.66,8.4,13.13-10.18,13.13-10.18l6.2-12.71-2.08-17.87-25.62-1.81Z"/><path class="cls-14" d="M630.16,153.57s4.92-2.56,7.53,1.68-8,13.18-12.07,5.91Z"/><path class="cls-5" d="M629.45,135.46s-19.74-7.57-19.25-.54c.32,4.52,8.67,5.17,14.6,5.06a5,5,0,0,1,4.83,6.82,1.17,1.17,0,0,1,0,.11c-1.33,3-3.45,6.08-2.71,7.5.34.66,2,1.24,2.48.66l7.11-8.54Z"/><path class="cls-5" d="M611.9,134s-8.08-.9-10.79-3.45c-3.73-3.52-1.65-12.51,2-13.86,1.65-.61,3.41.32,4.84,1.52A11.5,11.5,0,0,0,616,121c6.86-.41,18.28,0,19.19,7.52,0,0,.22,1,.87,1.17,0,0,7.76,1.73,6.91,7.1s-7.71,14.83-7.71,14.83l-2.74-7.67-2.14-5.87Z"/><path class="cls-14" d="M603.64,196.15c7.46,3,17.63-.42,23.65-9.2-1.61-.54-2.59-.84-2.59-.84-2.35-1.29-4-2.43-4.54-3.47-.79-1.38-.78-3.42-.18-7.27A43.82,43.82,0,0,1,602.53,170l-1.85,12.06-7.51.26C593.34,183.28,595.28,192.75,603.64,196.15Z"/><path class="cls-1" d="M664.46,265c-.82-19.9-9.41-39.81-11.61-53-1-5.84-3.39-11.8-7.83-15.46-.09-.09-.17-.19-.27-.28h0a22.16,22.16,0,0,0-7-4.5l-5.17-2.32c-2.78-1.25-5.22-2.39-7.15-3.43a15.15,15.15,0,0,1-15.74,8c-6.71-1-11.62-5.79-12.58-12.15-1.5.18-6.3.66-10.6,1.09a24.89,24.89,0,0,0-19.73,13.16s-.05.1-.08.16c-6.1,11.9-17.18,22.78-24,41.5a20.48,20.48,0,0,0-.9,11.46c0,.1,0,.21.07.31,2.53,10.56,15.28,14.84,23.87,8.2l4-3.12c-1.33,13-3.66,35.12-3.56,38.43a3.17,3.17,0,0,0,1.66,2.68c15.19,8.18,67.69,6.51,68.67,4.05.37-.94-4.41-19.19-7.33-29.39l18.44,8.4c7.67.83,5.46-3.81,9.48-10.78C659,264.61,664.61,268.81,664.46,265ZM631.2,248.13c.24-.64.48-1.3.72-1.95a9.49,9.49,0,0,0,1.23-2.38l.27,4.62Z"/><path class="cls-14" d="M592,196.58a8.23,8.23,0,0,0-1.16-1.58c-.28-.12-2.89,1.51-1.59,5.13s8.88,13.43,8.88,13.43c.27.86-2.73,9.91-3.1,12.91s2.15,5.35,2.2,5.6,14.56,9.07,14.56,9.07l8.06-2.69,3.31-2.2L609,226.61l.92-7.94a14.24,14.24,0,0,0-1.79-8.71L600,195.62a1.88,1.88,0,0,0-2.35-.81h0a1.88,1.88,0,0,0-1,2.45l.16.39-1.11-2.1a1.77,1.77,0,0,0-2.15-.85l-.3.11a1.76,1.76,0,0,0-1.18,1.77Z"/><path class="cls-1" d="M658.57,255.53l-44.31-28.29-9.62,13.9,39,35.49a12.95,12.95,0,1,0,15-21.1Z"/><path class="cls-5" d="M574.72,232.47l18.51,1.31a2.51,2.51,0,0,0,2.68-2.65L593.78,194a2.51,2.51,0,0,0-2.33-2.37l-18.51-1.31a2.51,2.51,0,0,0-2.69,2.65l2.14,37.1A2.51,2.51,0,0,0,574.72,232.47Z"/><path class="cls-14" d="M583.76,202.12l-11.65,5.47.92-4.16,8.1-3.11a2,2,0,0,0,.36-2.68h0c-.64-.91-1.72-.79-2.79-.5-4,1.07-6,.92-8.89,2.62-2.23,1.33-5.59,5.48-7.72,8.28a5.58,5.58,0,0,0-.62,5.72l3.16,7.39a5.57,5.57,0,0,0,7.36,2.71l12.3-4c.44-.21.88-.41,1.29-.58l.08,0h0l.89-.37a2.16,2.16,0,0,0,1.39-2.15,2.09,2.09,0,0,0-2.18-1.93l-9.29,2,9.41-3.58A2.07,2.07,0,0,0,587.4,211a2,2,0,0,0-2.31-1.7l-10.9,2.73,11.43-6.53a1.93,1.93,0,0,0,.68-2.75A2,2,0,0,0,583.76,202.12Z"/><path class="cls-14" d="M561.13,211.22s1.33,15.37,3.52,16.88a3.58,3.58,0,0,0,1.14.51,6.09,6.09,0,0,0,7.23-4l1.58-4.44Z"/><path class="cls-4" d="M634.59,269.35a.89.89,0,0,1-.59-.23l-30-27.33a.89.89,0,0,1-.13-1.15l9.62-13.9a.89.89,0,0,1,1.2-.25l44.32,28.3a.88.88,0,0,1,.26,1.22.89.89,0,0,1-1.22.27L614.5,228.44,605.81,241l29.38,26.8a.89.89,0,0,1,.06,1.25A.91.91,0,0,1,634.59,269.35Z"/><path class="cls-4" d="M569.68,255.44h0a.88.88,0,0,1-.84-.92l.56-12.79a.83.83,0,0,1,.93-.84.88.88,0,0,1,.84.92l-.56,12.79A.9.9,0,0,1,569.68,255.44Z"/></g><path class="cls-17" d="M687.13,40.72c-1.36-2-3.92-5.31-7.62-6.89-6.6-2.82-34,.2-35.45,1.53h0c-.28-1.24-6.89-29.46-24.24-34.44C607.51-2.61,594.93,7,588,25.41c-1.33-1.24-11.72-10.58-22.43-2.29-5.37,4.15-8.46,10.91-9.88,14.54A42.67,42.67,0,0,1,543.54,40a43,43,0,0,1-17.85-3.16c-7-2.78-14.36-1.61-20.83,3.76l-6.64,5.53h189.9Z"/><path class="cls-17" d="M722.8,105.87a3.24,3.24,0,0,1-3-3.6,13.81,13.81,0,0,1,6.31-11,11.09,11.09,0,0,1,14.41,2.77c.78-11.22,7.48-20.81,16.85-24.21,9.8-3.56,20.66.32,27,9.68.6-.69,5.94-6.72,13.18-5.53,6.86,1.12,12.54,8.22,13.18,17.29A11.4,11.4,0,0,1,819,92c3.57,1.81,6.16,5.63,7.18,10.26a3.34,3.34,0,0,1-3,4.24Z"/><path class="cls-17" d="M5.43,119.61a5.43,5.43,0,0,1-5.34-5.88,9.1,9.1,0,0,1,3.92-7,8.89,8.89,0,0,1,11,1.33c.09-1,.92-8.38,6.87-12.2s14.58-2.49,20.39,3.77c.38-10.72,7.38-19.85,17-22.41,9.82-2.61,20.5,2.17,24.9,10.65a21.56,21.56,0,0,1,2.15,11.54,9.21,9.21,0,0,1,11.16,0,9.91,9.91,0,0,1,3.43,10c5-3.26,11.08-3,15,.45l.12.1c3.7,3.34,1.32,9.66-3.59,9.66Z"/><circle class="cls-1" cx="20.08" cy="496.02" r="19.29" transform="translate(-472.46 434.03) rotate(-80.51)"/><circle class="cls-15" cx="741.51" cy="431.15" r="19.29"/><circle class="cls-15" cx="170.54" cy="47.43" r="13.64" transform="translate(85.19 202.51) rotate(-76.72)"/><circle class="cls-1" cx="313.27" cy="71.9" r="10.95" transform="translate(192.11 369.61) rotate(-80.78)"/><g id="floor"><path class="cls-3" d="M797.4,564.36H25.72a2.11,2.11,0,0,1,0-4.2H797.4a2.11,2.11,0,0,1,0,4.2Z"/></g></svg>