<?xml version="1.0" encoding="utf-8"?>
<!-- Generator: Adobe Illustrator 25.4.1, SVG Export Plug-In . SVG Version: 6.00 Build 0)  -->
<svg version="1.1" id="Layer_1" xmlns="http://www.w3.org/2000/svg" xmlns:xlink="http://www.w3.org/1999/xlink" x="0px" y="0px"
	 viewBox="0 0 1920 1080" style="enable-background:new 0 0 1920 1080;" xml:space="preserve">
<style type="text/css">
	.st0{fill:#FFFFFF;}
	.st1{fill:#F7F7F7;}
	.st2{fill:#163947;}
	.st3{font-family:'Montserrat-Bold';}
	.st4{font-size:48px;}
	.st5{fill:#15AFD0;}
	.st6{fill-rule:evenodd;clip-rule:evenodd;fill:#163947;}
	.st7{font-family:'Montserrat-SemiBold';}
	.st8{font-size:36px;}
	.st9{opacity:0.2;}
	.st10{font-size:26px;}
	.st11{font-family:'Montserrat-Medium';}
	.st12{font-size:24px;}
	.st13{fill:#26B473;}
	.st14{fill:#A1D6BD;}
	.st15{fill:#E6E7E8;}
	.st16{fill:#282F33;}
	.st17{fill:#D0D2D3;}
	.st18{fill:#30353C;}
	.st19{fill:#BBBDBF;}
	.st20{fill:#283033;}
	.st21{fill:#EB2027;}
	.st22{fill:#F2F1F2;}
	.st23{fill:#008C5F;}
	.st24{fill:#045848;}
	.st25{fill:#E2E8E9;}
	.st26{fill:none;stroke:#303030;stroke-width:8;stroke-miterlimit:10;}
	.st27{fill:#B9B9B9;}
	.st28{font-size:11.05px;}
	.st29{fill:#141112;}
	.st30{font-size:10.5px;}
	.st31{font-size:12px;}
	.st32{fill:#5BBB5E;}
	.st33{font-size:6px;}
</style>
<rect class="st0" width="1920" height="1080"/>
<rect class="st1" width="1001.8" height="1080"/>
<text transform="matrix(1 0 0 1 210.36 880.09)" class="st2 st3 st4">WhatsApp Management</text>
<path class="st5" d="M1098.5,973.5c-0.7-0.5-1.4-0.9-2.1-1.4c-1.3-0.9-2.7-1.6-4.2-2.3c-0.4-0.3-1-0.1-1.3,0.3l-0.3,0.3
	c-0.4,0.5-0.9,1-1.3,1.5s-0.6,0.6-1.4,0.3c-4.4-1.5-7.9-5-9.3-9.4c-0.2-0.4-0.1-0.9,0.3-1.2c0.7-0.5,1.3-1.1,1.9-1.6
	c0.5-0.3,0.6-0.9,0.3-1.4c-0.1-0.1-0.1-0.3-0.2-0.4c-1-2-2.2-4-3.5-5.8c-0.2-0.2-0.4-0.4-0.6-0.6c-0.2-0.2-0.6-0.2-0.9,0
	c-0.2,0.2-0.5,0.3-0.7,0.5c-1.6,1.6-3.1,3.3-4.4,5.2c-0.4,0.5-0.5,1.2-0.3,1.8c0.4,2.1,1.2,4.1,2.2,6c2.1,3.7,4.9,7,8.2,9.6
	c2.3,2,5,3.6,7.8,4.7c1.2,0.5,2.4,0.8,3.7,0.9c0.2-0.1,0.4-0.2,0.6-0.3c2-1.3,3.9-2.8,5.5-4.6
	C1099.6,974.7,1099.5,974.3,1098.5,973.5z"/>
<path class="st5" d="M1094,957.1c2.1,2.1,3.3,5,3.3,8h2c0-7.3-5.9-13.3-13.2-13.4c0,0-0.1,0-0.1,0v2
	C1089,953.7,1091.9,954.9,1094,957.1z"/>
<path class="st5" d="M1090.3,960.7c1.2,1.2,1.8,2.7,1.8,4.3h2c0-4.5-3.6-8.1-8.1-8.2c0,0-0.1,0-0.1,0v2
	C1087.6,958.9,1089.2,959.5,1090.3,960.7z"/>
<path class="st5" d="M1087.5,927.7c-1.5,1.1-3.6,1.1-5.2,0l-11.8-7.9c0,0-0.1,0-0.2-0.1v13.5c0.1,0.4,0.3,0.8,0.5,1.1
	c0.5,0.8,1.4,1.2,2.3,1.2h23.7c1.4,0.1,2.6-0.9,2.8-2.3c0-0.1,0-0.2,0-0.4v-13.1l-0.3,0.2L1087.5,927.7z"/>
<path class="st5" d="M1072.1,918.8c3.7,2.5,7.4,4.9,11.1,7.4c1,0.8,2.5,0.8,3.5,0l7.7-5.1l4-2.7c1.1-0.7,1.5-2.1,0.9-3.3
	c-0.5-1-1.5-1.6-2.6-1.5h-23.8c-1.1,0-2.1,0.8-2.5,1.8c0,0.1-0.1,0.3-0.1,0.4v0.8C1070.6,917.6,1071.2,918.3,1072.1,918.8z"/>
<path class="st5" d="M1289.2,416.5l-24.7,14.2h-20.6c-23.1,0-41.8,18.7-41.8,41.7c0,18.3,11.9,34.4,29.3,39.8l5.6-9.3
	c-16.9-3.8-27.5-20.5-23.7-37.4c3.2-14.3,15.9-24.5,30.6-24.4h30.4L1289.2,416.5z"/>
<path class="st5" d="M1230.3,528.5l24.7-14.2h20.6c23.1,0,41.7-18.7,41.7-41.8c0-18.2-11.8-34.3-29.2-39.8l-5.6,9.3
	c16.9,3.8,27.5,20.5,23.7,37.4c-3.2,14.3-15.9,24.5-30.6,24.4h-30.4L1230.3,528.5z"/>
<path class="st6" d="M1296.4,471.7c-6.4,0-6.3-3.4-8.7-3.4c-1,0-1.9,0.5-2.4,1.4c-0.3,0.6-0.8,1.2-1.4,1.5c-0.9,0.4-1.9,0.4-2.9,0.1
	c-1.1-0.3-2.2-0.9-3.1-1.6c-1.5-1.1-2.6-2.7-3-4.6c-0.6-3.6-2.4-3.6-2.4-3.6l0,0c0,0-1.7,0-2.4,3.6c-0.4,1.9-1.4,3.7-2.8,5
	c-0.5,0.5-1.1,0.8-1.8,0.9c-0.6,0.1-1.3-0.1-1.8-0.5c-0.8-0.6-1.6-2-2.1-4.3c-0.1-0.6-0.3-1.2-0.4-1.9c-1.2-5.6-3.1-14.7-5.4-14.8
	l0,0c-2.3,0.1-4.2,9.2-5.4,14.8c-0.1,0.7-0.3,1.3-0.4,1.9c-0.4,1.7-1.3,3.3-2.6,4.5c-0.4,0.4-0.9,0.6-1.5,0.7
	c-0.5,0.1-1-0.1-1.4-0.4c-0.9-1-1.4-2.2-1.5-3.5c-0.4-2.4-1.6-2.4-1.6-2.4s-1.2,0-1.6,2.4c-0.2,1-0.7,1.9-1.4,2.7
	c-0.7,0.6-1.5,1.1-2.4,1.3l0,0c-0.7,0.2-2.2,0.5-3,0.7v0.5c1.2,0.2,2.3,0.5,3.4,0.8c0.7,0.3,1.4,0.7,2,1.2c0.7,0.7,1.2,1.6,1.4,2.7
	c0.4,2.4,1.6,2.4,1.6,2.4s1.2,0,1.6-2.4c0.1-1.3,0.6-2.5,1.5-3.5c0.4-0.3,0.9-0.5,1.4-0.4c0.6,0.1,1.1,0.4,1.5,0.7
	c1.3,1.2,2.3,2.8,2.6,4.5c0.1,0.6,0.3,1.2,0.4,1.9c1.2,5.6,3.1,14.7,5.4,14.8l0,0c2.3-0.1,4.2-9.2,5.4-14.8c0.1-0.7,0.3-1.3,0.4-1.9
	c0.5-2.3,1.2-3.6,2.1-4.3c0.5-0.4,1.1-0.6,1.8-0.5c0.7,0.2,1.3,0.5,1.8,0.9c1.5,1.3,2.5,3.1,2.8,5c0.6,3.6,2.4,3.6,2.4,3.6l0,0
	c0,0,1.7,0,2.4-3.6c0.4-1.8,1.5-3.5,3-4.6c0.9-0.7,2-1.3,3.1-1.6c0.9-0.3,2-0.3,2.9,0.1c0.6,0.3,1.2,0.8,1.4,1.5
	c0.5,0.8,1.4,1.4,2.4,1.4c1.9,0,2.2-2,4.6-2.9l0,0c1.3-0.6,2.7-1.1,4.1-1.4C1296.4,472.2,1296.4,472,1296.4,471.7z"/>
<path class="st2" d="M1336.7,502.2l4.8-10.9c6,4.8,15.6,8.3,24.9,8.3c11.7,0,16.7-4.2,16.7-9.8c0-16.2-44.8-5.6-44.8-33.6
	c0-12.2,9.7-22.5,30.3-22.5c9,0,18.5,2.4,25.1,6.7l-4.4,10.9c-6.3-3.8-13.4-5.8-20.8-5.9c-11.6,0-16.3,4.5-16.3,10.2
	c0,16,44.7,5.6,44.7,33.2c0,12.1-9.8,22.4-30.5,22.4C1354.7,511.2,1342.9,507.6,1336.7,502.2z"/>
<path class="st2" d="M1533.5,498.4v11.7H1477v-75.3h55v11.7h-41v19.6h36.4v11.5H1491v20.8H1533.5z"/>
<path class="st2" d="M1646.5,446.7h-25v-11.8h63.9v11.8h-25v63.5h-14L1646.5,446.7z"/>
<path class="st2" d="M1436.3,434.8h-23.2c-7.9,0-7.8,6.6-7.8,6.6v2.1l0,0V456l0.1-0.3c2.9-8.2,10.7-9,12.8-9h17.5
	c12.3,0,18.6,5.5,18.6,15s-6.3,15-18.6,15h-22.2c-4.4,0-6.4,2.3-7.3,4.2c0,0.1-0.1,0.2-0.1,0.2l-0.1,0.2c-0.4,1-0.6,2-0.6,3.1v25.8
	h14v-21.8h17c19.8,0,32.1-10.2,32.1-26.8S1456.1,434.8,1436.3,434.8z"/>
<polygon class="st2" points="1577.8,465.8 1560.2,446.1 1540.9,446.1 1568.2,476.5 "/>
<polygon class="st2" points="1589.5,478.7 1587.2,476.2 1577.6,486.9 1583.6,493.6 1600.6,512.5 1619.9,512.5 "/>
<path class="st5" d="M1604.5,405.8c0,0,13.8,18.5-16.8,54l-45.1,50.3h18.7c0,0,22.2-24.6,29.5-33c8.7-9.8,24.6-30.1,23.4-47
	C1613.7,421.8,1612,413.3,1604.5,405.8z"/>
<circle class="st5" cx="1440.7" cy="462.1" r="3.8"/>
<circle class="st5" cx="1429.9" cy="462.1" r="3.8"/>
<circle class="st5" cx="1419.1" cy="462.1" r="3.8"/>
<path class="st5" d="M68.9,26.6l-11.8,6.8h-9.8c-11-0.1-20,8.8-20.1,19.8c-0.1,8.8,5.7,16.6,14.1,19.2L44,68
	c-8.1-1.8-13.1-9.8-11.3-17.9c1.5-6.8,7.6-11.6,14.6-11.6h14.5L68.9,26.6z"/>
<path class="st5" d="M40.8,80.1l11.8-6.8h9.8c11,0,20-8.9,20-19.9c0-8.7-5.6-16.5-14-19.1l-2.7,4.4c8.1,1.8,13.1,9.8,11.3,17.9
	c-1.5,6.8-7.6,11.6-14.6,11.6H47.9L40.8,80.1z"/>
<path class="st6" d="M72.3,53c-3,0-3-1.6-4.2-1.6c-0.5,0-0.9,0.3-1.1,0.7c-0.1,0.3-0.4,0.6-0.7,0.7c-0.4,0.2-0.9,0.2-1.4,0
	c-0.5-0.1-1-0.4-1.5-0.7c-0.7-0.5-1.2-1.3-1.4-2.2c-0.3-1.7-1.1-1.7-1.1-1.7l0,0c0,0-0.8,0-1.1,1.7c-0.2,0.9-0.7,1.7-1.4,2.4
	c-0.2,0.2-0.5,0.4-0.9,0.5c-0.3,0.1-0.6,0-0.8-0.2c-0.5-0.5-0.9-1.2-1-2c-0.1-0.3-0.1-0.6-0.2-0.9c-0.6-2.7-1.5-7-2.6-7.1l0,0
	c-1.1,0-2,4.4-2.6,7.1l-0.2,0.9C50,51.2,49.6,52,49,52.5c-0.2,0.2-0.4,0.3-0.7,0.3c-0.2,0-0.5,0-0.7-0.2c-0.4-0.5-0.7-1.1-0.7-1.7
	c-0.2-1.2-0.8-1.2-0.8-1.2s-0.6,0-0.8,1.2c-0.1,0.5-0.3,0.9-0.7,1.3c-0.3,0.3-0.7,0.5-1.1,0.6l0,0c-0.3,0.1-1,0.2-1.5,0.3v0.2
	c0.6,0.1,1.1,0.2,1.6,0.4c0.4,0.1,0.7,0.3,0.9,0.6c0.4,0.3,0.6,0.8,0.7,1.3c0.2,1.2,0.8,1.2,0.8,1.2s0.5,0,0.8-1.2
	c0-0.6,0.3-1.2,0.7-1.7c0.2-0.2,0.4-0.2,0.7-0.2c0.3,0,0.5,0.2,0.7,0.3c0.6,0.6,1.1,1.3,1.3,2.2l0.2,0.9c0.6,2.7,1.5,7,2.6,7.1l0,0
	c1.1,0,2-4.4,2.6-7.1c0.1-0.3,0.1-0.6,0.2-0.9c0.1-0.8,0.5-1.5,1-2c0.2-0.2,0.5-0.3,0.8-0.2c0.3,0.1,0.6,0.2,0.9,0.5
	c0.7,0.6,1.2,1.5,1.4,2.4c0.3,1.7,1.1,1.7,1.1,1.7l0,0c0,0,0.8,0,1.1-1.7c0.2-0.9,0.7-1.7,1.4-2.2c0.4-0.4,0.9-0.6,1.5-0.8
	c0.4-0.2,0.9-0.2,1.4,0c0.3,0.1,0.6,0.4,0.7,0.7c0.2,0.4,0.7,0.7,1.1,0.7c0.9,0,1-0.9,2.2-1.4l0,0c0.6-0.3,1.3-0.5,2-0.7L72.3,53z"
	/>
<path class="st2" d="M91.6,67.6l2.3-5.2c3.4,2.6,7.6,4,11.9,4c5.6,0,8-2,8-4.7c0-7.8-21.4-2.7-21.4-16c0-5.8,4.6-10.7,14.5-10.7
	c4.2-0.1,8.4,1,12,3.2l-2.1,5.2c-3-1.8-6.4-2.8-9.9-2.8c-5.6,0-7.8,2.2-7.8,4.9c0,7.6,21.3,2.6,21.3,15.8c0,5.8-4.7,10.7-14.6,10.7
	C100.2,71.9,94.6,70.1,91.6,67.6z"/>
<path class="st2" d="M185.6,65.8v5.6h-27v-36h26.3V41h-19.6v9.4h17.4v5.5h-17.4v9.9H185.6z"/>
<path class="st2" d="M239.6,41.1h-11.9v-5.7h30.5v5.7h-11.9v30.3h-6.7V41.1z"/>
<path class="st2" d="M139.2,35.4h-11.1c-3.8,0-3.7,3.1-3.7,3.1v1l0,0v6c0,0,0-0.1,0-0.1c0.9-2.6,3.4-4.3,6.1-4.3h8.4
	c5.9,0,8.9,2.6,8.9,7.1s-3,7.1-8.9,7.1h-10.6c-1.5-0.1-2.9,0.7-3.5,2c0,0,0,0.1,0,0.1c0,0,0,0.1,0,0.1c-0.2,0.5-0.3,1-0.3,1.5v12.3
	h6.7V61h8.1c9.4,0,15.3-4.9,15.3-12.8S148.6,35.4,139.2,35.4z"/>
<polygon class="st2" points="206.7,50.2 198.3,40.8 189.1,40.8 202.1,55.3 "/>
<polygon class="st2" points="212.3,56.4 211.2,55.2 206.6,60.3 209.5,63.5 217.6,72.5 226.8,72.5 "/>
<path class="st5" d="M219.5,21.5c0,0,6.6,8.9-8,25.8l-21.5,24h8.9c0,0,10.6-11.7,14.1-15.7c4.1-4.7,11.8-14.4,11.2-22.4
	C223.9,29.2,223,25.1,219.5,21.5z"/>
<circle class="st5" cx="141.2" cy="48.4" r="1.8"/>
<circle class="st5" cx="136.1" cy="48.4" r="1.8"/>
<circle class="st5" cx="130.9" cy="48.4" r="1.8"/>
<path class="st5" d="M1168.7,591.5h562.2c10.7,0,19.4,8.7,19.4,19.4v44.8c0,10.7-8.7,19.4-19.4,19.4h-562.2
	c-10.7,0-19.4-8.7-19.4-19.4v-44.8C1149.3,600.2,1158,591.5,1168.7,591.5z"/>
<text transform="matrix(1 0 0 1 1280.45 645.1)" class="st0 st7 st8">Login Using OneID</text>
<g class="st9">
	<polygon class="st5" points="1000.5,915.8 1067.1,1079.6 1068,1079.6 1000.5,913.6 	"/>
	<path class="st5" d="M1916,929.4c-2-1.2-4.6-1.1-6.5,0.4l-80.1-89.1c0.3-0.3,0.5-0.6,0.8-1c1.7-2.7,0.8-6.2-1.8-7.8
		c-2.7-1.7-6.2-0.8-7.8,1.8c-0.4,0.7-0.7,1.4-0.8,2.2l-97.4-6.7c0-3.1-2.5-5.7-5.7-5.7c-3.1,0-5.7,2.5-5.7,5.7c0,1,0.3,2,0.8,2.9
		l-238,165c-0.3-0.4-0.7-0.7-1.1-1l102.1-163.7c2.8,1.4,6.2,0.3,7.6-2.4c1-2,0.8-4.4-0.6-6.2l103.6-97.9c0.3,0.2,0.6,0.5,0.9,0.7
		c2.7,1.7,6.2,0.8,7.8-1.8c1.7-2.7,0.8-6.2-1.8-7.8c-2.7-1.7-6.2-0.8-7.8,1.8c-1.3,2.1-1.1,4.7,0.4,6.6l-103.6,97.8
		c-0.3-0.3-0.6-0.5-0.9-0.7c-1.7-1-3.8-1.1-5.6-0.2l-54.4-89c2.6-1.8,3.1-5.4,1.3-7.9c-0.8-1.1-1.9-1.9-3.2-2.2l23.8-131.4
		c3.1,0.3,5.9-1.9,6.3-5s-1.9-5.9-5-6.3s-5.9,1.9-6.3,5c-0.2,2.2,0.8,4.3,2.7,5.4c0.5,0.3,1,0.5,1.6,0.7l-23.8,131.3
		c-1.1-0.1-2.2,0.1-3.2,0.6L1450,618c2.6-1.8,3.1-5.4,1.3-7.9s-5.4-3.1-7.9-1.3c-0.6,0.4-1.1,1-1.5,1.6c-0.1,0.2-0.3,0.5-0.4,0.8
		l-112.4-38.3c0.8-3-1-6.2-4-7s-6.2,1-7,4s1,6.2,4,7c2.4,0.6,5-0.4,6.3-2.5c0.2-0.2,0.3-0.5,0.4-0.8l112.4,38.3
		c-0.1,0.3-0.1,0.6-0.2,0.9l-221.3-6.7c-0.1-3.1-2.7-5.6-5.9-5.4c-0.3,0-0.6,0.1-1,0.1l-67-237c3-1.1,4.5-4.3,3.4-7.3
		c-1.1-3-4.3-4.5-7.3-3.4s-4.5,4.3-3.4,7.3c0.4,1.2,1.3,2.2,2.4,2.9c1.2,0.8,2.7,1,4.1,0.7l67,237.1c-1.2,0.4-2.2,1.3-2.9,2.4l0,0
		l-208.7-106.9l0,0v0.9l0,0l208.3,106.7c-0.4,0.9-0.5,2-0.4,3l-172.6,37.8c-0.8-2.9-3.8-4.6-6.7-3.9l-28.6-92.4v2.7l27.8,89.9
		c-1.2,0.4-2.1,1.3-2.8,2.3c-1.1,1.8-1.1,4-0.1,5.8l-25,16.8v1L1026,650c1.1,1.4,2.8,2.2,4.6,2.2l40,427.4h0.8l-40-427.5
		c0.9-0.1,1.7-0.5,2.4-1l69.3,81.2c-0.3,0.3-0.6,0.7-0.8,1.1c-1.6,2.7-0.8,6.2,1.8,7.8c0,0,0,0,0,0c0.6,0.4,1.3,0.6,2,0.8
		l-33.5,337.7h0.8L1107,742c0.5,0,1,0,1.6-0.2l112.2,337.8h0.8l-112.3-338.1c0.4-0.1,0.7-0.3,1-0.5l210.1,265.2
		c-0.4,0.4-0.7,0.8-1,1.2c-1.5,2.5-0.9,5.7,1.4,7.5l-42.7,64.7h1l42.4-64.3c2.7,1.6,6.2,0.6,7.7-2.1c1.3-2.3,0.9-5.1-1-6.9
		l169.9-198.7c0.1,0.1,0.3,0.2,0.4,0.3c0.3,0.2,0.7,0.4,1,0.5l-72.1,256.4c-3.1-0.6-6.1,1.3-6.7,4.4c-0.2,0.9-0.2,1.8,0.1,2.7
		l-21.2,7.7h2.4l19.1-6.9c0.5,1.1,1.2,1.9,2.2,2.5c1.1,0.7,2.4,1,3.7,0.8l0.7,3.6h0.8l-0.8-3.7c3-0.8,4.8-4,3.9-7
		c-0.3-1.2-1.1-2.3-2.2-3.1l37.1-60.3c0.8,0.4,1.7,0.6,2.6,0.7l5.3,73.4h0.8l-5.3-73.5c0.5-0.1,1.1-0.2,1.6-0.5l40.3,73.9h0.9
		l-40.5-74.3c0.2-0.1,0.4-0.3,0.5-0.4l71,74.7h1.1l-71.5-75.3c0.2-0.3,0.5-0.5,0.6-0.8c0.2-0.3,0.3-0.6,0.4-0.8l212.8,68.8
		c-0.6,2.4,0.4,4.9,2.5,6.2c0.2,0.1,0.5,0.3,0.7,0.4l-0.6,1.6h13.3l-5.6-3.9c1.4-2.3,0.9-5.3-1.1-7.1l102.6-132.2l0.2,0.1
		c1.7,1,3.8,1.1,5.6,0.2l86.1,142.8h0.9l-86.3-143.2c0.6-0.4,1.2-1,1.6-1.7c1.7-2.7,0.8-6.2-1.8-7.8c-2.7-1.7-6.2-0.8-7.8,1.8
		c-0.6,0.9-0.9,2-0.8,3.1l-85.3,6.9c-0.1-0.9-0.5-1.8-1.1-2.5l110.8-95.4c0.3,0.3,0.7,0.6,1.1,0.8c2,1.2,4.6,1.1,6.5-0.4l80.1,89.1
		c-0.3,0.3-0.5,0.6-0.8,1c-1.6,2.7-0.8,6.2,1.9,7.8c2.7,1.6,6.2,0.8,7.8-1.9C1919.6,934.6,1918.7,931.1,1916,929.4
		C1916.1,929.5,1916.1,929.5,1916,929.4L1916,929.4z M1545.3,582.2L1545.3,582.2z M1216.4,602.5L1216.4,602.5z M1208.6,608
		c0.4,1.3,1.3,2.5,2.5,3.2c2.7,1.6,6.2,0.8,7.8-1.9c0,0,0,0,0,0c0.4-0.7,0.7-1.5,0.8-2.4l219.6,6.6l-403,32.1L1208.6,608z
		 M1036.1,646.5l404.9-32.3c0.5,3.1,3.4,5.2,6.5,4.8c0.6-0.1,1.2-0.3,1.8-0.6l64.5,105.6c-0.6,0.4-1.1,1-1.5,1.7
		c-0.3,0.5-0.5,1.1-0.7,1.6l-475.5-80.2C1036.1,646.9,1036.1,646.7,1036.1,646.5z M1110.1,731.5c-2-1.2-4.5-1.1-6.3,0.3l-69.3-81.2
		c0.3-0.3,0.6-0.7,0.8-1.1c0.2-0.3,0.3-0.5,0.4-0.8l228,75.8c-0.1,0.4-0.2,0.9-0.2,1.4l-150.7,9.7
		C1112.6,733.9,1111.6,732.4,1110.1,731.5L1110.1,731.5z M1321.1,1005.8L1111,740.5c0.4-0.4,0.7-0.8,1-1.2c0.5-0.9,0.8-1.9,0.8-2.9
		l150.7-9.7c0.4,3.1,3.2,5.2,6.3,4.9l53,273.4C1322.2,1005.1,1321.6,1005.4,1321.1,1005.8L1321.1,1005.8z M1327.7,1005.9l-0.4-0.3
		c-1.1-0.7-2.4-0.9-3.7-0.8l-53-273.4c1.4-0.4,2.6-1.3,3.4-2.5c0.2-0.3,0.3-0.5,0.4-0.8l221.6,73.6c-0.5,2,0.1,4,1.5,5.5
		L1327.7,1005.9z M1496.7,800.2c-0.2,0.3-0.3,0.5-0.4,0.8l-221.6-73.7c0.8-3-1-6.1-4.1-6.9c-2.4-0.6-5,0.4-6.3,2.5
		c-0.2,0.3-0.3,0.5-0.4,0.8l-228-75.8c0,0,0,0,0-0.1l475.6,80.1c-0.3,3.1,2,5.9,5.1,6.2c1.1,0.1,2.2-0.1,3.2-0.6l54.4,89
		c-0.6,0.4-1.1,1-1.5,1.7c-0.2,0.3-0.3,0.6-0.4,0.9l-65.2-20.6c0.7-3.1-1.2-6.1-4.2-6.8C1500.4,797.1,1497.9,798.1,1496.7,800.2
		L1496.7,800.2z M1469.9,994.9c-3.1-0.3-5.9,2-6.2,5.1c-0.2,2,0.7,4,2.4,5.2l-37.1,60.2c-0.2-0.1-0.5-0.2-0.7-0.3l71.7-254.9
		L1469.9,994.9z M1472,995.6c-0.4-0.2-0.9-0.4-1.3-0.5l30.3-186.2c2.1,0.2,4.2-0.8,5.3-2.7c0.2-0.3,0.3-0.6,0.4-0.9l65.2,20.7
		c-0.5,2.2,0.3,4.6,2.2,5.9L1472,995.6z M1800.2,930.3c0.8-1.3,2.6-1.7,3.9-0.9s1.7,2.6,0.9,3.9c-0.2,0.3-0.4,0.5-0.6,0.7l0,0
		c0.2-0.2,0.5-0.4,0.6-0.7c0.8-1.3,0.4-3-0.9-3.9C1802.7,928.6,1801,929,1800.2,930.3c-0.2,0.4-0.4,0.9-0.4,1.3l0,0
		C1799.8,931.2,1799.9,930.7,1800.2,930.3L1800.2,930.3z M1474.3,997.7l238-164.9c0.4,0.5,0.9,0.9,1.4,1.3c0.6,0.4,1.3,0.6,2,0.8
		l-9.6,99c-2-0.1-3.9,1-5,2.7c-0.7,1.2-1,2.6-0.7,4l-225.6,58.2C1474.6,998.4,1474.4,998,1474.3,997.7L1474.3,997.7z M1706.4,939.1
		l-0.1,0.6l-0.1,0.1l-0.1,0.1h-0.1l0,0l-0.1-0.8H1706.4z M1688.2,1069.9c-0.2,0.3-0.3,0.6-0.4,0.9l-212.8-68.8
		c0.2-0.8,0.2-1.6,0.1-2.4l225.6-58.2c0.7,2,2.4,3.4,4.4,3.8l-11.9,122C1691.1,1067.1,1689.2,1068.1,1688.2,1069.9L1688.2,1069.9z
		 M1695.4,1069L1695.4,1069z M1710.8,942.5c0.6-0.9,0.8-1.9,0.8-3l85.3-6.9c0.2,1.3,0.9,2.5,1.8,3.4l-102.6,132.2
		c-0.1,0-0.1-0.1-0.2-0.1c-0.6-0.4-1.3-0.6-2-0.8l11.9-122C1707.9,945.3,1709.8,944.3,1710.8,942.5L1710.8,942.5z M1710,935.5
		c-0.3-0.3-0.6-0.6-1-0.8c-0.6-0.4-1.3-0.6-2-0.8l9.6-99c2,0.1,3.9-1,5-2.7c0.4-0.7,0.7-1.4,0.8-2.2l97.4,6.7c0,1.2,0.4,2.4,1.1,3.4
		L1710,935.5z"/>
	<polygon class="st5" points="1918.4,167.1 1851.9,3.3 1851,3.3 1918.4,169.3 	"/>
	<path class="st5" d="M1003,153.5c2,1.2,4.6,1.1,6.5-0.4l80.1,89.1c-0.3,0.3-0.5,0.6-0.8,1c-1.7,2.7-0.8,6.2,1.8,7.8
		c2.7,1.7,6.2,0.8,7.8-1.8c0.4-0.7,0.7-1.4,0.8-2.2l97.4,6.7c0,3.1,2.5,5.7,5.7,5.7c3.1,0,5.7-2.5,5.7-5.7c0-1-0.3-2-0.8-2.9
		l238-164.9c0.3,0.4,0.7,0.7,1.1,1l-102.2,163.7c-2.8-1.4-6.2-0.3-7.6,2.5c-1,2-0.8,4.4,0.6,6.1l-103.6,97.9
		c-0.3-0.2-0.6-0.5-0.9-0.6c-2.7-1.6-6.2-0.8-7.8,1.9c-1.6,2.7-0.8,6.2,1.9,7.8s6.2,0.8,7.8-1.9c1.3-2.1,1.1-4.7-0.4-6.6l103.6-97.9
		c1.8,1.6,4.3,2,6.4,0.9l54.4,89c-2.6,1.8-3.1,5.4-1.3,7.9c0.8,1.1,1.9,1.9,3.2,2.2l-23.8,131.4c-3-0.3-5.7,1.9-6.1,4.9
		s1.9,5.7,4.9,6.1c3,0.3,5.7-1.9,6.1-4.9c0.3-2.7-1.5-5.2-4.1-5.9l23.7-131.3c1.1,0.1,2.2-0.1,3.2-0.6l64.5,105.5
		c-2.6,1.8-3.1,5.4-1.3,7.9c1.8,2.6,5.4,3.1,7.9,1.3c0.6-0.4,1.1-1,1.5-1.6c0.1-0.2,0.3-0.5,0.4-0.8l112.4,38.3
		c-0.8,3,1,6.1,4.1,6.9c3,0.8,6.1-1,6.9-4.1c0.8-3-1-6.1-4.1-6.9c-2.4-0.6-5,0.4-6.3,2.5c-0.1,0.2-0.3,0.5-0.4,0.8L1477.8,471
		c0.1-0.3,0.1-0.6,0.2-0.9l221.3,6.6c0.1,3.1,2.8,5.6,5.9,5.4c0.3,0,0.6-0.1,0.9-0.1l67,237c-1.2,0.4-2.2,1.3-2.9,2.4
		c-1.7,2.7-0.8,6.2,1.8,7.8c2.7,1.7,6.2,0.8,7.8-1.8c1.7-2.7,0.8-6.2-1.8-7.8c-1.2-0.8-2.7-1-4.2-0.7l-67-237.1
		c1.2-0.4,2.2-1.3,2.9-2.4l0,0l208.7,106.8l0,0v-0.9l0,0l-208.3-106.7c0.4-0.9,0.5-2,0.4-3l172.6-37.8c0.8,2.9,3.8,4.6,6.7,3.9
		l28.6,92.4v-2.7l-27.8-89.9c2.9-1.1,4.4-4.4,3.2-7.3c-0.1-0.3-0.2-0.5-0.4-0.8l25-16.8v-1l-25.5,17.1c-0.4-0.5-0.9-1-1.5-1.3
		c-0.9-0.6-2-0.9-3.1-0.8l-40-427.4h-0.8l40,427.5c-0.9,0.1-1.7,0.5-2.4,1l-69.3-81.2c0.3-0.3,0.6-0.7,0.9-1.1
		c1.6-2.7,0.8-6.2-1.9-7.8c-0.6-0.4-1.3-0.6-2-0.8l33.5-337.7h-0.8L1812,340.9c-0.5,0-1.1,0-1.6,0.2L1698.3,3.3h-0.8l112.3,338.1
		c-0.3,0.2-0.7,0.3-1,0.5L1598.6,76.7c0.4-0.4,0.7-0.8,1-1.2c1.5-2.5,0.9-5.7-1.4-7.5l42.7-64.7h-1l-42.4,64.3
		c-2.7-1.5-6.2-0.6-7.7,2.2c-1.3,2.2-0.9,5,1,6.8l-169.8,198.6c-0.1-0.1-0.3-0.2-0.4-0.3c-0.3-0.2-0.7-0.4-1.1-0.5L1491.5,18
		c3.1,0.6,6.1-1.3,6.7-4.4c0.2-0.9,0.2-1.8-0.1-2.7l21.2-7.7h-2.3l-19.1,6.9c-1-2.3-3.4-3.7-5.9-3.3l-0.7-3.6h-0.8l0.8,3.8
		c-3,0.8-4.8,4-3.9,7c0.3,1.2,1.1,2.3,2.2,3.1l-37.1,60.3c-0.8-0.4-1.7-0.6-2.6-0.7l-5.3-73.4h-0.8l5.3,73.5
		c-0.5,0.1-1.1,0.2-1.5,0.4L1407,3.3h-0.9l40.5,74.3c-0.2,0.1-0.4,0.3-0.5,0.4l-71-74.7h-1.1l71.5,75.3c-0.2,0.3-0.5,0.5-0.6,0.8
		c-0.2,0.3-0.3,0.6-0.4,0.8l-212.8-68.8c0.6-2.4-0.4-4.9-2.5-6.2c-0.2-0.1-0.5-0.3-0.7-0.4l0.6-1.6h-13.3l5.6,3.9
		c-1.4,2.3-0.9,5.3,1.1,7.1l-102.6,132.2l-0.2-0.1c-1.7-1-3.8-1.1-5.6-0.2L1027.8,3.3h-0.9l86.3,143.2c-2.6,1.8-3.2,5.4-1.4,7.9
		c1.8,2.6,5.4,3.2,7.9,1.4c0.6-0.4,1.2-1,1.6-1.7c0.6-0.9,0.8-1.9,0.8-3l85.3-6.9c0.1,0.9,0.5,1.8,1,2.5l-110.8,95.4
		c-0.3-0.3-0.7-0.6-1.1-0.8c-2-1.2-4.6-1.1-6.5,0.4l-80.1-89.1c0.3-0.3,0.5-0.6,0.8-1c1.6-2.7,0.8-6.2-1.9-7.8s-6.2-0.8-7.8,1.9
		C999.4,148.3,1000.3,151.8,1003,153.5L1003,153.5z M1227.3,365.2L1227.3,365.2z M1710.4,474.9c-0.4-1.3-1.3-2.5-2.5-3.2
		c-2.7-1.6-6.1-0.8-7.8,1.8c0,0,0,0,0,0c-0.4,0.7-0.7,1.5-0.8,2.4l-219.6-6.6l403-32.1L1710.4,474.9z M1882.9,436.4l-405,32.3
		c-0.5-3.1-3.4-5.2-6.4-4.8c-0.6,0.1-1.2,0.3-1.8,0.6L1405.2,359c1.1-0.8,1.9-2,2.2-3.3l475.5,80.1
		C1882.9,436,1882.9,436.2,1882.9,436.4L1882.9,436.4z M1808.9,351.4c2,1.2,4.5,1.1,6.3-0.3l69.3,81.1c-0.3,0.3-0.6,0.7-0.9,1.1
		c-0.2,0.3-0.3,0.5-0.4,0.8l-228-75.8c0.1-0.4,0.2-0.9,0.2-1.4l150.7-9.7C1806.4,349,1807.4,350.6,1808.9,351.4L1808.9,351.4z
		 M1597.9,77.1L1808,342.4c-1.2,1.1-1.8,2.6-1.8,4.1l-150.7,9.7c-0.2-1.7-1.2-3.2-2.7-4.1c-1.1-0.7-2.4-1-3.7-0.8L1596.2,78
		C1596.8,77.8,1597.4,77.5,1597.9,77.1L1597.9,77.1z M1591.3,77c0.1,0.1,0.3,0.2,0.4,0.3c1.1,0.7,2.4,0.9,3.7,0.8l53,273.4
		c-1.4,0.4-2.6,1.3-3.4,2.5c-0.2,0.3-0.3,0.5-0.4,0.8L1423,281.1c0.5-2-0.1-4-1.5-5.5L1591.3,77z M1422.3,282.7
		c0.2-0.3,0.3-0.5,0.4-0.8l221.6,73.7c-0.8,3,1.1,6.1,4.1,6.9c2.4,0.6,4.9-0.4,6.2-2.5c0.2-0.3,0.3-0.5,0.4-0.8l228,75.8
		c0,0,0,0,0,0.1l-475.5-80.1c0.3-3.1-2-5.9-5.1-6.2c-1.1-0.1-2.2,0.1-3.2,0.6l-54.4-89c0.9-0.6,1.6-1.5,2-2.5l65.2,20.7
		c-0.7,3.1,1.2,6.1,4.2,6.8C1418.6,285.8,1421.1,284.8,1422.3,282.7L1422.3,282.7z M1449.1,88c3.1,0.3,5.9-2,6.2-5.1
		c0.2-2-0.7-4-2.4-5.1l37.1-60.2c0.2,0.1,0.5,0.2,0.7,0.3L1419,272.8L1449.1,88z M1447,87.4c0.4,0.2,0.9,0.4,1.3,0.5L1418,274.1
		c-2.1-0.2-4.2,0.8-5.3,2.7c-0.2,0.3-0.3,0.6-0.4,0.9l-65.2-20.6c0.5-2.2-0.3-4.6-2.2-5.9L1447,87.4z M1118.8,152.6
		c-0.9,1.3-2.6,1.6-3.9,0.7c-1.2-0.8-1.6-2.4-0.9-3.7c0.2-0.3,0.4-0.5,0.6-0.7l0,0c-0.2,0.2-0.4,0.4-0.6,0.7c-0.8,1.3-0.4,3,0.9,3.8
		c0,0,0,0,0,0C1116.3,154.3,1118,153.9,1118.8,152.6c0.2-0.4,0.4-0.8,0.4-1.3l0,0C1119.2,151.8,1119.1,152.2,1118.8,152.6
		L1118.8,152.6z M1444.7,85.2l-238,164.9c-0.4-0.5-0.9-0.9-1.4-1.3c-0.6-0.4-1.3-0.6-2-0.8l9.6-99c3.1,0.1,5.7-2.4,5.8-5.5
		c0-0.4,0-0.8-0.1-1.2l225.6-58.2C1444.4,84.6,1444.5,84.9,1444.7,85.2L1444.7,85.2z M1212.6,143.8l0.1-0.6l0.1-0.1l0.1-0.1h0.1l0,0
		l0.1,0.8H1212.6z M1230.8,13c0.2-0.3,0.3-0.6,0.4-0.9L1444.1,81c-0.2,0.8-0.2,1.6-0.1,2.4l-225.6,58.2c-0.7-2-2.4-3.4-4.4-3.8
		l11.9-122C1227.9,15.8,1229.8,14.8,1230.8,13z M1208.2,140.4c-0.6,0.9-0.8,1.9-0.8,3l-85.3,6.9c-0.2-1.3-0.8-2.5-1.8-3.4
		l102.6-132.1c0.1,0,0.1,0.1,0.2,0.1c0.6,0.4,1.3,0.6,2,0.8l-11.9,122.1C1211.1,137.7,1209.3,138.7,1208.2,140.4z M1209,147.4
		c0.8,0.8,1.9,1.4,3.1,1.6l-9.6,99c-2-0.1-3.9,1-5,2.7c-0.4,0.7-0.7,1.4-0.8,2.2l-97.4-6.7c0-1.2-0.4-2.4-1.1-3.4L1209,147.4z
		 M1091.2,250L1091.2,250z"/>
</g>
<text transform="matrix(1 0 0 1 1066.53 881.18)" class="st2 st3 st10">We always love to support</text>
<text transform="matrix(1 0 0 1 1117.09 933.01)" class="st2 st11 st12">Biz@Veevotech.com</text>
<text transform="matrix(1 0 0 1 1117.09 973.81)" class="st2 st11 st12">UAN +92 304 111 8333</text>
<path class="st13" d="M288.4,342.5c-69.3,124-24.9,280.6,99,349.9s280.6,24.9,349.9-99s24.9-280.6-99-349.9S357.7,218.5,288.4,342.5
	"/>
<path class="st14" d="M381,603.6c-53.2,0-96.3-43.2-96.3-96.4c0-53.2,43.2-96.3,96.4-96.3c53.2,0,96.3,43.2,96.3,96.4
	c0,16.4-4.2,32.6-12.2,46.9C448.2,584.8,416,603.7,381,603.6"/>
<path class="st14" d="M615.4,681c-53.2,0-96.3-43.2-96.3-96.4s43.2-96.3,96.4-96.3c53.2,0,96.3,43.2,96.3,96.4
	c0,16.4-4.2,32.6-12.2,46.9C682.6,662.2,650.4,681.1,615.4,681"/>
<path class="st15" d="M712.5,786.8c0,13.3-90.6,24-202.4,24s-202.3-10.8-202.3-24s90.6-24,202.3-24S712.5,773.5,712.5,786.8z"/>
<path class="st16" d="M304.6,449.2c-51.7-28.9-117-10.4-145.9,41.3c-28.9,51.7-10.4,117,41.3,145.9c3.7,2,7.4,3.9,11.3,5.5
	c26.8,14.2,68.9,29.8,101.6,10.8c0,0-12.4,1-25.8-8.5c56-19.2,85.8-80.2,66.6-136.2C345.1,483,327.7,462.1,304.6,449.2L304.6,449.2z
	"/>
<path class="st17" d="M282.1,490.5c0,15.7-12.7,28.4-28.4,28.4s-28.4-12.7-28.4-28.4c0-15.7,12.7-28.4,28.4-28.4
	S282.1,474.8,282.1,490.5L282.1,490.5z"/>
<path class="st18" d="M260.6,481c0,3.8-3.1,6.9-6.9,6.9s-6.9-3.1-6.9-6.9s3.1-6.9,6.9-6.9S260.6,477.2,260.6,481L260.6,481z"/>
<path class="st18" d="M239.8,507c-0.2-7.7,5.8-14.1,13.5-14.3c7.7-0.2,14.1,5.8,14.3,13.5c0,0.2,0,0.5,0,0.7H239.8z"/>
<path class="st16" d="M810,297.6H675.9c-12.2,0-22.1,9.9-22.1,22.1v184c0,12.2,9.9,22.1,22.1,22.1h13.6
	c-6.8,28.4-27.9,35.2-27.9,35.2c30.5,4.2,58.1-15.2,77.8-35.1H810c12.2,0,22.1-9.9,22.1-22.1l0,0v-184
	C832.1,307.5,822.3,297.6,810,297.6C810,297.6,810,297.6,810,297.6z"/>
<path class="st13" d="M739.4,463H796c1.2,0,2.3-0.9,2.3-2.2v-21c0-1.2-1.1-2.2-2.3-2.2c0,0,0,0,0,0h-56.6c-1.2,0-2.2,0.9-2.3,2.2v21
	C737.2,462.1,738.2,463,739.4,463C739.4,463,739.4,463,739.4,463z"/>
<path class="st17" d="M680.3,429.4h97.8c1.4,0,2.5-1.1,2.5-2.5c0,0,0,0,0,0V399c0-1.4-1.1-2.5-2.4-2.5c0,0,0,0,0,0h-97.8
	c-1.4,0-2.5,1.1-2.5,2.5c0,0,0,0,0,0v27.8C677.8,428.2,678.9,429.3,680.3,429.4C680.3,429.3,680.3,429.3,680.3,429.4z"/>
<path class="st17" d="M681.4,354h102.7c1.9,0.1,3.5-1.4,3.6-3.3v-22.5c-0.1-1.9-1.7-3.4-3.6-3.3H681.4c-1.9-0.1-3.5,1.4-3.6,3.3
	c0,0,0,0,0,0v22.4C677.9,352.6,679.5,354.1,681.4,354C681.4,354,681.4,354,681.4,354z"/>
<path class="st13" d="M739.1,362.9h73.1c1.1,0,1.9,0.9,1.9,1.9v20.9c0,1.1-0.9,1.9-1.9,1.9h-73.1c-1.1,0-1.9-0.9-1.9-1.9v-20.9
	C737.2,363.7,738,362.9,739.1,362.9z"/>
<path class="st0" d="M802.7,504.1H687.5c-6.4-0.3-11.3-5.6-11-12c0.2-6,5-10.8,11-11h115.1c6.4,0.3,11.3,5.6,11,12
	C813.4,499,808.6,503.8,802.7,504.1z"/>
<path class="st19" d="M683.5,492.3h-0.4c0,4,3.2,7.2,7.2,7.2c4,0,7.2-3.2,7.2-7.2c0-4-3.2-7.2-7.2-7.2l0,0c-4,0-7.2,3.2-7.2,7.2h0.8
	c0-3.5,2.8-6.4,6.4-6.4s6.4,2.8,6.4,6.4c0,3.5-2.8,6.4-6.4,6.4c-1.7,0-3.3-0.7-4.5-1.9c-1.2-1.2-1.9-2.8-1.9-4.5H683.5z"/>
<path class="st17" d="M757.5,316h-24.3c-2.4,0-4.4-2-4.4-4.4c0-2.4,2-4.4,4.4-4.4h24.3c2.4,0,4.4,2,4.4,4.4
	C761.9,314,759.9,316,757.5,316L757.5,316z"/>
<path class="st13" d="M265.8,600c0,7.2,5.9,13.1,13.1,13.1s13.1-5.9,13.1-13.1c0-7.2-5.9-13.1-13.1-13.1S265.8,592.8,265.8,600
	L265.8,600z"/>
<path class="st20" d="M282.3,600.8c-1.8,0.3-3.1,1.8-3.1,3.7c-1.6-0.7-2.9-2-3.8-3.5c-0.3-0.6-0.6-1.3-0.8-1.9
	c0.4,0.1,0.8,0.1,1.2,0c2-0.3,3.4-2.2,3.1-4.2c-0.3-2-2.2-3.4-4.2-3.1c-1.8,0.3-3.1,1.8-3.1,3.6l0,0c0,0-1.4,11.3,10.5,12.6
	c0.4,0.1,0.9,0.1,1.3,0c2-0.3,3.4-2.2,3.1-4.2S284.3,600.4,282.3,600.8L282.3,600.8z"/>
<path class="st21" d="M210,600c0,7.2,5.9,13.1,13.1,13.1s13.1-5.9,13.1-13.1s-5.9-13.1-13.1-13.1c0,0,0,0-0.1,0
	C215.8,586.9,210,592.8,210,600z"/>
<path class="st16" d="M220.3,604.2c1-1.5,0.7-3.5-0.7-4.7c1.6-0.7,3.3-0.9,5-0.5c0.7,0.2,1.3,0.4,1.9,0.7c-0.3,0.3-0.6,0.5-0.8,0.9
	c-1.1,1.7-0.6,3.9,1.1,5s3.9,0.6,5-1.1c1-1.5,0.7-3.5-0.7-4.7l0,0c0,0-7.4-8.4-16.1-0.4l0,0c-0.4,0.3-0.7,0.6-0.9,1
	c-1.1,1.7-0.6,3.9,1.1,5S219.2,605.9,220.3,604.2L220.3,604.2z"/>
<path class="st13" d="M662.6,717.7c0,14.2,11.5,25.7,25.7,25.7c14.2,0,25.7-11.5,25.7-25.7c0-14.2-11.5-25.7-25.7-25.7
	C674.1,692,662.6,703.5,662.6,717.7C662.6,717.7,662.6,717.7,662.6,717.7z"/>
<path class="st0" d="M695,719.3c-3.6,0.5-6.2,3.6-6.1,7.2c-3.1-1.4-5.7-3.8-7.4-6.8c-0.7-1.2-1.2-2.5-1.5-3.8c0.8,0.1,1.6,0.1,2.4,0
	c3.9-0.6,6.6-4.3,6-8.2c-0.6-3.9-4.3-6.6-8.2-6c-3.5,0.5-6.1,3.6-6.1,7.1H674c0,0-2.8,22.1,20.7,24.7l0,0c3.9,0.8,7.7-1.7,8.5-5.6
	c0.8-3.9-1.7-7.7-5.6-8.5C696.7,719.2,695.9,719.2,695,719.3L695,719.3z"/>
<path class="st20" d="M256.4,267.8c0,14.2,11.5,25.7,25.7,25.7c14.2,0,25.7-11.5,25.7-25.7c0-14.2-11.5-25.7-25.7-25.7
	S256.4,253.6,256.4,267.8L256.4,267.8z"/>
<path class="st0" d="M288.8,269.4c-3.6,0.5-6.2,3.6-6.1,7.2c-3.1-1.4-5.7-3.8-7.4-6.8c-0.7-1.2-1.2-2.5-1.5-3.8
	c3.9,0.7,7.7-1.9,8.4-5.8c0.7-3.9-1.9-7.7-5.8-8.4s-7.7,1.9-8.4,5.8c-0.1,0.4-0.1,0.8-0.1,1.2h-0.1c0,0-2.7,22.1,20.6,24.7l0,0
	c3.9,0.8,7.7-1.7,8.5-5.6c0.8-3.9-1.7-7.7-5.6-8.5C290.5,269.3,289.6,269.3,288.8,269.4z"/>
<path class="st13" d="M339.1,694.3h-58.8c-3.6,0-6.5,2.9-6.5,6.5l0,0v33.8c0,3.6,2.9,6.5,6.5,6.5h0h39.9c3.6,0,6.5-2.9,6.5-6.5l0,0
	v-27.5L339.1,694.3z"/>
<path class="st0" d="M282.3,710.5c-0.7,0-1.3-0.5-1.5-1.2c-0.1-0.8,0.4-1.6,1.2-1.8c0.9-0.2,20.1-0.1,36.1,0c0.8,0.2,1.4,1,1.2,1.8
	c-0.1,0.6-0.6,1.1-1.2,1.2l0,0c-13.6-0.1-34.3-0.1-35.6,0L282.3,710.5z"/>
<path class="st0" d="M282.3,717.1c-0.7,0-1.3-0.5-1.5-1.2c-0.1-0.8,0.4-1.6,1.2-1.8c0.9-0.2,20.1-0.1,36.1,0
	c0.8-0.1,1.6,0.6,1.6,1.4s-0.6,1.6-1.4,1.6c-0.1,0-0.2,0-0.2,0l0,0c-13.6-0.1-34.3-0.1-35.6,0L282.3,717.1z"/>
<path class="st0" d="M282.3,725.1c-0.7,0-1.3-0.5-1.5-1.2c-0.1-0.8,0.4-1.6,1.2-1.8c0.9-0.2,20.1-0.1,36.1,0
	c0.8,0.1,1.5,0.8,1.4,1.6c-0.1,0.7-0.7,1.3-1.4,1.4l0,0c-13.6-0.1-34.3-0.1-35.6,0L282.3,725.1z"/>
<path class="st0" d="M281.9,733c-0.8,0-1.5-0.7-1.6-1.5c0-0.7,0.4-1.3,1.1-1.5c0.3-0.1,0.8-0.2,24.2-0.1c0.8-0.2,1.6,0.4,1.8,1.2
	c0.2,0.8-0.4,1.6-1.2,1.8c-0.2,0-0.4,0-0.6,0c-8.4-0.1-22.2-0.1-23.5,0L281.9,733z"/>
<path class="st20" d="M736,615l17.4-7.3l3.4-1.4l33.4-14c3.3-1.4,7.2,0.2,8.5,3.5c0,0,0,0,0,0l13.1,31.1c1.4,3.3-0.2,7.2-3.5,8.5
	l-36.8,15.4c-3.3,1.4-7.1-0.2-8.5-3.5c0,0,0,0,0,0l-10.6-25.3L736,615z"/>
<path class="st0" d="M794.7,608c0.7-0.3,1-1,0.9-1.7c-0.2-0.8-1-1.4-1.8-1.2c-0.9,0.2-18.6,7.7-33.3,13.9c-0.8,0.4-1,1.3-0.7,2.1
	c0.3,0.7,1.1,1,1.9,0.7l0,0c12.5-5.3,31.6-13.4,32.8-13.8L794.7,608z"/>
<path class="st0" d="M797.2,614.1c0.7-0.3,1-1,0.9-1.7c-0.2-0.8-1-1.4-1.8-1.2c-0.9,0.2-18.6,7.7-33.3,13.9c-0.8,0.4-1,1.3-0.7,2.1
	c0.3,0.7,1.1,1,1.9,0.7l0,0c12.5-5.3,31.6-13.4,32.8-13.8L797.2,614.1z"/>
<path class="st0" d="M800.3,621.5c0.7-0.3,1-1,0.9-1.7c-0.2-0.8-1-1.4-1.8-1.2c-0.9,0.2-18.6,7.7-33.3,13.9c-0.8,0.4-1,1.3-0.7,2.1
	c0.3,0.7,1.1,1,1.9,0.7l0,0c12.5-5.3,31.6-13.4,32.8-13.8C800.1,621.5,800.2,621.5,800.3,621.5z"/>
<path class="st0" d="M803.8,628.6c0.8-0.3,1.2-1.2,0.8-2c-0.3-0.6-0.9-1-1.6-0.9c-0.3,0-0.8,0.1-22.3,9.3c-0.8,0.3-1.2,1.2-0.9,2
	c0.3,0.8,1.2,1.2,2,0.9c0.1,0,0.1,0,0.2-0.1c7.8-3.3,20.4-8.7,21.6-9.1C803.6,628.7,803.7,628.7,803.8,628.6z"/>
<path class="st0" d="M282.2,560.5c-0.3-0.8-0.8-1.4-1.5-1.9c-1.4-0.8-3.1-0.9-4.5-0.1c-0.6,0.4-1.2,0.9-1.5,1.5
	c-0.7,1.4-0.7,3,0,4.4c1.2,1.9,3.6,2.6,5.6,1.6c1.2-0.7,2-1.9,2.1-3.2v-0.8h-4.5v0.9h3.3c0,0.8-0.4,1.5-0.9,2
	c-0.5,0.5-1.3,0.8-2,0.7c-0.5,0-1.1-0.1-1.6-0.4c-0.5-0.3-0.9-0.7-1.1-1.1c-0.3-0.5-0.4-1.1-0.4-1.7c0-0.6,0.1-1.2,0.4-1.7
	c0.3-0.5,0.6-0.9,1.1-1.2c0.5-0.3,1-0.4,1.6-0.4c0.5,0,1.1,0.1,1.5,0.4c0.4,0.3,0.8,0.7,1,1.1L282.2,560.5z M272.6,558.1h-1.1v6.6
	l-4.4-6.6H266v8.4h1.1v-6.7l4.4,6.7h1.1L272.6,558.1z M263,558.1v8.3h1.1v-8.3H263z M260,558.1l-3.1,6.9l-3.1-6.9h-1.2v8.3h1.1v-6.2
	l2.8,6.2h0.8l2.8-6.2v6.2h1.1v-8.3L260,558.1z M247,565.5c-0.5,0-1.1-0.1-1.6-0.4c-0.5-0.3-0.9-0.7-1.1-1.2
	c-0.3-0.5-0.4-1.1-0.4-1.8c0-0.6,0.1-1.2,0.4-1.8c0.2-0.5,0.6-0.9,1.1-1.2c0.5-0.3,1-0.4,1.6-0.4c0.6,0,1.1,0.1,1.6,0.4
	c0.5,0.3,0.8,0.7,1.1,1.2c0.3,0.5,0.4,1.1,0.4,1.8c0,0.6-0.1,1.2-0.4,1.8c-0.3,0.5-0.6,0.9-1.1,1.2
	C248.1,565.4,247.6,565.6,247,565.5L247,565.5z M247,566.5c0.7,0,1.5-0.2,2.1-0.5c0.6-0.4,1.2-0.9,1.5-1.5c0.4-0.7,0.6-1.4,0.6-2.2
	c0-0.8-0.2-1.5-0.6-2.2c-0.4-0.6-0.9-1.2-1.5-1.5c-1.3-0.7-2.9-0.7-4.3,0c-0.6,0.4-1.2,0.9-1.5,1.5c-0.7,1.4-0.7,3,0,4.4
	c0.4,0.6,0.9,1.2,1.5,1.5C245.5,566.3,246.3,566.5,247,566.5L247,566.5z M233.5,562.2c0,0.8,0.2,1.5,0.5,2.2
	c0.7,1.3,2.1,2.1,3.6,2.1c0.8,0,1.7-0.2,2.4-0.7c0.7-0.4,1.2-1.1,1.5-1.8h-1.3c-0.2,0.5-0.6,0.9-1,1.1c-0.5,0.3-1,0.4-1.6,0.4
	c-1.1,0-2.1-0.6-2.7-1.6c-0.5-1.1-0.5-2.4,0-3.5c0.3-0.5,0.6-0.9,1.1-1.2c0.5-0.3,1-0.4,1.6-0.4c0.6,0,1.1,0.1,1.6,0.4
	c0.4,0.3,0.8,0.7,1,1.2h1.3c-0.3-0.8-0.8-1.4-1.5-1.9c-0.7-0.5-1.5-0.7-2.4-0.7c-1.5,0-2.9,0.8-3.6,2
	C233.7,560.7,233.5,561.5,233.5,562.2L233.5,562.2z M232.2,558h-1.1v6.6l-4.4-6.6h-1.1v8.4h1.1v-6.7l4.4,6.7h1.1V558z M222.6,558
	v8.3h1.1V558H222.6z"/>
<polygon class="st19" points="705.2,489.9 705.2,490.5 707,490.5 707,496.2 707.8,496.2 707.8,490.5 709.5,490.5 709.5,489.9 "/>
<polygon class="st19" points="714.1,491.2 712.5,495.3 711,491.2 710,491.2 712,496.1 711.1,498.5 711.9,498.5 714.9,491.2 "/>
<path class="st19" d="M719.8,493.7c0,0.3-0.1,0.7-0.2,1c-0.3,0.5-0.8,0.9-1.5,0.9c-0.3,0-0.6-0.1-0.8-0.2c-0.3-0.2-0.5-0.4-0.6-0.6
	c-0.3-0.6-0.3-1.4,0-2c0.1-0.3,0.4-0.5,0.6-0.6c0.3-0.1,0.6-0.2,0.8-0.2c0.6,0,1.2,0.3,1.5,0.9C719.8,493,719.8,493.4,719.8,493.7z
	 M716.5,492.1v-0.9h-0.8v7.3h0.8v-3.3c0.4,0.6,1.1,1,1.9,1c0.4,0,0.8-0.1,1.2-0.3c0.4-0.2,0.6-0.5,0.8-0.9c0.2-0.4,0.3-0.9,0.3-1.3
	c0-0.5-0.1-0.9-0.3-1.4c-0.2-0.4-0.5-0.7-0.8-0.9c-0.4-0.2-0.8-0.3-1.2-0.3c-0.4,0-0.8,0.1-1.1,0.3
	C716.9,491.6,716.6,491.8,716.5,492.1L716.5,492.1z"/>
<path class="st19" d="M725.4,493.4h-3.2c0-0.4,0.2-0.8,0.5-1.1c0.3-0.3,0.7-0.4,1.1-0.4c0.3,0,0.5,0.1,0.8,0.2
	c0.2,0.1,0.4,0.3,0.6,0.5C725.4,492.8,725.4,493.1,725.4,493.4z M726.3,493.5c0-0.4-0.1-0.8-0.3-1.2c-0.2-0.4-0.5-0.7-0.8-0.9
	c-0.4-0.2-0.8-0.3-1.2-0.3c-0.4,0-0.9,0.1-1.3,0.3c-0.4,0.2-0.7,0.5-0.9,0.9c-0.2,0.4-0.3,0.9-0.3,1.4c0,0.5,0.1,0.9,0.3,1.4
	c0.2,0.4,0.5,0.7,0.9,0.9c0.4,0.2,0.8,0.3,1.3,0.3c0.5,0,1.1-0.1,1.5-0.5c0.4-0.3,0.7-0.7,0.8-1.2h-0.9c-0.1,0.3-0.3,0.5-0.5,0.7
	c-0.3,0.2-0.6,0.3-0.9,0.3c-0.4,0-0.8-0.1-1.1-0.4c-0.3-0.3-0.5-0.7-0.5-1.1h4C726.3,493.9,726.3,493.7,726.3,493.5L726.3,493.5z"/>
<path class="st19" d="M733.8,493.7c0,0.3-0.1,0.7-0.2,1c-0.1,0.3-0.4,0.5-0.6,0.6c-0.3,0.1-0.6,0.2-0.8,0.2c-0.3,0-0.6-0.1-0.8-0.2
	c-0.3-0.2-0.5-0.4-0.6-0.6c-0.3-0.6-0.3-1.4,0-2c0.2-0.3,0.4-0.5,0.6-0.6c0.3-0.1,0.5-0.2,0.8-0.2c0.3,0,0.6,0.1,0.8,0.2
	c0.3,0.2,0.5,0.4,0.6,0.6C733.7,493,733.8,493.4,733.8,493.7z M729.6,493.7c0,0.5,0.1,0.9,0.3,1.3c0.2,0.4,0.5,0.7,0.8,0.9
	c0.7,0.4,1.6,0.4,2.3,0c0.3-0.2,0.5-0.4,0.7-0.7v0.9h0.8v-5h-0.8v0.9c-0.2-0.3-0.4-0.5-0.7-0.7c-0.3-0.2-0.7-0.3-1.1-0.3
	c-0.4,0-0.8,0.1-1.2,0.3c-0.4,0.2-0.7,0.5-0.9,0.9C729.7,492.7,729.6,493.2,729.6,493.7L729.6,493.7z"/>
<path class="st19" d="M744.4,491.1c-0.4,0-0.7,0.1-1.1,0.3c-0.3,0.2-0.6,0.5-0.7,0.8c-0.1-0.3-0.4-0.6-0.7-0.8
	c-0.6-0.4-1.4-0.4-2-0.1c-0.3,0.1-0.5,0.3-0.7,0.6v-0.7h-0.8v5h0.8v-2.7c0-0.4,0.1-0.9,0.4-1.2c0.3-0.3,0.6-0.4,1-0.4
	c0.4,0,0.7,0.1,1,0.4c0.3,0.3,0.4,0.7,0.3,1.1v2.8h0.8v-2.7c0-0.4,0.1-0.9,0.4-1.2c0.3-0.3,0.6-0.4,1-0.4c0.4,0,0.7,0.1,1,0.4
	c0.3,0.3,0.4,0.7,0.4,1.1v2.8h0.8v-2.9c0-0.4-0.1-0.8-0.2-1.2c-0.2-0.3-0.4-0.6-0.7-0.7C745.1,491.2,744.8,491.1,744.4,491.1z"/>
<path class="st19" d="M751.4,493.4h-3.2c0-0.4,0.2-0.8,0.5-1.1c0.3-0.3,0.7-0.4,1.1-0.4c0.3,0,0.5,0.1,0.8,0.2
	c0.2,0.1,0.4,0.3,0.6,0.5C751.3,492.8,751.4,493.1,751.4,493.4z M752.2,493.5c0-0.4-0.1-0.8-0.3-1.2c-0.2-0.4-0.5-0.7-0.8-0.9
	c-0.4-0.2-0.8-0.3-1.2-0.3c-0.4,0-0.9,0.1-1.3,0.3c-0.4,0.2-0.7,0.5-0.9,0.9c-0.2,0.4-0.3,0.9-0.3,1.4c0,0.5,0.1,0.9,0.3,1.4
	c0.2,0.4,0.5,0.7,0.9,0.9c0.4,0.2,0.8,0.3,1.3,0.3c0.5,0,1.1-0.1,1.5-0.5c0.4-0.3,0.7-0.7,0.8-1.2h-0.9c-0.1,0.3-0.3,0.5-0.5,0.7
	c-0.3,0.2-0.6,0.3-0.9,0.3c-0.4,0-0.8-0.1-1.1-0.4c-0.3-0.3-0.5-0.7-0.5-1.1h4C752.2,493.9,752.2,493.7,752.2,493.5z"/>
<path class="st19" d="M755.2,496.3c0.3,0,0.7-0.1,1-0.2c0.3-0.1,0.5-0.3,0.6-0.5c0.1-0.2,0.2-0.5,0.2-0.8c0-0.3-0.1-0.5-0.2-0.7
	c-0.2-0.2-0.3-0.3-0.6-0.4c-0.3-0.1-0.6-0.2-0.9-0.3c-0.3-0.1-0.5-0.1-0.7-0.2c-0.1-0.1-0.3-0.1-0.4-0.3c-0.1-0.1-0.2-0.3-0.2-0.4
	c0-0.2,0.1-0.4,0.3-0.5c0.2-0.1,0.5-0.2,0.7-0.2c0.3,0,0.5,0.1,0.8,0.2c0.2,0.1,0.3,0.4,0.3,0.6h0.9c0-0.4-0.2-0.9-0.5-1.1
	c-0.4-0.3-0.9-0.4-1.3-0.4c-0.3,0-0.7,0.1-1,0.2c-0.3,0.1-0.5,0.3-0.7,0.5c-0.3,0.4-0.3,1,0,1.5c0.2,0.2,0.4,0.3,0.6,0.4
	c0.3,0.1,0.6,0.2,0.9,0.3c0.3,0.1,0.6,0.2,0.9,0.3c0.2,0.1,0.3,0.3,0.3,0.5c0,0.2-0.1,0.4-0.3,0.5c-0.5,0.3-1.1,0.3-1.6,0
	c-0.2-0.1-0.3-0.4-0.3-0.6h-0.9c0,0.3,0.1,0.6,0.3,0.8c0.2,0.2,0.4,0.4,0.7,0.5C754.5,496.3,754.8,496.3,755.2,496.3z"/>
<path class="st19" d="M759.8,496.3c0.3,0,0.7-0.1,1-0.2c0.3-0.1,0.5-0.3,0.6-0.5c0.1-0.2,0.2-0.5,0.2-0.8c0-0.3-0.1-0.5-0.2-0.7
	c-0.2-0.2-0.4-0.3-0.6-0.4c-0.3-0.1-0.6-0.2-0.9-0.3c-0.3-0.1-0.5-0.1-0.7-0.2c-0.1-0.1-0.3-0.1-0.4-0.3c-0.1-0.1-0.2-0.3-0.2-0.4
	c0-0.2,0.1-0.4,0.3-0.5c0.2-0.1,0.5-0.2,0.7-0.2c0.3,0,0.5,0.1,0.8,0.2c0.2,0.1,0.3,0.4,0.3,0.6h0.8c0-0.4-0.2-0.9-0.5-1.1
	c-0.4-0.3-0.9-0.4-1.3-0.4c-0.3,0-0.7,0.1-1,0.2c-0.3,0.1-0.5,0.3-0.7,0.5c-0.3,0.4-0.3,1,0,1.5c0.2,0.2,0.4,0.3,0.6,0.4
	c0.3,0.1,0.6,0.2,0.9,0.3c0.3,0.1,0.6,0.2,0.9,0.3c0.2,0.1,0.3,0.3,0.3,0.5c0,0.2-0.1,0.4-0.3,0.5c-0.5,0.3-1.1,0.3-1.6,0
	c-0.2-0.1-0.3-0.4-0.3-0.6h-0.8c0,0.3,0.1,0.6,0.3,0.8c0.2,0.2,0.4,0.4,0.7,0.5C759.1,496.3,759.4,496.3,759.8,496.3z"/>
<path class="st19" d="M766.8,493.7c0,0.3-0.1,0.7-0.2,1c-0.1,0.3-0.4,0.5-0.6,0.6c-0.3,0.1-0.6,0.2-0.8,0.2c-0.3,0-0.6-0.1-0.8-0.2
	c-0.3-0.2-0.5-0.4-0.6-0.6c-0.3-0.6-0.3-1.4,0-2c0.2-0.3,0.4-0.5,0.6-0.6c0.3-0.1,0.5-0.2,0.8-0.2c0.3,0,0.6,0.1,0.8,0.2
	c0.3,0.2,0.5,0.4,0.6,0.6C766.7,493,766.8,493.4,766.8,493.7z M762.6,493.7c0,0.5,0.1,0.9,0.3,1.3c0.2,0.4,0.5,0.7,0.8,0.9
	c0.4,0.2,0.8,0.3,1.2,0.3c0.4,0,0.8-0.1,1.1-0.3c0.3-0.2,0.5-0.4,0.7-0.7v0.9h0.8v-5h-0.8v0.9c-0.2-0.3-0.4-0.5-0.7-0.7
	c-0.3-0.2-0.7-0.3-1.1-0.3c-0.4,0-0.8,0.1-1.2,0.3c-0.4,0.2-0.7,0.5-0.9,0.9C762.7,492.8,762.6,493.2,762.6,493.7z"/>
<path class="st19" d="M772.9,493.7c0,0.3-0.1,0.7-0.2,1c-0.1,0.3-0.4,0.5-0.6,0.6c-0.5,0.3-1.2,0.3-1.7,0c-0.3-0.2-0.5-0.4-0.6-0.6
	c-0.3-0.6-0.3-1.4,0-2c0.1-0.3,0.4-0.5,0.6-0.6c0.5-0.3,1.2-0.3,1.7,0c0.3,0.2,0.5,0.4,0.6,0.6C772.8,493,772.9,493.4,772.9,493.7z
	 M771,491.1c-0.4,0-0.8,0.1-1.2,0.3c-0.4,0.2-0.7,0.5-0.9,0.9c-0.2,0.4-0.3,0.9-0.3,1.4c0,0.5,0.1,0.9,0.3,1.3
	c0.2,0.4,0.5,0.7,0.9,0.9c0.7,0.4,1.6,0.4,2.3,0c0.3-0.2,0.5-0.4,0.7-0.7v1c0,0.4-0.1,0.9-0.4,1.2c-0.3,0.3-0.7,0.4-1.1,0.4
	c-0.4,0-0.7-0.1-1-0.3c-0.3-0.2-0.5-0.4-0.6-0.7h-0.8c0.1,0.5,0.3,1,0.8,1.3c0.5,0.3,1.1,0.5,1.6,0.5c0.4,0,0.9-0.1,1.3-0.3
	c0.4-0.2,0.6-0.5,0.8-0.8c0.2-0.4,0.3-0.8,0.3-1.2v-5.1h-0.8v0.9c-0.2-0.3-0.4-0.5-0.7-0.7C771.8,491.2,771.4,491.1,771,491.1z"/>
<path class="st19" d="M778.8,493.4h-3.2c0-0.4,0.2-0.8,0.5-1.1c0.3-0.3,0.7-0.4,1.1-0.4c0.3,0,0.5,0.1,0.8,0.2
	c0.2,0.1,0.4,0.3,0.6,0.5C778.7,492.8,778.8,493.1,778.8,493.4z M779.6,493.5c0-0.4-0.1-0.8-0.3-1.2c-0.2-0.4-0.5-0.7-0.8-0.9
	c-0.4-0.2-0.8-0.3-1.2-0.3c-0.4,0-0.9,0.1-1.3,0.3c-0.4,0.2-0.7,0.5-0.9,0.9c-0.2,0.4-0.3,0.9-0.3,1.4c0,0.5,0.1,0.9,0.3,1.4
	c0.2,0.4,0.5,0.7,0.9,0.9c0.4,0.2,0.8,0.3,1.3,0.3c0.5,0,1.1-0.1,1.5-0.5c0.4-0.3,0.7-0.7,0.8-1.2h-0.9c-0.1,0.3-0.3,0.5-0.5,0.7
	c-0.3,0.2-0.6,0.3-0.9,0.3c-0.4,0-0.8-0.1-1.1-0.4c-0.3-0.3-0.5-0.7-0.5-1.1h4C779.7,493.9,779.7,493.7,779.6,493.5L779.6,493.5z"/>
<path class="st19" d="M781.1,496.3c0.1,0,0.3-0.1,0.4-0.2c0.1-0.1,0.1-0.3,0.2-0.4c0-0.1-0.1-0.3-0.2-0.4c-0.2-0.2-0.5-0.2-0.7-0.1
	c0,0,0,0-0.1,0.1c-0.1,0.1-0.2,0.2-0.2,0.4c0,0.1,0.1,0.3,0.2,0.4C780.8,496.2,781,496.3,781.1,496.3z"/>
<path class="st19" d="M783,496.3c0.3,0,0.5-0.3,0.5-0.6c0,0,0,0,0,0c0-0.1,0-0.3-0.2-0.4c-0.1-0.1-0.2-0.2-0.4-0.2
	c-0.2,0-0.3,0.1-0.4,0.2c-0.1,0.1-0.2,0.2-0.2,0.4c0,0.2,0.1,0.3,0.2,0.4C782.7,496.2,782.9,496.3,783,496.3z"/>
<path class="st19" d="M784.8,496.3c0.1,0,0.3-0.1,0.4-0.2c0.1-0.1,0.1-0.3,0.2-0.4c0-0.1-0.1-0.3-0.2-0.4c-0.1-0.1-0.2-0.2-0.4-0.2
	c-0.2,0-0.3,0.1-0.4,0.2c-0.1,0.1-0.2,0.2-0.2,0.4c0,0.2,0.1,0.3,0.2,0.4C784.5,496.2,784.7,496.3,784.8,496.3z"/>
<path class="st19" d="M786.8,496.3c0.3,0,0.5-0.3,0.5-0.6c0,0,0,0,0,0c0-0.1,0-0.3-0.2-0.4c-0.1-0.1-0.2-0.2-0.4-0.2
	c-0.2,0-0.3,0.1-0.4,0.2c-0.1,0.1-0.2,0.2-0.2,0.4c0,0.2,0.1,0.3,0.2,0.4C786.6,496.2,786.7,496.3,786.8,496.3z"/>
<path class="st19" d="M788.7,496.3c0.1,0,0.3-0.1,0.4-0.2c0.1-0.1,0.1-0.3,0.2-0.4c0-0.1-0.1-0.3-0.2-0.4c-0.1-0.1-0.2-0.2-0.4-0.2
	c-0.2,0-0.3,0.1-0.4,0.2c-0.1,0.1-0.2,0.2-0.2,0.4c0,0.2,0.1,0.3,0.2,0.4C788.4,496.2,788.6,496.3,788.7,496.3z"/>
<path class="st19" d="M790.6,496.3c0.1,0,0.3-0.1,0.4-0.2c0.1-0.1,0.1-0.3,0.2-0.4c0-0.1-0.1-0.3-0.2-0.4c-0.2-0.2-0.5-0.2-0.7-0.1
	c0,0,0,0-0.1,0.1c-0.1,0.1-0.2,0.2-0.2,0.4c0,0.1,0.1,0.3,0.2,0.4C790.3,496.2,790.4,496.3,790.6,496.3z"/>
<path class="st19" d="M792.4,496.3c0.1,0,0.3-0.1,0.4-0.2c0.1-0.1,0.1-0.3,0.2-0.4c0-0.1-0.1-0.3-0.2-0.4c-0.1-0.1-0.2-0.2-0.4-0.2
	c-0.2,0-0.3,0.1-0.4,0.2c-0.1,0.1-0.2,0.2-0.2,0.4c0,0.1,0.1,0.3,0.2,0.4C792.1,496.2,792.3,496.3,792.4,496.3z"/>
<path class="st19" d="M794.5,496.3c0.1,0,0.3-0.1,0.4-0.2c0.1-0.1,0.1-0.3,0.2-0.4c0-0.1-0.1-0.3-0.2-0.4c-0.2-0.2-0.5-0.2-0.7-0.1
	c0,0,0,0-0.1,0.1c-0.1,0.1-0.2,0.2-0.2,0.4c0,0.1,0.1,0.3,0.2,0.4C794.2,496.2,794.3,496.3,794.5,496.3z"/>
<polygon class="st17" points="787.4,411.7 787.4,414.9 788.2,414.9 788.2,411 786.9,411 786.9,411.7 "/>
<path class="st17" d="M791,412.9c0,0.2,0,0.5,0,0.7c0,0.2-0.1,0.3-0.2,0.4c-0.3,0.2-0.6,0.2-0.9,0c-0.1-0.1-0.2-0.3-0.2-0.4
	c0-0.2,0-0.5,0-0.7c0-0.2,0-0.4,0.1-0.7c0-0.2,0.1-0.3,0.2-0.4c0.3-0.2,0.6-0.2,0.9,0c0.1,0.1,0.2,0.3,0.2,0.4
	C791.1,412.5,791,412.7,791,412.9z M788.8,412.9c0,0.5,0.1,1,0.3,1.5c0.2,0.4,0.7,0.6,1.1,0.5c0.4,0,0.9-0.2,1.1-0.5
	c0.2-0.4,0.4-1,0.3-1.5c0-0.5-0.1-1-0.3-1.5c-0.2-0.4-0.7-0.6-1.1-0.5c-0.4,0-0.9,0.2-1.1,0.5C788.9,411.9,788.8,412.4,788.8,412.9
	L788.8,412.9z"/>
<path class="st17" d="M792.8,414.9c0.1,0,0.2,0,0.3-0.1c0.1-0.1,0.1-0.2,0.1-0.3c0-0.1,0-0.2-0.1-0.3c-0.1-0.1-0.2-0.1-0.3-0.1
	c-0.1,0-0.2,0-0.3,0.1c-0.1,0.1-0.1,0.2-0.1,0.3c0,0.1,0,0.2,0.1,0.3C792.5,414.9,792.7,414.9,792.8,414.9z"/>
<path class="st17" d="M793.8,412h0.7c0-0.1,0.1-0.3,0.2-0.4c0.1-0.1,0.2-0.1,0.4-0.1c0.1,0,0.3,0,0.4,0.1c0.1,0.1,0.1,0.2,0.1,0.4
	c0,0.3-0.2,0.5-0.8,0.5h-0.2v0.6h0.2c0.2,0,0.4,0,0.6,0.1c0.1,0.1,0.2,0.3,0.2,0.5c0,0.1,0,0.3-0.2,0.4c-0.1,0.1-0.3,0.2-0.4,0.1
	c-0.2,0-0.3,0-0.5-0.2c-0.1-0.1-0.2-0.3-0.2-0.4h-0.7c0,0.3,0.1,0.7,0.4,0.9c0.3,0.2,0.6,0.3,1,0.3c0.2,0,0.5,0,0.7-0.1
	c0.2-0.1,0.3-0.2,0.4-0.4c0.1-0.2,0.1-0.4,0.2-0.6c0-0.2-0.1-0.4-0.2-0.6c-0.1-0.2-0.3-0.3-0.5-0.3l0,0c0.2-0.1,0.3-0.2,0.4-0.3
	c0.1-0.2,0.2-0.4,0.2-0.6c0-0.2-0.1-0.4-0.1-0.5c-0.1-0.2-0.3-0.3-0.4-0.4c-0.2-0.1-0.4-0.1-0.7-0.1c-0.3,0-0.7,0.1-0.9,0.3
	C794,411.4,793.9,411.7,793.8,412z"/>
<path class="st17" d="M797,412h0.7c0-0.1,0.1-0.3,0.2-0.4c0.1-0.1,0.2-0.1,0.4-0.1c0.1,0,0.3,0,0.4,0.1c0.1,0.1,0.1,0.2,0.1,0.4
	c0,0.3-0.2,0.5-0.8,0.5h-0.2v0.6h0.2c0.2,0,0.4,0,0.6,0.1c0.1,0.1,0.2,0.3,0.2,0.5c0,0.1,0,0.3-0.2,0.4c-0.1,0.1-0.3,0.2-0.4,0.1
	c-0.2,0-0.3,0-0.5-0.2c-0.1-0.1-0.2-0.3-0.2-0.4H797c0,0.3,0.1,0.7,0.4,0.9c0.3,0.2,0.6,0.3,1,0.3c0.2,0,0.5,0,0.7-0.1
	c0.2-0.1,0.3-0.2,0.4-0.4c0.1-0.2,0.1-0.4,0.2-0.6c0-0.2-0.1-0.4-0.2-0.6c-0.1-0.2-0.3-0.3-0.5-0.3l0,0c0.2-0.1,0.3-0.2,0.4-0.3
	c0.1-0.2,0.2-0.4,0.2-0.6c0-0.2-0.1-0.4-0.1-0.5c-0.1-0.2-0.3-0.3-0.4-0.4c-0.2-0.1-0.4-0.1-0.7-0.1c-0.3,0-0.7,0.1-0.9,0.3
	C797.2,411.4,797,411.7,797,412z"/>
<path class="st17" d="M802.5,413.6l0.5-1.6l0.5,1.6H802.5z M804.1,414.9h0.8l-1.3-3.7h-0.9l-1.3,3.7h0.8l0.2-0.7h1.5L804.1,414.9z"
	/>
<polygon class="st17" points="808.6,411.2 807.5,414 806.3,411.2 805.4,411.2 805.4,414.9 806.2,414.9 806.2,412.5 807.2,414.9 
	807.7,414.9 808.7,412.5 808.7,414.9 809.5,414.9 809.5,411.2 "/>
<polygon class="st17" points="707.5,373.9 707.5,377.1 708.3,377.1 708.3,373.2 707,373.2 707,373.9 "/>
<path class="st17" d="M711.2,375.1c0,0.2,0,0.5,0,0.7c0,0.2-0.1,0.3-0.2,0.4c-0.3,0.2-0.6,0.2-0.9,0c-0.1-0.1-0.2-0.3-0.2-0.4
	c0-0.2,0-0.5,0-0.7c0-0.2,0-0.4,0.1-0.7c0-0.2,0.1-0.3,0.2-0.4c0.3-0.2,0.6-0.2,0.9,0c0.1,0.1,0.2,0.3,0.2,0.4
	C711.3,374.6,711.3,374.9,711.2,375.1z M709.1,375.1c0,0.5,0.1,1,0.3,1.5c0.2,0.4,0.7,0.6,1.1,0.5c0.4,0,0.9-0.2,1.1-0.5
	c0.2-0.4,0.4-1,0.3-1.5c0-0.5-0.1-1-0.3-1.4c-0.2-0.4-0.7-0.6-1.1-0.5c-0.4,0-0.9,0.2-1.1,0.5C709.2,374.1,709.1,374.6,709.1,375.1z
	"/>
<path class="st17" d="M712.8,377.1c0.1,0,0.2,0,0.3-0.1c0.1-0.1,0.1-0.2,0.1-0.3c0-0.2-0.2-0.4-0.4-0.4c0,0,0,0,0,0
	c-0.1,0-0.2,0-0.3,0.1c-0.1,0.1-0.1,0.2-0.1,0.3c0,0.1,0.1,0.2,0.1,0.3C712.6,377.1,712.7,377.1,712.8,377.1z"/>
<path class="st17" d="M713.9,374.2h0.7c0-0.1,0.1-0.3,0.2-0.4c0.1-0.1,0.3-0.1,0.4-0.1c0.1,0,0.3,0,0.4,0.1c0.1,0.1,0.1,0.2,0.1,0.4
	c0,0.3-0.2,0.5-0.8,0.5h-0.2v0.6h0.2c0.2,0,0.4,0,0.6,0.1c0.1,0.1,0.2,0.3,0.2,0.5c0,0.1-0.1,0.3-0.2,0.4c-0.1,0.1-0.3,0.2-0.4,0.1
	c-0.2,0-0.3-0.1-0.5-0.2c-0.1-0.1-0.2-0.2-0.2-0.4h-0.7c0,0.3,0.1,0.7,0.4,0.9c0.3,0.2,0.6,0.3,1,0.3c0.2,0,0.5,0,0.7-0.1
	c0.2-0.1,0.3-0.2,0.4-0.4c0.1-0.2,0.1-0.4,0.2-0.6c0-0.2-0.1-0.4-0.2-0.6c-0.1-0.2-0.3-0.3-0.5-0.3l0,0c0.2-0.1,0.3-0.2,0.4-0.3
	c0.1-0.2,0.2-0.4,0.2-0.6c0-0.2-0.1-0.4-0.1-0.5c-0.1-0.2-0.3-0.3-0.4-0.4c-0.2-0.1-0.4-0.1-0.7-0.1c-0.3,0-0.7,0.1-0.9,0.3
	C714.1,373.6,713.9,373.9,713.9,374.2z"/>
<path class="st17" d="M717,376.5v0.5h2.6v-0.6h-1.6c0.3-0.3,0.6-0.5,0.8-0.7c0.2-0.2,0.4-0.4,0.5-0.6c0.1-0.2,0.2-0.5,0.2-0.8
	c0-0.3-0.1-0.6-0.3-0.9c-0.3-0.2-0.6-0.3-0.9-0.3c-0.3,0-0.7,0.1-0.9,0.3c-0.3,0.3-0.4,0.6-0.4,1h0.7c0-0.2,0-0.3,0.2-0.5
	c0.2-0.2,0.6-0.2,0.8,0c0,0,0,0,0,0c0.1,0.1,0.1,0.3,0.1,0.4c0,0.2-0.1,0.4-0.2,0.6c-0.1,0.2-0.3,0.4-0.5,0.6
	c-0.3,0.3-0.5,0.5-0.8,0.7L717,376.5z"/>
<path class="st17" d="M722.6,375.8l0.5-1.6l0.5,1.6H722.6z M724.1,377.1h0.8l-1.3-3.7h-0.9l-1.3,3.7h0.8l0.2-0.7h1.5L724.1,377.1z"
	/>
<polygon class="st17" points="728.5,373.4 727.3,376.1 726.2,373.4 725.3,373.4 725.3,377.1 726,377.1 726,374.7 727,377.1 
	727.6,377.1 728.6,374.7 728.6,377.1 729.4,377.1 729.4,373.4 "/>
<polygon class="st17" points="794.8,338.1 794.8,341.3 795.6,341.3 795.6,337.4 794.3,337.4 794.3,338.1 "/>
<path class="st17" d="M798.5,339.3c0,0.2,0,0.5,0,0.7c0,0.2-0.1,0.3-0.2,0.4c-0.1,0.1-0.3,0.2-0.5,0.2c-0.2,0-0.3,0-0.5-0.2
	c-0.1-0.1-0.2-0.3-0.2-0.4c0-0.2,0-0.5,0-0.7c0-0.2,0-0.4,0.1-0.7c0-0.2,0.1-0.3,0.2-0.4c0.1-0.1,0.3-0.2,0.5-0.2
	c0.2,0,0.3,0.1,0.5,0.2c0.1,0.1,0.2,0.3,0.2,0.4C798.6,338.9,798.6,339.1,798.5,339.3z M796.4,339.3c0,0.5,0.1,1,0.3,1.5
	c0.2,0.4,0.7,0.6,1.1,0.5c0.4,0,0.9-0.2,1.1-0.5c0.2-0.4,0.4-1,0.3-1.5c0-0.5-0.1-1-0.3-1.5c-0.2-0.4-0.7-0.6-1.1-0.5
	c-0.4,0-0.9,0.2-1.1,0.5C796.5,338.3,796.4,338.8,796.4,339.3L796.4,339.3z"/>
<path class="st17" d="M800.1,341.4c0.1,0,0.2,0,0.3-0.1c0.1-0.1,0.1-0.2,0.1-0.3c0-0.1-0.1-0.2-0.1-0.3c-0.1-0.1-0.2-0.1-0.3-0.1
	c-0.1,0-0.2,0-0.3,0.1c-0.1,0.1-0.1,0.2-0.1,0.3c0,0.1,0.1,0.2,0.1,0.3C799.9,341.3,800,341.4,800.1,341.4z"/>
<path class="st17" d="M801.2,338.5h0.8c0-0.1,0.1-0.3,0.2-0.4c0.1-0.1,0.2-0.1,0.4-0.1c0.1,0,0.3,0,0.4,0.1c0.1,0.1,0.1,0.2,0.1,0.4
	c0,0.3-0.2,0.5-0.8,0.5h-0.2v0.6h0.2c0.2,0,0.4,0,0.6,0.1c0.1,0.1,0.2,0.3,0.2,0.5c0,0.1,0,0.3-0.2,0.4c-0.1,0.1-0.3,0.2-0.4,0.1
	c-0.2,0-0.3,0-0.5-0.2c-0.1-0.1-0.2-0.3-0.2-0.4h-0.7c0,0.3,0.1,0.7,0.4,0.9c0.3,0.2,0.6,0.3,1,0.3c0.2,0,0.5,0,0.7-0.1
	c0.2-0.1,0.3-0.2,0.4-0.4c0.1-0.2,0.2-0.4,0.2-0.6c0-0.2-0.1-0.4-0.2-0.6c-0.1-0.2-0.3-0.3-0.5-0.3l0,0c0.2-0.1,0.3-0.2,0.4-0.3
	c0.1-0.2,0.2-0.4,0.2-0.6c0-0.2,0-0.4-0.1-0.5c-0.1-0.2-0.3-0.3-0.4-0.4c-0.2-0.1-0.4-0.1-0.7-0.1c-0.3,0-0.7,0.1-0.9,0.3
	C801.4,337.8,801.2,338.1,801.2,338.5z"/>
<polygon class="st17" points="804.8,338.1 804.8,341.3 805.6,341.3 805.6,337.4 804.3,337.4 804.3,338.1 "/>
<path class="st17" d="M808.6,340l0.5-1.6l0.5,1.6H808.6z M810.1,341.3h0.8l-1.3-3.7h-0.9l-1.3,3.7h0.8l0.2-0.7h1.5L810.1,341.3z"/>
<polygon class="st17" points="814.7,337.6 813.5,340.4 812.3,337.6 811.5,337.6 811.5,341.3 812.2,341.3 812.2,338.9 813.2,341.3 
	813.8,341.3 814.8,338.9 814.8,341.3 815.5,341.3 815.5,337.6 "/>
<polygon class="st16" points="736,309.6 736,310.3 737,310.3 737,313.3 737.9,313.3 737.9,310.3 738.9,310.3 738.9,309.6 "/>
<path class="st16" d="M741.1,312.5c-0.3,0-0.5-0.1-0.7-0.3c-0.2-0.2-0.3-0.5-0.3-0.8c0-0.3,0.1-0.6,0.3-0.8c0.2-0.2,0.5-0.3,0.7-0.3
	c0.3,0,0.5,0.1,0.7,0.3c0.2,0.2,0.3,0.5,0.3,0.8c0,0.3-0.1,0.6-0.3,0.8C741.7,312.4,741.4,312.6,741.1,312.5z M741.1,313.4
	c0.3,0,0.7-0.1,1-0.2c0.6-0.3,1-1,1-1.7c0-0.3-0.1-0.7-0.2-1c-0.2-0.3-0.4-0.5-0.7-0.7c-0.3-0.2-0.7-0.2-1-0.2c-0.3,0-0.7,0.1-1,0.2
	c-0.3,0.2-0.5,0.4-0.7,0.7c-0.2,0.3-0.3,0.6-0.3,1c0,0.4,0.1,0.7,0.3,1c0.2,0.3,0.4,0.5,0.7,0.7
	C740.4,313.3,740.8,313.4,741.1,313.4L741.1,313.4z"/>
<path class="st16" d="M745,312.6h-0.4v-2.2h0.4c0.6,0,1,0.4,1.1,0.9c0,0.1,0,0.1,0,0.2c0,0.3-0.1,0.6-0.3,0.8
	C745.6,312.5,745.3,312.6,745,312.6z M745,309.6h-1.4v3.7h1.4c0.3,0,0.7-0.1,1-0.2c0.3-0.1,0.5-0.4,0.7-0.7c0.2-0.3,0.3-0.7,0.2-1
	c0-0.3-0.1-0.7-0.2-1c-0.2-0.3-0.4-0.5-0.7-0.7C745.7,309.6,745.3,309.6,745,309.6L745,309.6z"/>
<path class="st16" d="M748.7,312l0.5-1.4l0.5,1.4H748.7z M750.1,313.4h1l-1.3-3.7h-1.1l-1.4,3.7h1l0.2-0.6h1.4L750.1,313.4z"/>
<polygon class="st16" points="753.6,309.6 752.8,311.2 752.1,309.6 751.1,309.6 752.4,312.1 752.4,313.3 753.3,313.3 753.3,312.1 
	754.6,309.6 "/>
<polygon class="st17" points="707.1,448.9 707.1,452.1 707.9,452.1 707.9,448.3 706.6,448.3 706.6,448.9 "/>
<path class="st17" d="M710.9,450.1c0,0.2,0,0.5,0,0.7c0,0.2-0.1,0.3-0.2,0.4c-0.3,0.2-0.6,0.2-0.9,0c-0.1-0.1-0.2-0.3-0.2-0.4
	c0-0.2,0-0.5,0-0.7c0-0.2,0-0.4,0.1-0.7c0-0.2,0.1-0.3,0.2-0.4c0.3-0.2,0.6-0.2,0.9,0c0.1,0.1,0.2,0.3,0.2,0.4
	C710.9,449.7,710.9,449.9,710.9,450.1z M708.7,450.1c0,0.5,0.1,1,0.3,1.5c0.2,0.4,0.7,0.6,1.1,0.5c0.4,0,0.9-0.2,1.1-0.5
	c0.2-0.4,0.4-1,0.3-1.5c0-0.5-0.1-1-0.3-1.5c-0.2-0.4-0.7-0.6-1.1-0.5c-0.4,0-0.9,0.2-1.1,0.5C708.8,449.1,708.7,449.6,708.7,450.1
	L708.7,450.1z"/>
<path class="st17" d="M712.5,452.2c0.1,0,0.2,0,0.3-0.1c0.1-0.1,0.1-0.2,0.1-0.3c0-0.2-0.2-0.4-0.4-0.4c0,0,0,0-0.1,0
	c-0.2,0-0.4,0.2-0.5,0.4c0,0,0,0,0,0c0,0.1,0,0.2,0.1,0.3C712.2,452.1,712.4,452.2,712.5,452.2z"/>
<path class="st17" d="M713.5,449.3h0.7c0-0.1,0.1-0.3,0.2-0.4c0.1-0.1,0.3-0.1,0.4-0.1c0.1,0,0.3,0,0.4,0.1c0.1,0.1,0.1,0.2,0.1,0.4
	c0,0.3-0.2,0.5-0.8,0.5h-0.2v0.6h0.2c0.2,0,0.4,0,0.6,0.1c0.1,0.1,0.2,0.3,0.2,0.5c0,0.1,0,0.3-0.2,0.4c-0.1,0.1-0.3,0.2-0.4,0.1
	c-0.2,0-0.3,0-0.5-0.2c-0.1-0.1-0.2-0.3-0.2-0.4h-0.7c0,0.3,0.1,0.7,0.4,0.9c0.3,0.2,0.6,0.3,1,0.3c0.2,0,0.5,0,0.7-0.1
	c0.2-0.1,0.3-0.2,0.4-0.4c0.1-0.2,0.1-0.4,0.2-0.6c0-0.2-0.1-0.4-0.2-0.6c-0.1-0.2-0.3-0.3-0.5-0.3l0,0c0.2-0.1,0.3-0.2,0.4-0.3
	c0.1-0.2,0.2-0.4,0.2-0.6c0-0.2-0.1-0.4-0.1-0.5c-0.1-0.2-0.3-0.3-0.4-0.4c-0.2-0.1-0.4-0.1-0.7-0.1c-0.3,0-0.7,0.1-0.9,0.3
	C713.7,448.7,713.6,449,713.5,449.3z"/>
<path class="st17" d="M719.3,448.2h-2.4v2.3h0.7c0-0.1,0.1-0.2,0.2-0.3c0.1-0.1,0.3-0.1,0.4-0.1c0.2,0,0.3,0.1,0.5,0.2
	c0.1,0.1,0.2,0.3,0.2,0.5c0,0.2,0,0.4-0.2,0.5c-0.1,0.1-0.3,0.2-0.5,0.2c-0.2,0-0.3,0-0.4-0.1c-0.1-0.1-0.2-0.2-0.2-0.3h-0.7
	c0,0.3,0.2,0.6,0.4,0.8c0.3,0.2,0.6,0.3,1,0.3c0.4,0,0.7-0.1,1-0.4c0.2-0.3,0.4-0.6,0.3-1c0-0.2,0-0.4-0.1-0.6
	c-0.1-0.2-0.2-0.4-0.4-0.5c-0.2-0.1-0.4-0.2-0.7-0.2c-0.2,0-0.3,0-0.4,0.1c-0.1,0.1-0.2,0.1-0.3,0.2v-0.9h1.7L719.3,448.2z"/>
<path class="st17" d="M722.6,450.8l0.5-1.6l0.5,1.6H722.6z M724.1,452.1h0.8l-1.3-3.7h-0.9l-1.3,3.7h0.8l0.2-0.7h1.5L724.1,452.1z"
	/>
<polygon class="st17" points="728.5,448.4 727.3,451.2 726.2,448.4 725.3,448.4 725.3,452.1 726,452.1 726,449.7 727,452.1 
	727.6,452.1 728.6,449.7 728.6,452.1 729.4,452.1 729.4,448.4 "/>
<path class="st19" d="M686.2,490.4c0,0.6,0.4,1,1,1s1-0.4,1-1s-0.4-1-1-1S686.2,489.9,686.2,490.4z"/>
<path class="st19" d="M692.4,490.4c0,0.6,0.4,1,1,1s1-0.4,1-1s-0.4-1-1-1S692.4,489.9,692.4,490.4z"/>
<path class="st19" d="M694.9,494.3c-4.9,8.1-9.2,0-9.2,0H694.9z"/>
<image style="overflow:visible;enable-background:new    ;" width="1419" height="328" xlink:href="82ACFAD2.png"  transform="matrix(0.24 0 0 0.24 340.56 751.92)">
</image>
<path class="st22" d="M415.5,266h191.6c16.1,0,29.2,13.1,29.2,29.2v462.6c0,16.1-13.1,29.2-29.2,29.2H415.5
	c-16.1,0-29.2-13.1-29.2-29.2V295.3C386.3,279.1,399.4,266,415.5,266z"/>
<path class="st23" d="M636.2,291.5v40.9H387.8v-40.9c0-12.1,8.8-22.4,21.2-26.9h206C627.4,269,636.2,279.4,636.2,291.5z"/>
<path class="st0" d="M572.6,281.4h0.1c0.4,0,0.7,0.3,0.7,0.7v1.4c0,0.4-0.3,0.7-0.7,0.7h-0.1c-0.4,0-0.7-0.3-0.7-0.7v-1.4
	C571.9,281.7,572.2,281.4,572.6,281.4z"/>
<path class="st0" d="M575.4,279.5h0.1c0.4,0,0.7,0.3,0.7,0.7v3.3c0,0.4-0.3,0.7-0.7,0.7h-0.1c-0.4,0-0.7-0.3-0.7-0.7v-3.3
	C574.7,279.8,575,279.5,575.4,279.5z"/>
<path class="st0" d="M578.2,277.6h0.1c0.4,0,0.7,0.3,0.7,0.7v5.2c0,0.4-0.3,0.7-0.7,0.7h-0.1c-0.4,0-0.7-0.3-0.7-0.7v-5.2
	C577.5,277.9,577.8,277.6,578.2,277.6z"/>
<path class="st0" d="M581,275.6h0.1c0.4,0,0.7,0.3,0.7,0.7v7.2c0,0.4-0.3,0.7-0.7,0.7H581c-0.4,0-0.7-0.3-0.7-0.7v-7.2
	C580.3,275.9,580.6,275.6,581,275.6z"/>
<path class="st0" d="M586.8,281.4h0.1c0.4,0,0.7,0.3,0.7,0.7v1.4c0,0.4-0.3,0.7-0.7,0.7h-0.1c-0.4,0-0.7-0.3-0.7-0.7v-1.4
	C586,281.7,586.3,281.4,586.8,281.4z"/>
<path class="st0" d="M589.5,279.5h0.1c0.4,0,0.7,0.3,0.7,0.7v3.3c0,0.4-0.3,0.7-0.7,0.7h-0.1c-0.4,0-0.7-0.3-0.7-0.7v-3.3
	C588.8,279.8,589.1,279.5,589.5,279.5z"/>
<path class="st0" d="M592.3,277.6h0.1c0.4,0,0.7,0.3,0.7,0.7v5.2c0,0.4-0.3,0.7-0.7,0.7h-0.1c-0.4,0-0.7-0.3-0.7-0.7v-5.2
	C591.6,277.9,591.9,277.6,592.3,277.6z"/>
<path class="st0" d="M617.1,279.5v2.6c0,0.4-0.3,0.7-0.7,0.7h-1.2v0.9c0,0.4-0.3,0.7-0.7,0.7c0,0,0,0,0,0h-14.8
	c-0.4,0-0.7-0.3-0.7-0.7c0,0,0,0,0,0v-5.8c0-0.4,0.3-0.7,0.7-0.7h14.8c0.4,0,0.7,0.3,0.7,0.7v0.9h1.2
	C616.8,278.8,617.1,279.1,617.1,279.5C617.1,279.5,617.1,279.5,617.1,279.5z"/>
<path class="st24" d="M607,280.5c0,0.6-0.1,1.2-0.5,1.7c-0.4,0.4-0.9,0.6-1.4,0.6c-0.2,0-0.3,0-0.5,0v-0.5c0.2,0,0.3,0.1,0.5,0.1
	c0.3,0,0.7-0.1,0.9-0.4c0.2-0.3,0.4-0.7,0.3-1.1l0,0c-0.1,0.2-0.2,0.3-0.4,0.4c-0.2,0.1-0.3,0.1-0.5,0.1c-0.3,0-0.6-0.1-0.8-0.3
	c-0.2-0.2-0.3-0.6-0.3-0.9c0-0.4,0.1-0.7,0.3-1c0.2-0.2,0.6-0.4,0.9-0.4c0.3,0,0.5,0.1,0.7,0.2c0.2,0.1,0.4,0.3,0.5,0.6
	C607,279.9,607,280.2,607,280.5z M605.6,279.3c-0.2,0-0.4,0.1-0.5,0.2c-0.1,0.2-0.2,0.4-0.2,0.6c0,0.2,0,0.4,0.2,0.5
	c0.1,0.1,0.3,0.2,0.5,0.2c0.2,0,0.4-0.1,0.5-0.2c0.1-0.1,0.2-0.3,0.2-0.5c0-0.2,0-0.3-0.1-0.4c-0.1-0.1-0.1-0.2-0.3-0.3
	C605.9,279.3,605.8,279.3,605.6,279.3L605.6,279.3z"/>
<path class="st24" d="M608.8,278.8c0.3,0,0.6,0.1,0.9,0.3c0.2,0.2,0.3,0.4,0.3,0.7c0,0.5-0.3,0.9-0.7,1c0.2,0.1,0.5,0.3,0.7,0.5
	c0.1,0.2,0.2,0.4,0.2,0.6c0,0.3-0.1,0.6-0.4,0.8c-0.3,0.2-0.6,0.3-1,0.3c-0.4,0-0.7-0.1-1-0.3c-0.2-0.2-0.4-0.5-0.3-0.8
	c0-0.2,0.1-0.4,0.2-0.6c0.2-0.2,0.4-0.4,0.6-0.5c-0.2-0.1-0.4-0.3-0.5-0.5c-0.1-0.2-0.2-0.3-0.2-0.5c0-0.3,0.2-0.6,0.4-0.8
	C608.2,278.8,608.5,278.8,608.8,278.8z M608.1,281.7c0,0.2,0.1,0.3,0.2,0.4c0.2,0.1,0.3,0.2,0.5,0.2c0.2,0,0.4,0,0.5-0.2
	c0.1-0.1,0.2-0.3,0.2-0.4c0-0.2-0.1-0.3-0.2-0.4c-0.2-0.1-0.3-0.3-0.5-0.3h-0.1c-0.2,0.1-0.4,0.2-0.5,0.3
	C608.2,281.4,608.1,281.6,608.1,281.7L608.1,281.7z M608.8,279.3c-0.2,0-0.3,0-0.4,0.1c-0.1,0.1-0.2,0.2-0.2,0.4
	c0,0.1,0,0.2,0.1,0.2c0,0.1,0.1,0.1,0.2,0.2c0.1,0.1,0.2,0.2,0.4,0.2c0.2-0.1,0.3-0.2,0.5-0.3c0.1-0.1,0.1-0.2,0.1-0.4
	c0-0.1-0.1-0.3-0.2-0.4C609.1,279.3,609,279.2,608.8,279.3L608.8,279.3z"/>
<path class="st0" d="M416.1,283.1h-1V279c0-0.5,0-0.9,0-1.2l-0.2,0.2l-1,0.8l-0.5-0.7l1.9-1.5h0.9L416.1,283.1z"/>
<path class="st0" d="M422.6,283.1h-4.3v-0.8l1.6-1.7c0.4-0.3,0.7-0.7,1-1.1c0.1-0.2,0.3-0.4,0.4-0.6c0.1-0.2,0.1-0.4,0.1-0.6
	c0-0.3-0.1-0.5-0.3-0.7c-0.2-0.2-0.5-0.3-0.7-0.2c-0.2,0-0.5,0-0.7,0.1c-0.3,0.1-0.6,0.3-0.8,0.5l-0.6-0.7c0.3-0.3,0.6-0.5,1-0.6
	c0.3-0.1,0.7-0.2,1.1-0.2c0.5,0,1,0.1,1.4,0.5c0.4,0.3,0.6,0.8,0.5,1.3c0,0.3-0.1,0.6-0.2,0.8c-0.1,0.3-0.3,0.6-0.5,0.8
	c-0.3,0.4-0.7,0.8-1.1,1.1l-1.1,1.1v0h3L422.6,283.1z"/>
<path class="st0" d="M423.6,278.8c0-0.3,0.2-0.6,0.5-0.7c0.1,0,0.1,0,0.2,0c0.2,0,0.4,0,0.5,0.2c0.1,0.1,0.2,0.3,0.2,0.5
	c0,0.2-0.1,0.4-0.2,0.5c-0.1,0.1-0.3,0.2-0.5,0.2c-0.2,0-0.4-0.1-0.5-0.2C423.6,279.2,423.6,279,423.6,278.8z M423.6,282.6
	c0-0.2,0-0.4,0.2-0.5c0.1-0.1,0.3-0.2,0.5-0.2c0.2,0,0.4,0.1,0.5,0.2c0.1,0.1,0.2,0.3,0.2,0.5c0,0.2-0.1,0.4-0.2,0.5
	c-0.1,0.1-0.3,0.2-0.5,0.2c-0.2,0-0.4-0.1-0.5-0.2C423.6,282.9,423.6,282.8,423.6,282.6z"/>
<path class="st0" d="M430.4,281.7h-0.9v1.4h-1v-1.4h-2.9v-0.8l2.9-4.2h1v4.2h0.9V281.7z M428.6,280.9v-1.6c0-0.6,0-1,0-1.4l0,0
	c-0.1,0.2-0.2,0.5-0.4,0.7l-1.6,2.3L428.6,280.9z"/>
<path class="st0" d="M435.3,283.1H431v-0.8l1.6-1.7c0.4-0.3,0.7-0.7,1-1.1c0.1-0.2,0.3-0.4,0.4-0.6c0.1-0.2,0.1-0.4,0.1-0.6
	c0-0.3-0.1-0.5-0.3-0.7c-0.2-0.2-0.5-0.3-0.7-0.2c-0.2,0-0.5,0-0.7,0.1c-0.3,0.1-0.6,0.3-0.8,0.5l-0.6-0.7c0.3-0.3,0.6-0.5,1-0.6
	c0.3-0.1,0.7-0.2,1.1-0.2c0.5,0,1,0.1,1.4,0.5c0.4,0.3,0.6,0.8,0.5,1.3c0,0.3,0,0.6-0.1,0.8c-0.1,0.3-0.3,0.6-0.5,0.8
	c-0.3,0.4-0.7,0.8-1.1,1.1l-1.1,1.1v0h3L435.3,283.1z"/>
<path class="st0" d="M589.1,307.3c0,0-0.1-1.1,0.9-1h2c0,0,0.4,0,0.7,1.1s0.8,2.4,0,3s-1.3,1-1.3,1c1,2,2.7,3.6,4.8,4.4l0.8-0.9
	c0.3-0.4,0.8-0.6,1.3-0.5c1.3,0.1,2,0.2,2,0.2s0.8,0,0.8,1.2v1.7c0,0,0.1,0.9-1.3,0.8C598.3,318.2,590.3,317.7,589.1,307.3z"/>
<circle class="st0" cx="622.5" cy="307.6" r="1.3"/>
<circle class="st0" cx="622.5" cy="311.6" r="1.3"/>
<circle class="st0" cx="622.5" cy="315.7" r="1.3"/>
<polygon class="st0" points="406.7,317.2 401.3,311.5 406.7,306.1 407.7,307.1 403.3,311.5 407.7,316.2 "/>
<rect x="406.5" y="306.7" transform="matrix(9.599216e-03 -1 1 9.599216e-03 91.695 715.8189)" class="st0" width="1.4" height="9.8"/>
<path class="st25" d="M438.4,311.6c0,6.6-5.3,11.9-11.9,11.9c-6.6,0-11.9-5.3-11.9-11.9s5.3-11.9,11.9-11.9c0,0,0,0,0,0
	C433,299.7,438.3,305,438.4,311.6C438.4,311.6,438.4,311.6,438.4,311.6z"/>
<circle class="st0" cx="426.5" cy="309.3" r="4.9"/>
<path class="st0" d="M434.9,320c-4.6,4.6-12.1,4.6-16.7,0c3.5-4.6,10.1-5.5,14.7-2C433.6,318.6,434.3,319.2,434.9,320z"/>
<path class="st0" d="M568.4,307.5c-0.3-0.2-0.7-0.2-1,0l-2.7,1.5c-0.3,0.2-0.5,0.6-0.5,1v4c0,0.4,0.2,0.7,0.5,0.9l2.6,1.5
	c0.3,0.2,0.7,0.2,1,0c0.3-0.2,0.5-0.5,0.5-0.9v-7.2C568.9,308,568.7,307.6,568.4,307.5z"/>
<path class="st0" d="M552.7,306.8h7.6c1.6,0,2.9,1.3,2.9,2.9v4.8c0,1.6-1.3,2.9-2.9,2.9h-7.6c-1.6,0-2.9-1.3-2.9-2.9v-4.8
	C549.8,308.1,551.1,306.8,552.7,306.8z"/>
<path class="st26" d="M425.4,261.8h173.2c22.5,0,40.7,18.2,40.7,40.7V749c0,22.5-18.2,40.7-40.7,40.7H425.4
	c-22.5,0-40.7-18.2-40.7-40.7V302.4C384.7,280,402.9,261.8,425.4,261.8z"/>
<path class="st0" d="M388.7,745.9h246.5l0,0v3.3c0,21-17,38-38,38l0,0H426.6c-21,0-38-17-38-38l0,0V745.9L388.7,745.9z"/>
<path class="st27" d="M439.9,760.6h9.1c0.3,0,0.5-0.2,0.5-0.5s-0.2-0.5-0.5-0.5h-9.1c-0.3,0-0.5,0.2-0.5,0.5
	S439.7,760.6,439.9,760.6L439.9,760.6z"/>
<path class="st27" d="M449.1,763.7h-9.1c-0.3,0-0.5,0.2-0.5,0.5s0.2,0.5,0.5,0.5l0,0h9.1c0.3,0,0.5-0.2,0.5-0.5
	S449.3,763.7,449.1,763.7z"/>
<path class="st27" d="M449.1,767.8h-9.1c-0.3,0-0.5,0.2-0.5,0.5s0.2,0.5,0.5,0.5l0,0h9.1c0.3,0,0.5-0.2,0.5-0.5
	S449.3,767.8,449.1,767.8z"/>
<path class="st27" d="M515.9,768.7h-5.9c-1.1,0-1.9-0.9-1.9-1.9v-5.2c0-1.1,0.9-1.9,1.9-1.9h5.9c1.1,0,1.9,0.9,1.9,1.9v5.2
	C517.8,767.8,516.9,768.7,515.9,768.7z M509.9,760.5c-0.6,0-1.1,0.5-1.1,1.1c0,0,0,0,0,0v5.2c0,0.6,0.5,1.1,1.1,1.1l0,0h5.9
	c0.6,0,1.1-0.5,1.1-1.1v-5.2c0-0.6-0.5-1.1-1.1-1.1l0,0H509.9z"/>
<path class="st27" d="M584,769.3c-0.3,0-0.6-0.1-0.8-0.2l-6-3.4c-0.5-0.3-0.8-0.8-0.8-1.4c0-0.6,0.3-1.1,0.8-1.4l6-3.4
	c0.8-0.5,1.8-0.2,2.3,0.6c0.1,0.3,0.2,0.5,0.2,0.8v6.9c0,0.6-0.3,1.1-0.8,1.4C584.6,769.2,584.3,769.3,584,769.3z M583.6,760l-6,3.4
	c-0.3,0.2-0.4,0.4-0.4,0.8c0,0.3,0.2,0.6,0.4,0.8l6,3.4c0.3,0.1,0.6,0.1,0.9,0c0.3-0.2,0.4-0.4,0.4-0.8v-6.9c0-0.3-0.2-0.6-0.4-0.8
	C584.2,759.8,583.8,759.8,583.6,760z"/>
<text transform="matrix(1 0 0 1 447.91 315.6799)" class="st0 st7 st28">VT Shop</text>
<text transform="matrix(1 0 0 1 434.16 369.23)" class="st29 st11 st30">Hi Alex. The DEMO you requested...</text>
<text transform="matrix(1 0 0 1 434.16 355.21)" class="st29 st7 st31">Jordan</text>
<circle class="st32" cx="505.5" cy="312.8" r="6.3"/>
<path class="st0" d="M508.5,310.3c-0.2,0-0.4,0.1-0.5,0.2l-3.2,3.2l-0.1,0.1c0,0-0.1-0.1-0.1-0.1l-1.4-1.4c0,0-0.1-0.1-0.1-0.1
	c-0.2-0.2-0.5-0.2-0.7,0c-0.3,0.2-0.3,0.6-0.1,0.8c0,0,0.1,0.1,0.1,0.1l1.9,1.9c0.2,0.3,0.6,0.3,0.9,0.1c0.1,0,0.1-0.1,0.1-0.1
	l3.7-3.7c0.1,0,0.1-0.1,0.1-0.2c0.2-0.3,0.1-0.6-0.2-0.8C508.7,310.3,508.6,310.3,508.5,310.3L508.5,310.3z"/>
<path class="st0" d="M426.7,356.6c0,8.4-6.8,15.3-15.3,15.3c-8.4,0-15.3-6.8-15.3-15.3c0-8.4,6.8-15.3,15.3-15.3
	S426.7,348.2,426.7,356.6C426.7,356.6,426.7,356.6,426.7,356.6z"/>
<path class="st18" d="M415.1,351.5c0,2.1-1.7,3.7-3.7,3.7c-2.1,0-3.7-1.7-3.7-3.7c0-2.1,1.7-3.7,3.7-3.7c0,0,0,0,0,0
	C413.5,347.8,415.1,349.4,415.1,351.5C415.1,351.5,415.1,351.5,415.1,351.5z"/>
<path class="st18" d="M404,365.5c-0.2-4.1,3.1-7.6,7.2-7.7s7.6,3.1,7.7,7.2c0,0.2,0,0.4,0,0.5H404z"/>
<rect x="388.7" y="384.5" class="st0" width="246.4" height="52.2"/>
<path class="st17" d="M426.7,411.5c0,8.4-6.8,15.3-15.3,15.3c-8.4,0-15.3-6.8-15.3-15.3c0-8.4,6.8-15.3,15.3-15.3
	S426.7,403.1,426.7,411.5C426.7,411.5,426.7,411.5,426.7,411.5z"/>
<path class="st18" d="M415.1,406.4c0,2.1-1.7,3.7-3.7,3.7c-2.1,0-3.7-1.7-3.7-3.7c0-2.1,1.7-3.7,3.7-3.7c0,0,0,0,0,0
	C413.5,402.6,415.1,404.3,415.1,406.4C415.1,406.4,415.1,406.4,415.1,406.4z"/>
<path class="st18" d="M404,420.3c-0.2-4.1,3.1-7.6,7.2-7.7s7.6,3.1,7.7,7.2c0,0.2,0,0.4,0,0.5H404z"/>
<path class="st0" d="M426.7,461.1c0,8.4-6.8,15.3-15.3,15.3c-8.4,0-15.3-6.8-15.3-15.3c0-8.4,6.8-15.3,15.3-15.3
	S426.7,452.7,426.7,461.1C426.7,461.1,426.7,461.1,426.7,461.1z"/>
<path class="st18" d="M415.1,456c0,2.1-1.7,3.7-3.7,3.7c-2.1,0-3.7-1.7-3.7-3.7c0-2.1,1.7-3.7,3.7-3.7c0,0,0,0,0,0
	C413.5,452.3,415.1,453.9,415.1,456C415.1,456,415.1,456,415.1,456z"/>
<path class="st18" d="M404,470c-0.2-4.1,3.1-7.6,7.2-7.7s7.6,3.1,7.7,7.2c0,0.2,0,0.4,0,0.5H404z"/>
<rect x="388.7" y="489" class="st0" width="246.4" height="52.2"/>
<path class="st17" d="M426.7,515c0,8.4-6.8,15.3-15.3,15.3s-15.3-6.8-15.3-15.3c0-8.4,6.8-15.3,15.3-15.3S426.7,506.6,426.7,515
	L426.7,515z"/>
<path class="st18" d="M415.1,509.9c0,2.1-1.7,3.7-3.7,3.7c-2.1,0-3.7-1.7-3.7-3.7c0-2.1,1.7-3.7,3.7-3.7c0,0,0,0,0,0
	C413.5,506.2,415.1,507.8,415.1,509.9L415.1,509.9z"/>
<path class="st18" d="M404,523.9c-0.2-4.1,3.1-7.6,7.2-7.7c4.1-0.2,7.6,3.1,7.7,7.2c0,0.2,0,0.4,0,0.5H404z"/>
<path class="st0" d="M426.7,569.5c0,8.4-6.8,15.3-15.3,15.3s-15.3-6.8-15.3-15.3c0-8.4,6.8-15.3,15.3-15.3S426.7,561,426.7,569.5
	L426.7,569.5z"/>
<path class="st18" d="M415.1,564.3c0,2.1-1.7,3.7-3.7,3.7c-2.1,0-3.7-1.7-3.7-3.7c0-2.1,1.7-3.7,3.7-3.7c0,0,0,0,0,0
	C413.5,560.6,415.1,562.3,415.1,564.3z"/>
<path class="st18" d="M404,578.3c-0.2-4.1,3.1-7.6,7.2-7.7c4.1-0.2,7.6,3.1,7.7,7.2c0,0.2,0,0.4,0,0.5H404z"/>
<path class="st0" d="M426.7,678.4c0,8.4-6.8,15.3-15.3,15.3s-15.3-6.8-15.3-15.3c0-8.4,6.8-15.3,15.3-15.3S426.7,670,426.7,678.4
	L426.7,678.4z"/>
<path class="st18" d="M415.1,673.3c0,2.1-1.7,3.7-3.7,3.7c-2.1,0-3.7-1.7-3.7-3.7c0-2.1,1.7-3.7,3.7-3.7c0,0,0,0,0,0
	C413.5,669.6,415.1,671.2,415.1,673.3z"/>
<path class="st18" d="M404,687.3c-0.2-4.1,3.1-7.6,7.2-7.7c4.1-0.2,7.6,3.1,7.7,7.2c0,0.2,0,0.4,0,0.5H404z"/>
<rect x="388.7" y="599.3" class="st0" width="246.4" height="52.2"/>
<path class="st17" d="M426.7,625.3c0,8.4-6.8,15.3-15.3,15.3s-15.3-6.8-15.3-15.3c0-8.4,6.8-15.3,15.3-15.3S426.7,616.9,426.7,625.3
	L426.7,625.3z"/>
<path class="st18" d="M415.1,620.2c0,2.1-1.7,3.7-3.7,3.7c-2.1,0-3.7-1.7-3.7-3.7c0-2.1,1.7-3.7,3.7-3.7c0,0,0,0,0,0
	C413.5,616.5,415.1,618.2,415.1,620.2C415.1,620.2,415.1,620.2,415.1,620.2z"/>
<path class="st18" d="M404,634.2c0.2-4.1,3.6-7.3,7.7-7.2c3.9,0.1,7,3.3,7.2,7.2H404z"/>
<text transform="matrix(1 0 0 1 681.9 337.34)" class="st29 st11 st33">Hi Badar! thank you for shopping </text>
<text transform="matrix(1 0 0 1 681.9 345.34)" class="st29 st11 st33">at VT Shop.</text>
<text transform="matrix(1 0 0 1 207.95 548.51)" class="st0 st7 st12">Jordan</text>
<text transform="matrix(1 0 0 1 682.9 406.63)" class="st29 st11 st33">Hi Badar! your order is on its </text>
<text transform="matrix(1 0 0 1 682.9 414.63)" class="st29 st11 st33">way. The estimated delivery is</text>
<text transform="matrix(1 0 0 1 682.9 422.63)" class="st29 st11 st33">January 15 between 2 &amp; 5 PM.</text>
<text transform="matrix(1 0 0 1 741.61 376.6799)" class="st29 st11 st33">Only delivery updates</text>
<text transform="matrix(1 0 0 1 741.61 452.84)" class="st29 st11 st33">Ok, Thank you!</text>
<text transform="matrix(1 0 0 1 434.16 422.15)" class="st29 st11 st30">Hi Chris, we sent over the program...</text>
<text transform="matrix(1 0 0 1 434.16 408.13)" class="st29 st7 st31">Morgan</text>
<text transform="matrix(1 0 0 1 434.16 473)" class="st29 st11 st30">Hey Taylor, save $50 when you...</text>
<text transform="matrix(1 0 0 1 434.16 458.98)" class="st29 st7 st31">Sam</text>
<text transform="matrix(1 0 0 1 434.16 525)" class="st29 st11 st30">Hi Jordan. The webinar on AI Trend...</text>
<text transform="matrix(1 0 0 1 434.16 510.98)" class="st29 st7 st31">Casey</text>
<text transform="matrix(1 0 0 1 434.16 579.88)" class="st29 st11 st30">Hi Morgan, we havent heard back...</text>
<text transform="matrix(1 0 0 1 434.16 565.86)" class="st29 st7 st31">Alex</text>
<text transform="matrix(1 0 0 1 434.16 636.04)" class="st29 st11 st30">Hey Casey, check out the new fea...</text>
<text transform="matrix(1 0 0 1 434.16 622.02)" class="st29 st7 st31">Chris</text>
<text transform="matrix(1 0 0 1 434.16 686.8401)" class="st29 st11 st30">Hi Sam, thank you for attending...</text>
<text transform="matrix(1 0 0 1 434.16 672.8201)" class="st29 st7 st31">Bob</text>
</svg>
