<?xml version="1.0" encoding="utf-8"?>
<!-- Generator: Adobe Illustrator 25.4.1, SVG Export Plug-In . SVG Version: 6.00 Build 0)  -->
<svg version="1.1" id="Layer_1" xmlns="http://www.w3.org/2000/svg" xmlns:xlink="http://www.w3.org/1999/xlink" x="0px" y="0px"
	 viewBox="0 0 1920 1080" style="enable-background:new 0 0 1920 1080;" xml:space="preserve">
<style type="text/css">
	.st0{fill:#FFFFFF;}
	.st1{fill:#F7F7F7;}
	.st2{fill:#1C2956;}
	.st3{fill:#9CD2F2;}
	.st4{clip-path:url(#SVGID_00000106856873841700745010000000472484732707835812_);}
	.st5{fill:#FDFEFF;}
	.st6{fill:none;stroke:#1587B3;stroke-width:2;stroke-miterlimit:10;}
	.st7{fill:none;}
	.st8{fill:#FFFFFF;stroke:#1587B3;stroke-width:2;stroke-miterlimit:10;}
	.st9{clip-path:url(#SVGID_00000002385454194075686380000011278267935118305459_);}
	.st10{fill:#ED926F;}
	.st11{fill:#F3F6F9;}
	.st12{fill:none;stroke:#FFFFFF;stroke-width:2;stroke-miterlimit:10;}
	.st13{fill:#F8A488;}
	.st14{fill:#FEBE10;}
	.st15{fill:#164884;}
	.st16{fill:url(#SVGID_00000052817168127731885070000002611987292749383589_);}
	.st17{fill:url(#SVGID_00000056419011493050100510000008097692874674352822_);}
	.st18{clip-path:url(#SVGID_00000085948665570569574700000007048786673674403727_);}
	.st19{fill:#E0AC9B;}
	.st20{opacity:0.15;fill:#292929;enable-background:new    ;}
	.st21{fill:#3CBFBC;}
	.st22{fill:#E48266;}
	.st23{fill:#FFFFFD;}
	.st24{fill:url(#SVGID_00000065772700385901663880000007349901298769857191_);}
	.st25{fill:url(#SVGID_00000142882329502012148820000006742588415024583049_);}
	.st26{fill:#14416D;}
	.st27{fill:url(#SVGID_00000103239902373562776380000015328544973893596095_);}
	.st28{fill:none;stroke:#010101;stroke-miterlimit:10;}
	.st29{fill:none;stroke:#C9CDD1;stroke-miterlimit:10;}
	.st30{fill:url(#SVGID_00000135680903468528056860000005833598412759348911_);}
	.st31{fill:#1587B3;}
	.st32{fill:#1D7F90;}
	.st33{fill:#E33471;}
	.st34{fill:url(#SVGID_00000156567243227845175890000014267810049997048193_);}
	.st35{fill:url(#SVGID_00000051351449087438778060000002730218887541518750_);}
	.st36{fill:none;stroke:#E33471;stroke-width:0.5;stroke-miterlimit:10;}
	.st37{fill:url(#SVGID_00000178166292286410065450000016282816678239530627_);}
	.st38{fill:none;stroke:#26333E;stroke-width:0.75;stroke-miterlimit:10;}
	.st39{fill:none;stroke:#140D0E;stroke-miterlimit:10;}
	.st40{clip-path:url(#SVGID_00000093169433577135408270000004318468991784433823_);}
	.st41{fill:url(#SVGID_00000067959214431044145470000013961481445626572182_);}
	.st42{clip-path:url(#SVGID_00000117656219969139885290000009734041577698831537_);}
	.st43{fill:#F69D1D;}
	.st44{fill:url(#SVGID_00000155844732416808770780000006740696735074671270_);}
	.st45{fill:#163947;}
	.st46{font-family:'Montserrat-Bold';}
	.st47{font-size:48px;}
	.st48{fill:#15AFD0;}
	.st49{fill-rule:evenodd;clip-rule:evenodd;fill:#163947;}
	.st50{font-family:'Montserrat-SemiBold';}
	.st51{font-size:36px;}
	.st52{opacity:0.2;}
	.st53{font-size:26px;}
	.st54{font-family:'Montserrat-Medium';}
	.st55{font-size:24px;}
</style>
<rect class="st0" width="1920" height="1080"/>
<rect class="st1" width="1001.8" height="1080"/>
<path class="st2" d="M465,187.1h183.2c15,0,27.2,12.2,27.2,27.2v446.1c0,15-12.2,27.2-27.2,27.2H465c-15,0-27.2-12.2-27.2-27.2
	V214.4C437.8,199.3,450,187.1,465,187.1z"/>
<path class="st3" d="M468.3,193.4H645c12.7,0,23,10.3,23,23v440.8c0,12.7-10.3,23-23,23H468.3c-12.7,0-23-10.3-23-23V216.3
	C445.3,203.6,455.6,193.4,468.3,193.4z"/>
<g>
	<defs>
		<path id="SVGID_1_" d="M468.3,193.4H645c12.7,0,23,10.3,23,23v440.8c0,12.7-10.3,23-23,23H468.3c-12.7,0-23-10.3-23-23V216.3
			C445.3,203.6,455.6,193.4,468.3,193.4z"/>
	</defs>
	<clipPath id="SVGID_00000068667233945072635260000018211269038008499893_">
		<use xlink:href="#SVGID_1_"  style="overflow:visible;"/>
	</clipPath>
	<g style="clip-path:url(#SVGID_00000068667233945072635260000018211269038008499893_);">
		<rect x="431.6" y="186.3" class="st5" width="252.7" height="46.4"/>
		<rect x="430" y="629.3" class="st5" width="303.9" height="68.8"/>
		<rect x="418.8" y="483.8" class="st5" width="276.7" height="12.8"/>
		<rect x="418.8" y="357.5" class="st5" width="276.7" height="12.8"/>
	</g>
</g>
<path class="st2" d="M498.6,188.6l1,9.6c0.6,6.3,6.7,11.1,13.9,11.1h86.4c7.2,0,13.2-4.8,13.9-11.1l1-9.6H498.6z"/>
<line class="st6" x1="560.1" y1="283.9" x2="652.8" y2="283.9"/>
<line class="st6" x1="560.1" y1="295" x2="652.8" y2="295"/>
<line class="st6" x1="560.1" y1="306.2" x2="652.8" y2="306.2"/>
<path class="st7" d="M503.4,340.7L503.4,340.7c-22.6,0-40.9-18.3-40.9-40.9l0,0c0-22.6,18.3-40.9,40.9-40.9l0,0
	c22.6,0,40.9,18.3,40.9,40.9l0,0C544.3,322.4,526,340.7,503.4,340.7z"/>
<path class="st7" d="M503.4,465.5L503.4,465.5c-22.6,0-40.9-18.3-40.9-40.9c0,0,0,0,0,0l0,0c0-22.6,18.3-40.9,40.9-40.9l0,0
	c22.6,0,40.9,18.3,40.9,40.9l0,0C544.3,447.2,526,465.5,503.4,465.5C503.4,465.5,503.4,465.5,503.4,465.5z"/>
<line class="st6" x1="560.1" y1="407" x2="652.8" y2="407"/>
<line class="st6" x1="560.1" y1="418.2" x2="652.8" y2="418.2"/>
<line class="st6" x1="560.1" y1="429.4" x2="652.8" y2="429.4"/>
<line class="st6" x1="560.1" y1="528.5" x2="652.8" y2="528.5"/>
<line class="st6" x1="560.1" y1="539.7" x2="652.8" y2="539.7"/>
<line class="st6" x1="560.1" y1="550.9" x2="652.8" y2="550.9"/>
<path class="st8" d="M503.4,590.2L503.4,590.2c-22.6,0-40.9-18.3-40.9-40.9l0,0c0-22.6,18.3-40.9,40.9-40.9l0,0
	c22.6,0,40.9,18.3,40.9,40.9l0,0C544.3,571.9,526,590.2,503.4,590.2z"/>
<g>
	<defs>
		<path id="SVGID_00000097474888049506520410000009581792535968272801_" d="M503.4,590.2L503.4,590.2c-22.6,0-40.9-18.3-40.9-40.9
			l0,0c0-22.6,18.3-40.9,40.9-40.9l0,0c22.6,0,40.9,18.3,40.9,40.9l0,0C544.3,571.9,526,590.2,503.4,590.2z"/>
	</defs>
	<clipPath id="SVGID_00000009548501152785626150000007825311431145789112_">
		<use xlink:href="#SVGID_00000097474888049506520410000009581792535968272801_"  style="overflow:visible;"/>
	</clipPath>
	<g style="clip-path:url(#SVGID_00000009548501152785626150000007825311431145789112_);">
		<path class="st2" d="M512.2,515.7c-1.4-0.3-2.9-0.5-4.3-0.4c-3.8,0.3-7.5,1.3-11,3.1c-2.4,1.1-4.6,2.4-6.6,4.2
			c-1.4,1.2-2.5,2.6-3.2,4.3c-0.8,1.7-0.5,3.3-0.6,5.2c-0.1,4.6-0.3,9.2-0.1,13.8c0.3,5.8-0.8,13.3,5.4,16.5c2.3,1.2,4.9,1,7.5,0.7
			c4.9-0.6,9.6-1.8,14.2-3.5c3.1-1.2,6.3-2.5,7.6-5.8c0.9-2.2,1.4-4.6,1.6-6.9c0.2-2.3-0.2-4.5,0-6.8c0.5-4.3,0.3-8.6-0.6-12.8
			c-0.5-3-1.8-5.7-3.8-8C516.6,517.4,514.5,516.2,512.2,515.7z"/>
		<path class="st0" d="M547.8,612.6c-0.3-2-0.7-3.9-1.2-5.8c-0.5-1.9-1.2-3.8-2.1-5.6c-0.4-0.9-0.9-1.7-1.5-2.6
			c-0.3-0.4-0.6-0.8-0.8-1.2c-0.1-0.5-0.1-1-0.2-1.5c-0.2-0.6-0.4-1.2-0.8-1.7l-0.9-1.6c-0.2-0.4-0.5-0.8-0.7-1.2
			c-2-3-5.3-4.6-8.8-5.5c-3.6-1-7.3-1.1-11-1.8c-1.1-0.2-2.1-0.4-3.2-0.5c-4.5-0.2-8.9,0.1-13.4,0.7c-1.8,0.2-3.5,0.4-5.2,0.7
			c-2.3,0.3-4.5,0.6-6.8,0.9c-1,0.1-2,0.2-3,0.3s-2.2,0.3-3.3,0.6c-4,0.9-8,2-11.6,4c-1.8,1-3.4,2.3-4.9,3.7
			c-0.7,0.6-1.4,1.1-2.2,1.6c-0.7,0.6-1.5,1.2-2.2,1.8c-2.9,2.4-5.4,5.1-7.7,8c-1.6,2.1-3,4.3-4.2,6.6L547.8,612.6z"/>
		<path class="st10" d="M493.9,559.6c1.1-5.1,7-9.2,11.8-10.2c1.4-0.4,2.9-0.4,4.4,0c3.4,1.1,5.1,5.2,5.7,8.4
			c0.8,4.7,0.8,9.7,1.2,14.4c0.2,2.7,0.5,5.6,1.7,8.1c1.5,3,4.1,4.2,7.3,4.6c0,3.1-1.4,6-3,8.7c-1.6,3-4,5.6-6.9,7.4
			c-3.2,1.9-6.9,2.6-10.6,2.1c-4.2-0.8-8.1-2.8-11.2-5.9c-1.9-1.7-3.5-3.6-4.9-5.7c-0.2-0.4-3.3-4.9-3.1-5l2.4-0.5
			c0.6-0.1,1.2-0.3,1.8-0.5c2.6-1.1,2.9-4.5,3.2-7c0.5-4.6,0.6-9.2,0.2-13.8c-0.2-1.3-0.2-2.7-0.2-4
			C493.7,560.4,493.8,560,493.9,559.6z"/>
		<path class="st10" d="M516.1,530.5c-1.1-1-2.2-1.8-3.5-2.6c-2.3-1.6-4.9-2.5-7.7-2.6c-5.1-0.1-11.5,1.5-13.3,6.9
			c-0.5,1.8-0.8,3.6-1,5.5c-0.6,4.5-1.9,8.8-2.1,13.3c-0.3,3.4,0.3,6.8,1.7,9.9c1.7,3.1,4.6,5.5,7.9,6.8c7.6,3.2,18.7,1.8,21.2-7.1
			c0.7-2.2,1.2-4.5,1.3-6.8c-0.2-2.3-0.6-4.6-1.3-6.8c-0.6-3.1-0.9-6.2-0.9-9.3C518.2,535.1,518.1,532.4,516.1,530.5z"/>
		<path class="st2" d="M487.4,531c0.4,2.5,2.8,4.6,6.5,4.6c7.1,0.1,21.2-0.9,25.2-8c0.8-1.3,0.8-3-0.1-4.3c-0.8-0.9-1.9-1.5-3.1-1.7
			c-5.7-1.4-11.7,0.3-17.5,1.3c-2.5,0.4-5,0.8-7.2,2C488.2,526.5,487.1,528.9,487.4,531z"/>
		<path class="st11" d="M501.2,553.1c0,1.3,0.8,2.5,2.1,2.9c0.9,0.3,1.9,0.3,2.9,0.2c1.4-0.5,2.5-1.7,3-3.1H501.2z"/>
		<path class="st2" d="M522.5,559.7c0-0.1,0-0.2,0-0.3c0.2-3.1,0.3-6.2,0.3-9.3c0-2.2-0.1-5.2-1.1-7.2c-0.1-0.1-0.1-0.3-0.2-0.4
			c-0.4-0.4-1-0.5-1.5-0.3c-1.3,0.6-0.9,2.7-1.1,3.9c-0.5,4,0.2,9.7-4.1,11.7c-2,0.8-4.1,1-6.2,0.7c-2.1-0.3-4.2-0.3-6.3-0.1
			c-1.4,0.2-2.7,0.7-4.1,0.8c-3.4,0.3-5.4-2.5-6.7-5.3c-0.8-2-1.5-4-2-6.2l-2-7.5c-0.1-0.2-0.2-0.5-0.4-0.5s-0.3,0.2-0.4,0.5
			c-0.5,2.5-0.7,5-0.8,7.6c-0.3,5.2,0.6,10.5,2.6,15.3c1.1,2.9,2.2,6.4,5.1,8c5.8,3,12.6,3.7,18.8,1.8c3.1-0.9,6.1-2.5,7.9-5.2
			C521.9,565.4,522.3,562.5,522.5,559.7z"/>
		<path class="st10" d="M516.8,541.7c-1.2,1.9-1.2,4.3,0.1,6.1c2.8,3.4,6.6-0.1,5.7-4.2C521.9,540.2,518.8,539,516.8,541.7z"/>
		<path class="st2" d="M517.1,553.5c-0.2,0-0.3-0.1-0.5-0.1c-0.6,0-1.1,0-1.7-0.1c-1.2-0.3-1.6-1.8-2.2-2.9c-1.8-3.1-6.1-4-9.3-3.1
			c-1.7,0.4-3.2,1.5-4.2,2.9c-0.3,0.5-0.6,0.9-0.9,1.3c-1,0.9-2.5,0.9-3.8,1.2c-2.7,0.7-6.4,4.3-2.9,6.6c2.5,1.6,6-0.9,7.4-2.8
			c0.8-1.1,1.5-2.3,2.1-3.5c0.6-1.2,0.9-1.6,2.3-1.8c1.8-0.3,3.6,0,5.2,0.8c1.5,1,2.3,3.7,3.1,5.2c0.4,0.9,1.1,1.8,1.8,2.4
			c1.6,1.1,4.5,0.1,5.1-1.7C519.4,556.4,518.9,554.1,517.1,553.5z"/>
		<path class="st10" d="M487.1,541.7c-1.2,1.9-1.2,4.3,0.1,6.1c2.7,3.4,6.6-0.1,5.7-4.2C492.1,540.2,489,539,487.1,541.7z"/>
	</g>
</g>
<line class="st12" x1="559.6" y1="564.6" x2="629.9" y2="564.6"/>
<line class="st12" x1="559.6" y1="571.8" x2="629.9" y2="571.8"/>
<line class="st12" x1="559.6" y1="579" x2="629.9" y2="579"/>
<line class="st12" x1="559.6" y1="586.2" x2="629.9" y2="586.2"/>
<line class="st12" x1="559.6" y1="446.2" x2="629.9" y2="446.2"/>
<line class="st12" x1="559.6" y1="453.4" x2="629.9" y2="453.4"/>
<line class="st12" x1="559.6" y1="460.6" x2="629.9" y2="460.6"/>
<line class="st12" x1="559.6" y1="467.8" x2="629.9" y2="467.8"/>
<line class="st12" x1="559.6" y1="321.5" x2="629.9" y2="321.5"/>
<line class="st12" x1="559.6" y1="328.7" x2="629.9" y2="328.7"/>
<line class="st12" x1="559.6" y1="335.9" x2="629.9" y2="335.9"/>
<line class="st12" x1="559.6" y1="343.1" x2="629.9" y2="343.1"/>
<path class="st6" d="M503.4,590.2L503.4,590.2c-22.6,0-40.9-18.3-40.9-40.9l0,0c0-22.6,18.3-40.9,40.9-40.9l0,0
	c22.6,0,40.9,18.3,40.9,40.9l0,0C544.3,571.9,526,590.2,503.4,590.2z"/>
<path class="st13" d="M429.6,366.5c-2.3-5.5-2.5-11.1-2.8-16.8c-2.3-0.7-6.1,0.4-9.1,0.9c-1.8,0.3-7.5,0.5-8,2.4
	c-0.6,2.2,2.3,5.9,3.2,7.7c2,3.8,2.8,8.1,2.4,12.4c-0.3,2.5-1.2,4.9-1.4,7.4c-0.1,1.5,0.1,3,0.6,4.5c2.9,8,8.7-0.1,13.2-1
	c3.7-0.8,9.7-1.6,8.1-6.9C433.4,373.8,431.3,370.3,429.6,366.5z"/>
<path class="st13" d="M418.3,358.1c4.2-0.6,3.4,3.8,6.4,0.7c0.7-0.7,4-6.5,3.8-7.5c-1.2-6-1.5-13.8-4.3-16.5
	c-3.3-3.2-9.3-3.7-13.6-4.1c-3-0.3-6.3,0.3-8.1,2.7c-1.5,1.9-1.6,4.5-1.6,6.8c-0.1,4.9-1,10.3,2.4,14.2c2.7,3.2,7,4.2,11,4
	c1.7-0.1,2.2-0.5,3.9-0.6c0.2,0,0.5,0,0.6,0.1C418.9,358.2,418.5,358,418.3,358.1z"/>
<path class="st13" d="M386.9,636.7c0.9,7,1.7,14.1,1.9,21.2c0.2,5.9-2.6,14.5,1.8,19.2s10.5,3.3,14.2-1.5c5.9-7.8,3.4-20.5,5-29.6
	c2.4-13.5,4-27.2,4.7-40.9c0.3-6.1,0.4-12.6-3-17.7c-5.6-8.4-18.3-6.4-23.4,1.4c-3.7,5.6-4.1,12.7-3.9,19.5
	C384.5,617.7,385.8,627.2,386.9,636.7z"/>
<path class="st2" d="M405.3,668c-2.7,1.3-5.2,2.5-8.1,1.5c-2.9-1-5.4-2.7-7.3-5.1c-0.3-0.4-0.7-0.8-1.1-1.1c-1.6-1.1-3.9,0.2-5,1.8
	s-1.8,3.6-3.4,4.8c-0.7,0.5-1.5,0.9-2.4,1.1c-3.2,1.2-6.5,2.4-9.8,3.6c-2.7,0.9-7,3.2-9.8,3.2c-1.3,0.5-2.6,1.1-3.2,2.3
	c-0.4,1.2-0.1,2.6,0.8,3.6c2,2.3,4.8,2.9,7.8,3c4.4,0.2,9,0.5,13.4,0.5c3.5,0,6.6-1.5,9.9-2.3c3.6-0.9,5.8,0.2,9.2,1.5
	C411,692,412.7,676,409,666C407.8,666.7,406.5,667.4,405.3,668z"/>
<path class="st14" d="M403,475.7c7-7.4,18.9-6.1,28.6-3.2c13.2,3.9,9.7,19.5,5.3,29c-3.1,6.6-5,10.3-6.1,17.9
	c-1.2,8.8-3.7,17.3-7.3,25.3c-1.6,3.5-3.4,7-3.5,10.7c-0.2,5.6,3.3,10.9,2.8,16.5c-0.4,4.2-3,8-3.6,12.2c-0.4,3.5,0.6,7,1.4,10.4
	c1.5,7,1.8,14.1,0.9,21.2c-1.2,9-3.2,6.5-11.1,6.8c-3.6,0.1-42.2-2-42.2-2.3c2.4-13.1,4.8-26.2,7.2-39.3c0.5-2.6,0.9-5.2,1.1-7.8
	c0.1-3.1-0.1-6.3-0.4-9.4c-2-29.5,7.3-64.1,26.3-87.1C402.5,476.2,402.8,476,403,475.7z"/>
<path class="st15" d="M441.6,457.8c0-0.4-0.1-0.9-0.1-1.3c-0.8-11.6-0.8-23.1,0-34.7c0.4-5.4,1.5-10.9,1.2-16.3
	c-0.3-5.4-0.9-10.8-1.7-16.1c-0.8-5.1-2.8-16.1-9.1-16.7c-4.9-0.5-13.3-0.6-17.3,2.8c-2.1,1.8-3.2,5.6-4.9,7.8
	c-2.2,2.8-4.8,5.3-7.2,8c-4.9,5.4-9.4,12.5-7.3,19.4c1.3,4.5,5.2,8.1,5.5,12.8c0.2,2.4-0.7,4.9-0.2,7.3c0.5,2.2,2.1,3.9,3.2,5.9
	c2.8,4.9,2.2,10.8,1,16.1c-0.9,3.8-4.6,8.6-2.7,12.6c1.4,2.8,6,2.6,8.6,2.9c4.3,0.5,8.6,0.8,12.9,1.1c2.5,0.2,4.9,0.6,7.3,1.3
	c2.3,0.6,5,2.4,7.3,1c0.6-0.4,1.1-0.9,1.5-1.6C442,466.5,441.9,462,441.6,457.8z"/>
<linearGradient id="SVGID_00000093899223687031869340000006363062984612826275_" gradientUnits="userSpaceOnUse" x1="416.9032" y1="690.0599" x2="436.3232" y2="638.7299" gradientTransform="matrix(1 0 0 -1 0 1081)">
	<stop  offset="0.27" style="stop-color:#010101;stop-opacity:0.91"/>
	<stop  offset="0.56" style="stop-color:#116190;stop-opacity:0"/>
</linearGradient>
<path style="fill:url(#SVGID_00000093899223687031869340000006363062984612826275_);" d="M435.3,396c0.9,12.3-2.5,24.4-5.8,36.3
	c-0.4,1.8-1.1,3.6-2.1,5.1c-1,1.6-2.8,2.6-4.7,2.6c-7.8-0.6-11.6-20.5-9.9-26.6c2.3-8.1,14.6-17.3,21.2-21.7
	C434.9,393,435.3,394.5,435.3,396z"/>
<linearGradient id="SVGID_00000102525303492459517990000004869118070396905142_" gradientUnits="userSpaceOnUse" x1="410.7005" y1="587.1302" x2="430.8605" y2="533.8602" gradientTransform="matrix(1 0 0 -1 0 1081)">
	<stop  offset="0.27" style="stop-color:#010101;stop-opacity:0.91"/>
	<stop  offset="0.56" style="stop-color:#116190;stop-opacity:0"/>
</linearGradient>
<path style="fill:url(#SVGID_00000102525303492459517990000004869118070396905142_);" d="M435.6,494.6c-3.1-3.6-8.5,1.8-11.5,3.6
	c-7.4,4.5-14.9,9.1-23.4,10.8c-2.8,0.6-5.8,0.9-8.4,2.1c9.3,10.9,18.7,21.7,28.4,32.2c3.5-3.1,5.1-10.4,6-14.4
	c1.7-7.4,4.1-14.7,6.4-22C434.1,503.7,438.3,497.7,435.6,494.6z"/>
<path class="st13" d="M373.1,369.5c0.4-2.7,0.9-5.3,1.5-8c0.2-0.7,1-1,1.7-0.8c0.6,0.2,1,0.8,0.8,1.5c-0.1,0.4-0.2,0.8-0.3,1.2
	c0.7,0,1.3,0.5,1.3,1.2c0,0.1,0,0.2,0,0.4c-0.1,0.2-0.1,0.5-0.2,0.8c0.5-0.1,1,0.1,1.3,0.5c-0.4,1.4-1,2.6-0.6,4s2.6,2.8,2.5,3.5
	l0,0l0.2,0.2c0.1,0.1,0.2,0,0.2,0c0,0,0,0,0-0.1c0.1,0,0.1,0,0.2-0.1c1.7,2.1,4.3,3,4.1,9.4c-0.1,1.6,0.1,12.6-0.5,12.6
	c-2.1-0.1-6-1-8.1-1.2c-0.4,0-3.6,2.6-3.8,0c-0.1-1.7,4.2-13.3,4.1-14.1c0-0.3-0.1-0.5-0.1-0.7c-0.3-0.6-0.3-1.1-0.7-1.6l-0.4-0.5
	l0,0c-0.1-0.1-0.2-0.3-0.3-0.4c-1-1.3-1.9-2.8-2.5-4.3c-0.3-0.8-0.3-1.6,0-2.4C373.1,370.2,373,369.9,373.1,369.5z"/>
<path class="st15" d="M435.2,386.1c-0.1-0.5-0.3-1-0.5-1.5c-0.4-1.3-1.1-2.5-2.1-3.5c-1.2-1.1-2.7-1.8-4.3-2.2
	c-6.4-1.5-13,0.3-17.7,4.9c-1.8,1.8-3.3,3.9-4.5,6.2c-1.7,2.8-3.1,5.8-4.3,8.9c-0.4,1.4-1.1,2.7-2,3.9c-1.2,1.1-2.6,2-4.1,2.7
	c-5.1,2.7-8.7,6.8-12,11.4c-0.7-3.7,0.5-7.5,1.3-11.1c1.1-5,1.6-10.1,1.3-15.2c0-0.3-0.1-0.6-0.3-0.8c-0.2-0.1-0.5-0.2-0.7-0.2
	l-10.3-0.3c-0.5-0.1-0.9,0-1.3,0.3c-0.3,0.3-0.5,0.7-0.5,1.2c-1.6,9.4-7.5,17.9-7.8,27.5c-0.1,4.3,0.9,8.6,1.9,12.8
	c0.9,3.8,5.8,14.2,11.1,12.6c8.6-2.5,17.1-6.2,23.6-12.5c1.3-1.4,2.7-2.7,4.2-3.8c3.2-2.1,7.5-2.4,10.5-4.8s4-6.5,6.2-9.7
	c2.4-3.4,6.1-5.6,8.7-8.9C435.5,398.8,436.8,392.3,435.2,386.1z"/>
<path class="st2" d="M384.1,375.4c-2.2-8.9-5.6-17.5-8.7-26c-0.6-1.6-3.1-0.9-2.5,0.7c0.1,0.4,0.2,0.7,0.4,1.1c0,0.1,0,0.3,0,0.4
	l1.7,4.8c1.5,4.7,3,9.5,4.9,14l0.9,2.6c0.3,1.1,0.6,2.1,0.9,3.2C381.9,377.8,384.5,377.1,384.1,375.4z"/>
<path class="st13" d="M380,373.4c0.3-0.8,0.7-0.4,1,0c0,0.3,0.2,0.6,0.6,0.6c0.2,0,0.3-0.1,0.4-0.2c0.5-0.5,0.9-1.1,0.9-1.9l0,0
	c-0.1-0.2-0.1-0.4-0.1-0.5l-0.2-0.2c-0.6-0.3-1.1-0.8-1.4-1.4l-0.5-1.6c-0.3-1,1.2-1.6,2-0.2c0.5,0.9,1.6,1,2.1,1.4
	c0.6,0.5,1,1.2,1.1,1.9l0,0c0.2,1.1,0.3,2.3,0.2,3.5c0,0.1,0,0.2,0,0.3c0.8,2.3,0.3,4.9-1.3,6.7c-0.2,0.3-0.6-0.1-0.4-0.4l0.2-0.2
	c0,0-0.1-0.1-0.1-0.2c-1-0.1-2.6-1.5-3.7-3.9c-0.3-0.5-0.6-1.1-0.8-1.7C379.5,375.2,379.6,374.1,380,373.4z"/>
<g>
	<defs>
		<path id="SVGID_00000160160265377245388670000016155742499621030805_" d="M418.3,358.1c4.2-0.6,3.4,3.8,6.4,0.7
			c0.7-0.7,3.9-5.5,4-6.5c0.5-4.8-1.7-14.8-4.5-17.6c-2.6-2.6-7.9-2.9-11.5-2.5c-7.4,0.9-12.9,3.8-12.1,15.4
			c0.5,6.6,5.2,10.6,13.6,10.1c1.7-0.1,2.2,0.1,3.9,0.1c0.2,0,0.5,0,0.6,0.1C418.9,358.2,418.5,358,418.3,358.1z"/>
	</defs>
	<clipPath id="SVGID_00000096028754934537250240000016637055309418072735_">
		<use xlink:href="#SVGID_00000160160265377245388670000016155742499621030805_"  style="overflow:visible;"/>
	</clipPath>
	<g style="clip-path:url(#SVGID_00000096028754934537250240000016637055309418072735_);">
		<path class="st2" d="M399.9,350.5c1.6,1,3.6,0.8,5-0.4c0.5-0.4,1.1,0.4,0.6,0.8c-1.7,1.5-4.2,1.7-6.2,0.5
			C398.8,351,399.4,350.2,399.9,350.5z"/>
	</g>
</g>
<path class="st19" d="M414.6,342.5c0.1-0.3,0.3-0.6,0.6-0.8c1.1,0,2.2,0.7,2.6,1.8c0.5,1.2,0,3.1-1.5,3.2c-0.7,0.1-1.4-0.1-2-0.5
	c0-0.4,0-0.8,0-1.2C414.3,344.1,414.4,343.3,414.6,342.5z"/>
<path class="st13" d="M392.3,562.2c0,0.2,0,0.3,0,0.5c0.1,3.2,2.8,5.8,5.6,7.1c4.7,2.2,10,2.8,14.7,4.9c1.1,0.5,2.2,1.2,3.3,1.9
	c0.6,0.4,1.2,0.9,1.7,1.4c0.5,0.8,1,1.6,1.3,2.5c0.8,2,2.7,6.5,5,7.1c2.5,0.7,5.1-2.6,5.9-4.5c1.2-2.5,2.3-5.1,3.2-7.7
	c0.9-2.7,0.5-5.7-1-8.1c-2.5-3.5-7.3-4.2-11.3-5.7s-7.5-3.7-11.3-5.6c-3.1-1.5-7.4-4.1-11-3.9c-2.9,0.2-4.4,3.5-5.3,6.3
	C392.7,559.8,392.4,561,392.3,562.2z"/>
<path class="st2" d="M425.9,563.6c0.8,3.3,2.8,7.8,1.3,11c-0.8,2.1-2.6,3.8-4.9,4.4c-1,0.3-2,0.4-3,0.7c-1,0.3-1.9,0.9-2.4,1.8
	c-0.4,1.1-0.3,2.4,0.5,3.4c1.3,1.8,3.5,2.5,4.9,4.1c0.9,1.2,1.6,2.5,2.1,4c2.2,4.7,3.2,9.1,4.5,14c0.6,2.2,1.5,4.6,3.6,5.6
	c1.5,0.7,3.3,0.6,4.8-0.2c8-4.1,4.1-18.8,2-25.4c-0.8-2.6-1.8-5.2-1.1-7.8c0.5-1.9,2-3.5,2.7-5.3c1.3-3.1,0.4-8.4-2.9-10.3
	C437,562.9,425.6,562.3,425.9,563.6z"/>
<path class="st13" d="M344.3,548.3c0.7-5.7,5.3-14.3,9.9-17.9c7.5-5.8,20.6,2.4,27.1,6.3c12.2,7.1,23.9,15.5,35.9,23.1
	c1,0.5,1.9,1.2,2.6,2.1c2.7,3.2,0.4,8.6-3.3,10.5s-8.2,1.4-12.4,0.7c-14.5-2.4-28.1-6.7-42.1-11.2c-5-1.6-14.8-3.4-17.2-8.7
	C344.3,551.6,344.1,549.9,344.3,548.3z"/>
<path class="st2" d="M411.1,319.7c-0.6,0.8-1.2,1.6-1.7,2.4c-2.5,3.9-1.6,8,0.6,11.9c0.9,1.3,1.7,2.6,2.3,3.9c1,2.8,0,6,0.6,9
	c0.6,2.7,2.5,4.9,4.4,6.9c3.5,3.9,6.4,6.2,11.6,5c3.5-0.8,9.4-2.9,12.1-5.5c3.7-3.6,3-10.7,2.8-15.4c-0.7-13.5-0.8-26.9-0.3-40.4
	c0.2-6.5,1.1-13.2,1-19.7c0-5.1,0.5-11.2-1.3-16c-1.3-3.6-4.5-6.8-8.3-7c-3.2-0.2-6.1,1.6-8.4,3.8c-7,7-9.2,17.5-5.5,26.7
	c0.9,2.1,2,4.5,0.9,6.4c-0.6,0.8-1.4,1.5-2.3,2c-3.5,2.4-6.6,5.9-6.8,10.1c-0.1,3.4,1.6,6.8,1.1,10.1
	C413.4,316,412.5,318,411.1,319.7z"/>
<path class="st14" d="M441.7,462.4h-40.9c-0.4,2.5-0.8,4.9-1.4,7.3c-0.9,3.5-3.9,4.9-7.1,6.3c-13.8,6-28.6,9.5-42,16.2
	s-26,17.7-29.3,32.3c-1.6,7-2.4,15.3,1.8,21.4c5.1,7.4,13.3,10.1,20,15.5c2.9,2.3,5.2,5.4,8.7,6.5c3,1,6.4,0.3,9.1,1.7
	c3.7,1.8,5.6,6.9,9.7,7.4c2.6-11,5.2-21.9,7.7-32.8c0.8-3.5,4.4-8.9,1.8-11.3c-1.4-1.3-17.5-5.4-18.6-4.8c6.6-3.8,14.7-2.4,22.3-2.3
	c11.2,0.2,22.3-2.5,32.2-7.8c4.7-2.5,8.7-5.9,13.2-8.7c4.9-3.1,9.4-7,11.6-12.5c2.5-6.2,2.3-13,2-19.5
	C442.3,472.3,442,467.4,441.7,462.4z"/>
<path class="st2" d="M397.5,337.8c-0.2-0.1-0.4-0.3-0.5-0.5c-0.9-1.1-1.5-2.4-1.8-3.8c-0.7-2.1-0.9-4.4-0.6-6.6
	c0.5-2.2,2.2-4.2,4.4-4.4c0.7-0.1,1.5,0,2.2-0.1c1.4-0.4,2.6-1.4,3.2-2.8c0.7-1.3,1.1-2.7,2-4c1.1-1.5,2.5-2.7,4.1-3.6
	c2.5-1.5,5.4-2.9,8.1-2.1c3,0.9,4.6,4.2,4.9,7.3s-0.4,6.2-0.6,9.3c0,1.8-0.1,3.6-0.3,5.5c-1,5.8-7,5.6-11.7,6.2
	C407.5,338.6,400.8,340.2,397.5,337.8z"/>
<path class="st20" d="M772.3,763.7H550c-5.3,0-9.6-4.3-9.6-9.6c0,0,0,0,0,0l0,0c0-5.3,4.3-9.6,9.6-9.6h0h222.3
	c5.3,0,9.6,4.3,9.6,9.6v0l0,0C781.9,759.4,777.6,763.7,772.3,763.7C772.3,763.7,772.3,763.7,772.3,763.7z"/>
<path class="st20" d="M511.6,778.1H462c-3.5,0-6.4-2.9-6.4-6.4l0,0l0,0c0-3.5,2.9-6.4,6.4-6.4c0,0,0,0,0,0h49.6
	c3.5,0,6.4,2.9,6.4,6.4v0l0,0C518,775.2,515.1,778.1,511.6,778.1z"/>
<path class="st21" d="M587.2,756.4h187.5c10.3-3.8,20-9,28-16.3c21.6-19.7,21.7-49.6,9.7-74.2c-7.6-15.5-11.4-32.7-10.9-50
	c0.2-8.4,1.5-16.8,0.4-25.2c-2.2-17.7-15-33-31-40.8s-34.7-8.8-52.2-5.4c-28.3,5.5-51.1,23.2-53.7,53.2c-1.5,17.2,1.8,34.5,0.3,51.6
	c-1.3,14.5-7.2,29.9-18.7,38c-2.1,1.5-4.5,2.8-6.9,3.7c-8.1,3.1-17.2,2.7-25.2,5.8c-5.5,2.1-10.3,5.8-15,9.5
	c-3.7,3-7.5,6.2-9.3,10.6c-2.3,5.3-4.1,12.7-5.8,18.4c-1.8,6-1.3,12.4,1.3,18.1C586.1,754.4,586.6,755.4,587.2,756.4z"/>
<path class="st2" d="M691.4,647.9c-5.3-5.1-11.1-9.9-16.1-15.4c-7.6-8.2-13.8-18.9-12.6-30.1c0.4-3.9,1.7-7.9,0.6-11.7
	c-0.8-2.9-3-5.2-4.6-7.8c-3.9-6.4-4.2-14.7-1.5-21.6c2.9-7,8.1-12.7,14.8-16.3c3-1.7,6.3-3.1,8.6-5.7c7.5-8.4,1.4-22.2,7.6-31.3
	c5.9-8.7,22.2-0.2,28.5,3.9c2.8,1.7,5.2,3.9,7.2,6.4c3.6,5.2,5.4,11.6,6.4,17.9c0.6,3.9,1.1,8.2,3.9,11s6.7,3.2,10.3,4.4
	c5.9,2,10.9,5.9,14.2,11.2c2.3,3.8,3.8,8.3,7.2,11.1c3,2.5,7,3.3,10.6,4.9c21.1,9.3,20.8,38.1,17.5,57.2
	c-2.4,13.6-6.8,27.8-17.5,36.4c-5.4,4.2-11.8,6.8-18.5,7.7c-7.3,1-12.8-6.1-19.5-8.8c-2-0.8-4.1-1.4-6.3-1.6
	c-1.8-0.1-3.7,0.1-5.5-0.1c-6.2-0.8-12.1-3.2-17.9-5.7c-1.7-0.6-3.3-1.5-4.8-2.5c-1.8-1.5-3.5-3.3-4.9-5.2
	C696.8,653.3,694.2,650.5,691.4,647.9z"/>
<path class="st22" d="M673.7,595c-7,19.8-24.2,34.2-44.8,37.8c2.5,4.3,3.5,8.2,4.9,13c13.9,0.2,28.5-3.7,38.4-13.5
	s13.8-26.2,6.8-38.2C678.1,592.7,674.2,593.4,673.7,595z"/>
<path class="st23" d="M666.2,587c2.3-6.4,6.5-12.5,9.5-18.3c1.7-3.3,3.5-6.7,5.2-10.1c1.2-2.2,2.5-7,5.1-8c2.1-0.8,4.6,1,6.5,1.7
	c2.8,1,5.7,1.8,8.5,2.8c5.6,2,11.2,4.6,15.3,9c4.2,4.6,7.1,10.7,6.6,17.2c-0.3,3.7-1.9,7.1-2.7,10.6c-0.8,4.2-1.1,8.5-0.9,12.8
	c0.3,13.2,1.3,26.3,3,39.4c0.3,2.3,0.6,4.7-0.3,6.8c-2.2,5.4-16.4,4-21.5,4.4c-8.1,0.7-17.3,2.7-25-1c-1-8.3-1.5-16.7-1.4-25.1
	c0-7,2-14-2.5-20c-3.9-5.2-8.3-9.9-7.1-16.9C665,590.5,665.5,588.7,666.2,587z"/>
<path class="st13" d="M683.8,547.9c0.2-2.2,0.2-4.4,0-6.5c-0.2-1.8-1.5-2.5-2.8-3.6c-2.6-2.3-4.6-5.3-5.6-8.6
	c-2.7-8-3.1-17.7,4.4-23.4c4.2-3.2,10.4-3.7,14.9-0.9c6.3,4.1,7.2,12.8,7.4,20.3c0.2,5.9,0.3,11.7,0.5,17.6
	c0.2,6.3,0.7,14.2-5.9,17.5c-2.3,1.1-4.9,1.4-7.4,0.8c-1.5-0.4-2.8-1.2-3.8-2.3C682.9,556,683.6,551.4,683.8,547.9z"/>
<linearGradient id="SVGID_00000157266035278327684690000002363538866291217327_" gradientUnits="userSpaceOnUse" x1="696.2688" y1="564.0701" x2="692.6588" y2="516.5001" gradientTransform="matrix(1 0 0 -1 0 1081)">
	<stop  offset="0.27" style="stop-color:#010101;stop-opacity:0.91"/>
	<stop  offset="0.56" style="stop-color:#E0AC9B;stop-opacity:0"/>
</linearGradient>
<path style="fill:url(#SVGID_00000157266035278327684690000002363538866291217327_);" d="M685.8,540.4c0.6,0.9,1.3,1.8,1.8,2.8
	c0.7,1.5,1.2,3,1.8,4.5c1.2,2.7,2.9,5.2,5,7.2c0.9,1,2,1.7,3.3,2.1c1.3,0.4,2.7,0,3.6-1.1c0.4-0.7,0.6-1.5,0.7-2.3
	c1-7.3,1.5-14.7,0.1-21.9C698.3,536.6,691.8,540.5,685.8,540.4z"/>
<linearGradient id="SVGID_00000057130923496372740700000016686800246449511080_" gradientUnits="userSpaceOnUse" x1="642.5046" y1="296.9923" x2="663.9346" y2="441.6523" gradientTransform="matrix(1 0 0 -1 0 1081)">
	<stop  offset="0" style="stop-color:#22418E"/>
	<stop  offset="1.000000e-02" style="stop-color:#3CBFBC"/>
	<stop  offset="1" style="stop-color:#AADFEB"/>
</linearGradient>
<path style="fill:url(#SVGID_00000057130923496372740700000016686800246449511080_);" d="M539.9,754.6c0.7,0.6,1.5,1.2,2.3,1.8
	h199.3c8.8-4.2,17-9.7,23.1-17.3c7.7-9.8,11.4-23.3,7.4-35.1c-2.1-6.2-6.2-11.6-10.8-16.2c-12.4-12.5-28.3-20.8-45.7-23.7l9.7,1.1
	c-22.9-6.1-47-4.4-70.6-2.7l-65,4.8c-14.3,1-28.7,1.4-38.8,12.3c-10.8,11.7-17.7,26.3-19.9,42.1
	C529.1,733.3,530.9,746.7,539.9,754.6z"/>
<path class="st13" d="M526.7,746.2l9.2-9.5c3.4-3.3,6.6-7,9.3-10.9c2.3-3.4,4-7.1,5.1-11.1c1-3.5,1.5-7.4-0.3-10.6
	c-2-3.5-6.4-5.2-10.4-4.8s-7.7,2.6-10.8,5.2c-7,6-11.5,14.1-15.8,22.1c-4.3,8.3-9.3,16.2-15.1,23.6c-1.9,2.4-3.9,5.7-2.5,8.4
	c1.1,2.2,3.9,2.9,6.3,3.1c5.1,0.5,10-0.4,13.6-4.2L526.7,746.2z"/>
<path class="st2" d="M500.5,749.2c-0.6-0.4-1.4-0.5-2.1-0.3c-2.1,0.5-3.6,3.3-5.6,4.2c-3,1.4-6.2,2.5-9.5,3.2
	c-1.9,0.4-3.8,0.8-5.8,1.1l-8.9,1.5c-2.1,0.2-4.1,0.8-6,1.6c-5.2,2.6-4.5,8.6,0.5,10.9c3.6,1.7,8.5,1.7,12.3,1.1
	c10-1.5,19.9,1.1,29.9,0c7.5-0.8,9.6-6.4,11.6-12.9c0.3-1,0.7-2,1-3c-2.4-1-5.5-0.6-8.2-1.5c-2.4-0.9-4.7-2.2-6.6-3.9
	C502.4,750.4,501.5,749.7,500.5,749.2z"/>
<path class="st26" d="M723.9,652.7c-0.9-3.9-2.3-7.9-5.2-10.5s-7.7-2.9-10.1,0.2c-0.8,1-1.3,2.4-2.1,3.4c-2.5,3.1-8.8,1-12,0.9
	c-5-0.1-10.1,0.2-15.1,0.5c-12.3,0.8-24.5,1.9-36.8,3l-34.3,3c-5.8,0.5-11.7,1.3-17.5,1.6c-5.1,0.3-9.2-0.9-14.2,1.5
	c-4.2,2-7.7,5-11.2,8c-5.2,4.5-10.5,8.9-15.7,13.4c-3,2.6-5.9,5.2-8.7,8c-8,7.6-15.3,15.9-22.6,24.1c-6.2,6.9-12.3,13.9-18.5,20.8
	c11.7,9.1,22.4,19.5,32.9,30c1.8-1.7,3.7-3.7,4.9-4.8c2.7-2.4,5.4-5,7.9-7.6c1.4-1.2,2.5-2.8,3.1-4.5c0.4-1.4,0.3-2.9,0.6-4.4
	c1-4.7,6.1-7,9.7-10.1c5.2-4.5,6-10.7,9.4-16.3c3-5,9.1-7.2,13.1-11.3c3.8-3.9,5.7-9.2,9-13.6c2.7-3.5,9.2-8.5,13.7-5.2
	c3.6,2.6,3,8.6,7.3,10.7c2.9,1.5,6.5,1.4,9.7,1.9c10.8,1.9,21.8,3,32.7,4.1l18.6,1.8c10.4,1,21,2,31-1c8-2.4,15.7-7.7,19.7-15.7
	c0.9-1.9,1.7-4,2.1-6.1C727.1,670.3,725.8,660.5,723.9,652.7z"/>
<path class="st13" d="M733.6,579.2c12.2,6.8,14.1,21.7,14.5,35c0.2,6.8-0.2,13.8-2.8,20.1c-6.9,16.9-27.7,21.2-43.9,20.6
	c-21-0.7-41.7-5-61.2-12.7c-0.1-3.6,0.3-7.1,1.2-10.6c12.4,3.3,25.2,5,38,5.1c9.3,0.1,18.7-0.8,27.4-3.8c5.6-2,11.1-5.1,13.5-10.1
	c4.4-8.9-2.9-18.5-4-27.3c-0.4-3.1-0.7-6.4,0.4-9.3c0.5-1.3,1.2-2.5,2-3.6c1-1.8,2.3-3.3,4-4.4c2.5-1.5,5.8-1.3,8.5-0.1
	C732,578.4,732.8,578.7,733.6,579.2z"/>
<path class="st2" d="M576.3,653.3H662c0.6,0,1.2-0.1,1.7-0.4l0,0c2.3-1.3,1.2-4.4-1.7-4.4h-85.7c-0.6,0-1.2,0.1-1.7,0.4l0,0
	C572.3,650.3,573.4,653.3,576.3,653.3z"/>
<path class="st2" d="M575.7,653.5H657c0.7,0,1.2-0.6,1.2-1.3c0-0.2-0.1-0.5-0.2-0.7l-27.7-40.7c-0.2-0.3-0.6-0.5-1-0.5H548
	c-0.7,0-1.2,0.6-1.2,1.3c0,0.2,0.1,0.5,0.2,0.7l27.7,40.7C574.9,653.3,575.3,653.5,575.7,653.5z"/>
<path class="st2" d="M684.5,512c2.4-0.7,4.9-0.6,7.2,0.2c2.6,1,4.9,2.7,6.5,5c2,2.8,2.2,5.2,2.5,8.6c0.7,7.7,1.4,15.4,2.1,23.1
	c0,1.3,0.3,2.5,0.9,3.6c1,1.4,2.4,2.4,4,2.8c2.8,1,5.9,0.9,8.6-0.5c2.5-1.7,4.2-4.3,4.5-7.3c0.4-2.9,0.3-5.9-0.2-8.8
	c-0.8-6.6-0.2-14.6-3.6-20.5c-2.3-4.5-5.6-8.4-9-12.3c-3.2-3.6-6.5-7.3-10.8-9.4c-2.4-1.1-5-1.9-7.7-2.4c-5.2-1-10.7-1.5-15.4,0.9
	s-9.8,12-4.1,15.8c0.8,0.5,1.7,0.8,2.7,1.1c2.3,0.8,4.7,1.1,7.2,1C681.6,512.7,683,512.3,684.5,512z"/>
<path class="st13" d="M696.6,522.1c1.3-2.3,4.1-3.7,6.5-2.2s2.1,5.3,0,7.1s-5.5,1.3-6.4-1.4c-0.2-0.5-0.2-1-0.1-1.5
	C696.3,523.5,696.2,522.7,696.6,522.1z"/>
<linearGradient id="SVGID_00000018958885377565553870000011047678409712250796_" gradientUnits="userSpaceOnUse" x1="645.7864" y1="312.5467" x2="717.5864" y2="454.0567" gradientTransform="matrix(1 0 0 -1 0 1081)">
	<stop  offset="0" style="stop-color:#22418E"/>
	<stop  offset="1.000000e-02" style="stop-color:#3CBFBC"/>
	<stop  offset="1" style="stop-color:#AADFEB"/>
</linearGradient>
<path style="fill:url(#SVGID_00000018958885377565553870000011047678409712250796_);" d="M641.6,727.8c-4.2,0.2-8.5,0.5-12.7,0.8
	c-7,0.6-14.4,1.1-20.8-1.9c-2.2-1.1-4.3-2.5-6.1-4.1c-37.5-32,59.5-47.8,78.2-44.2c7.4,1.4,14.4,4.3,21.7,6.1s15.2,2.5,22.2-0.2
	c4.6-1.8,8.5-5,13.1-6.7c9.1-3.5,23.1-0.7,26.6,9.3c4.1,11.9-2,22.6-13.2,27.5c-7.3,3.2-15.4,3.5-22.8,6.5
	c-8.1,3.2-17.1,3.6-25.7,4.5C682,727.3,661.8,726.8,641.6,727.8z"/>
<path class="st23" d="M720.3,604.1c-2.1,0.5-4.1,1.2-6.1,2l-5.2-8.4c-3.2-5.1-5.9-10.5-8.8-15.8c-2.1-3.8-2.1-8.2-1.1-12.3
	c0.6-2.7,0.5-5,0.8-7.6c0.5-3.8,1.9-7.6,2.4-11.5c0.1-0.8,18.8,5.9,20.8,7.6c12,9.8,20.7,23.2,24.6,38.2c-4.2,0.4-8.1,2.6-12.1,4
	C730.8,602,725.5,602.7,720.3,604.1z"/>
<path class="st28" d="M685.9,531.4c-1.7,1.5-4.2,1.5-6,0"/>
<path class="st29" d="M602.6,627.5c-2.1-1.3-4.8-0.7-6.1,1.4s-0.7,4.8,1.4,6.1l0,0"/>
<path class="st13" d="M633.1,718c-2.2-6.2-3.6-12.8-5.5-19.1c-0.8-2.9-2-5.7-3.6-8.2c-1.6-2.5-4.2-4.4-7.2-5.1
	c-5-1-10.1,2.6-12.4,7.2c-6,11.9-0.9,25.1,6.9,34.7c2.7,3.2,5.5,6.3,8.2,9.5s4.7,7.4,7.5,10.4c4.3,4.6,11.8,1.6,15.4-2.6
	c4.2-5-1.2-11.8-4.1-16C636.2,725.5,634.4,721.8,633.1,718z"/>
<path class="st2" d="M640.5,734.8c-0.4,0.3-0.8,0.8-1.4,1.3c-2.6,2.3-5.2,4.8-8.7,5.5c-1.7,0.4-3.4,0-5.1,0.4s-3.4,1.8-2.9,3.5
	c0.6,2.1,2,3.2,2.3,5.5c0.3,2.7,0.2,5.5-0.2,8.2c-0.8,5.7-2.3,11.3-4.5,16.6c-1.2,3-3.4,7.6-1,10.6c1.8,2.2,5.2,2,7.8,0.8
	c3.8-1.8,6.8-5.1,9-8.7s3.8-7.5,5.7-11.3c1.8-3.5,3.9-6.8,6.2-9.9c1.2-1.4,2.2-2.9,3.1-4.6c1.4-3.6,0.7-7.7-1.9-10.6
	c-1.7-2-3.9-6.2-6.2-7.4C641.6,734.2,641.1,734.3,640.5,734.8z"/>
<path class="st15" d="M582.5,692.3c0.7,1.8,1,3.7,1.6,5.5c1.1,3.2,2.6,6.2,4.4,9l12.5,21.4l6.3,10.7c0.3,0.5,0.8,1.5,1.3,2.6
	c11.3-6.7,22.4-13.7,33.2-21.2c-2.5-4-5.2-7.8-5.8-12.4c-0.3-2.3,0-4.7-0.2-7c-0.7-5.6-4.7-10.1-8.1-14.7
	c-6-8.2-10.3-17.4-15.4-26.2c-0.6-1-1.2-2.1-1.8-3.1c-3.4-5.9-7.8-11.1-12.8-15.7c-2.6-2.1-5.3-4-8.3-5.6c-2.5-1.4-4.2-3.5-6.9-4.5
	c-11.5-4.8-20.6,4.6-21,16.2c-0.2,8.3,3.5,16.2,7.6,23.4c2.8,5,5.9,9.8,9.1,14.5C580,687.4,581.4,689.8,582.5,692.3z"/>
<linearGradient id="SVGID_00000106138212915747879210000014873683887368622481_" gradientUnits="userSpaceOnUse" x1="722.2236" y1="493.5231" x2="703.9636" y2="470.6331" gradientTransform="matrix(1 0 0 -1 0 1081)">
	<stop  offset="0.27" style="stop-color:#010101;stop-opacity:0.91"/>
	<stop  offset="0.53" style="stop-color:#FFFFFD;stop-opacity:0"/>
</linearGradient>
<path style="fill:url(#SVGID_00000106138212915747879210000014873683887368622481_);" d="M709.1,589.8c0.7,9.6-0.3,19.3-3,28.6
	c0.5-1.7,5.4-4.8,6.8-6.2c1.6-1.6,5.4-4.5,5.7-6.8c0.2-2.2-2.6-5.6-3.7-7.3C713,595.2,711.1,592.4,709.1,589.8z"/>
<path class="st6" d="M372.3,340.3l-17.9-11h-87c-8.9,0-16.1-7.3-16.1-16.2c0,0,0,0,0,0V299c0-8.9,7.2-16.2,16.1-16.2c0,0,0,0,0,0
	h88.8c8.9,0,16.1,7.3,16.1,16.2V340.3z"/>
<ellipse class="st31" cx="328.8" cy="306.1" rx="3.4" ry="3.4"/>
<ellipse class="st31" cx="308.4" cy="306.1" rx="3.4" ry="3.4"/>
<ellipse class="st31" cx="288" cy="306.1" rx="3.4" ry="3.4"/>
<path class="st20" d="M457.8,742.9H431c-3.2,0-5.8-2.6-5.8-5.8c0,0,0,0,0,0l0,0c0-3.2,2.6-5.8,5.8-5.8c0,0,0,0,0,0h26.8
	c3.2,0,5.8,2.6,5.9,5.8l0,0C463.7,740.3,461.1,742.9,457.8,742.9C457.8,742.9,457.8,742.9,457.8,742.9z"/>
<path class="st21" d="M439.2,680.6c-1.5-5.7-3.4-11.7-1.8-17.3c1.1-3.8,3.6-7,4.7-10.8c1.7-6.2-0.9-12.8,0.3-19
	c1.1-6,5.3-10.8,7.6-16.5c3-7.4,2.5-15.8,5-23.4c0.8-2.4,2-4.9,4.2-6.3s5.5-1.2,6.9,0.9c0.7,1.3,1,2.8,0.8,4.2
	c-0.6,15.7-13.4,29.9-11.1,45.5c0.7,4.4,2.5,8.9,1.4,13.2s-4.9,7.4-6.7,11.4c-2,4.4-1.5,9.5-0.8,14.3s1.4,9.9-0.4,14.4
	c-0.9,2.4-8.3,10.5-10.9,6.3c-0.3-0.5,2-6.5,2-7.6C440.5,686.9,440.1,683.7,439.2,680.6z"/>
<path class="st32" d="M433.4,687.5c0-0.1,0-0.2,0-0.4c-0.2-3.8-2.8-6.9-5.6-9.4c-4.7-4.1-9.1-14.8-9.9-21c-0.6-4.3,0.2-8.6-0.2-12.9
	c-0.5-6.7-3.5-12.8-5.5-19.2c-1.8-5.9-2.8-12-3-18.1c-0.1-2.4,0.3-5.3,2.3-6.5c1.8-0.9,4.1-0.5,5.5,0.9c1.4,1.4,2.4,3.2,2.8,5.2
	c2.9,9.5,1.8,20,5.9,29.1c1.9,4.1,4.8,7.8,5.6,12.3c0.9,4.8-0.8,9.9,0.4,14.7c2,8,9.9,12.5,10.5,21.2c0,1,0.1,1.9,0.3,2.9
	c0.6,1.4,1.3,2.7,2.3,3.9c2.1,3.2,5.6,10.4,2.1,13.3c-6.4,5.2-13.8-5.8-14-11.2C433.1,690.6,433.4,689,433.4,687.5z"/>
<path class="st32" d="M453.3,676.6c0.5-2.2,1.4-4.3,2.6-6.2c2.4-3.4,6.9-5.3,8.1-9.3c0.4-1.7,0.6-3.4,0.6-5.1
	c0.3-3.1,1.9-5.9,4.4-7.7c2.6-1.8,5.9-2,8.7-0.5c3.4,2,4.4,6.4,5.1,10.3c2,12.2,3,25.3-2.9,36.1c-0.2,0.5-0.6,1-1.1,1.3
	c-1.4,0.8-3.1-0.5-3.8-2c-3.6-6.9,0.9-16-2.7-22.9c-0.3-0.5-0.7-1.1-1.3-1.2c-0.5,0-0.9,0.3-1.2,0.7c-1.8,2-2,5.2-3.9,7.2
	c-1.6,1.9-4.3,2.5-6,4.3c-1.3,1.6-2.1,3.5-2.5,5.6c-1,3.6-2,18-7.3,11.8C445.4,693.7,451.7,682.2,453.3,676.6z"/>
<path class="st33" d="M444.9,740.5h-0.7c-10.4,0-19.1-7.7-20.4-18l-3.3-26.7h47.5l-2.8,26.3C464.2,732.5,455.4,740.5,444.9,740.5z"
	/>
<linearGradient id="SVGID_00000111870194176394903740000005967994847122673290_" gradientUnits="userSpaceOnUse" x1="442.5908" y1="419.81" x2="447.0908" y2="330.67" gradientTransform="matrix(1 0 0 -1 0 1081)">
	<stop  offset="0.27" style="stop-color:#010101;stop-opacity:0.91"/>
	<stop  offset="0.56" style="stop-color:#E33471;stop-opacity:0"/>
</linearGradient>
<path style="fill:url(#SVGID_00000111870194176394903740000005967994847122673290_);" d="M443.1,708.8c8.1-2.2,16.1-4.6,24.1-7
	l0.3-0.1l0.6-6h-47.5l2.2,18C429.6,712.1,436.5,710.7,443.1,708.8z"/>
<path class="st33" d="M466.1,698.7h-43c-2.6,0-4.9-1.8-5.5-4.3l0,0c-0.8-3.1,1.1-6.2,4.1-6.9c0.5-0.1,0.9-0.2,1.4-0.2h43
	c3.2,0,5.7,2.6,5.7,5.7c0,0.3,0,0.6-0.1,0.9l0,0C471.3,696.6,468.9,698.7,466.1,698.7z"/>
<path class="st20" d="M732.3,800.6h45.6c2.2,0,4,1.8,4,4v6.3c0,2.2-1.8,4-4,4h-45.6c-2.2,0-4-1.8-4-4v-6.3
	C728.3,802.4,730.1,800.6,732.3,800.6z"/>
<path class="st33" d="M726,750.7l56.2,1.1l-5,40.4c-3.1,10.2-12.5,17.2-23.2,17.3l0,0c-11.9,0.2-22.2-8.3-24.5-20L726,750.7z"/>
<path class="st2" d="M769.4,656.8c0-0.1,0-0.1,0-0.2c-0.4-6,3.8-11.9,2.6-17.8c-0.1-0.7-0.4-1.3-0.9-1.6c-1-0.5-2.1,0.3-2.8,1.2
	c-4.2,5.2-3.8,12.1-3,18.3c0.8,6.7-2.5,12.1-3.5,18.7c-0.7,4.6,0.1,8.7-0.8,13.1c-1.1,5.2-1.8,10-0.1,15.2c0.7,2.2,1.8,4.4,1.5,6.8
	c-0.2,2.8-2.3,5.1-3.4,7.8c-2.9,7,1.1,15.8-2.9,22.2c-0.4,0.7-1,1.3-1.8,1.3c-1,0-1.5-1.1-1.8-2c-4.5-12.2-9-26.1-7.2-39.3
	c0.4-2.9,1.1-5.7,1.3-8.6c0.1-2.7,0-5.3-0.4-8c-0.7-6.3-1.3-12.6-2-18.9c0-1.2-0.3-2.3-0.9-3.3c-0.6-1-1.9-1.3-3-0.8
	c-0.6,0.5-1,1.3-1,2.1c-1.1,6.4,1.3,12.9,0.8,19.3c-0.3,3.6-1.6,7.1-2.3,10.6c-1.5,7.9,1,18.1,2.4,25.9c1.1,5.5,1.6,11.2,2.4,16.8
	c0.4,3,1.7,5.9,2,8.9c0.2,2.3-1.7,9.8-3.9,4.5c-0.9-2.2-1.3-4.6-1.2-6.9c0.2-1.2,0.2-2.5,0.2-3.7c-0.1-1.3-0.8-2.4-2-3
	c-1.2-0.5-2.6,0-3.8-0.6c-1.3-0.7-1.7-2.4-1.8-3.8c-0.5-4.4-1.1-9.1,0.5-13.3c0.6-1.3,1.1-2.6,1.4-4c0.6-3.4-2.1-4.9-2.7-7.8
	c-0.6-2.7,1.5-5.1,1.9-7.7c0.2-2-0.9-4-2.7-4.9c-0.6-0.2-1.1-0.5-1.5-0.9c-0.4-0.8-0.4-1.7,0-2.4c0.5-1.6,1.1-3.2,1.8-4.7
	c1-2,0.2-4.5-1.9-5.5c-1.7-0.8-3.7-0.4-4.9,1c-1.4,1.5-1.4,3.9-1.3,6c0.5,12.8,1.1,25.7,3.7,38.3c1.7,8.7,4.6,17.1,8.7,24.9
	c2,3.6,4.8,6.9,6.5,10.5c2.5,5.3,4.1,12.6,11.8,11.1c4.3-0.9,7.6-4.3,10.4-7.7c4.1-5.1,7.8-12,5-17.9c-0.8-1.6-2-3-2.5-4.7
	c-0.4-1.4-0.5-2.9-0.4-4.4c0.2-5.2,0.8-10.3,1.9-15.4c1.2-5.8,3.7-12.7,2-18.7c-1.5-5.1-3.2-9.1-1.9-14.7s5.8-10.7,5.6-16.6
	C773.4,666.3,769.8,661.9,769.4,656.8z"/>
<path class="st32" d="M735.9,737c1.5,4.7,2.2,9.6,2.1,14.5c0,3.5-0.5,7.2-0.1,10.7h41.3c1.4-3.9,1.9-8.2,1.4-12.3
	c-0.6-4.6-2.2-10,1-13.5c1.1-1.2,2.5-1.9,3.5-3.1c2.4-3,1-7.4-0.7-10.8c-3-6-4.7-12-0.5-17.8c3.2-4.4,8.7-7.5,9.8-13.3
	c1.5-7.7-6.2-16-2.4-22.8c1.1-1.9,2.9-3.2,4.2-4.9c2.5-3.2,3.1-7.4,1.8-11.2c-0.9-2.3-3.1-5.5-5.7-6.3c-3.6-1.1-3.6,0.6-4.8,4.1
	c-2.2,6.4-3.2,13.2-2.8,20c0.6,10.2-3.4,21.6-5.1,31.7c-0.9,5.5-1.9,11-3,16.4c-0.7,3.4-1.2,6.9-2.2,10.2c-0.5,1.6-3,4.9-2.9,6.4
	c-1.1-13.2,5.6-25.7,7.2-38.9c0.3-1.2,0.1-2.4-0.3-3.4c-0.5-0.7-1.1-1.4-1.8-2.1c-2.7-3.7,0.9-12.3,1.4-16.7
	c1-7.5,1.3-15.1,1.8-22.7c0.7-9.1,2-17.9,0.9-27.2c0-0.4-0.1-0.7-0.4-1c-0.4-0.3-1.1-0.3-1.4,0.2c0,0,0,0,0,0
	c-0.3,0.4-0.5,0.9-0.5,1.5c-2.1,13.4-2.7,27-4.8,40.5c-2.3,14.7-3.9,29.3-5.6,44c-1.6,14.2-5.1,28.3-6.8,42.6
	c-0.4,3.1-1.4,7-4.5,7.4c-2.8,0.3-4.9-2.6-5.2-5.4c-0.9-7.4,5.5-13.5,8.2-20.4c1.9-5.2,2.2-10.8,1-16.1c-1.1-5.5-3.2-11.7,0.1-16.2
	c1.3-1.8,3.4-3,4.4-5c0.7-1.5,1-3.2,1-4.9c0.2-5.2,0.1-10.5-0.5-15.7c-0.5-4.5-2.2-9.5-1.8-14c0.8-8.9,3.2-17.6,2.7-26.6
	c-0.4-7.8-6.6,4.3-6.8,7.5c-0.2,4.1,0.5,8.3-0.1,12.4c-0.7,4.6-2.9,9.1-2.2,13.8c0.2,0.6,0.2,1.2,0,1.8c-0.2,0.6-0.9,1-1.4,0.7
	c-0.3-0.2-0.4-0.4-0.5-0.7c-3.1-7.8,4.2-21.7-2.2-28.2c-5.1,6.4-3.9,20.9-3.5,28.7c0.9,19.9,4.3,40.1,0.5,59.8
	c-0.1,1.4-0.7,2.8-1.7,3.9c-1.8,1.6-4.8,0.7-6.3-1.2s-2.1-4.3-2.7-6.6s-1.5-4.8-3.4-6.1c-2,2.1-2.5,5.2-2.1,8
	C734.1,731.5,734.9,734.3,735.9,737z"/>
<linearGradient id="SVGID_00000087381963096389910860000012655468363929809576_" gradientUnits="userSpaceOnUse" x1="751.4952" y1="327.4507" x2="758.4852" y2="278.0507" gradientTransform="matrix(1 0 0 -1 0 1081)">
	<stop  offset="0.27" style="stop-color:#010101;stop-opacity:0.91"/>
	<stop  offset="0.56" style="stop-color:#E33471;stop-opacity:0"/>
</linearGradient>
<polygon style="fill:url(#SVGID_00000087381963096389910860000012655468363929809576_);" points="779.9,773.3 733.5,791.9 
	727,761.6 "/>
<path class="st33" d="M724.4,745.5h59.1c2.2,0,3.9,1.7,3.9,3.9v20.1c0,2.2-1.7,3.9-3.9,3.9h-59.1c-2.2,0-3.9-1.7-3.9-3.9v-20.1
	C720.5,747.2,722.2,745.5,724.4,745.5z"/>
<path class="st20" d="M446,806.9H199.7c-5.3,0-9.6-4.3-9.6-9.6l0,0c0-5.3,4.3-9.6,9.6-9.6H446c5.3,0,9.6,4.3,9.6,9.6l0,0
	C455.6,802.6,451.3,806.9,446,806.9z"/>
<path class="st22" d="M281.7,634.8c0.1-3.8-4.1-7.1-7.8-5c-1.4,1-2.6,2.3-3.5,3.8c-4.4,6.3-8.4,12.8-12.1,19.6
	c-3,5.8-5.5,11.8-9.1,17.3s-8.9,9-11.9,14.8c-2.3,4.5-2.9,10.5,0.2,15.3c3.1,4.4,8.3,6.9,13.6,6.6c4.8-0.5,9.3-3,12.3-6.8
	c6.6-7.8,7.3-17.8,9.2-27.4c2.1-10.7,4.7-21.3,7.7-31.8C281.1,639.1,281.6,636.9,281.7,634.8z"/>
<path class="st22" d="M310,715.9c-1.3-9.4-0.9-19.1,1.2-28.4c1.2-4.9,3.6-10.3,8.4-12c8.7-3.2,15,5.8,17,12.8
	c1.5,5.2,3.5,10.4,4.7,15.5c1.6,6.5,2.4,13.3,3.3,20c2,13.6,3.4,27.2,4.7,40.8c0.4,2.4,0.3,4.8-0.2,7.1c-1.1,3.5-4.1,6.2-7.7,7
	c-3.6,0.7-7.4-0.3-10.2-2.8c-1.4-1.2-2.5-2.8-3.2-4.5c-0.7-1.9-1.3-4-1.6-6c-0.9-4.4-2.2-8.6-4-12.7c-1.7-4-4.7-7.6-6.2-11.7
	C313.3,732.9,311.2,724.4,310,715.9z"/>
<path class="st26" d="M350.7,750.1c-1.3-7.7-3.9-15.3-5.5-23.1c-1.7-8.1-3.1-16.2-4.6-24.3c-3.6-20.1-11-39.4-21.8-56.8
	c-0.7-1.2-1.6-2.4-2.5-3.4c-2.2-2.2-5.5-3-8.5-3.3c-3.8-0.6-7.8-0.1-11.4,1.3c-1.4,0.6-2.6,1.4-3.7,2.4c-2.7,1.6-5.3,3.4-7.7,5.5
	c-22.3,18.8-37.1,44.8-55.5,67.4c-5.2,6.4-10.5,12.9-12.9,21c-2.5,8.3-7.3,15.2-8.1,24.2c0,0.4-0.1,0.9-0.1,1.3
	c-0.4,6.2,1.1,12.3,4.1,17.7c3.9,6.8,9.7,9,17.3,9.9c6.6,0.8,13.2,0.5,19.6-1c5.1-1.2,12.3-2.8,16.3-6.1c1.6-1.4,3.1-3,4.3-4.8
	c8-10.3,15.1-20.6,20.3-32.6c4.3-9.9,7.1-20.4,10.6-30.5c0.3,0.9,0.6,1.7,0.9,2.6c2.5,6.9,4.9,14.9,8.8,21.1c1.8,3,3.5,6.1,4.8,9.4
	c0.8,1.9,2.9,9.6,4.6,10.5c6.3-0.4,12.6-0.9,18.8-1.5c2.4-0.6,4.8-1.2,7.2-1.8c1.7-0.7,3.4-1.5,5.1-2.3
	C351.1,751.9,350.9,751,350.7,750.1z"/>
<path class="st13" d="M327.2,627.6c0-0.1,0-0.2,0-0.2c-0.2-1.4-0.5-2.7-1-4c-0.5-1.6-1.3-3.2-2.2-4.6c-0.6-1-1.2-2.1-1.8-3.1
	c-1.7-2.8-3.1-5.8-4-9c-0.8-3-1.1-6-2.2-8.9c-0.4-1.2-2.3-1.1-2.3,0.3c0.1,3.5,0.5,7,1.2,10.4c0,0.1,0,0.3,0,0.4s0,0,0,0.1
	c-0.1,1-0.2,2.1-0.1,3.1c-0.7,0.5-1.1,1.3-1.2,2.1h0c-1.6-0.9-3.1,1.5-1.5,2.3h0.1c-1,0.2-1.9,1.4-0.9,2.2c4,3.3,7.2,7.6,9.2,12.4
	c0.3,0.9,1,1.6,1.9,2c1,0.8,2.4,1,3.5,0.3c0.5,0,1-0.3,1.2-0.7c0.3-0.3,0.5-0.6,0.5-1c0.2-0.4,0.3-0.9,0.2-1.3
	C327.7,629.4,327.5,628.4,327.2,627.6z"/>
<path class="st13" d="M327.2,627c-0.2-1.2-0.6-2.4-1.2-3.5c-2.9-5.6-14.9-7-16.1,0.7c0,0.1,0,0.1,0,0.2c0.3,1.3,1.1,2.5,2.2,3.4
	c0.7,0.6,1.7,0.5,2.4,1c0.5,0.5,0.9,1.1,1,1.7c1.7,3.3,1.3,7.4,0.1,11.1c0.6,0,1.3-0.1,1.9-0.3c1.7-0.5,3.5-0.6,5.3-0.1
	c1.4,0.5,2.3,2.6,4,2.2c0.8-0.2,1.1-1.2,1.2-2.1C328.5,636.5,328.2,631.7,327.2,627z"/>
<path class="st2" d="M384.5,784.8c-0.3-0.8-0.8-1.6-1.5-2.1c-1.2-0.7-2.5-1.2-3.9-1.4c-8.1-1.9-15.6-5.9-21.7-11.6
	c-2-1.9-4.7-7.1-7.7-7.1c-2.8,0-4.8,3.6-7,4.8c-5.2,3-11.3,3.7-17,2.1c-1,4.8-0.5,10.3-0.1,14.8c0,0.7,0.2,1.5,0.6,2.1
	c0.8,0.8,1.9,1.4,3.1,1.4c12.1,2.1,24.2,2.7,36.5,3.9c4.4,0.4,8.9,1.3,13.3,0.6c1.9-0.3,4.1-0.8,5.2-2.6
	C385.1,788.2,385.1,786.4,384.5,784.8z"/>
<path class="st13" d="M219.7,622.5c1.7-2.3,3.4-4.7,5-7.1c3.9-6.3,6.9-13.1,8.9-20.3c0.7-2.4,2-5.8,4.9-5.6c2.4,0.1,5.1,2.2,7.3,3.2
	c5,2,9.8,3.9,14.6,6.4c0.1,0.1,0.2,0.1,0.4,0.2c-3.5,12.9-10.3,25.9-14.9,38.5c-3.9,10.8-7.3,21.8-10.3,32.9h-0.2
	c-4.1-0.5-10.6-1.1-14.1-3.6c-2.8-2-5.3-5.6-6.9-8.5c-4-7-4.8-15.4-2.3-23C213.7,630.8,216.6,626.6,219.7,622.5z"/>
<path class="st13" d="M255.2,617.8c-2.8,0-5.5-0.1-8.2-0.4c-1.1-0.1-2.5-0.3-3.9-0.4c-1.2-0.1-2.3,0-3.5,0.3c-3.3,1.1-3.7,4.4-7.1,1
	c-1.9-1.9-5-4.9-4.8-7.8c0.2-1.5,0.7-3,1.4-4.4c2.1-4.9,3.8-10,5.1-15.1c0.8-3.3,1.5-6.6,2-9.9c0.4-2.5-0.2-4,1.8-5.3
	c1.7-1.1,5.3-1,7.3-1.1c3.3,0,6.2-1.8,9.3-2.5c3.8-0.9,7.2-2.8,11.1-3.3c2-0.3,4.2-0.3,6,0.8c1.3,0.9,2.3,2.2,2.8,3.7
	c1.3,3.2,1.4,6.8,1.2,10.3c-0.4,9.6-0.9,21.2-7.7,28.8c-1.2,1.4-2.6,2.5-4.2,3.4C261.2,617.1,258.2,617.8,255.2,617.8z"/>
<path class="st14" d="M257.4,634.2c-2.8-2.6-5.8-5-8.9-7.2c-12.9-9.3-27.1-9.8-38,2.3c-16.4,18.1-22.3,43.7-21.9,68.1
	c0.3,14.7,2.6,29.3,5.5,43.7c1.4,7.2,3,14.4,4.5,21.6c1.2,6,0.6,11.3,5.3,15.9c1.3,1.2,3.3,2.2,4.8,1.2c0.5-0.4,0.9-0.9,1.1-1.4
	c3.4-5.7,5.1-12.1,7.5-18.3c2.8-7.2,6-13.5,13.4-15.9c8.8-2.9,17.4-9.2,25.2-14c2.2-1.3,3.2-1.1,2.7-3.2
	c-3.6-15.6-2.7-30.9,0.9-46.4c1.5-6.5,2.4-14.1,5-20.2c3-7.2,2.6-13.3-2-20C261,638.1,259.3,636,257.4,634.2z"/>
<path class="st13" d="M415.3,783.8c1-3.6-2.3-7.9-4.3-10.4c-4.6-5.9-8.7-12.2-12.8-18.4s-7.3-12.8-15.3-14.3
	c-6.1-1.1-14.1,2.7-13,9.9c0.6,3.6,3,6.7,5.4,9.5l6.6,8l9.2,11.1c1.4,1.9,3,3.5,4.9,5C399.5,786.9,413.5,790.2,415.3,783.8z"/>
<path class="st15" d="M387.8,774.1c4.4-2.5,8.8-5.1,13.1-7.8c1.5-0.8,2.9-1.9,3.9-3.3c0-0.1-4.6-7.2-5-7.8c-3-4.2-6.1-8.2-9.3-12.2
	c-6.2-7.8-12.6-15.4-19.3-22.8c-7.2-8-14.5-15.9-22-23.7c-6.7-7-12.5-14.8-21.8-18.4l-0.1,0c-3.9-0.7-7.9-0.9-11.9-0.7
	c-15.5,1-24.7,9.5-36.1,19l-25,20.7c-16,13.2-32,26.4-46.8,41c-0.7,0.7-1.4,1.4-2,2.1c-1.3,1.4-2.5,2.9-3.4,4.5
	c-3.4,6.1-0.9,12.4,1.9,18.2c5.2,10.5,16.5,15.9,28.1,17.3c13.7,1.7,27.4-2.2,38.9-9.6c5.9-3.8,9.8-7.9,14-13.2
	c4.6-5.8,9.8-10.5,13-17.3c1.6-3.5,2.8-7.3,4.8-10.6c2.7-4.4,6.9-7.9,8.8-12.7c1.2-3,1.5-6.4,3.4-9c4.6-6.4,7.8,0,10.5,3.2
	s5.3,4.7,8.8,6.6c4.4,2.3,8,6.3,12.1,9.1c3.6,2.4,7.4,4.5,10.6,7.3c2.3,2,4.3,4.2,6.4,6.4c3,3.1,6.1,6,9.4,8.7
	c1.6,1.3,3.2,2.6,4.8,3.9c1.3,1,2.8,3.5,4.4,3.8C383.9,777,386.2,775.1,387.8,774.1L387.8,774.1z"/>
<path class="st13" d="M324.3,637c-0.7,0.1-1.5,0.1-2.2-0.1c-1.8-0.2-3.6-0.2-5.4-0.2c-0.5,3.9-1.6,7.6-3.5,11
	c-2.3,4.5-5.1,8.8-7.4,13.4c-0.8,1.5-1.6,3.1-2.4,4.8c-3.3,7.5-5.6,15.4-4.4,23.6c0.2,1.6,0.8,3.2,1.7,4.5c0.5,0.6,1.3,1,2.1,1.1
	c2.5,0.3,5.1,0.4,7.6,0.1c1.2-0.2,2.4-0.5,3.5-1c4.4-3.2,7.5-8.9,9.2-13.5c2.4-6.8,2.7-13.8,3.7-20.8c1.1-7.4,0.9-15.3,1.3-22.8
	c0-0.8,0-1.8-0.8-2.1s-1.5,0.4-1.9,1.1C325.2,636.4,324.8,636.8,324.3,637z"/>
<path class="st2" d="M303.1,626.1l7,8.1c0.7,0.8,1.9,0.9,2.7,0.2c0.4-0.3,0.6-0.8,0.7-1.3l6-51.8c0.1-0.5-0.1-1.1-0.5-1.5l-7.7-8.9
	c-0.5-0.6-1.5-0.7-2.1-0.2c-0.3,0.2-0.5,0.6-0.5,1l-6.1,52.8C302.6,625.1,302.8,625.7,303.1,626.1z"/>
<path class="st14" d="M214.1,638.2c0.8-4.7,6.1-7.9,10-9.9c12.2-6.1,25.4,0,35.4,7.2c6.8,4.9,13.9,10.2,17.5,17.7
	c1,2.1,1.9,4.6,3.9,5.9c2.9,1.9,6.9,0.6,10.2,1.9c2.8,1.1,5.2,5.5,8.1,5.7c1.5,0.1,6.7-3.9,5.5-5c6.5,5.6,13.5,10.7,20.9,15
	c0,0,0,0.1,0,0.2c-1,6.2-2.4,12.9-7.2,16.9c-5.6,4.7-14,4-21.2,2.6c-14.5-2.8-28.1-8-42.2-11.8c-17.6-4.8-41.5-13.3-40.5-35.2
	C214.6,646,213.6,641.2,214.1,638.2z"/>
<path class="st2" d="M393.6,798.1c-1.1,0.1-2.2-0.3-3-1c-0.4-0.5-0.7-1.2-0.7-1.8c-1.1-6.3-1.7-10.9,0.3-17c4,1.1,8.1,1.7,12.2,1.8
	c2.3,0,6.1,0,8-1.5c1.5-1.2,1.9-5.5,3.3-5.9c0.5-0.1,0.9,0.1,1.2,0.5c2.6,2.3,4.5,5.5,7.4,7.4c2.4,1.6,5.4,2.2,8.3,2.8l11.5,2.2
	c2.4,0.5,5,1,6.7,2.7c3.2,3.1,2.4,6.7-1.4,8.6c-1.8,0.8-3.8,1.3-5.8,1.5c-7.6,1.1-15.9,0.4-23.6,0.5
	C409.8,798.9,401.7,798.7,393.6,798.1z"/>
<path class="st2" d="M229.6,594.4c0.2-1.3,0.3-2.7,0.4-4c0-3.3-0.3-6.5-0.2-9.8c0.2-5.1,1.6-10.6,5.7-13.6c2.4-1.7,5.3-2.4,7.8-4
	s4.4-4.2,6.8-6.1c2.8-2.3,6.2-3.7,9.7-4.2c3.1-0.4,5.9,1,8.9,0.2c2.3-0.7,4.3-2.2,6.5-3.2s5-1.2,6.8,0.4c2.1,2,1.5,5.4,0.6,8.1
	c-0.9,2.8-2,5.5-3.2,8.1c-0.5,0.9-0.8,1.9-0.9,3c0,0.7,0.2,1.3,0.2,2c-0.2,1.4-1.1,2.6-2.4,3.2c-1.3,0.5-2.6,0.8-4,0.9l-13.9,1.3
	c-3.5,0.3-7.3,0.9-9.6,4c-2.7,3.7-0.7,8.9-3.6,12.6c-3.3,4.1-7.9,7.7-12.2,10.8c-0.7,0.6-1.6,1-2.5,1c-1.1-0.2-2-1.1-2.1-2.2
	c-0.2-1.1-0.1-2.2,0.2-3.2C228.9,597.8,229.4,596.1,229.6,594.4z"/>
<path class="st13" d="M242.9,590.4c-2.2-0.9-5.6-1-7.4,0.4s-2,4.2-1.6,6.2c0.3,2.3,2,4.1,4.3,4.5c4.7,0.8,5.8-3.3,6.6-6.8
	c0.3-0.9,0.3-2-0.1-2.9c-0.2-0.4-0.6-0.8-1-1C243.4,590.7,243.1,590.5,242.9,590.4z"/>
<path class="st13" d="M319.5,623.1c-0.4,0-0.9,0.2-1.2,0.5c-0.9,0.6-1.9,1.2-2.8,1.8c-0.4,0.3-0.9,0.5-1.5,0.4
	c-0.8-0.2-1.1-1.1-1.6-1.7s-2.1-1.6-3-1c-1.5,0.9-0.8,2.8,0.1,3.8c1.3,2.3,3.7,4,5.6,5.7c0.7,0.6,1.6,1.3,2.5,1
	c0.3-0.1,0.6-0.3,0.8-0.5c1.4-1.3,1.9-3.2,2.3-5c0.3-1.3,1-3.7-0.4-4.6C320.1,623.3,319.8,623.2,319.5,623.1z"/>
<path class="st22" d="M280.3,621.8c-2.6,2.1-1.6,8.6,1.2,6.7c8.2-5.8,10.3-10.5,21.5-12.2c3.3-0.5,4.5-4,1.2-3.5
	C292.1,614.5,289.8,614.2,280.3,621.8z"/>
<path class="st22" d="M300,619.5c-0.2,0-0.4-0.1-0.7-0.1c-1.8,0-3.6,0.7-4.9,2c-1,1-1.7,2.7-3.2,3c-0.3,0.1-0.7,0.1-1-0.2
	c-0.2-0.2-0.3-0.4-0.4-0.7c-0.2-1,0-2.1,0.5-3c0.6-0.8,1.2-1.5,2-2.1c0.3-0.2,0.6-0.5,0.9-0.8c0.2-0.3,0.4-0.6,0.4-1
	c-0.1-1.6-1.9-1.8-3-1.4c-3.8,1.5-7.7,3.1-10.9,5.7c-2.1,1.9-3.9,4-5.5,6.3c-1.5,2.2-2.5,4.7-4.1,7c-0.9,1.2-0.7,2.8,0.3,3.9
	c1.3,1.4,2.7,2.7,4.2,3.9c1.4,1.1,3.1,1.5,4.4,2.9c0.2-0.1,0.2-0.2,0.3-0.4c0.7-2.1,1.1-4.3,2-6.4c0.6-1.5,1.7-2.7,3.1-3.4
	c1.6-0.7,3.4-1.1,4.9-2c1.6-1,3-2.4,4.1-3.9c1.2-1.5,2.2-3,3.5-4.4c1.1-1.2,2.8-1.5,3.9-2.7c0.4-0.4,0.6-0.9,0.5-1.4
	C301,620,300.6,619.6,300,619.5z"/>
<path class="st36" d="M265.3,610.5c-0.2,1.4-1.4,2.3-2.8,2.3"/>
<path class="st36" d="M239.6,593.6c-1.2-0.2-2.1,1.2-2,2.4c0.3,1.2,0.9,2.2,1.7,3.1"/>
<linearGradient id="SVGID_00000016076503430269704250000016995121248448500624_" gradientUnits="userSpaceOnUse" x1="245.8318" y1="414.8297" x2="238.5718" y2="365.9297" gradientTransform="matrix(1 0 0 -1 0 1081)">
	<stop  offset="0.27" style="stop-color:#010101;stop-opacity:0.91"/>
	<stop  offset="0.56" style="stop-color:#E33471;stop-opacity:0"/>
</linearGradient>
<path style="fill:url(#SVGID_00000016076503430269704250000016995121248448500624_);" d="M230.7,674.8c8.9,4.4,18.2,8.1,27.7,11.1
	c-2.2,5.8-4.1,11.7-5.6,17.8c-0.4,2.1-1.1,4.2-2.1,6.1c-0.1,0.3-0.4,0.6-0.7,0.7c-0.3,0-0.6-0.1-0.8-0.2c-6.8-3.7-9.4-12-13.2-18.7
	c-2.8-4.9-6.7-9.5-7.1-15.1C228.7,675.7,230.1,674.5,230.7,674.8z"/>
<path class="st38" d="M313.5,687.2c0.5,0.2,0.9,0.5,1.2,1c-1.9,2.9-5.5,4.2-8.8,3.2"/>
<path class="st39" d="M262.5,601c1.7,1.8,4.6,2.1,6.6,0.6"/>
<path class="st6" d="M307.1,490.1c0,29.5,0,57.7,0,57.7L282.9,533c-2.5-1.5-5.4-2.3-8.3-2.3h-87.4c-8.8,0-15.9-7.1-15.9-15.9
	c0,0,0,0,0,0v-24.6c0-8.8,7.1-15.9,15.9-15.9l0,0h104C300,474.2,307.1,481.3,307.1,490.1z"/>
<line class="st6" x1="265.9" y1="497.2" x2="204.8" y2="497.2"/>
<line class="st6" x1="265.9" y1="504.9" x2="204.8" y2="504.9"/>
<path class="st6" d="M695.9,379.9c0,32.6,0,99.2,0,99.2l26.8-16.4c2.8-1.7,5.9-2.6,9.2-2.6H817c9.7,0,17.6-7.9,17.6-17.6v-62.6
	c0-9.7-7.9-17.6-17.6-17.6H713.5C703.8,362.3,695.9,370.1,695.9,379.9z"/>
<rect x="734.6" y="382" class="st0" width="24.6" height="24.6"/>
<rect x="734.6" y="416.7" class="st0" width="24.6" height="24.6"/>
<rect x="779.5" y="382" class="st0" width="24.6" height="24.6"/>
<rect x="779.5" y="416.7" class="st33" width="24.6" height="24.6"/>
<polyline class="st6" points="736.1,387.3 747.8,400.9 766.3,374.6 "/>
<polyline class="st6" points="736.1,423.5 747.8,437.1 766.3,410.8 "/>
<polyline class="st6" points="779.5,387.3 791.3,400.9 809.9,374.7 "/>
<path class="st8" d="M503.4,465.5L503.4,465.5c-22.6,0-40.9-18.3-40.9-40.9c0,0,0,0,0,0l0,0c0-22.6,18.3-40.9,40.9-40.9l0,0
	c22.6,0,40.9,18.3,40.9,40.9l0,0C544.3,447.2,526,465.5,503.4,465.5C503.4,465.5,503.4,465.5,503.4,465.5z"/>
<g>
	<defs>
		<path id="SVGID_00000096061303566844750480000002768746639704029614_" d="M503.4,465.5L503.4,465.5c-22.6,0-40.9-18.3-40.9-40.9
			c0,0,0,0,0,0l0,0c0-22.6,18.3-40.9,40.9-40.9l0,0c22.6,0,40.9,18.3,40.9,40.9l0,0C544.3,447.2,526,465.5,503.4,465.5
			C503.4,465.5,503.4,465.5,503.4,465.5z"/>
	</defs>
	<clipPath id="SVGID_00000165945855017438022160000014540219869804045734_">
		<use xlink:href="#SVGID_00000096061303566844750480000002768746639704029614_"  style="overflow:visible;"/>
	</clipPath>
	<g style="clip-path:url(#SVGID_00000165945855017438022160000014540219869804045734_);">
		<path class="st2" d="M498.5,444.9c6.1,0,12.1-0.8,18-2.4c5-1.4,10.1-3.5,13.6-7.4c1.8-2,3-4.9,1.7-7.2c-1.1-1.9-3.5-2.5-5.5-3.6
			c-3.5-1.9-5.4-5.5-6.7-9.2s-1.4-8.4-4-11.3c-1.6-1.9-5.1-2.5-7.5-2.6c-3.5-0.1-7.2,0.4-10.1,2.3c-4.2,2.8-6.2,7.3-7.2,12.1
			c-0.5,2.5-0.6,5.1-1.2,7.5c-1.2,4.6-4.6,8.3-6.9,12.4c-0.6,0.8-0.8,1.8-0.7,2.8c0.2,0.7,0.6,1.3,1.1,1.8c3.8,3.8,9.6,4.6,14.9,4.7
			H498.5z"/>
		<path class="st10" d="M495.6,417.6L495.6,417.6c0.5-0.9,1.2-1.6,1.9-2.2c2.6-2,7-2.8,10-1.1c1.5,0.9,2.4,2.4,2.6,4.1
			c0.1,1.4,0.1,2.8,0,4.3c-0.3,5.5,0.4,21.8,3.6,22.7c4.1,1.2,2.8,4.7,4.1,4.5c-4.9,0.9-8.6,8.3-13.6,9s-11.1-8.5-15.1-11.4
			c2.6-0.3,4.6-1.4,5.3-4.1c1.7-6.4,1.2-13.1,0.6-19.8C494.9,421.5,494.7,419.4,495.6,417.6z"/>
		<path class="st15" d="M541.3,459.2c-2.8-4.2-7.1-7-11.8-8.9c-2.3-0.9-4.7-1.7-7.2-2.4c-1.2-0.3-2.4-0.7-3.6-1
			c-1.1-0.4-2.3-0.7-3.5-0.9c0.2,1-1.2,2.3-1.9,3c-3.1,2.7-7.2,3.9-11.3,3.3c-4-0.7-7.7-2.6-10.6-5.5c-1.1,0.2-2.2,0.4-3.3,0.6
			c-1.9,0.3-3.6,1-5.5,1.5c-4.2,1.2-8.9,2.8-10.9,6.7c-1.6,3.2-0.9,7.1,0.1,10.5c0.3,1,0.6,2,0.8,3h72.4
			C544.6,465.6,543.3,462.2,541.3,459.2z"/>
		<ellipse class="st10" cx="501.9" cy="416.9" rx="12.8" ry="16.5"/>
		<path class="st10" d="M492.2,416.7c-0.6-0.6-1.5-1-2.4-1c-0.9,0-1.8,0.4-2.4,1c-0.3,0.3-0.6,0.7-0.7,1.1c-0.2,0.4-0.3,0.8-0.3,1.3
			c0,0.9,0.4,1.8,1,2.4c1.3,1.3,3.5,1.3,4.8,0c0.3-0.3,0.6-0.7,0.7-1.1c0.2-0.4,0.3-0.8,0.3-1.3
			C493.2,418.2,492.9,417.3,492.2,416.7z"/>
		<path class="st10" d="M517.1,416.7c-1.3-1.3-3.5-1.3-4.8,0c-0.3,0.3-0.6,0.7-0.7,1.1c-0.2,0.4-0.3,0.8-0.3,1.3
			c0,0.9,0.4,1.8,1,2.4c1.3,1.3,3.5,1.3,4.8,0c0.3-0.3,0.6-0.7,0.7-1.1c0.2-0.4,0.3-0.8,0.3-1.3
			C518.1,418.2,517.7,417.3,517.1,416.7z"/>
		<path class="st2" d="M515.5,402.1c-0.1-0.1-0.1-0.2-0.2-0.2c-1.8-2.4-4.4-4.1-7.4-4.6c-2.5-0.2-5-0.3-7.5-0.1
			c-3.8,0.1-7.6-0.4-11.2,0.8s-6.8,4.7-6,8.4c0.6,3.2,4.1,5.3,7.4,5.5s6.5-1.1,9.5-2.4c2.5-1,5.2-2.5,7.9-3.2
			c1.1-0.3,2.2-0.1,3.1,0.5c2.6,2,1.1,6,3.1,8.2c0.3,0.4,0.7,0.6,1.2,0.6c0.7,0,1.4-0.4,1.8-1C519.8,411,518.2,405.4,515.5,402.1z"
			/>
		<path class="st0" d="M498.4,425.9c0.7,3.9,5.5,3.9,6.7,0.1"/>
		
			<linearGradient id="SVGID_00000032621950738447517900000014990216450128223902_" gradientUnits="userSpaceOnUse" x1="502.7116" y1="657.6604" x2="508.4217" y2="635.2004" gradientTransform="matrix(1 0 0 -1 0 1081)">
			<stop  offset="0.27" style="stop-color:#010101;stop-opacity:0.91"/>
			<stop  offset="0.56" style="stop-color:#E0AC9B;stop-opacity:0"/>
		</linearGradient>
		<path style="fill:url(#SVGID_00000032621950738447517900000014990216450128223902_);" d="M510.3,429.5c-0.1,0.8-2.8,2-3.4,2.3
			c-2.5,1-5.1,1.4-7.8,1.2c2,2.3,4.1,4.4,6.2,6.5c1.4,1.4,2.9,2.8,4.2,4.3C511.3,443.2,510.3,435.1,510.3,429.5z"/>
	</g>
</g>
<path class="st8" d="M503.4,340.7L503.4,340.7c-22.6,0-40.9-18.3-40.9-40.9l0,0c0-22.6,18.3-40.9,40.9-40.9l0,0
	c22.6,0,40.9,18.3,40.9,40.9l0,0C544.3,322.4,526,340.7,503.4,340.7z"/>
<g>
	<defs>
		<path id="SVGID_00000041292755150001907540000017335603418210649997_" d="M503.4,340.7L503.4,340.7c-22.6,0-40.9-18.3-40.9-40.9
			l0,0c0-22.6,18.3-40.9,40.9-40.9l0,0c22.6,0,40.9,18.3,40.9,40.9l0,0C544.3,322.4,526,340.7,503.4,340.7z"/>
	</defs>
	<clipPath id="SVGID_00000180344554118305277450000017120183710593402787_">
		<use xlink:href="#SVGID_00000041292755150001907540000017335603418210649997_"  style="overflow:visible;"/>
	</clipPath>
	<g style="clip-path:url(#SVGID_00000180344554118305277450000017120183710593402787_);">
		<path class="st2" d="M498.5,309.1c0.2,0.8,0.6,1.5,1,2.2c0.8,1.3,2,2.3,2.4,3.7c0.3,1.4,0.3,2.9-0.1,4.4c-1.1,8,1.1,17.2,6.6,23.3
			c0.5,0.6,1.1,1.2,1.8,1.7h21.1c0.6-0.4,1.2-0.8,1.8-1.3c1.9-1.4,3.5-3.2,4.7-5.2c0.9-1.9,1.8-3.8,2.5-5.8c1.2-2.2,2.2-4.5,3.2-6.8
			c0.8-2.4,0.9-5.1-0.4-7.2c-1.7-2.8-5.7-4.1-6.4-7.3c-0.5-2.1,0.6-4.7-0.7-6.5c-1.8-2.5-6.1-1-8.3-3.1c-1.3-1.2-1.4-3.2-1.5-5
			s-0.5-3.8-2-4.7c-1-0.6-2.3-0.5-3.4-0.9c-1.6-0.7-2.5-2.5-2.8-4.2c-0.2-1.8-0.5-3.5-0.9-5.2c-1.1-3.3-5.7-4.6-8.9-4.7
			c-3.5-0.1-7.2,0.4-10.1,2.3c-2.7,1.8-6,5.3-5.9,8.7s3.2,5.9,4.6,9C498.5,300.4,497.4,305.1,498.5,309.1z"/>
		<path class="st10" d="M495.6,292.9C495.6,292.8,495.6,292.8,495.6,292.9c0.5-0.9,1.2-1.6,1.9-2.2c2.6-2,7-2.8,10-1.1
			c1.5,0.9,2.4,2.4,2.6,4.1c0.1,1.4,0.1,2.8,0,4.2c-0.3,5.5,0.4,21.8,3.6,22.7c4.1,1.2,2.8,4.7,4.1,4.5c-4.9,0.9-8.6,8.3-13.6,8.9
			s-11.1-8.5-15.1-11.4c2.6-0.3,4.6-1.4,5.3-4.1c1.7-6.4,1.2-13.2,0.6-19.8C494.9,296.8,494.7,294.6,495.6,292.9z"/>
		<path class="st0" d="M519.1,344.4c0-0.2-0.1-0.5-0.1-0.7c-0.4-3.6-0.7-7.2-0.8-10.8c-0.1-1.8-0.2-3.7-0.2-5.5
			c0-1.4,0.4-4.1-0.4-5.2c-2.3,1.6-4.4,4.1-6.5,6c-2.3,2.1-4.7,4.1-7.2,6.1c-0.3,0.2-12.9-10.5-14.3-11.4c-1.4,1-1.5,5.4-1.8,7
			c-0.7,2.7-1,5.4-1.1,8.1c0,2.1,0,4.2,0,6.4L519.1,344.4z"/>
		<path class="st43" d="M545.2,344.4c-0.6-3.5-1.9-6.9-3.9-9.9c-5.1-7.5-15.3-10.5-23.5-12.9c-3.9-1.1-4.1,1.2-4.7,5.1
			c-0.5,2.9-0.6,5.9-0.8,8.8s-0.4,5.9-0.6,8.9H545.2z"/>
		<path class="st43" d="M472.8,344.4h25.1c-0.6-2.4-1.3-4.8-1.9-7c-1-3.9-2.6-8-3.8-12c-0.3-1.2-0.5-2.5-0.9-3.6
			c-2.7,0.1-5.9,1.6-8.6,2.4c-4.2,1.2-8.9,2.8-10.9,6.7c-1.6,3.2-0.9,7.1,0.1,10.5C472.2,342.4,472.5,343.4,472.8,344.4z"/>
		<ellipse class="st10" cx="501.9" cy="292.1" rx="12.8" ry="16.5"/>
		<path class="st10" d="M492.2,292c-1.3-1.3-3.5-1.3-4.8,0c-0.6,0.7-1,1.5-1,2.4c0,0.9,0.4,1.7,1,2.4c1.3,1.3,3.5,1.3,4.8,0
			c0.3-0.3,0.6-0.7,0.7-1.1c0.2-0.4,0.3-0.8,0.3-1.3C493.2,293.5,492.8,292.6,492.2,292z"/>
		<path class="st10" d="M517.1,292c-1.3-1.3-3.5-1.3-4.8,0c-0.6,0.7-1,1.5-1,2.4c0,0.9,0.4,1.7,1,2.4c1.3,1.3,3.5,1.3,4.8,0
			c0.3-0.3,0.6-0.7,0.7-1.1c0.2-0.4,0.3-0.8,0.3-1.3C518.1,293.5,517.7,292.6,517.1,292z"/>
		<path class="st2" d="M515.5,277.4L515.5,277.4c-0.1-0.1-0.1-0.2-0.2-0.3c-0.3-0.3-0.6-0.6-0.9-0.9c-2.8-3-6.3-5.3-10.2-6.5
			c-4.5-1.4-9.2-1.2-13.6,0.5c-1.3,0.5-2.5,1.2-3.5,2.1c-1,1-1.7,2.3-1.8,3.7c0,0.4,0,0.7,0.1,1.1c-0.7,0.6-1.3,1.4-1.7,2.2
			c-0.4,0.9-0.4,1.9-0.1,2.9c-0.6,0.7-1,1.6-1.1,2.5c0,0.9,0.5,1.7,1.3,2c-0.3,1.3,0.1,2.8,1.1,3.7c1.7,1.3,3.9,1.5,5.8,0.7
			c5.2-1.9,9.6-5.5,14.4-8.2c0.9-0.6,1.9-1,2.9-1.3c1.1-0.3,2.2-0.1,3.1,0.5c2.6,2,1.1,6,3.1,8.2c0.3,0.4,0.7,0.6,1.2,0.6
			c0.7,0,1.4-0.4,1.8-1C519.8,286.2,518.2,280.7,515.5,277.4z"/>
		<path class="st2" d="M514.9,344.4l7.8-2.9l-4.2-19.9l-4.6-1.6c-1.2,5.9-2.1,11.9-2.6,18c-0.2,2.1-0.3,4.3-0.4,6.4L514.9,344.4z"/>
		<path class="st2" d="M498.3,344.4c-0.2-1.5-0.5-3.1-0.8-4.6c-0.2-1.1-4.3-19.3-5.1-19.1l-4.5,0.9l-1.4,22.8H498.3z"/>
		<path class="st0" d="M498.4,301.1c0.7,3.9,5.5,3.9,6.7,0.1"/>
		
			<linearGradient id="SVGID_00000093873778044763992050000012289192408966832524_" gradientUnits="userSpaceOnUse" x1="502.712" y1="782.4005" x2="508.422" y2="759.9505" gradientTransform="matrix(1 0 0 -1 0 1081)">
			<stop  offset="0.27" style="stop-color:#010101;stop-opacity:0.91"/>
			<stop  offset="0.56" style="stop-color:#E0AC9B;stop-opacity:0"/>
		</linearGradient>
		<path style="fill:url(#SVGID_00000093873778044763992050000012289192408966832524_);" d="M510.3,304.7c-0.1,0.7-2.8,2-3.4,2.3
			c-2.5,1-5.1,1.4-7.8,1.2c2,2.3,4.1,4.4,6.2,6.5c1.4,1.4,2.9,2.8,4.2,4.3C511.3,318.5,510.3,310.3,510.3,304.7z"/>
	</g>
</g>
<text transform="matrix(1 0 0 1 260.36 880.09)" class="st45 st46 st47">Message Broadcast</text>
<path class="st48" d="M1098.5,973.5c-0.7-0.5-1.4-0.9-2.1-1.4c-1.3-0.9-2.7-1.6-4.2-2.3c-0.4-0.3-1-0.1-1.3,0.3l-0.3,0.3
	c-0.4,0.5-0.9,1-1.3,1.5s-0.6,0.6-1.4,0.3c-4.4-1.5-7.9-5-9.3-9.4c-0.2-0.4-0.1-0.9,0.3-1.2c0.7-0.5,1.3-1.1,1.9-1.6
	c0.5-0.3,0.6-0.9,0.3-1.4c-0.1-0.1-0.1-0.3-0.2-0.4c-1-2-2.2-4-3.5-5.8c-0.2-0.2-0.4-0.4-0.6-0.6c-0.2-0.2-0.6-0.2-0.9,0
	c-0.2,0.2-0.5,0.3-0.7,0.5c-1.6,1.6-3.1,3.3-4.4,5.2c-0.4,0.5-0.5,1.2-0.3,1.8c0.4,2.1,1.2,4.1,2.2,6c2.1,3.7,4.9,7,8.2,9.6
	c2.3,2,5,3.6,7.8,4.7c1.2,0.5,2.4,0.8,3.7,0.9c0.2-0.1,0.4-0.2,0.6-0.3c2-1.3,3.9-2.8,5.5-4.6
	C1099.6,974.7,1099.5,974.3,1098.5,973.5z"/>
<path class="st48" d="M1094,957.1c2.1,2.1,3.3,5,3.3,8h2c0-7.3-5.9-13.3-13.2-13.4c0,0-0.1,0-0.1,0v2
	C1089,953.7,1091.9,954.9,1094,957.1z"/>
<path class="st48" d="M1090.3,960.7c1.2,1.2,1.8,2.7,1.8,4.3h2c0-4.5-3.6-8.1-8.1-8.2c0,0-0.1,0-0.1,0v2
	C1087.6,958.9,1089.2,959.5,1090.3,960.7z"/>
<path class="st48" d="M1087.5,927.7c-1.5,1.1-3.6,1.1-5.2,0l-11.8-7.9c0,0-0.1,0-0.2-0.1v13.5c0.1,0.4,0.3,0.8,0.5,1.1
	c0.5,0.8,1.4,1.2,2.3,1.2h23.7c1.4,0.1,2.6-0.9,2.8-2.3c0-0.1,0-0.2,0-0.4v-13.1l-0.3,0.2L1087.5,927.7z"/>
<path class="st48" d="M1072.1,918.8c3.7,2.5,7.4,4.9,11.1,7.4c1,0.8,2.5,0.8,3.5,0l7.7-5.1l4-2.7c1.1-0.7,1.5-2.1,0.9-3.3
	c-0.5-1-1.5-1.6-2.6-1.5h-23.8c-1.1,0-2.1,0.8-2.5,1.8c0,0.1-0.1,0.3-0.1,0.4v0.8C1070.6,917.6,1071.2,918.3,1072.1,918.8z"/>
<path class="st48" d="M1289.2,416.5l-24.7,14.2h-20.6c-23.1,0-41.8,18.7-41.8,41.7c0,18.3,11.9,34.4,29.3,39.8l5.6-9.3
	c-16.9-3.8-27.5-20.5-23.7-37.4c3.2-14.3,15.9-24.5,30.6-24.4h30.4L1289.2,416.5z"/>
<path class="st48" d="M1230.3,528.5l24.7-14.2h20.6c23.1,0,41.7-18.7,41.7-41.8c0-18.2-11.8-34.3-29.2-39.8l-5.6,9.3
	c16.9,3.8,27.5,20.5,23.7,37.4c-3.2,14.3-15.9,24.5-30.6,24.4h-30.4L1230.3,528.5z"/>
<path class="st49" d="M1296.4,471.7c-6.4,0-6.3-3.4-8.7-3.4c-1,0-1.9,0.5-2.4,1.4c-0.3,0.6-0.8,1.2-1.4,1.5
	c-0.9,0.4-1.9,0.4-2.9,0.1c-1.1-0.3-2.2-0.9-3.1-1.6c-1.5-1.1-2.6-2.7-3-4.6c-0.6-3.6-2.4-3.6-2.4-3.6l0,0c0,0-1.7,0-2.4,3.6
	c-0.4,1.9-1.4,3.7-2.8,5c-0.5,0.5-1.1,0.8-1.8,0.9c-0.6,0.1-1.3-0.1-1.8-0.5c-0.8-0.6-1.6-2-2.1-4.3c-0.1-0.6-0.3-1.2-0.4-1.9
	c-1.2-5.6-3.1-14.7-5.4-14.8l0,0c-2.3,0.1-4.2,9.2-5.4,14.8c-0.1,0.7-0.3,1.3-0.4,1.9c-0.4,1.7-1.3,3.3-2.6,4.5
	c-0.4,0.4-0.9,0.6-1.5,0.7c-0.5,0.1-1-0.1-1.4-0.4c-0.9-1-1.4-2.2-1.5-3.5c-0.4-2.4-1.6-2.4-1.6-2.4s-1.2,0-1.6,2.4
	c-0.2,1-0.7,1.9-1.4,2.7c-0.7,0.6-1.5,1.1-2.4,1.3l0,0c-0.7,0.2-2.2,0.5-3,0.7v0.5c1.2,0.2,2.3,0.5,3.4,0.8c0.7,0.3,1.4,0.7,2,1.2
	c0.7,0.7,1.2,1.6,1.4,2.7c0.4,2.4,1.6,2.4,1.6,2.4s1.2,0,1.6-2.4c0.1-1.3,0.6-2.5,1.5-3.5c0.4-0.3,0.9-0.5,1.4-0.4
	c0.6,0.1,1.1,0.4,1.5,0.7c1.3,1.2,2.3,2.8,2.6,4.5c0.1,0.6,0.3,1.2,0.4,1.9c1.2,5.6,3.1,14.7,5.4,14.8l0,0c2.3-0.1,4.2-9.2,5.4-14.8
	c0.1-0.7,0.3-1.3,0.4-1.9c0.5-2.3,1.2-3.6,2.1-4.3c0.5-0.4,1.1-0.6,1.8-0.5c0.7,0.2,1.3,0.5,1.8,0.9c1.5,1.3,2.5,3.1,2.8,5
	c0.6,3.6,2.4,3.6,2.4,3.6l0,0c0,0,1.7,0,2.4-3.6c0.4-1.8,1.5-3.5,3-4.6c0.9-0.7,2-1.3,3.1-1.6c0.9-0.3,2-0.3,2.9,0.1
	c0.6,0.3,1.2,0.8,1.4,1.5c0.5,0.8,1.4,1.4,2.4,1.4c1.9,0,2.2-2,4.6-2.9l0,0c1.3-0.6,2.7-1.1,4.1-1.4
	C1296.4,472.2,1296.4,472,1296.4,471.7z"/>
<path class="st45" d="M1336.7,502.2l4.8-10.9c6,4.8,15.6,8.3,24.9,8.3c11.7,0,16.7-4.2,16.7-9.8c0-16.2-44.8-5.6-44.8-33.6
	c0-12.2,9.7-22.5,30.3-22.5c9,0,18.5,2.4,25.1,6.7l-4.4,10.9c-6.3-3.8-13.4-5.8-20.8-5.9c-11.6,0-16.3,4.5-16.3,10.2
	c0,16,44.7,5.6,44.7,33.2c0,12.1-9.8,22.4-30.5,22.4C1354.7,511.2,1342.9,507.6,1336.7,502.2z"/>
<path class="st45" d="M1533.5,498.4v11.7H1477v-75.3h55v11.7h-41v19.6h36.4v11.5H1491v20.8H1533.5z"/>
<path class="st45" d="M1646.5,446.7h-25v-11.8h63.9v11.8h-25v63.5h-14L1646.5,446.7z"/>
<path class="st45" d="M1436.3,434.8h-23.2c-7.9,0-7.8,6.6-7.8,6.6v2.1l0,0V456l0.1-0.3c2.9-8.2,10.7-9,12.8-9h17.5
	c12.3,0,18.6,5.5,18.6,15s-6.3,15-18.6,15h-22.2c-4.4,0-6.4,2.3-7.3,4.2c0,0.1-0.1,0.2-0.1,0.2l-0.1,0.2c-0.4,1-0.6,2-0.6,3.1v25.8
	h14v-21.8h17c19.8,0,32.1-10.2,32.1-26.8S1456.1,434.8,1436.3,434.8z"/>
<polygon class="st45" points="1577.8,465.8 1560.2,446.1 1540.9,446.1 1568.2,476.5 "/>
<polygon class="st45" points="1589.5,478.7 1587.2,476.2 1577.6,486.9 1583.6,493.6 1600.6,512.5 1619.9,512.5 "/>
<path class="st48" d="M1604.5,405.8c0,0,13.8,18.5-16.8,54l-45.1,50.3h18.7c0,0,22.2-24.6,29.5-33c8.7-9.8,24.6-30.1,23.4-47
	C1613.7,421.8,1612,413.3,1604.5,405.8z"/>
<circle class="st48" cx="1440.7" cy="462.1" r="3.8"/>
<circle class="st48" cx="1429.9" cy="462.1" r="3.8"/>
<circle class="st48" cx="1419.1" cy="462.1" r="3.8"/>
<path class="st48" d="M68.9,26.6l-11.8,6.8h-9.8c-11-0.1-20,8.8-20.1,19.8c-0.1,8.8,5.7,16.6,14.1,19.2L44,68
	c-8.1-1.8-13.1-9.8-11.3-17.9c1.5-6.8,7.6-11.6,14.6-11.6h14.5L68.9,26.6z"/>
<path class="st48" d="M40.8,80.1l11.8-6.8h9.8c11,0,20-8.9,20-19.9c0-8.7-5.6-16.5-14-19.1l-2.7,4.4c8.1,1.8,13.1,9.8,11.3,17.9
	c-1.5,6.8-7.6,11.6-14.6,11.6H47.9L40.8,80.1z"/>
<path class="st49" d="M72.3,53c-3,0-3-1.6-4.2-1.6c-0.5,0-0.9,0.3-1.1,0.7c-0.1,0.3-0.4,0.6-0.7,0.7c-0.4,0.2-0.9,0.2-1.4,0
	c-0.5-0.1-1-0.4-1.5-0.7c-0.7-0.5-1.2-1.3-1.4-2.2c-0.3-1.7-1.1-1.7-1.1-1.7l0,0c0,0-0.8,0-1.1,1.7c-0.2,0.9-0.7,1.7-1.4,2.4
	c-0.2,0.2-0.5,0.4-0.9,0.5c-0.3,0.1-0.6,0-0.8-0.2c-0.5-0.5-0.9-1.2-1-2c-0.1-0.3-0.1-0.6-0.2-0.9c-0.6-2.7-1.5-7-2.6-7.1l0,0
	c-1.1,0-2,4.4-2.6,7.1l-0.2,0.9C50,51.2,49.6,52,49,52.5c-0.2,0.2-0.4,0.3-0.7,0.3c-0.2,0-0.5,0-0.7-0.2c-0.4-0.5-0.7-1.1-0.7-1.7
	c-0.2-1.2-0.8-1.2-0.8-1.2s-0.6,0-0.8,1.2c-0.1,0.5-0.3,0.9-0.7,1.3c-0.3,0.3-0.7,0.5-1.1,0.6l0,0c-0.3,0.1-1,0.2-1.5,0.3v0.2
	c0.6,0.1,1.1,0.2,1.6,0.4c0.4,0.1,0.7,0.3,0.9,0.6c0.4,0.3,0.6,0.8,0.7,1.3c0.2,1.2,0.8,1.2,0.8,1.2s0.5,0,0.8-1.2
	c0-0.6,0.3-1.2,0.7-1.7c0.2-0.2,0.4-0.2,0.7-0.2c0.3,0,0.5,0.2,0.7,0.3c0.6,0.6,1.1,1.3,1.3,2.2l0.2,0.9c0.6,2.7,1.5,7,2.6,7.1l0,0
	c1.1,0,2-4.4,2.6-7.1c0.1-0.3,0.1-0.6,0.2-0.9c0.1-0.8,0.5-1.5,1-2c0.2-0.2,0.5-0.3,0.8-0.2c0.3,0.1,0.6,0.2,0.9,0.5
	c0.7,0.6,1.2,1.5,1.4,2.4c0.3,1.7,1.1,1.7,1.1,1.7l0,0c0,0,0.8,0,1.1-1.7c0.2-0.9,0.7-1.7,1.4-2.2c0.4-0.4,0.9-0.6,1.5-0.8
	c0.4-0.2,0.9-0.2,1.4,0c0.3,0.1,0.6,0.4,0.7,0.7c0.2,0.4,0.7,0.7,1.1,0.7c0.9,0,1-0.9,2.2-1.4l0,0c0.6-0.3,1.3-0.5,2-0.7L72.3,53z"
	/>
<path class="st45" d="M91.6,67.6l2.3-5.2c3.4,2.6,7.6,4,11.9,4c5.6,0,8-2,8-4.7c0-7.8-21.4-2.7-21.4-16c0-5.8,4.6-10.7,14.5-10.7
	c4.2-0.1,8.4,1,12,3.2l-2.1,5.2c-3-1.8-6.4-2.8-9.9-2.8c-5.6,0-7.8,2.2-7.8,4.9c0,7.6,21.3,2.6,21.3,15.8c0,5.8-4.7,10.7-14.6,10.7
	C100.2,71.9,94.6,70.1,91.6,67.6z"/>
<path class="st45" d="M185.6,65.8v5.6h-27v-36h26.3V41h-19.6v9.4h17.4v5.5h-17.4v9.9H185.6z"/>
<path class="st45" d="M239.6,41.1h-11.9v-5.7h30.5v5.7h-11.9v30.3h-6.7V41.1z"/>
<path class="st45" d="M139.2,35.4h-11.1c-3.8,0-3.7,3.1-3.7,3.1v1l0,0v6c0,0,0-0.1,0-0.1c0.9-2.6,3.4-4.3,6.1-4.3h8.4
	c5.9,0,8.9,2.6,8.9,7.1s-3,7.1-8.9,7.1h-10.6c-1.5-0.1-2.9,0.7-3.5,2c0,0,0,0.1,0,0.1c0,0,0,0.1,0,0.1c-0.2,0.5-0.3,1-0.3,1.5v12.3
	h6.7V61h8.1c9.4,0,15.3-4.9,15.3-12.8S148.6,35.4,139.2,35.4z"/>
<polygon class="st45" points="206.7,50.2 198.3,40.8 189.1,40.8 202.1,55.3 "/>
<polygon class="st45" points="212.3,56.4 211.2,55.2 206.6,60.3 209.5,63.5 217.6,72.5 226.8,72.5 "/>
<path class="st48" d="M219.5,21.5c0,0,6.6,8.9-8,25.8l-21.5,24h8.9c0,0,10.6-11.7,14.1-15.7c4.1-4.7,11.8-14.4,11.2-22.4
	C223.9,29.2,223,25.1,219.5,21.5z"/>
<circle class="st48" cx="141.2" cy="48.4" r="1.8"/>
<circle class="st48" cx="136.1" cy="48.4" r="1.8"/>
<circle class="st48" cx="130.9" cy="48.4" r="1.8"/>
<path class="st48" d="M1168.7,591.5h562.2c10.7,0,19.4,8.7,19.4,19.4v44.8c0,10.7-8.7,19.4-19.4,19.4h-562.2
	c-10.7,0-19.4-8.7-19.4-19.4v-44.8C1149.3,600.2,1158,591.5,1168.7,591.5z"/>
<text transform="matrix(1 0 0 1 1280.45 645.1)" class="st0 st50 st51">Login Using OneID</text>
<g class="st52">
	<polygon class="st48" points="1000.5,915.8 1067.1,1079.6 1068,1079.6 1000.5,913.6 	"/>
	<path class="st48" d="M1916,929.4c-2-1.2-4.6-1.1-6.5,0.4l-80.1-89.1c0.3-0.3,0.5-0.6,0.8-1c1.7-2.7,0.8-6.2-1.8-7.8
		c-2.7-1.7-6.2-0.8-7.8,1.8c-0.4,0.7-0.7,1.4-0.8,2.2l-97.4-6.7c0-3.1-2.5-5.7-5.7-5.7c-3.1,0-5.7,2.5-5.7,5.7c0,1,0.3,2,0.8,2.9
		l-238,165c-0.3-0.4-0.7-0.7-1.1-1l102.1-163.7c2.8,1.4,6.2,0.3,7.6-2.4c1-2,0.8-4.4-0.6-6.2l103.6-97.9c0.3,0.2,0.6,0.5,0.9,0.7
		c2.7,1.7,6.2,0.8,7.8-1.8c1.7-2.7,0.8-6.2-1.8-7.8c-2.7-1.7-6.2-0.8-7.8,1.8c-1.3,2.1-1.1,4.7,0.4,6.6l-103.6,97.8
		c-0.3-0.3-0.6-0.5-0.9-0.7c-1.7-1-3.8-1.1-5.6-0.2l-54.4-89c2.6-1.8,3.1-5.4,1.3-7.9c-0.8-1.1-1.9-1.9-3.2-2.2l23.8-131.4
		c3.1,0.3,5.9-1.9,6.3-5s-1.9-5.9-5-6.3s-5.9,1.9-6.3,5c-0.2,2.2,0.8,4.3,2.7,5.4c0.5,0.3,1,0.5,1.6,0.7l-23.8,131.3
		c-1.1-0.1-2.2,0.1-3.2,0.6L1450,618c2.6-1.8,3.1-5.4,1.3-7.9s-5.4-3.1-7.9-1.3c-0.6,0.4-1.1,1-1.5,1.6c-0.1,0.2-0.3,0.5-0.4,0.8
		l-112.4-38.3c0.8-3-1-6.2-4-7s-6.2,1-7,4s1,6.2,4,7c2.4,0.6,5-0.4,6.3-2.5c0.2-0.2,0.3-0.5,0.4-0.8l112.4,38.3
		c-0.1,0.3-0.1,0.6-0.2,0.9l-221.3-6.7c-0.1-3.1-2.7-5.6-5.9-5.4c-0.3,0-0.6,0.1-1,0.1l-67-237c3-1.1,4.5-4.3,3.4-7.3
		c-1.1-3-4.3-4.5-7.3-3.4s-4.5,4.3-3.4,7.3c0.4,1.2,1.3,2.2,2.4,2.9c1.2,0.8,2.7,1,4.1,0.7l67,237.1c-1.2,0.4-2.2,1.3-2.9,2.4l0,0
		l-208.7-106.9l0,0v0.9l0,0l208.3,106.7c-0.4,0.9-0.5,2-0.4,3l-172.6,37.8c-0.8-2.9-3.8-4.6-6.7-3.9l-28.6-92.4v2.7l27.8,89.9
		c-1.2,0.4-2.1,1.3-2.8,2.3c-1.1,1.8-1.1,4-0.1,5.8l-25,16.8v1L1026,650c1.1,1.4,2.8,2.2,4.6,2.2l40,427.4h0.8l-40-427.5
		c0.9-0.1,1.7-0.5,2.4-1l69.3,81.2c-0.3,0.3-0.6,0.7-0.8,1.1c-1.6,2.7-0.8,6.2,1.8,7.8c0,0,0,0,0,0c0.6,0.4,1.3,0.6,2,0.8
		l-33.5,337.7h0.8L1107,742c0.5,0,1,0,1.6-0.2l112.2,337.8h0.8l-112.3-338.1c0.4-0.1,0.7-0.3,1-0.5l210.1,265.2
		c-0.4,0.4-0.7,0.8-1,1.2c-1.5,2.5-0.9,5.7,1.4,7.5l-42.7,64.7h1l42.4-64.3c2.7,1.6,6.2,0.6,7.7-2.1c1.3-2.3,0.9-5.1-1-6.9
		l169.9-198.7c0.1,0.1,0.3,0.2,0.4,0.3c0.3,0.2,0.7,0.4,1,0.5l-72.1,256.4c-3.1-0.6-6.1,1.3-6.7,4.4c-0.2,0.9-0.2,1.8,0.1,2.7
		l-21.2,7.7h2.4l19.1-6.9c0.5,1.1,1.2,1.9,2.2,2.5c1.1,0.7,2.4,1,3.7,0.8l0.7,3.6h0.8l-0.8-3.7c3-0.8,4.8-4,3.9-7
		c-0.3-1.2-1.1-2.3-2.2-3.1l37.1-60.3c0.8,0.4,1.7,0.6,2.6,0.7l5.3,73.4h0.8l-5.3-73.5c0.5-0.1,1.1-0.2,1.6-0.5l40.3,73.9h0.9
		l-40.5-74.3c0.2-0.1,0.4-0.3,0.5-0.4l71,74.7h1.1l-71.5-75.3c0.2-0.3,0.5-0.5,0.6-0.8c0.2-0.3,0.3-0.6,0.4-0.8l212.8,68.8
		c-0.6,2.4,0.4,4.9,2.5,6.2c0.2,0.1,0.5,0.3,0.7,0.4l-0.6,1.6h13.3l-5.6-3.9c1.4-2.3,0.9-5.3-1.1-7.1l102.6-132.2l0.2,0.1
		c1.7,1,3.8,1.1,5.6,0.2l86.1,142.8h0.9l-86.3-143.2c0.6-0.4,1.2-1,1.6-1.7c1.7-2.7,0.8-6.2-1.8-7.8c-2.7-1.7-6.2-0.8-7.8,1.8
		c-0.6,0.9-0.9,2-0.8,3.1l-85.3,6.9c-0.1-0.9-0.5-1.8-1.1-2.5l110.8-95.4c0.3,0.3,0.7,0.6,1.1,0.8c2,1.2,4.6,1.1,6.5-0.4l80.1,89.1
		c-0.3,0.3-0.5,0.6-0.8,1c-1.6,2.7-0.8,6.2,1.9,7.8c2.7,1.6,6.2,0.8,7.8-1.9C1919.6,934.6,1918.7,931.1,1916,929.4
		C1916.1,929.5,1916.1,929.5,1916,929.4L1916,929.4z M1545.3,582.2L1545.3,582.2z M1216.4,602.5L1216.4,602.5z M1208.6,608
		c0.4,1.3,1.3,2.5,2.5,3.2c2.7,1.6,6.2,0.8,7.8-1.9c0,0,0,0,0,0c0.4-0.7,0.7-1.5,0.8-2.4l219.6,6.6l-403,32.1L1208.6,608z
		 M1036.1,646.5l404.9-32.3c0.5,3.1,3.4,5.2,6.5,4.8c0.6-0.1,1.2-0.3,1.8-0.6l64.5,105.6c-0.6,0.4-1.1,1-1.5,1.7
		c-0.3,0.5-0.5,1.1-0.7,1.6l-475.5-80.2C1036.1,646.9,1036.1,646.7,1036.1,646.5z M1110.1,731.5c-2-1.2-4.5-1.1-6.3,0.3l-69.3-81.2
		c0.3-0.3,0.6-0.7,0.8-1.1c0.2-0.3,0.3-0.5,0.4-0.8l228,75.8c-0.1,0.4-0.2,0.9-0.2,1.4l-150.7,9.7
		C1112.6,733.9,1111.6,732.4,1110.1,731.5L1110.1,731.5z M1321.1,1005.8L1111,740.5c0.4-0.4,0.7-0.8,1-1.2c0.5-0.9,0.8-1.9,0.8-2.9
		l150.7-9.7c0.4,3.1,3.2,5.2,6.3,4.9l53,273.4C1322.2,1005.1,1321.6,1005.4,1321.1,1005.8L1321.1,1005.8z M1327.7,1005.9l-0.4-0.3
		c-1.1-0.7-2.4-0.9-3.7-0.8l-53-273.4c1.4-0.4,2.6-1.3,3.4-2.5c0.2-0.3,0.3-0.5,0.4-0.8l221.6,73.6c-0.5,2,0.1,4,1.5,5.5
		L1327.7,1005.9z M1496.7,800.2c-0.2,0.3-0.3,0.5-0.4,0.8l-221.6-73.7c0.8-3-1-6.1-4.1-6.9c-2.4-0.6-5,0.4-6.3,2.5
		c-0.2,0.3-0.3,0.5-0.4,0.8l-228-75.8c0,0,0,0,0-0.1l475.6,80.1c-0.3,3.1,2,5.9,5.1,6.2c1.1,0.1,2.2-0.1,3.2-0.6l54.4,89
		c-0.6,0.4-1.1,1-1.5,1.7c-0.2,0.3-0.3,0.6-0.4,0.9l-65.2-20.6c0.7-3.1-1.2-6.1-4.2-6.8C1500.4,797.1,1497.9,798.1,1496.7,800.2
		L1496.7,800.2z M1469.9,994.9c-3.1-0.3-5.9,2-6.2,5.1c-0.2,2,0.7,4,2.4,5.2l-37.1,60.2c-0.2-0.1-0.5-0.2-0.7-0.3l71.7-254.9
		L1469.9,994.9z M1472,995.6c-0.4-0.2-0.9-0.4-1.3-0.5l30.3-186.2c2.1,0.2,4.2-0.8,5.3-2.7c0.2-0.3,0.3-0.6,0.4-0.9l65.2,20.7
		c-0.5,2.2,0.3,4.6,2.2,5.9L1472,995.6z M1800.2,930.3c0.8-1.3,2.6-1.7,3.9-0.9s1.7,2.6,0.9,3.9c-0.2,0.3-0.4,0.5-0.6,0.7l0,0
		c0.2-0.2,0.5-0.4,0.6-0.7c0.8-1.3,0.4-3-0.9-3.9C1802.7,928.6,1801,929,1800.2,930.3c-0.2,0.4-0.4,0.9-0.4,1.3l0,0
		C1799.8,931.2,1799.9,930.7,1800.2,930.3L1800.2,930.3z M1474.3,997.7l238-164.9c0.4,0.5,0.9,0.9,1.4,1.3c0.6,0.4,1.3,0.6,2,0.8
		l-9.6,99c-2-0.1-3.9,1-5,2.7c-0.7,1.2-1,2.6-0.7,4l-225.6,58.2C1474.6,998.4,1474.4,998,1474.3,997.7L1474.3,997.7z M1706.4,939.1
		l-0.1,0.6l-0.1,0.1l-0.1,0.1h-0.1l0,0l-0.1-0.8H1706.4z M1688.2,1069.9c-0.2,0.3-0.3,0.6-0.4,0.9l-212.8-68.8
		c0.2-0.8,0.2-1.6,0.1-2.4l225.6-58.2c0.7,2,2.4,3.4,4.4,3.8l-11.9,122C1691.1,1067.1,1689.2,1068.1,1688.2,1069.9L1688.2,1069.9z
		 M1695.4,1069L1695.4,1069z M1710.8,942.5c0.6-0.9,0.8-1.9,0.8-3l85.3-6.9c0.2,1.3,0.9,2.5,1.8,3.4l-102.6,132.2
		c-0.1,0-0.1-0.1-0.2-0.1c-0.6-0.4-1.3-0.6-2-0.8l11.9-122C1707.9,945.3,1709.8,944.3,1710.8,942.5L1710.8,942.5z M1710,935.5
		c-0.3-0.3-0.6-0.6-1-0.8c-0.6-0.4-1.3-0.6-2-0.8l9.6-99c2,0.1,3.9-1,5-2.7c0.4-0.7,0.7-1.4,0.8-2.2l97.4,6.7c0,1.2,0.4,2.4,1.1,3.4
		L1710,935.5z"/>
	<polygon class="st48" points="1918.4,167.1 1851.9,3.3 1851,3.3 1918.4,169.3 	"/>
	<path class="st48" d="M1003,153.5c2,1.2,4.6,1.1,6.5-0.4l80.1,89.1c-0.3,0.3-0.5,0.6-0.8,1c-1.7,2.7-0.8,6.2,1.8,7.8
		c2.7,1.7,6.2,0.8,7.8-1.8c0.4-0.7,0.7-1.4,0.8-2.2l97.4,6.7c0,3.1,2.5,5.7,5.7,5.7c3.1,0,5.7-2.5,5.7-5.7c0-1-0.3-2-0.8-2.9
		l238-164.9c0.3,0.4,0.7,0.7,1.1,1l-102.2,163.7c-2.8-1.4-6.2-0.3-7.6,2.5c-1,2-0.8,4.4,0.6,6.1l-103.6,97.9
		c-0.3-0.2-0.6-0.5-0.9-0.6c-2.7-1.6-6.2-0.8-7.8,1.9c-1.6,2.7-0.8,6.2,1.9,7.8s6.2,0.8,7.8-1.9c1.3-2.1,1.1-4.7-0.4-6.6l103.6-97.9
		c1.8,1.6,4.3,2,6.4,0.9l54.4,89c-2.6,1.8-3.1,5.4-1.3,7.9c0.8,1.1,1.9,1.9,3.2,2.2l-23.8,131.4c-3-0.3-5.7,1.9-6.1,4.9
		s1.9,5.7,4.9,6.1c3,0.3,5.7-1.9,6.1-4.9c0.3-2.7-1.5-5.2-4.1-5.9l23.7-131.3c1.1,0.1,2.2-0.1,3.2-0.6l64.5,105.5
		c-2.6,1.8-3.1,5.4-1.3,7.9c1.8,2.6,5.4,3.1,7.9,1.3c0.6-0.4,1.1-1,1.5-1.6c0.1-0.2,0.3-0.5,0.4-0.8l112.4,38.3
		c-0.8,3,1,6.1,4.1,6.9c3,0.8,6.1-1,6.9-4.1c0.8-3-1-6.1-4.1-6.9c-2.4-0.6-5,0.4-6.3,2.5c-0.1,0.2-0.3,0.5-0.4,0.8L1477.8,471
		c0.1-0.3,0.1-0.6,0.2-0.9l221.3,6.6c0.1,3.1,2.8,5.6,5.9,5.4c0.3,0,0.6-0.1,0.9-0.1l67,237c-1.2,0.4-2.2,1.3-2.9,2.4
		c-1.7,2.7-0.8,6.2,1.8,7.8c2.7,1.7,6.2,0.8,7.8-1.8c1.7-2.7,0.8-6.2-1.8-7.8c-1.2-0.8-2.7-1-4.2-0.7l-67-237.1
		c1.2-0.4,2.2-1.3,2.9-2.4l0,0l208.7,106.8l0,0v-0.9l0,0l-208.3-106.7c0.4-0.9,0.5-2,0.4-3l172.6-37.8c0.8,2.9,3.8,4.6,6.7,3.9
		l28.6,92.4v-2.7l-27.8-89.9c2.9-1.1,4.4-4.4,3.2-7.3c-0.1-0.3-0.2-0.5-0.4-0.8l25-16.8v-1l-25.5,17.1c-0.4-0.5-0.9-1-1.5-1.3
		c-0.9-0.6-2-0.9-3.1-0.8l-40-427.4h-0.8l40,427.5c-0.9,0.1-1.7,0.5-2.4,1l-69.3-81.2c0.3-0.3,0.6-0.7,0.9-1.1
		c1.6-2.7,0.8-6.2-1.9-7.8c-0.6-0.4-1.3-0.6-2-0.8l33.5-337.7h-0.8L1812,340.9c-0.5,0-1.1,0-1.6,0.2L1698.3,3.3h-0.8l112.3,338.1
		c-0.3,0.2-0.7,0.3-1,0.5L1598.6,76.7c0.4-0.4,0.7-0.8,1-1.2c1.5-2.5,0.9-5.7-1.4-7.5l42.7-64.7h-1l-42.4,64.3
		c-2.7-1.5-6.2-0.6-7.7,2.2c-1.3,2.2-0.9,5,1,6.8l-169.8,198.6c-0.1-0.1-0.3-0.2-0.4-0.3c-0.3-0.2-0.7-0.4-1.1-0.5L1491.5,18
		c3.1,0.6,6.1-1.3,6.7-4.4c0.2-0.9,0.2-1.8-0.1-2.7l21.2-7.7h-2.3l-19.1,6.9c-1-2.3-3.4-3.7-5.9-3.3l-0.7-3.6h-0.8l0.8,3.8
		c-3,0.8-4.8,4-3.9,7c0.3,1.2,1.1,2.3,2.2,3.1l-37.1,60.3c-0.8-0.4-1.7-0.6-2.6-0.7l-5.3-73.4h-0.8l5.3,73.5
		c-0.5,0.1-1.1,0.2-1.5,0.4L1407,3.3h-0.9l40.5,74.3c-0.2,0.1-0.4,0.3-0.5,0.4l-71-74.7h-1.1l71.5,75.3c-0.2,0.3-0.5,0.5-0.6,0.8
		c-0.2,0.3-0.3,0.6-0.4,0.8l-212.8-68.8c0.6-2.4-0.4-4.9-2.5-6.2c-0.2-0.1-0.5-0.3-0.7-0.4l0.6-1.6h-13.3l5.6,3.9
		c-1.4,2.3-0.9,5.3,1.1,7.1l-102.6,132.2l-0.2-0.1c-1.7-1-3.8-1.1-5.6-0.2L1027.8,3.3h-0.9l86.3,143.2c-2.6,1.8-3.2,5.4-1.4,7.9
		c1.8,2.6,5.4,3.2,7.9,1.4c0.6-0.4,1.2-1,1.6-1.7c0.6-0.9,0.8-1.9,0.8-3l85.3-6.9c0.1,0.9,0.5,1.8,1,2.5l-110.8,95.4
		c-0.3-0.3-0.7-0.6-1.1-0.8c-2-1.2-4.6-1.1-6.5,0.4l-80.1-89.1c0.3-0.3,0.5-0.6,0.8-1c1.6-2.7,0.8-6.2-1.9-7.8s-6.2-0.8-7.8,1.9
		C999.4,148.3,1000.3,151.8,1003,153.5L1003,153.5z M1227.3,365.2L1227.3,365.2z M1710.4,474.9c-0.4-1.3-1.3-2.5-2.5-3.2
		c-2.7-1.6-6.1-0.8-7.8,1.8c0,0,0,0,0,0c-0.4,0.7-0.7,1.5-0.8,2.4l-219.6-6.6l403-32.1L1710.4,474.9z M1882.9,436.4l-405,32.3
		c-0.5-3.1-3.4-5.2-6.4-4.8c-0.6,0.1-1.2,0.3-1.8,0.6L1405.2,359c1.1-0.8,1.9-2,2.2-3.3l475.5,80.1
		C1882.9,436,1882.9,436.2,1882.9,436.4L1882.9,436.4z M1808.9,351.4c2,1.2,4.5,1.1,6.3-0.3l69.3,81.1c-0.3,0.3-0.6,0.7-0.9,1.1
		c-0.2,0.3-0.3,0.5-0.4,0.8l-228-75.8c0.1-0.4,0.2-0.9,0.2-1.4l150.7-9.7C1806.4,349,1807.4,350.6,1808.9,351.4L1808.9,351.4z
		 M1597.9,77.1L1808,342.4c-1.2,1.1-1.8,2.6-1.8,4.1l-150.7,9.7c-0.2-1.7-1.2-3.2-2.7-4.1c-1.1-0.7-2.4-1-3.7-0.8L1596.2,78
		C1596.8,77.8,1597.4,77.5,1597.9,77.1L1597.9,77.1z M1591.3,77c0.1,0.1,0.3,0.2,0.4,0.3c1.1,0.7,2.4,0.9,3.7,0.8l53,273.4
		c-1.4,0.4-2.6,1.3-3.4,2.5c-0.2,0.3-0.3,0.5-0.4,0.8L1423,281.1c0.5-2-0.1-4-1.5-5.5L1591.3,77z M1422.3,282.7
		c0.2-0.3,0.3-0.5,0.4-0.8l221.6,73.7c-0.8,3,1.1,6.1,4.1,6.9c2.4,0.6,4.9-0.4,6.2-2.5c0.2-0.3,0.3-0.5,0.4-0.8l228,75.8
		c0,0,0,0,0,0.1l-475.5-80.1c0.3-3.1-2-5.9-5.1-6.2c-1.1-0.1-2.2,0.1-3.2,0.6l-54.4-89c0.9-0.6,1.6-1.5,2-2.5l65.2,20.7
		c-0.7,3.1,1.2,6.1,4.2,6.8C1418.6,285.8,1421.1,284.8,1422.3,282.7L1422.3,282.7z M1449.1,88c3.1,0.3,5.9-2,6.2-5.1
		c0.2-2-0.7-4-2.4-5.1l37.1-60.2c0.2,0.1,0.5,0.2,0.7,0.3L1419,272.8L1449.1,88z M1447,87.4c0.4,0.2,0.9,0.4,1.3,0.5L1418,274.1
		c-2.1-0.2-4.2,0.8-5.3,2.7c-0.2,0.3-0.3,0.6-0.4,0.9l-65.2-20.6c0.5-2.2-0.3-4.6-2.2-5.9L1447,87.4z M1118.8,152.6
		c-0.9,1.3-2.6,1.6-3.9,0.7c-1.2-0.8-1.6-2.4-0.9-3.7c0.2-0.3,0.4-0.5,0.6-0.7l0,0c-0.2,0.2-0.4,0.4-0.6,0.7c-0.8,1.3-0.4,3,0.9,3.8
		c0,0,0,0,0,0C1116.3,154.3,1118,153.9,1118.8,152.6c0.2-0.4,0.4-0.8,0.4-1.3l0,0C1119.2,151.8,1119.1,152.2,1118.8,152.6
		L1118.8,152.6z M1444.7,85.2l-238,164.9c-0.4-0.5-0.9-0.9-1.4-1.3c-0.6-0.4-1.3-0.6-2-0.8l9.6-99c3.1,0.1,5.7-2.4,5.8-5.5
		c0-0.4,0-0.8-0.1-1.2l225.6-58.2C1444.4,84.6,1444.5,84.9,1444.7,85.2L1444.7,85.2z M1212.6,143.8l0.1-0.6l0.1-0.1l0.1-0.1h0.1l0,0
		l0.1,0.8H1212.6z M1230.8,13c0.2-0.3,0.3-0.6,0.4-0.9L1444.1,81c-0.2,0.8-0.2,1.6-0.1,2.4l-225.6,58.2c-0.7-2-2.4-3.4-4.4-3.8
		l11.9-122C1227.9,15.8,1229.8,14.8,1230.8,13z M1208.2,140.4c-0.6,0.9-0.8,1.9-0.8,3l-85.3,6.9c-0.2-1.3-0.8-2.5-1.8-3.4
		l102.6-132.1c0.1,0,0.1,0.1,0.2,0.1c0.6,0.4,1.3,0.6,2,0.8l-11.9,122.1C1211.1,137.7,1209.3,138.7,1208.2,140.4z M1209,147.4
		c0.8,0.8,1.9,1.4,3.1,1.6l-9.6,99c-2-0.1-3.9,1-5,2.7c-0.4,0.7-0.7,1.4-0.8,2.2l-97.4-6.7c0-1.2-0.4-2.4-1.1-3.4L1209,147.4z
		 M1091.2,250L1091.2,250z"/>
</g>
<text transform="matrix(1 0 0 1 1066.53 881.18)" class="st45 st46 st53">We always love to support</text>
<text transform="matrix(1 0 0 1 1117.09 933.01)" class="st45 st54 st55">Biz@Veevotech.com</text>
<text transform="matrix(1 0 0 1 1117.09 973.81)" class="st45 st54 st55">UAN +92 304 111 8333</text>
</svg>
