<?xml version="1.0" encoding="utf-8"?>
<!-- Generator: Adobe Illustrator 25.4.1, SVG Export Plug-In . SVG Version: 6.00 Build 0)  -->
<svg version="1.1" id="Layer_1" xmlns="http://www.w3.org/2000/svg" xmlns:xlink="http://www.w3.org/1999/xlink" x="0px" y="0px"
	 viewBox="0 0 1920 1080" style="enable-background:new 0 0 1920 1080;" xml:space="preserve">
<style type="text/css">
	.st0{fill:#FFFFFF;}
	.st1{fill:#F7F7F7;}
	.st2{fill:#163947;}
	.st3{font-family:'Montserrat-Bold';}
	.st4{font-size:48px;}
	.st5{fill:#15AFD0;}
	.st6{fill-rule:evenodd;clip-rule:evenodd;fill:#163947;}
	.st7{font-family:'Montserrat-SemiBold';}
	.st8{font-size:36px;}
	.st9{opacity:0.2;}
	.st10{font-size:26px;}
	.st11{font-family:'Montserrat-Medium';}
	.st12{font-size:24px;}
	.st13{fill:#6280C0;}
	.st14{fill:#B55D42;}
	.st15{fill:#323342;}
	.st16{fill:#4060AC;}
	.st17{fill:#3C3C50;}
	.st18{fill:url(#SVGID_1_);}
	.st19{fill:#814842;}
	.st20{fill:#FEBE10;}
	.st21{fill:#FBB615;}
	.st22{fill:#F6851F;}
	.st23{fill:#DDE8F7;}
	.st24{fill:#2AAAE2;}
	.st25{fill:#F79E84;}
	.st26{fill:#FEBF4F;}
	.st27{fill:#DF8364;}
	.st28{fill:#C0DEF4;}
</style>
<rect class="st0" width="1920" height="1080"/>
<rect class="st1" width="1001.8" height="1080"/>
<text transform="matrix(1 0 0 1 280.36 880.09)" class="st2 st3 st4">Voice Broadcast</text>
<path class="st5" d="M1098.5,973.5c-0.7-0.5-1.4-0.9-2.1-1.4c-1.3-0.9-2.7-1.6-4.2-2.3c-0.4-0.3-1-0.1-1.3,0.3l-0.3,0.3
	c-0.4,0.5-0.9,1-1.3,1.5s-0.6,0.6-1.4,0.3c-4.4-1.5-7.9-5-9.3-9.4c-0.2-0.4-0.1-0.9,0.3-1.2c0.7-0.5,1.3-1.1,1.9-1.6
	c0.5-0.3,0.6-0.9,0.3-1.4c-0.1-0.1-0.1-0.3-0.2-0.4c-1-2-2.2-4-3.5-5.8c-0.2-0.2-0.4-0.4-0.6-0.6c-0.2-0.2-0.6-0.2-0.9,0
	c-0.2,0.2-0.5,0.3-0.7,0.5c-1.6,1.6-3.1,3.3-4.4,5.2c-0.4,0.5-0.5,1.2-0.3,1.8c0.4,2.1,1.2,4.1,2.2,6c2.1,3.7,4.9,7,8.2,9.6
	c2.3,2,5,3.6,7.8,4.7c1.2,0.5,2.4,0.8,3.7,0.9c0.2-0.1,0.4-0.2,0.6-0.3c2-1.3,3.9-2.8,5.5-4.6
	C1099.6,974.7,1099.5,974.3,1098.5,973.5z"/>
<path class="st5" d="M1094,957.1c2.1,2.1,3.3,5,3.3,8h2c0-7.3-5.9-13.3-13.2-13.4c0,0-0.1,0-0.1,0v2
	C1089,953.7,1091.9,954.9,1094,957.1z"/>
<path class="st5" d="M1090.3,960.7c1.2,1.2,1.8,2.7,1.8,4.3h2c0-4.5-3.6-8.1-8.1-8.2c0,0-0.1,0-0.1,0v2
	C1087.6,958.9,1089.2,959.5,1090.3,960.7z"/>
<path class="st5" d="M1087.5,927.7c-1.5,1.1-3.6,1.1-5.2,0l-11.8-7.9c0,0-0.1,0-0.2-0.1v13.5c0.1,0.4,0.3,0.8,0.5,1.1
	c0.5,0.8,1.4,1.2,2.3,1.2h23.7c1.4,0.1,2.6-0.9,2.8-2.3c0-0.1,0-0.2,0-0.4v-13.1l-0.3,0.2L1087.5,927.7z"/>
<path class="st5" d="M1072.1,918.8c3.7,2.5,7.4,4.9,11.1,7.4c1,0.8,2.5,0.8,3.5,0l7.7-5.1l4-2.7c1.1-0.7,1.5-2.1,0.9-3.3
	c-0.5-1-1.5-1.6-2.6-1.5h-23.8c-1.1,0-2.1,0.8-2.5,1.8c0,0.1-0.1,0.3-0.1,0.4v0.8C1070.6,917.6,1071.2,918.3,1072.1,918.8z"/>
<path class="st5" d="M1289.2,416.5l-24.7,14.2h-20.6c-23.1,0-41.8,18.7-41.8,41.7c0,18.3,11.9,34.4,29.3,39.8l5.6-9.3
	c-16.9-3.8-27.5-20.5-23.7-37.4c3.2-14.3,15.9-24.5,30.6-24.4h30.4L1289.2,416.5z"/>
<path class="st5" d="M1230.3,528.5l24.7-14.2h20.6c23.1,0,41.7-18.7,41.7-41.8c0-18.2-11.8-34.3-29.2-39.8l-5.6,9.3
	c16.9,3.8,27.5,20.5,23.7,37.4c-3.2,14.3-15.9,24.5-30.6,24.4h-30.4L1230.3,528.5z"/>
<path class="st6" d="M1296.4,471.7c-6.4,0-6.3-3.4-8.7-3.4c-1,0-1.9,0.5-2.4,1.4c-0.3,0.6-0.8,1.2-1.4,1.5c-0.9,0.4-1.9,0.4-2.9,0.1
	c-1.1-0.3-2.2-0.9-3.1-1.6c-1.5-1.1-2.6-2.7-3-4.6c-0.6-3.6-2.4-3.6-2.4-3.6l0,0c0,0-1.7,0-2.4,3.6c-0.4,1.9-1.4,3.7-2.8,5
	c-0.5,0.5-1.1,0.8-1.8,0.9c-0.6,0.1-1.3-0.1-1.8-0.5c-0.8-0.6-1.6-2-2.1-4.3c-0.1-0.6-0.3-1.2-0.4-1.9c-1.2-5.6-3.1-14.7-5.4-14.8
	l0,0c-2.3,0.1-4.2,9.2-5.4,14.8c-0.1,0.7-0.3,1.3-0.4,1.9c-0.4,1.7-1.3,3.3-2.6,4.5c-0.4,0.4-0.9,0.6-1.5,0.7
	c-0.5,0.1-1-0.1-1.4-0.4c-0.9-1-1.4-2.2-1.5-3.5c-0.4-2.4-1.6-2.4-1.6-2.4s-1.2,0-1.6,2.4c-0.2,1-0.7,1.9-1.4,2.7
	c-0.7,0.6-1.5,1.1-2.4,1.3l0,0c-0.7,0.2-2.2,0.5-3,0.7v0.5c1.2,0.2,2.3,0.5,3.4,0.8c0.7,0.3,1.4,0.7,2,1.2c0.7,0.7,1.2,1.6,1.4,2.7
	c0.4,2.4,1.6,2.4,1.6,2.4s1.2,0,1.6-2.4c0.1-1.3,0.6-2.5,1.5-3.5c0.4-0.3,0.9-0.5,1.4-0.4c0.6,0.1,1.1,0.4,1.5,0.7
	c1.3,1.2,2.3,2.8,2.6,4.5c0.1,0.6,0.3,1.2,0.4,1.9c1.2,5.6,3.1,14.7,5.4,14.8l0,0c2.3-0.1,4.2-9.2,5.4-14.8c0.1-0.7,0.3-1.3,0.4-1.9
	c0.5-2.3,1.2-3.6,2.1-4.3c0.5-0.4,1.1-0.6,1.8-0.5c0.7,0.2,1.3,0.5,1.8,0.9c1.5,1.3,2.5,3.1,2.8,5c0.6,3.6,2.4,3.6,2.4,3.6l0,0
	c0,0,1.7,0,2.4-3.6c0.4-1.8,1.5-3.5,3-4.6c0.9-0.7,2-1.3,3.1-1.6c0.9-0.3,2-0.3,2.9,0.1c0.6,0.3,1.2,0.8,1.4,1.5
	c0.5,0.8,1.4,1.4,2.4,1.4c1.9,0,2.2-2,4.6-2.9l0,0c1.3-0.6,2.7-1.1,4.1-1.4C1296.4,472.2,1296.4,472,1296.4,471.7z"/>
<path class="st2" d="M1336.7,502.2l4.8-10.9c6,4.8,15.6,8.3,24.9,8.3c11.7,0,16.7-4.2,16.7-9.8c0-16.2-44.8-5.6-44.8-33.6
	c0-12.2,9.7-22.5,30.3-22.5c9,0,18.5,2.4,25.1,6.7l-4.4,10.9c-6.3-3.8-13.4-5.8-20.8-5.9c-11.6,0-16.3,4.5-16.3,10.2
	c0,16,44.7,5.6,44.7,33.2c0,12.1-9.8,22.4-30.5,22.4C1354.7,511.2,1342.9,507.6,1336.7,502.2z"/>
<path class="st2" d="M1533.5,498.4v11.7H1477v-75.3h55v11.7h-41v19.6h36.4v11.5H1491v20.8H1533.5z"/>
<path class="st2" d="M1646.5,446.7h-25v-11.8h63.9v11.8h-25v63.5h-14L1646.5,446.7z"/>
<path class="st2" d="M1436.3,434.8h-23.2c-7.9,0-7.8,6.6-7.8,6.6v2.1l0,0V456l0.1-0.3c2.9-8.2,10.7-9,12.8-9h17.5
	c12.3,0,18.6,5.5,18.6,15s-6.3,15-18.6,15h-22.2c-4.4,0-6.4,2.3-7.3,4.2c0,0.1-0.1,0.2-0.1,0.2l-0.1,0.2c-0.4,1-0.6,2-0.6,3.1v25.8
	h14v-21.8h17c19.8,0,32.1-10.2,32.1-26.8S1456.1,434.8,1436.3,434.8z"/>
<polygon class="st2" points="1577.8,465.8 1560.2,446.1 1540.9,446.1 1568.2,476.5 "/>
<polygon class="st2" points="1589.5,478.7 1587.2,476.2 1577.6,486.9 1583.6,493.6 1600.6,512.5 1619.9,512.5 "/>
<path class="st5" d="M1604.5,405.8c0,0,13.8,18.5-16.8,54l-45.1,50.3h18.7c0,0,22.2-24.6,29.5-33c8.7-9.8,24.6-30.1,23.4-47
	C1613.7,421.8,1612,413.3,1604.5,405.8z"/>
<circle class="st5" cx="1440.7" cy="462.1" r="3.8"/>
<circle class="st5" cx="1429.9" cy="462.1" r="3.8"/>
<circle class="st5" cx="1419.1" cy="462.1" r="3.8"/>
<path class="st5" d="M68.9,26.6l-11.8,6.8h-9.8c-11-0.1-20,8.8-20.1,19.8c-0.1,8.8,5.7,16.6,14.1,19.2L44,68
	c-8.1-1.8-13.1-9.8-11.3-17.9c1.5-6.8,7.6-11.6,14.6-11.6h14.5L68.9,26.6z"/>
<path class="st5" d="M40.8,80.1l11.8-6.8h9.8c11,0,20-8.9,20-19.9c0-8.7-5.6-16.5-14-19.1l-2.7,4.4c8.1,1.8,13.1,9.8,11.3,17.9
	c-1.5,6.8-7.6,11.6-14.6,11.6H47.9L40.8,80.1z"/>
<path class="st6" d="M72.3,53c-3,0-3-1.6-4.2-1.6c-0.5,0-0.9,0.3-1.1,0.7c-0.1,0.3-0.4,0.6-0.7,0.7c-0.4,0.2-0.9,0.2-1.4,0
	c-0.5-0.1-1-0.4-1.5-0.7c-0.7-0.5-1.2-1.3-1.4-2.2c-0.3-1.7-1.1-1.7-1.1-1.7l0,0c0,0-0.8,0-1.1,1.7c-0.2,0.9-0.7,1.7-1.4,2.4
	c-0.2,0.2-0.5,0.4-0.9,0.5c-0.3,0.1-0.6,0-0.8-0.2c-0.5-0.5-0.9-1.2-1-2c-0.1-0.3-0.1-0.6-0.2-0.9c-0.6-2.7-1.5-7-2.6-7.1l0,0
	c-1.1,0-2,4.4-2.6,7.1l-0.2,0.9C50,51.2,49.6,52,49,52.5c-0.2,0.2-0.4,0.3-0.7,0.3c-0.2,0-0.5,0-0.7-0.2c-0.4-0.5-0.7-1.1-0.7-1.7
	c-0.2-1.2-0.8-1.2-0.8-1.2s-0.6,0-0.8,1.2c-0.1,0.5-0.3,0.9-0.7,1.3c-0.3,0.3-0.7,0.5-1.1,0.6l0,0c-0.3,0.1-1,0.2-1.5,0.3v0.2
	c0.6,0.1,1.1,0.2,1.6,0.4c0.4,0.1,0.7,0.3,0.9,0.6c0.4,0.3,0.6,0.8,0.7,1.3c0.2,1.2,0.8,1.2,0.8,1.2s0.5,0,0.8-1.2
	c0-0.6,0.3-1.2,0.7-1.7c0.2-0.2,0.4-0.2,0.7-0.2c0.3,0,0.5,0.2,0.7,0.3c0.6,0.6,1.1,1.3,1.3,2.2l0.2,0.9c0.6,2.7,1.5,7,2.6,7.1l0,0
	c1.1,0,2-4.4,2.6-7.1c0.1-0.3,0.1-0.6,0.2-0.9c0.1-0.8,0.5-1.5,1-2c0.2-0.2,0.5-0.3,0.8-0.2c0.3,0.1,0.6,0.2,0.9,0.5
	c0.7,0.6,1.2,1.5,1.4,2.4c0.3,1.7,1.1,1.7,1.1,1.7l0,0c0,0,0.8,0,1.1-1.7c0.2-0.9,0.7-1.7,1.4-2.2c0.4-0.4,0.9-0.6,1.5-0.8
	c0.4-0.2,0.9-0.2,1.4,0c0.3,0.1,0.6,0.4,0.7,0.7c0.2,0.4,0.7,0.7,1.1,0.7c0.9,0,1-0.9,2.2-1.4l0,0c0.6-0.3,1.3-0.5,2-0.7L72.3,53z"
	/>
<path class="st2" d="M91.6,67.6l2.3-5.2c3.4,2.6,7.6,4,11.9,4c5.6,0,8-2,8-4.7c0-7.8-21.4-2.7-21.4-16c0-5.8,4.6-10.7,14.5-10.7
	c4.2-0.1,8.4,1,12,3.2l-2.1,5.2c-3-1.8-6.4-2.8-9.9-2.8c-5.6,0-7.8,2.2-7.8,4.9c0,7.6,21.3,2.6,21.3,15.8c0,5.8-4.7,10.7-14.6,10.7
	C100.2,71.9,94.6,70.1,91.6,67.6z"/>
<path class="st2" d="M185.6,65.8v5.6h-27v-36h26.3V41h-19.6v9.4h17.4v5.5h-17.4v9.9H185.6z"/>
<path class="st2" d="M239.6,41.1h-11.9v-5.7h30.5v5.7h-11.9v30.3h-6.7V41.1z"/>
<path class="st2" d="M139.2,35.4h-11.1c-3.8,0-3.7,3.1-3.7,3.1v1l0,0v6c0,0,0-0.1,0-0.1c0.9-2.6,3.4-4.3,6.1-4.3h8.4
	c5.9,0,8.9,2.6,8.9,7.1s-3,7.1-8.9,7.1h-10.6c-1.5-0.1-2.9,0.7-3.5,2c0,0,0,0.1,0,0.1c0,0,0,0.1,0,0.1c-0.2,0.5-0.3,1-0.3,1.5v12.3
	h6.7V61h8.1c9.4,0,15.3-4.9,15.3-12.8S148.6,35.4,139.2,35.4z"/>
<polygon class="st2" points="206.7,50.2 198.3,40.8 189.1,40.8 202.1,55.3 "/>
<polygon class="st2" points="212.3,56.4 211.2,55.2 206.6,60.3 209.5,63.5 217.6,72.5 226.8,72.5 "/>
<path class="st5" d="M219.5,21.5c0,0,6.6,8.9-8,25.8l-21.5,24h8.9c0,0,10.6-11.7,14.1-15.7c4.1-4.7,11.8-14.4,11.2-22.4
	C223.9,29.2,223,25.1,219.5,21.5z"/>
<circle class="st5" cx="141.2" cy="48.4" r="1.8"/>
<circle class="st5" cx="136.1" cy="48.4" r="1.8"/>
<circle class="st5" cx="130.9" cy="48.4" r="1.8"/>
<path class="st5" d="M1168.7,591.5h562.2c10.7,0,19.4,8.7,19.4,19.4v44.8c0,10.7-8.7,19.4-19.4,19.4h-562.2
	c-10.7,0-19.4-8.7-19.4-19.4v-44.8C1149.3,600.2,1158,591.5,1168.7,591.5z"/>
<text transform="matrix(1 0 0 1 1280.45 645.1)" class="st0 st7 st8">Login Using OneID</text>
<g class="st9">
	<polygon class="st5" points="1000.5,915.8 1067.1,1079.6 1068,1079.6 1000.5,913.6 	"/>
	<path class="st5" d="M1916,929.4c-2-1.2-4.6-1.1-6.5,0.4l-80.1-89.1c0.3-0.3,0.5-0.6,0.8-1c1.7-2.7,0.8-6.2-1.8-7.8
		c-2.7-1.7-6.2-0.8-7.8,1.8c-0.4,0.7-0.7,1.4-0.8,2.2l-97.4-6.7c0-3.1-2.5-5.7-5.7-5.7c-3.1,0-5.7,2.5-5.7,5.7c0,1,0.3,2,0.8,2.9
		l-238,165c-0.3-0.4-0.7-0.7-1.1-1l102.1-163.7c2.8,1.4,6.2,0.3,7.6-2.4c1-2,0.8-4.4-0.6-6.2l103.6-97.9c0.3,0.2,0.6,0.5,0.9,0.7
		c2.7,1.7,6.2,0.8,7.8-1.8c1.7-2.7,0.8-6.2-1.8-7.8c-2.7-1.7-6.2-0.8-7.8,1.8c-1.3,2.1-1.1,4.7,0.4,6.6l-103.6,97.8
		c-0.3-0.3-0.6-0.5-0.9-0.7c-1.7-1-3.8-1.1-5.6-0.2l-54.4-89c2.6-1.8,3.1-5.4,1.3-7.9c-0.8-1.1-1.9-1.9-3.2-2.2l23.8-131.4
		c3.1,0.3,5.9-1.9,6.3-5s-1.9-5.9-5-6.3s-5.9,1.9-6.3,5c-0.2,2.2,0.8,4.3,2.7,5.4c0.5,0.3,1,0.5,1.6,0.7l-23.8,131.3
		c-1.1-0.1-2.2,0.1-3.2,0.6L1450,618c2.6-1.8,3.1-5.4,1.3-7.9s-5.4-3.1-7.9-1.3c-0.6,0.4-1.1,1-1.5,1.6c-0.1,0.2-0.3,0.5-0.4,0.8
		l-112.4-38.3c0.8-3-1-6.2-4-7s-6.2,1-7,4s1,6.2,4,7c2.4,0.6,5-0.4,6.3-2.5c0.2-0.2,0.3-0.5,0.4-0.8l112.4,38.3
		c-0.1,0.3-0.1,0.6-0.2,0.9l-221.3-6.7c-0.1-3.1-2.7-5.6-5.9-5.4c-0.3,0-0.6,0.1-1,0.1l-67-237c3-1.1,4.5-4.3,3.4-7.3
		c-1.1-3-4.3-4.5-7.3-3.4s-4.5,4.3-3.4,7.3c0.4,1.2,1.3,2.2,2.4,2.9c1.2,0.8,2.7,1,4.1,0.7l67,237.1c-1.2,0.4-2.2,1.3-2.9,2.4l0,0
		l-208.7-106.9l0,0v0.9l0,0l208.3,106.7c-0.4,0.9-0.5,2-0.4,3l-172.6,37.8c-0.8-2.9-3.8-4.6-6.7-3.9l-28.6-92.4v2.7l27.8,89.9
		c-1.2,0.4-2.1,1.3-2.8,2.3c-1.1,1.8-1.1,4-0.1,5.8l-25,16.8v1L1026,650c1.1,1.4,2.8,2.2,4.6,2.2l40,427.4h0.8l-40-427.5
		c0.9-0.1,1.7-0.5,2.4-1l69.3,81.2c-0.3,0.3-0.6,0.7-0.8,1.1c-1.6,2.7-0.8,6.2,1.8,7.8c0,0,0,0,0,0c0.6,0.4,1.3,0.6,2,0.8
		l-33.5,337.7h0.8L1107,742c0.5,0,1,0,1.6-0.2l112.2,337.8h0.8l-112.3-338.1c0.4-0.1,0.7-0.3,1-0.5l210.1,265.2
		c-0.4,0.4-0.7,0.8-1,1.2c-1.5,2.5-0.9,5.7,1.4,7.5l-42.7,64.7h1l42.4-64.3c2.7,1.6,6.2,0.6,7.7-2.1c1.3-2.3,0.9-5.1-1-6.9
		l169.9-198.7c0.1,0.1,0.3,0.2,0.4,0.3c0.3,0.2,0.7,0.4,1,0.5l-72.1,256.4c-3.1-0.6-6.1,1.3-6.7,4.4c-0.2,0.9-0.2,1.8,0.1,2.7
		l-21.2,7.7h2.4l19.1-6.9c0.5,1.1,1.2,1.9,2.2,2.5c1.1,0.7,2.4,1,3.7,0.8l0.7,3.6h0.8l-0.8-3.7c3-0.8,4.8-4,3.9-7
		c-0.3-1.2-1.1-2.3-2.2-3.1l37.1-60.3c0.8,0.4,1.7,0.6,2.6,0.7l5.3,73.4h0.8l-5.3-73.5c0.5-0.1,1.1-0.2,1.6-0.5l40.3,73.9h0.9
		l-40.5-74.3c0.2-0.1,0.4-0.3,0.5-0.4l71,74.7h1.1l-71.5-75.3c0.2-0.3,0.5-0.5,0.6-0.8c0.2-0.3,0.3-0.6,0.4-0.8l212.8,68.8
		c-0.6,2.4,0.4,4.9,2.5,6.2c0.2,0.1,0.5,0.3,0.7,0.4l-0.6,1.6h13.3l-5.6-3.9c1.4-2.3,0.9-5.3-1.1-7.1l102.6-132.2l0.2,0.1
		c1.7,1,3.8,1.1,5.6,0.2l86.1,142.8h0.9l-86.3-143.2c0.6-0.4,1.2-1,1.6-1.7c1.7-2.7,0.8-6.2-1.8-7.8c-2.7-1.7-6.2-0.8-7.8,1.8
		c-0.6,0.9-0.9,2-0.8,3.1l-85.3,6.9c-0.1-0.9-0.5-1.8-1.1-2.5l110.8-95.4c0.3,0.3,0.7,0.6,1.1,0.8c2,1.2,4.6,1.1,6.5-0.4l80.1,89.1
		c-0.3,0.3-0.5,0.6-0.8,1c-1.6,2.7-0.8,6.2,1.9,7.8c2.7,1.6,6.2,0.8,7.8-1.9C1919.6,934.6,1918.7,931.1,1916,929.4
		C1916.1,929.5,1916.1,929.5,1916,929.4L1916,929.4z M1545.3,582.2L1545.3,582.2z M1216.4,602.5L1216.4,602.5z M1208.6,608
		c0.4,1.3,1.3,2.5,2.5,3.2c2.7,1.6,6.2,0.8,7.8-1.9c0,0,0,0,0,0c0.4-0.7,0.7-1.5,0.8-2.4l219.6,6.6l-403,32.1L1208.6,608z
		 M1036.1,646.5l404.9-32.3c0.5,3.1,3.4,5.2,6.5,4.8c0.6-0.1,1.2-0.3,1.8-0.6l64.5,105.6c-0.6,0.4-1.1,1-1.5,1.7
		c-0.3,0.5-0.5,1.1-0.7,1.6l-475.5-80.2C1036.1,646.9,1036.1,646.7,1036.1,646.5z M1110.1,731.5c-2-1.2-4.5-1.1-6.3,0.3l-69.3-81.2
		c0.3-0.3,0.6-0.7,0.8-1.1c0.2-0.3,0.3-0.5,0.4-0.8l228,75.8c-0.1,0.4-0.2,0.9-0.2,1.4l-150.7,9.7
		C1112.6,733.9,1111.6,732.4,1110.1,731.5L1110.1,731.5z M1321.1,1005.8L1111,740.5c0.4-0.4,0.7-0.8,1-1.2c0.5-0.9,0.8-1.9,0.8-2.9
		l150.7-9.7c0.4,3.1,3.2,5.2,6.3,4.9l53,273.4C1322.2,1005.1,1321.6,1005.4,1321.1,1005.8L1321.1,1005.8z M1327.7,1005.9l-0.4-0.3
		c-1.1-0.7-2.4-0.9-3.7-0.8l-53-273.4c1.4-0.4,2.6-1.3,3.4-2.5c0.2-0.3,0.3-0.5,0.4-0.8l221.6,73.6c-0.5,2,0.1,4,1.5,5.5
		L1327.7,1005.9z M1496.7,800.2c-0.2,0.3-0.3,0.5-0.4,0.8l-221.6-73.7c0.8-3-1-6.1-4.1-6.9c-2.4-0.6-5,0.4-6.3,2.5
		c-0.2,0.3-0.3,0.5-0.4,0.8l-228-75.8c0,0,0,0,0-0.1l475.6,80.1c-0.3,3.1,2,5.9,5.1,6.2c1.1,0.1,2.2-0.1,3.2-0.6l54.4,89
		c-0.6,0.4-1.1,1-1.5,1.7c-0.2,0.3-0.3,0.6-0.4,0.9l-65.2-20.6c0.7-3.1-1.2-6.1-4.2-6.8C1500.4,797.1,1497.9,798.1,1496.7,800.2
		L1496.7,800.2z M1469.9,994.9c-3.1-0.3-5.9,2-6.2,5.1c-0.2,2,0.7,4,2.4,5.2l-37.1,60.2c-0.2-0.1-0.5-0.2-0.7-0.3l71.7-254.9
		L1469.9,994.9z M1472,995.6c-0.4-0.2-0.9-0.4-1.3-0.5l30.3-186.2c2.1,0.2,4.2-0.8,5.3-2.7c0.2-0.3,0.3-0.6,0.4-0.9l65.2,20.7
		c-0.5,2.2,0.3,4.6,2.2,5.9L1472,995.6z M1800.2,930.3c0.8-1.3,2.6-1.7,3.9-0.9s1.7,2.6,0.9,3.9c-0.2,0.3-0.4,0.5-0.6,0.7l0,0
		c0.2-0.2,0.5-0.4,0.6-0.7c0.8-1.3,0.4-3-0.9-3.9C1802.7,928.6,1801,929,1800.2,930.3c-0.2,0.4-0.4,0.9-0.4,1.3l0,0
		C1799.8,931.2,1799.9,930.7,1800.2,930.3L1800.2,930.3z M1474.3,997.7l238-164.9c0.4,0.5,0.9,0.9,1.4,1.3c0.6,0.4,1.3,0.6,2,0.8
		l-9.6,99c-2-0.1-3.9,1-5,2.7c-0.7,1.2-1,2.6-0.7,4l-225.6,58.2C1474.6,998.4,1474.4,998,1474.3,997.7L1474.3,997.7z M1706.4,939.1
		l-0.1,0.6l-0.1,0.1l-0.1,0.1h-0.1l0,0l-0.1-0.8H1706.4z M1688.2,1069.9c-0.2,0.3-0.3,0.6-0.4,0.9l-212.8-68.8
		c0.2-0.8,0.2-1.6,0.1-2.4l225.6-58.2c0.7,2,2.4,3.4,4.4,3.8l-11.9,122C1691.1,1067.1,1689.2,1068.1,1688.2,1069.9L1688.2,1069.9z
		 M1695.4,1069L1695.4,1069z M1710.8,942.5c0.6-0.9,0.8-1.9,0.8-3l85.3-6.9c0.2,1.3,0.9,2.5,1.8,3.4l-102.6,132.2
		c-0.1,0-0.1-0.1-0.2-0.1c-0.6-0.4-1.3-0.6-2-0.8l11.9-122C1707.9,945.3,1709.8,944.3,1710.8,942.5L1710.8,942.5z M1710,935.5
		c-0.3-0.3-0.6-0.6-1-0.8c-0.6-0.4-1.3-0.6-2-0.8l9.6-99c2,0.1,3.9-1,5-2.7c0.4-0.7,0.7-1.4,0.8-2.2l97.4,6.7c0,1.2,0.4,2.4,1.1,3.4
		L1710,935.5z"/>
	<polygon class="st5" points="1918.4,167.1 1851.9,3.3 1851,3.3 1918.4,169.3 	"/>
	<path class="st5" d="M1003,153.5c2,1.2,4.6,1.1,6.5-0.4l80.1,89.1c-0.3,0.3-0.5,0.6-0.8,1c-1.7,2.7-0.8,6.2,1.8,7.8
		c2.7,1.7,6.2,0.8,7.8-1.8c0.4-0.7,0.7-1.4,0.8-2.2l97.4,6.7c0,3.1,2.5,5.7,5.7,5.7c3.1,0,5.7-2.5,5.7-5.7c0-1-0.3-2-0.8-2.9
		l238-164.9c0.3,0.4,0.7,0.7,1.1,1l-102.2,163.7c-2.8-1.4-6.2-0.3-7.6,2.5c-1,2-0.8,4.4,0.6,6.1l-103.6,97.9
		c-0.3-0.2-0.6-0.5-0.9-0.6c-2.7-1.6-6.2-0.8-7.8,1.9c-1.6,2.7-0.8,6.2,1.9,7.8s6.2,0.8,7.8-1.9c1.3-2.1,1.1-4.7-0.4-6.6l103.6-97.9
		c1.8,1.6,4.3,2,6.4,0.9l54.4,89c-2.6,1.8-3.1,5.4-1.3,7.9c0.8,1.1,1.9,1.9,3.2,2.2l-23.8,131.4c-3-0.3-5.7,1.9-6.1,4.9
		s1.9,5.7,4.9,6.1c3,0.3,5.7-1.9,6.1-4.9c0.3-2.7-1.5-5.2-4.1-5.9l23.7-131.3c1.1,0.1,2.2-0.1,3.2-0.6l64.5,105.5
		c-2.6,1.8-3.1,5.4-1.3,7.9c1.8,2.6,5.4,3.1,7.9,1.3c0.6-0.4,1.1-1,1.5-1.6c0.1-0.2,0.3-0.5,0.4-0.8l112.4,38.3
		c-0.8,3,1,6.1,4.1,6.9c3,0.8,6.1-1,6.9-4.1c0.8-3-1-6.1-4.1-6.9c-2.4-0.6-5,0.4-6.3,2.5c-0.1,0.2-0.3,0.5-0.4,0.8L1477.8,471
		c0.1-0.3,0.1-0.6,0.2-0.9l221.3,6.6c0.1,3.1,2.8,5.6,5.9,5.4c0.3,0,0.6-0.1,0.9-0.1l67,237c-1.2,0.4-2.2,1.3-2.9,2.4
		c-1.7,2.7-0.8,6.2,1.8,7.8c2.7,1.7,6.2,0.8,7.8-1.8c1.7-2.7,0.8-6.2-1.8-7.8c-1.2-0.8-2.7-1-4.2-0.7l-67-237.1
		c1.2-0.4,2.2-1.3,2.9-2.4l0,0l208.7,106.8l0,0v-0.9l0,0l-208.3-106.7c0.4-0.9,0.5-2,0.4-3l172.6-37.8c0.8,2.9,3.8,4.6,6.7,3.9
		l28.6,92.4v-2.7l-27.8-89.9c2.9-1.1,4.4-4.4,3.2-7.3c-0.1-0.3-0.2-0.5-0.4-0.8l25-16.8v-1l-25.5,17.1c-0.4-0.5-0.9-1-1.5-1.3
		c-0.9-0.6-2-0.9-3.1-0.8l-40-427.4h-0.8l40,427.5c-0.9,0.1-1.7,0.5-2.4,1l-69.3-81.2c0.3-0.3,0.6-0.7,0.9-1.1
		c1.6-2.7,0.8-6.2-1.9-7.8c-0.6-0.4-1.3-0.6-2-0.8l33.5-337.7h-0.8L1812,340.9c-0.5,0-1.1,0-1.6,0.2L1698.3,3.3h-0.8l112.3,338.1
		c-0.3,0.2-0.7,0.3-1,0.5L1598.6,76.7c0.4-0.4,0.7-0.8,1-1.2c1.5-2.5,0.9-5.7-1.4-7.5l42.7-64.7h-1l-42.4,64.3
		c-2.7-1.5-6.2-0.6-7.7,2.2c-1.3,2.2-0.9,5,1,6.8l-169.8,198.6c-0.1-0.1-0.3-0.2-0.4-0.3c-0.3-0.2-0.7-0.4-1.1-0.5L1491.5,18
		c3.1,0.6,6.1-1.3,6.7-4.4c0.2-0.9,0.2-1.8-0.1-2.7l21.2-7.7h-2.3l-19.1,6.9c-1-2.3-3.4-3.7-5.9-3.3l-0.7-3.6h-0.8l0.8,3.8
		c-3,0.8-4.8,4-3.9,7c0.3,1.2,1.1,2.3,2.2,3.1l-37.1,60.3c-0.8-0.4-1.7-0.6-2.6-0.7l-5.3-73.4h-0.8l5.3,73.5
		c-0.5,0.1-1.1,0.2-1.5,0.4L1407,3.3h-0.9l40.5,74.3c-0.2,0.1-0.4,0.3-0.5,0.4l-71-74.7h-1.1l71.5,75.3c-0.2,0.3-0.5,0.5-0.6,0.8
		c-0.2,0.3-0.3,0.6-0.4,0.8l-212.8-68.8c0.6-2.4-0.4-4.9-2.5-6.2c-0.2-0.1-0.5-0.3-0.7-0.4l0.6-1.6h-13.3l5.6,3.9
		c-1.4,2.3-0.9,5.3,1.1,7.1l-102.6,132.2l-0.2-0.1c-1.7-1-3.8-1.1-5.6-0.2L1027.8,3.3h-0.9l86.3,143.2c-2.6,1.8-3.2,5.4-1.4,7.9
		c1.8,2.6,5.4,3.2,7.9,1.4c0.6-0.4,1.2-1,1.6-1.7c0.6-0.9,0.8-1.9,0.8-3l85.3-6.9c0.1,0.9,0.5,1.8,1,2.5l-110.8,95.4
		c-0.3-0.3-0.7-0.6-1.1-0.8c-2-1.2-4.6-1.1-6.5,0.4l-80.1-89.1c0.3-0.3,0.5-0.6,0.8-1c1.6-2.7,0.8-6.2-1.9-7.8s-6.2-0.8-7.8,1.9
		C999.4,148.3,1000.3,151.8,1003,153.5L1003,153.5z M1227.3,365.2L1227.3,365.2z M1710.4,474.9c-0.4-1.3-1.3-2.5-2.5-3.2
		c-2.7-1.6-6.1-0.8-7.8,1.8c0,0,0,0,0,0c-0.4,0.7-0.7,1.5-0.8,2.4l-219.6-6.6l403-32.1L1710.4,474.9z M1882.9,436.4l-405,32.3
		c-0.5-3.1-3.4-5.2-6.4-4.8c-0.6,0.1-1.2,0.3-1.8,0.6L1405.2,359c1.1-0.8,1.9-2,2.2-3.3l475.5,80.1
		C1882.9,436,1882.9,436.2,1882.9,436.4L1882.9,436.4z M1808.9,351.4c2,1.2,4.5,1.1,6.3-0.3l69.3,81.1c-0.3,0.3-0.6,0.7-0.9,1.1
		c-0.2,0.3-0.3,0.5-0.4,0.8l-228-75.8c0.1-0.4,0.2-0.9,0.2-1.4l150.7-9.7C1806.4,349,1807.4,350.6,1808.9,351.4L1808.9,351.4z
		 M1597.9,77.1L1808,342.4c-1.2,1.1-1.8,2.6-1.8,4.1l-150.7,9.7c-0.2-1.7-1.2-3.2-2.7-4.1c-1.1-0.7-2.4-1-3.7-0.8L1596.2,78
		C1596.8,77.8,1597.4,77.5,1597.9,77.1L1597.9,77.1z M1591.3,77c0.1,0.1,0.3,0.2,0.4,0.3c1.1,0.7,2.4,0.9,3.7,0.8l53,273.4
		c-1.4,0.4-2.6,1.3-3.4,2.5c-0.2,0.3-0.3,0.5-0.4,0.8L1423,281.1c0.5-2-0.1-4-1.5-5.5L1591.3,77z M1422.3,282.7
		c0.2-0.3,0.3-0.5,0.4-0.8l221.6,73.7c-0.8,3,1.1,6.1,4.1,6.9c2.4,0.6,4.9-0.4,6.2-2.5c0.2-0.3,0.3-0.5,0.4-0.8l228,75.8
		c0,0,0,0,0,0.1l-475.5-80.1c0.3-3.1-2-5.9-5.1-6.2c-1.1-0.1-2.2,0.1-3.2,0.6l-54.4-89c0.9-0.6,1.6-1.5,2-2.5l65.2,20.7
		c-0.7,3.1,1.2,6.1,4.2,6.8C1418.6,285.8,1421.1,284.8,1422.3,282.7L1422.3,282.7z M1449.1,88c3.1,0.3,5.9-2,6.2-5.1
		c0.2-2-0.7-4-2.4-5.1l37.1-60.2c0.2,0.1,0.5,0.2,0.7,0.3L1419,272.8L1449.1,88z M1447,87.4c0.4,0.2,0.9,0.4,1.3,0.5L1418,274.1
		c-2.1-0.2-4.2,0.8-5.3,2.7c-0.2,0.3-0.3,0.6-0.4,0.9l-65.2-20.6c0.5-2.2-0.3-4.6-2.2-5.9L1447,87.4z M1118.8,152.6
		c-0.9,1.3-2.6,1.6-3.9,0.7c-1.2-0.8-1.6-2.4-0.9-3.7c0.2-0.3,0.4-0.5,0.6-0.7l0,0c-0.2,0.2-0.4,0.4-0.6,0.7c-0.8,1.3-0.4,3,0.9,3.8
		c0,0,0,0,0,0C1116.3,154.3,1118,153.9,1118.8,152.6c0.2-0.4,0.4-0.8,0.4-1.3l0,0C1119.2,151.8,1119.1,152.2,1118.8,152.6
		L1118.8,152.6z M1444.7,85.2l-238,164.9c-0.4-0.5-0.9-0.9-1.4-1.3c-0.6-0.4-1.3-0.6-2-0.8l9.6-99c3.1,0.1,5.7-2.4,5.8-5.5
		c0-0.4,0-0.8-0.1-1.2l225.6-58.2C1444.4,84.6,1444.5,84.9,1444.7,85.2L1444.7,85.2z M1212.6,143.8l0.1-0.6l0.1-0.1l0.1-0.1h0.1l0,0
		l0.1,0.8H1212.6z M1230.8,13c0.2-0.3,0.3-0.6,0.4-0.9L1444.1,81c-0.2,0.8-0.2,1.6-0.1,2.4l-225.6,58.2c-0.7-2-2.4-3.4-4.4-3.8
		l11.9-122C1227.9,15.8,1229.8,14.8,1230.8,13z M1208.2,140.4c-0.6,0.9-0.8,1.9-0.8,3l-85.3,6.9c-0.2-1.3-0.8-2.5-1.8-3.4
		l102.6-132.1c0.1,0,0.1,0.1,0.2,0.1c0.6,0.4,1.3,0.6,2,0.8l-11.9,122.1C1211.1,137.7,1209.3,138.7,1208.2,140.4z M1209,147.4
		c0.8,0.8,1.9,1.4,3.1,1.6l-9.6,99c-2-0.1-3.9,1-5,2.7c-0.4,0.7-0.7,1.4-0.8,2.2l-97.4-6.7c0-1.2-0.4-2.4-1.1-3.4L1209,147.4z
		 M1091.2,250L1091.2,250z"/>
</g>
<text transform="matrix(1 0 0 1 1066.53 881.18)" class="st2 st3 st10">We always love to support</text>
<text transform="matrix(1 0 0 1 1117.09 933.01)" class="st2 st11 st12">Biz@Veevotech.com</text>
<text transform="matrix(1 0 0 1 1117.09 973.81)" class="st2 st11 st12">UAN +92 304 111 8333</text>
<g id="plants">
	<path class="st13" d="M184.4,645.8c-0.4,0-0.9,0.2-1.2,0.4c-2,1.4-2.9,4.2-3,6.8c0.1,2.7,0.5,5.4,1.3,7.9c1,3.9,1.9,7.8,2.8,11.7
		c-3.7-3.4-7.7-8-11.6-11.3c0,0,0,0-0.1-0.1l-0.5-0.4c0,0,0.1-0.1,0.2,0c-2.9-4.8-6.3-9.3-10.1-13.5c-1.6-1.9-3.4-3.5-5.5-4.8
		c-2.2-1.3-4.3-2.6-6.8-2.1c-1,0.1-1.8,0.6-2.5,1.3c-0.5,0.8-0.6,1.7-0.4,2.6c0.8,4.8,5,8.6,9.4,11.8c3.4,2.5,9.8,4.6,14.7,6.5
		c0.1,0.1,0.3,0.1,0.4,0.1c3.7,3.5,7.4,7,11.1,10.7c-4.3-1.5-8.7-2.5-13.3-2.8c-2.8-0.2-5.7-0.1-8.1,1.2c-0.6,0.2-1,0.8-0.8,1.4
		c0,0.1,0.1,0.3,0.2,0.4c1.8,3.8,6.5,4.9,10.6,5.4c6.2,0.8,12.4,1.4,18.7,1.9c3.1,3.3,6.2,6.7,9.3,10.1c-2.3-0.4-4.6-0.8-7-1.2
		c-2.3-0.5-4.6-0.6-6.9-0.3c-2.3,0.3-4.2,1.8-5,4c-0.2,0.4-0.2,0.8-0.1,1.3c0.2,0.4,0.4,0.7,0.7,1c3.2,3.2,7.7,3.5,11.7,3.5
		c4.3,0,8.2-0.9,12.3-1.6c3.4,4.1,6.8,8.2,10.1,12.4c-2.9-1.2-5.8-2-8.9-2.6c-2.5-0.5-5.2-0.7-7.6,0.4c-0.4,0.1-0.7,0.4-0.8,0.8
		c-0.1,0.3,0,0.6,0.1,0.9c1.3,4,5.6,5.5,9.3,6.3c5.4,1.2,9.8,2.2,14.7,3.1c3.2,4.3,6.3,8.6,9.4,13.1c-1.8-0.4-3.6-0.9-5.5-1.3
		c-2.2-0.7-4.4-0.9-6.6-0.7c-2.3,0.2-4.3,1.7-5.3,3.8c-0.2,0.4-0.3,0.8-0.2,1.3c0.1,0.4,0.3,0.8,0.6,1.1c2.7,3.5,7.1,4,10.9,4.2
		c3.8,0.1,7.5-0.2,11.2-0.8c2.8,4.3,5.6,8.6,8.2,13c-2-1-4-1.9-6.1-2.5c-1.4-0.5-2.8-0.8-4.3-0.9c-1.1-0.1-2.2,0-3.2,0.4
		c-0.4,0.1-0.7,0.3-0.9,0.7c-0.1,0.3-0.1,0.7,0,1c0.8,4.4,4.9,6.5,8.5,8c4.3,1.7,8,3.1,12,4.5l0.8,0.3c0.4,0.6,0.7,1.3,1.1,1.9
		l5.1-8.2c0.9-4.9,1.8-10,2.2-14.5c0.5-5,0.8-10.7-1.8-14.5c-0.2-0.4-0.5-0.7-0.9-0.8c-0.4-0.1-0.8,0-1.2,0.2
		c-2.1,1-3.5,3.6-4.1,6.4c-0.5,2.8-0.6,5.6-0.4,8.5c0.1,5.1,0.5,10.3,1.4,15.3c-0.5-0.4-1-0.8-1.5-1.2c-3.5-6.1-7.1-12-10.8-17.7
		c-0.5-1-1-2-1.7-2.8c2.5-5.3,4.3-10.9,5.5-16.6c0.5-2.2,0.7-4.4,0.6-6.6c-0.1-2.3-0.9-4.6-2.4-6.4c-0.5-0.7-1.2-1.1-2-1.2
		c-0.7,0-1.4,0.4-1.8,1c-2.7,3-3.2,8.2-3.2,13c0,4.6-0.2,8.4,0.5,13.1c-3.3-4.8-6.7-9.6-10.2-14.2c0.1,0.1,0.2,0.2,0.2,0.3
		c0.2-6.5,0.5-13.9,0.4-20.4c0-4.7-0.4-10-3.4-13.2c-0.3-0.3-0.6-0.6-1-0.7c-0.4,0-0.8,0.1-1.1,0.3c-2,1.2-3,3.8-3.3,6.4
		c-0.2,2.7,0,5.3,0.5,7.9c0.6,3.8,1.1,7.6,1.6,11.4c-3.7-4.6-7.5-9.1-11.3-13.4h0.2c-0.8-0.9-1.6-1.8-2.4-2.6
		c1.9-5.3,3.2-10.8,3.7-16.5c0.3-2.1,0.2-4.3-0.1-6.4c-0.4-2.3-1.5-4.4-3.2-6c-0.6-0.6-1.3-1-2.1-1.1c-0.7,0.1-1.4,0.5-1.8,1.1
		c-2.4,3.1-2.4,8.1-1.8,12.8c0.6,4.5,0.8,8.2,2.1,12.8l0.3,0.3c-3.3-3.6-6.7-7-10.1-10.4c0.1,0-0.2-0.4-0.8-1l0,0
		c-0.4-6.5-1.2-14.2-1.9-20.7c-0.5-4.8-1.3-10.1-4.9-13C185.2,646.1,184.8,645.9,184.4,645.8z M189.9,677.7
		c-0.3-0.3-0.6-0.6-0.9-0.8C189.3,677.1,189.6,677.4,189.9,677.7z"/>
	<path class="st13" d="M175.2,745.6c-0.2,0.2-0.3,0.4-0.4,0.6c-0.2,1.5,0.3,3,1.3,4.2c1.1,1.2,2.3,2.2,3.6,3
		c1.9,1.3,3.9,2.7,5.8,4.1c-3-0.1-6.5-0.5-9.5-0.5c0,0,0,0-0.1,0h-0.4c0,0,0-0.1,0.1-0.1c-3.1-1-6.4-1.6-9.6-2
		c-1.4-0.2-2.9-0.2-4.3,0c-1.4,0.3-2.9,0.5-3.8,1.7c-0.4,0.4-0.6,1-0.6,1.5c0.1,0.5,0.4,1,0.8,1.3c2.2,1.8,5.5,1.8,8.7,1.5
		c2.4-0.2,6.1-1.8,9-2.8c0.1,0,0.2-0.1,0.2-0.1c3,0.1,6,0.2,9,0.4c-2.5,1-4.8,2.3-6.9,3.9c-1.4,0.9-2.4,2.2-3.1,3.7
		c-0.1,0.2-0.1,0.5,0,0.7c0.1,0.1,0.3,0.3,0.4,0.3c2.3,1,4.8-0.3,6.8-1.7c3-2,6-4.2,8.9-6.4c2.7,0.3,5.3,0.5,8,0.9l-3.5,2.2
		c-1.2,0.6-2.3,1.5-3.2,2.5c-0.9,1-1.1,2.4-0.6,3.7c0.1,0.2,0.3,0.4,0.5,0.6c0.2,0.1,0.5,0.2,0.7,0.2c2.6,0.2,4.7-1.5,6.5-3
		c1.8-1.7,3.4-3.5,4.8-5.4c3,0.5,6.1,1,9.2,1.5c-1.7,0.6-3.3,1.4-4.9,2.3c-1.3,0.7-2.4,1.8-3.2,3.1c-0.1,0.2-0.1,0.4-0.1,0.7
		c0.1,0.2,0.2,0.3,0.4,0.4c2.1,1.2,4.6,0.2,6.6-0.8c2.8-1.5,5.1-2.8,7.7-4.3c3.1,0.7,6.1,1.4,9.2,2.2l-3,1.5
		c-1.2,0.5-2.3,1.3-3.2,2.2c-0.9,1-1.2,2.4-0.9,3.7c0.1,0.3,0.2,0.5,0.4,0.7c0.2,0.1,0.4,0.2,0.7,0.3c2.5,0.5,4.6-1,6.4-2.4
		c1.7-1.4,3.2-3,4.6-4.7c2.9,0.8,5.8,1.6,8.7,2.5c-1.2,0.3-2.5,0.7-3.6,1.2c-0.8,0.3-1.6,0.7-2.2,1.3c-0.5,0.4-0.9,0.9-1.3,1.4
		c-0.1,0.2-0.2,0.4-0.1,0.7c0.1,0.2,0.2,0.3,0.4,0.4c2.1,1.6,4.7,1,6.8,0.2c2.6-0.9,4.7-1.8,7-2.7l0.5-0.2l1.2,0.4l-0.9-5.6
		c-1.5-2.5-3.1-5-4.6-7.2c-1.7-2.4-3.8-5-6.4-5.7c-0.2-0.1-0.5-0.1-0.7,0c-0.2,0.1-0.4,0.3-0.4,0.5c-0.4,1.5-0.2,3.1,0.7,4.4
		c0.9,1.4,1.9,2.7,3.1,3.9c2,2.2,4.2,4.3,6.5,6.2c-0.4,0-0.8,0-1.1,0c-3.9-1.3-7.7-2.5-11.6-3.6c-0.6-0.3-1.2-0.5-1.8-0.6
		c-1-3.3-2.3-6.5-4-9.4c-0.6-1.1-1.4-2.2-2.3-3.1c-0.9-1-2.2-1.6-3.5-1.9c-0.5-0.1-0.9,0-1.3,0.2c-0.3,0.3-0.5,0.7-0.4,1.2
		c0,2.4,1.7,4.8,3.6,7c1.6,2,3.4,3.8,5.3,5.5c-3.3-0.8-6.6-1.6-10-2.3h0.2c-2.4-2.9-5.1-6.3-7.7-9.1c-1.8-2-4-4.2-6.6-4.5
		c-0.2,0-0.5,0-0.7,0.1c-0.2,0.1-0.3,0.3-0.4,0.6c-0.3,1.5,0.1,3,1,4.1c1,1.2,2.1,2.3,3.3,3.3c1.7,1.5,3.4,2.9,5.1,4.4
		c-3.4-0.6-6.8-1.1-10.1-1.5l0.1-0.1l-2.1-0.2c-1.2-3.1-2.8-6-4.7-8.7c-0.7-1-1.6-2-2.6-2.8c-1.1-0.9-2.4-1.4-3.7-1.4
		c-0.5,0-1,0.1-1.4,0.3c-0.3,0.3-0.4,0.7-0.4,1.2c0.1,2.3,2.1,4.5,4.1,6.3c1.8,1.8,3.8,3.4,5.9,4.8h0.2c-2.8-0.3-5.6-0.5-8.4-0.7
		c0.1,0-0.3-0.1-0.7-0.1l0,0c-2.7-2.7-6-5.7-8.8-8.4c-2.1-1.9-4.5-3.9-7.2-3.8C175.7,745.4,175.4,745.5,175.2,745.6z M190,757.5
		c-0.3,0-0.5,0-0.7,0C189.5,757.5,189.8,757.5,190,757.5z"/>
	<path class="st13" d="M836.5,694.3c-7.6-4.9-33.3,49.4-39.9,78.1h9.7C822.6,742.2,844.3,700.3,836.5,694.3z"/>
	<path class="st13" d="M855.5,721.5c1.1-1.8,2.3-4,1.6-6c-1.3-3.5-6.9-2.6-10.1-0.3c-3.8,2.8-6.5,6.6-9.1,10.3
		c-10.6,15-21.3,30.3-28.5,47h11.3C833.1,756,844.7,739,855.5,721.5z"/>
	<path class="st13" d="M813.6,699.3c0.4-2.1,0.7-4.5-0.7-6.1c-2.5-2.8-7.5-0.1-9.7,3.1c-2.6,3.8-3.8,8.2-4.9,12.6
		c-5.7,20.9-10.2,42.1-13.3,63.6h9.6C802.3,748.5,808.7,724,813.6,699.3z"/>
	<path class="st13" d="M865.8,746c1.4-1.8,1.6-4.3,0.7-6.4c-4.6-9.8-26.9,12.7-42.8,32.9h17.5C850.7,764.1,859.3,755.4,865.8,746z"
		/>
	<path class="st13" d="M871.2,764.1c0.3-0.8,0.1-1.7-0.5-2.3c-0.5-0.3-1.1-0.4-1.7-0.3c-5.5,0.4-10.4,3.6-15,6.7
		c-2,1.4-4,2.8-6.1,4.2h17.3C868.1,770.2,870.4,767.5,871.2,764.1z"/>
	<path class="st13" d="M790.1,711.9c0.2-4.5,0.3-9-1-13.2c-1.2-3.6-5.2-7.2-8.5-5c-1.8,1.2-2.2,3.6-2.5,5.7
		c-2.5,24.3-3.6,48.7-3.4,73.1H785C789.5,746.4,789.3,732.2,790.1,711.9z"/>
	<path class="st13" d="M757.7,708.5c-2,1.2-3.3,3.3-3.4,5.6c-1,18.7,4.2,38.6,9.3,58.3h8.3C773.4,747.4,769.8,701.7,757.7,708.5z"/>
	<path class="st13" d="M750,738.6c-1.8-4.9-3.8-10.2-8.1-13.3c-0.4-0.4-1-0.6-1.6-0.6c-0.8,0.1-1.4,0.9-1.8,1.6
		c-2.4,5.1-0.3,10.8,1.8,15.8c4.3,10.2,8.6,20.3,13,30.4h6.7C758.1,760.9,754.1,749.6,750,738.6z"/>
</g>
<polygon class="st14" points="283.5,752.3 279,743.2 295.2,708.2 275.8,703.7 261.9,745.3 263.4,756.7 "/>
<path class="st15" d="M256.3,767.8l0.6,0.2c0,0,53.1,1.9,67.3,0.8c0.6,1.6,0.9,3.3,1.2,5h-30.5c-6.5-1.6-13.1-2.9-19.8-3.8v3.7
	c0,0-16.1,0-18,0c-1.1,0-0.7-5.7-0.7-5.7S256.3,767.8,256.3,767.8z"/>
<path class="st16" d="M260.2,745.2c0,0,10.2,5.6,17.2,3.3c2-0.6,3.7-1.9,4.7-3.7c1.1,0.7,6.6,5.2,10.9,8.7c2.1,1.7,4.4,3.1,6.9,4.2
	c1.7,0.7,3.4,1.3,5.2,1.7c6,1.3,14.2,3.3,16.2,5c1.3,1.2,2.2,2.7,2.7,4.3c-14.2,1.1-67.3-0.8-67.3-0.8l-0.6-0.2
	C253.4,763.5,255.9,754.9,260.2,745.2z"/>
<polygon class="st14" points="266.9,752.3 262.4,743.2 263.4,712.6 245.7,727.6 245.4,745.3 246.9,756.7 "/>
<path class="st17" d="M239.7,767.8l0.6,0.2c0,0,53.1,1.9,67.3,0.8c0.6,1.6,0.9,3.3,1.2,5h-30.5c-6.5-1.6-13.1-2.9-19.8-3.8v3.7
	c0,0-16.1,0-18,0c-1.1,0-0.7-5.7-0.7-5.7C239.8,767.9,239.8,767.8,239.7,767.8z"/>
<path class="st13" d="M243.7,745.2c0,0,10.2,5.6,17.3,3.3c2-0.6,3.7-1.9,4.7-3.7c1.1,0.7,6.6,5.2,10.9,8.7c2.1,1.7,4.4,3.1,6.9,4.2
	c1.7,0.7,3.4,1.3,5.2,1.7c6,1.3,14.2,3.3,16.2,5c1.3,1.2,2.2,2.7,2.7,4.3c-14.2,1.1-67.3-0.8-67.3-0.8l-0.6-0.2
	C236.9,763.5,239.3,754.9,243.7,745.2z"/>
<linearGradient id="SVGID_1_" gradientUnits="userSpaceOnUse" x1="923.0468" y1="348.2498" x2="898.4468" y2="754.2398" gradientTransform="matrix(-1 0 0 -1 1190.98 1081)">
	<stop  offset="1.000000e-02" style="stop-color:#5F67B0"/>
	<stop  offset="0.63" style="stop-color:#473D7C"/>
	<stop  offset="1" style="stop-color:#3B2862"/>
</linearGradient>
<path class="st18" d="M275.8,673c-1.7,21-3.2,39.3-4,50.3l-7.4-4.3C264.5,719,269.5,696.4,275.8,673z"/>
<path class="st17" d="M241.9,732.3h31.1l0.5-8.5l19.7,6.4l35.3-83.2c7.4-17.5,8.2-37.2,2.2-55.2l-24.8-74.2l-38.9,5.7h-25.5
	c0,1.8-2,51,2.7,98.8c0,0-5.1,25.4-5.7,40S241.9,732.3,241.9,732.3z M277.4,658.3l4.5-74.5l15.4,36.8
	C297.3,620.7,285.8,633.4,277.4,658.3L277.4,658.3z"/>
<path class="st19" d="M256.6,389.2c-1.1-6.9-3.3-15-3.2-15.3l21,5.4l0.9,6.1C269.3,387.3,263,388.6,256.6,389.2z"/>
<path class="st14" d="M273.8,410.3c-7.9,3.2-18.6-0.4-24.9-9.7c1.7-0.6,2.7-0.9,2.7-0.9c2.5-1.4,4.2-2.6,4.8-3.6
	c0.8-1.5,0.8-3.6,0.2-7.7c6.5-0.6,12.7-2.5,18.4-5.6l2,12.7l7.9,0.3C284.6,396.7,282.6,406.7,273.8,410.3z"/>
<path class="st20" d="M338.2,454.2c-7.2-19.8-18.9-31.2-25.4-43.8l-0.1-0.2c-4.1-7.8-12-13.1-20.8-13.9l-5.1-0.5
	c-2.8-0.3-5.1-0.5-6.1-0.6c-1,6.7-6.2,11.7-13.3,12.8c-6.8,1-13.4-2.4-16.6-8.4c-2,1.1-4.6,2.3-7.6,3.6c-1.7,0.8-3.5,1.6-5.5,2.4
	c-3.4,1.5-10,3-11.6,4.8l0,0c-0.1,0.1-0.2,0.2-0.3,0.3c-4.7,3.9-7.2,10.1-8.3,16.3c-2.3,13.9-7.2,34.9-8.1,55.9
	c-0.2,4.1,5.8-0.4,7.8,3.2c4.2,7.4,1.9,12.3,10,11.4l12-6.5c0.1,5.7,0.2,11.4,0.4,17.1c0.2,6.4,0.3,12.8,0.5,19.1
	c11.1,0.2,23.2-0.1,36.1-1.1c12.3-0.9,23.7-2.4,34.1-4.1c-0.3-7.8-0.6-15.8-0.8-23.9c-0.2-9.1-0.3-18-0.2-26.8l4.4,4
	c9.1,7,22.5,2.5,25.2-8.6c0-0.1,0-0.2,0.1-0.3C339.9,462.2,339.6,458,338.2,454.2z"/>
<path class="st14" d="M286,410.8c0.3-0.6,0.8-1.2,1.2-1.7c0.3-0.1,3,1.6,1.7,5.4s-9.4,14.2-9.4,14.2c-0.3,0.9,2.9,10.5,3.3,13.6
	s-2.3,5.6-2.3,5.9s-15.4,9.6-15.4,9.6l-8.5-2.8l-3.5-2.3l14.9-10.2l-1-8.4c-0.4-3.2,0.3-6.4,2-9.2l8.6-15.1c0.5-0.9,1.6-1.2,2.5-0.9
	l0,0c1,0.4,1.5,1.6,1.1,2.6l-0.2,0.4l1.2-2.2c0.4-0.8,1.4-1.2,2.3-0.9l0.3,0.1C285.6,409.2,286.1,409.9,286,410.8L286,410.8z"/>
<path class="st21" d="M215.8,473l46.8-29.9l15.5,26l-46.5,26.1c-5.9,4.6-14.5,3.6-19.2-2.4c-4.6-5.9-3.6-14.5,2.4-19.2
	C215.1,473.5,215.4,473.2,215.8,473z"/>
<path class="st17" d="M304.3,448.6l-19.5,1.4c-1.5,0.1-2.7-1-2.8-2.5c0-0.1,0-0.2,0-0.3l2.2-39.2c0.1-1.3,1.1-2.4,2.5-2.5l19.5-1.4
	c1.5-0.1,2.7,1,2.8,2.5c0,0.1,0,0.3,0,0.4l-2.2,39.2C306.7,447.5,305.6,448.6,304.3,448.6z"/>
<path class="st14" d="M294.7,416.6l12.3,5.8l-1-4.4l-8.5-3.3c-0.8-0.7-1-1.9-0.4-2.8l0,0c0.7-1,1.8-0.8,2.9-0.5
	c4.2,1.1,6.4,1,9.4,2.8c2.4,1.4,5.9,5.8,8.1,8.8c1.3,1.7,1.6,4,0.7,6l-3.3,7.8c-1.4,2.9-4.8,4.2-7.8,2.9l-13-4.2l-1.4-0.6h-0.1l0,0
	l-0.9-0.4c-0.9-0.4-1.5-1.3-1.5-2.3c0.1-1.2,1.1-2.1,2.3-2l9.8,2.1l-9.9-3.8c-1-0.3-1.7-1.2-1.6-2.3c0.1-1.2,1.2-2,2.4-1.8
	c0,0,0.1,0,0.1,0l11.5,2.9l-12.1-6.9c-1-0.5-1.4-1.7-0.8-2.7c0-0.1,0.1-0.1,0.1-0.2C292.6,416.4,293.8,416.1,294.7,416.6z"/>
<path class="st14" d="M318.6,426.2c0,0-1.4,16.2-3.7,17.8c-0.4,0.2-0.8,0.4-1.2,0.5c-3.2,0.8-6.6-1-7.6-4.2l-1.7-4.7L318.6,426.2z"
	/>
<path class="st17" d="M274.8,337.2c-1.5-3.3-3.1-4-4.2-4.2c-1-0.1-2,0-2.9,0.5c-0.8,0.4-1.8,0.2-2.4-0.5c-1.2-1.5-3.1-2.2-5-1.7
	c-0.9,0.3-1.6,0.8-2.2,1.6c-0.6,0.9-1.8,1.1-2.8,0.6c-1.4-0.8-3.2-0.9-4.7-0.4c-1.6,0.6-2.8,1.9-3.3,3.5c-0.3,1-1.4,1.7-2.4,1.5
	c-1.4-0.3-2.8,0.1-3.9,0.9c-1.2,0.9-1.9,2.4-1.9,3.9c0,0.8-0.5,1.5-1.2,1.8c-0.9,0.3-1.6,1-2,1.8c-0.6,1.1-0.5,2.5,0.2,3.6
	c0.4,0.6,0.3,1.4-0.1,2c-0.2,0.3-0.4,0.7-0.5,1.1c-0.2,1.4,0.4,2.7,1.5,3.5c0.7,0.5,0.9,1.4,0.5,2.2c-0.9,1.9-0.6,3.9,0.5,4.8
	c0.4,0.3,0.9,0.6,1.5,0.7c1.1,0.2,1.9,1,2.2,2.1c2.1,7.2,6.5,11.7,10.8,11.6c1.6-0.1,3-0.6,4.3-1.6l21.4-14.8
	C278.1,361.3,275.8,339.5,274.8,337.2z"/>
<path class="st14" d="M275.6,351.9c0,0,6.2,19,5.5,24.9s-8,9.2-16.9,7.7s-12.3-9.9-12.3-9.9l-5.7-12.2l2.2-17l24.4-1.3L275.6,351.9z
	"/>
<path class="st14" d="M248.9,367.2c0,0-4.6-2.5-7.2,1.5s7.4,12.6,11.4,5.8L248.9,367.2z"/>
<path class="st17" d="M247.8,366l1.5,3.2c0,0,3.6,0.2,3.1-2.8s-3.4-10.6-3.4-10.6c8.5-3.9,17.6-6.2,26.9-6.8l0.2-2.1l-4.8-5.6
	l-25.3,3.9l-2.3,13.7L247.8,366z"/>
<path class="st22" d="M231.9,462.3c0.1,0,0.3,0,0.4-0.1l27.5-17c0.3-0.2,0.4-0.6,0.2-1c0,0,0,0,0,0c-0.2-0.3-0.6-0.4-1-0.2l-27.4,17
	c-0.3,0.2-0.4,0.6-0.2,1C231.4,462.2,231.6,462.3,231.9,462.3L231.9,462.3z"/>
<path class="st22" d="M237.4,491.6c0.1,0,0.2,0,0.3-0.1l12.9-6.4c0.3-0.2,0.5-0.6,0.3-0.9s-0.6-0.5-0.9-0.3l-12.9,6.4
	c-0.3,0.2-0.5,0.6-0.3,0.9C236.9,491.5,237.2,491.6,237.4,491.6z"/>
<path class="st22" d="M234.2,457c0.3,0,0.6-0.2,0.7-0.6l3.1-18.6c0.1-0.4-0.2-0.7-0.6-0.8c0,0,0,0,0,0c-0.4-0.1-0.7,0.2-0.8,0.6
	c0,0,0,0,0,0l-3.1,18.6c-0.1,0.4,0.2,0.7,0.6,0.8L234.2,457z"/>
<path class="st22" d="M309.3,472.2h0.2c0.4-0.1,0.6-0.5,0.5-0.8c0,0,0,0,0,0l-1.9-7.5c-0.1-0.4-0.5-0.6-0.8-0.5s-0.6,0.5-0.5,0.8
	l0,0l1.9,7.5C308.7,472,308.9,472.2,309.3,472.2z"/>
<path class="st17" d="M385.4,311.2h173.1c18,0,32.5,14.6,32.5,32.5v399.1c0,18-14.6,32.5-32.5,32.5H385.4c-18,0-32.5-14.6-32.5-32.5
	V343.8C352.8,325.8,367.4,311.2,385.4,311.2z"/>
<path class="st0" d="M384.9,317h174c14.7,0,26.7,12,26.7,26.7v398.4c0,14.7-12,26.7-26.7,26.7h-174c-14.7,0-26.7-12-26.7-26.7V343.7
	C358.2,329,370.1,317,384.9,317z"/>
<path class="st23" d="M389.9,483h165.2c5.5,0,10,4.5,10,10v52.4c0,5.5-4.5,10-10,10H389.9c-5.5,0-10-4.5-10-10V493
	C379.9,487.5,384.4,483,389.9,483z"/>
<path class="st23" d="M389.9,571h165.2c5.5,0,10,4.5,10,10v52.4c0,5.5-4.5,10-10,10H389.9c-5.5,0-10-4.5-10-10V581
	C379.9,575.5,384.4,571,389.9,571z"/>
<path class="st23" d="M386.2,396.3h172.7c3.5,0,6.3,2.8,6.3,6.3v0.8c0,3.5-2.8,6.3-6.3,6.3H386.2c-3.5,0-6.3-2.8-6.3-6.3v-0.8
	C379.9,399.1,382.7,396.3,386.2,396.3z"/>
<path class="st23" d="M386.2,425.2h172.7c3.5,0,6.3,2.8,6.3,6.3v0.8c0,3.5-2.8,6.3-6.3,6.3H386.2c-3.5,0-6.3-2.8-6.3-6.3v-0.8
	C379.9,428,382.7,425.2,386.2,425.2z"/>
<path class="st23" d="M386.2,454.1h172.7c3.5,0,6.3,2.8,6.3,6.3v0.8c0,3.5-2.8,6.3-6.3,6.3H386.2c-3.5,0-6.3-2.8-6.3-6.3v-0.8
	C379.9,456.9,382.7,454.1,386.2,454.1z"/>
<path class="st23" d="M386.2,659h172.7c3.5,0,6.3,2.8,6.3,6.3v0.8c0,3.5-2.8,6.3-6.3,6.3H386.2c-3.5,0-6.3-2.8-6.3-6.3v-0.8
	C379.9,661.8,382.7,659,386.2,659z"/>
<circle class="st23" cx="407.4" cy="364.5" r="16.9"/>
<path class="st23" d="M445.7,358.2h106.9c3.2,0,5.9,2.6,5.9,5.9v0.7c0,3.2-2.6,5.9-5.9,5.9H445.7c-3.2,0-5.9-2.6-5.9-5.9v-0.7
	C439.9,360.9,442.5,358.2,445.7,358.2z"/>
<path class="st24" d="M372.7,425.4h160.7c14.5,0,26.2,11.7,26.2,26.2v3.2c0,14.5-11.7,26.2-26.2,26.2H372.7
	c-14.5,0-26.2-11.7-26.2-26.2v-3.2C346.5,437.1,358.2,425.4,372.7,425.4z"/>
<circle class="st0" cx="376.3" cy="453.2" r="19.2"/>
<path class="st24" d="M385.3,451.6c0.9,0.5,1.2,1.6,0.7,2.5c-0.2,0.3-0.4,0.5-0.7,0.7l-6.2,3.6l-6.1,3.6c-0.9,0.5-2,0.2-2.5-0.7
	c-0.2-0.3-0.2-0.6-0.2-0.9V446c0-1,0.8-1.8,1.8-1.8c0.3,0,0.6,0.1,0.9,0.2l6.2,3.6L385.3,451.6z"/>
<path class="st0" d="M405.7,443.5h0.2c0.7,0,1.2,0.5,1.2,1.2v16.6c0,0.7-0.5,1.2-1.2,1.2h-0.2c-0.7,0-1.2-0.5-1.2-1.2v-16.6
	C404.5,444,405,443.5,405.7,443.5z"/>
<path class="st0" d="M464.9,443.5h0.2c0.7,0,1.2,0.5,1.2,1.2v16.6c0,0.7-0.5,1.2-1.2,1.2h-0.2c-0.7,0-1.2-0.5-1.2-1.2v-16.6
	C463.7,444,464.2,443.5,464.9,443.5z"/>
<path class="st0" d="M524.1,443.5h0.1c0.7,0,1.2,0.5,1.2,1.2v16.6c0,0.7-0.5,1.2-1.2,1.2h-0.1c-0.7,0-1.2-0.5-1.2-1.2v-16.6
	C522.8,444,523.4,443.5,524.1,443.5z"/>
<path class="st0" d="M413.1,439.9h0.2c0.7,0,1.2,0.5,1.2,1.2v23.8c0,0.7-0.5,1.2-1.2,1.2h-0.2c-0.7,0-1.2-0.5-1.2-1.2v-23.8
	C411.9,440.4,412.4,439.9,413.1,439.9z"/>
<path class="st0" d="M450.1,439.9h0.2c0.7,0,1.2,0.5,1.2,1.2v23.8c0,0.7-0.5,1.2-1.2,1.2h-0.2c-0.7,0-1.2-0.5-1.2-1.2v-23.8
	C448.9,440.4,449.4,439.9,450.1,439.9z"/>
<path class="st0" d="M420.5,446h0.2c0.7,0,1.2,0.5,1.2,1.2v11.6c0,0.7-0.5,1.2-1.2,1.2h-0.2c-0.7,0-1.2-0.5-1.2-1.2v-11.6
	C419.3,446.5,419.8,446,420.5,446z"/>
<path class="st0" d="M501.9,446h0.2c0.7,0,1.2,0.5,1.2,1.2v11.6c0,0.7-0.5,1.2-1.2,1.2h-0.2c-0.7,0-1.2-0.5-1.2-1.2v-11.6
	C500.6,446.5,501.2,446,501.9,446z"/>
<path class="st0" d="M457.5,446h0.2c0.7,0,1.2,0.5,1.2,1.2v11.6c0,0.7-0.5,1.2-1.2,1.2h-0.2c-0.7,0-1.2-0.5-1.2-1.2v-11.6
	C456.3,446.5,456.8,446,457.5,446z"/>
<path class="st0" d="M487.1,446h0.2c0.7,0,1.2,0.5,1.2,1.2v11.6c0,0.7-0.5,1.2-1.2,1.2h-0.2c-0.7,0-1.2-0.5-1.2-1.2v-11.6
	C485.9,446.5,486.4,446,487.1,446z"/>
<path class="st0" d="M509.3,446h0.2c0.7,0,1.2,0.5,1.2,1.2v11.6c0,0.7-0.5,1.2-1.2,1.2h-0.2c-0.7,0-1.2-0.5-1.2-1.2v-11.6
	C508,446.5,508.6,446,509.3,446z"/>
<path class="st0" d="M427.9,442.1h0.2c0.7,0,1.2,0.5,1.2,1.2v19.4c0,0.7-0.5,1.2-1.2,1.2h-0.2c-0.7,0-1.2-0.5-1.2-1.2v-19.4
	C426.7,442.7,427.2,442.1,427.9,442.1z"/>
<path class="st0" d="M472.3,442.1h0.2c0.7,0,1.2,0.5,1.2,1.2v19.4c0,0.7-0.5,1.2-1.2,1.2h-0.2c-0.7,0-1.2-0.5-1.2-1.2v-19.4
	C471,442.7,471.6,442.1,472.3,442.1z"/>
<path class="st0" d="M516.7,442.1h0.1c0.7,0,1.2,0.5,1.2,1.2v19.4c0,0.7-0.5,1.2-1.2,1.2h-0.1c-0.7,0-1.2-0.5-1.2-1.2v-19.4
	C515.5,442.7,516,442.1,516.7,442.1z"/>
<path class="st0" d="M442.7,444.4h0.2c0.7,0,1.2,0.5,1.2,1.2v14.7c0,0.7-0.5,1.2-1.2,1.2h-0.2c-0.7,0-1.2-0.5-1.2-1.2v-14.7
	C441.5,445,442,444.4,442.7,444.4z"/>
<path class="st0" d="M531.5,444.4h0.1c0.7,0,1.2,0.5,1.2,1.2v14.7c0,0.7-0.5,1.2-1.2,1.2h-0.1c-0.7,0-1.2-0.5-1.2-1.2v-14.7
	C530.2,445,530.8,444.4,531.5,444.4z"/>
<path class="st0" d="M479.7,444.4h0.2c0.7,0,1.2,0.5,1.2,1.2v14.7c0,0.7-0.5,1.2-1.2,1.2h-0.2c-0.7,0-1.2-0.5-1.2-1.2v-14.7
	C478.5,445,479,444.4,479.7,444.4z"/>
<path class="st0" d="M435.3,433.2h0.2c0.7,0,1.2,0.5,1.2,1.2v37.2c0,0.7-0.5,1.2-1.2,1.2h-0.2c-0.7,0-1.2-0.5-1.2-1.2v-37.2
	C434.1,433.7,434.6,433.2,435.3,433.2z"/>
<path class="st0" d="M494.5,433.2h0.2c0.7,0,1.2,0.5,1.2,1.2v37.2c0,0.7-0.5,1.2-1.2,1.2h-0.2c-0.7,0-1.2-0.5-1.2-1.2v-37.2
	C493.2,433.7,493.8,433.2,494.5,433.2z"/>
<path class="st13" d="M423,521.4h160.7c14.5,0,26.2,11.7,26.2,26.2v3.2c0,14.5-11.7,26.2-26.2,26.2H423c-14.5,0-26.2-11.7-26.2-26.2
	v-3.2C396.9,533.1,408.6,521.4,423,521.4z"/>
<circle class="st0" cx="426.7" cy="549.2" r="19.2"/>
<path class="st13" d="M435.6,547.6c0.9,0.5,1.2,1.6,0.7,2.4c-0.2,0.3-0.4,0.5-0.7,0.7l-6.2,3.6l-6.2,3.6c-0.9,0.5-2,0.2-2.5-0.7
	c-0.2-0.3-0.2-0.6-0.2-0.9v-14.2c0-1,0.8-1.8,1.8-1.8c0.3,0,0.6,0.1,0.9,0.2l6.2,3.6L435.6,547.6z"/>
<path class="st0" d="M582,558.6h-0.1c-0.7,0-1.2-0.5-1.2-1.2v-16.6c0-0.7,0.5-1.2,1.2-1.2h0.1c0.7,0,1.2,0.5,1.2,1.2v16.6
	C583.2,558,582.6,558.6,582,558.6z"/>
<path class="st0" d="M522.8,558.6h-0.1c-0.7,0-1.2-0.5-1.2-1.2v-16.6c0-0.7,0.5-1.2,1.2-1.2h0.1c0.7,0,1.2,0.5,1.2,1.2v16.6
	C524,558,523.4,558.6,522.8,558.6z"/>
<path class="st0" d="M463.6,558.6h-0.2c-0.7,0-1.2-0.5-1.2-1.2v-16.6c0-0.7,0.5-1.2,1.2-1.2h0.2c0.7,0,1.2,0.5,1.2,1.2v16.6
	C464.8,558,464.2,558.6,463.6,558.6z"/>
<path class="st0" d="M574.6,562.2h-0.1c-0.7,0-1.2-0.5-1.2-1.2v-23.8c0-0.7,0.5-1.2,1.2-1.2h0.1c0.7,0,1.2,0.5,1.2,1.2v23.8
	C575.8,561.6,575.2,562.2,574.6,562.2z"/>
<path class="st0" d="M537.6,562.2h-0.1c-0.7,0-1.2-0.5-1.2-1.2v-23.8c0-0.7,0.5-1.2,1.2-1.2h0.1c0.7,0,1.2,0.5,1.2,1.2v23.8
	C538.8,561.6,538.2,562.2,537.6,562.2z"/>
<path class="st0" d="M567.2,556.1H567c-0.7,0-1.2-0.5-1.2-1.2v-11.6c0-0.7,0.5-1.2,1.2-1.2h0.1c0.7,0,1.2,0.5,1.2,1.2v11.6
	C568.4,555.5,567.8,556.1,567.2,556.1z"/>
<path class="st0" d="M485.8,556.1h-0.2c-0.7,0-1.2-0.5-1.2-1.2v-11.6c0-0.7,0.5-1.2,1.2-1.2h0.2c0.7,0,1.2,0.5,1.2,1.2v11.6
	C487,555.5,486.4,556.1,485.8,556.1z"/>
<path class="st0" d="M530.2,556.1H530c-0.7,0-1.2-0.5-1.2-1.2v-11.6c0-0.7,0.5-1.2,1.2-1.2h0.1c0.7,0,1.2,0.5,1.2,1.2v11.6
	C531.4,555.5,530.8,556.1,530.2,556.1z"/>
<path class="st0" d="M500.6,556.1h-0.2c-0.7,0-1.2-0.5-1.2-1.2v-11.6c0-0.7,0.5-1.2,1.2-1.2h0.2c0.7,0,1.2,0.5,1.2,1.2v11.6
	C501.8,555.5,501.2,556.1,500.6,556.1z"/>
<path class="st0" d="M478.4,556.1h-0.2c-0.7,0-1.2-0.5-1.2-1.2v-11.6c0-0.7,0.5-1.2,1.2-1.2h0.2c0.7,0,1.2,0.5,1.2,1.2v11.6
	C479.6,555.5,479,556.1,478.4,556.1z"/>
<path class="st0" d="M559.8,559.9h-0.1c-0.7,0-1.2-0.5-1.2-1.2v-19.4c0-0.7,0.5-1.2,1.2-1.2h0.1c0.7,0,1.2,0.5,1.2,1.2v19.4
	C561,559.4,560.4,559.9,559.8,559.9z"/>
<path class="st0" d="M515.4,559.9h-0.1c-0.7,0-1.2-0.5-1.2-1.2v-19.4c0-0.7,0.5-1.2,1.2-1.2h0.1c0.7,0,1.2,0.5,1.2,1.2v19.4
	C516.6,559.4,516,559.9,515.4,559.9z"/>
<path class="st0" d="M471,559.9h-0.2c-0.7,0-1.2-0.5-1.2-1.2v-19.4c0-0.7,0.5-1.2,1.2-1.2h0.2c0.7,0,1.2,0.5,1.2,1.2v19.4
	C472.2,559.4,471.6,559.9,471,559.9z"/>
<path class="st0" d="M545,557.6h-0.1c-0.7,0-1.2-0.5-1.2-1.2v-14.7c0-0.7,0.5-1.2,1.2-1.2h0.1c0.7,0,1.2,0.5,1.2,1.2v14.7
	C546.2,557.1,545.6,557.6,545,557.6z"/>
<path class="st0" d="M456.2,557.6H456c-0.7,0-1.2-0.5-1.2-1.2v-14.7c0-0.7,0.5-1.2,1.2-1.2h0.2c0.7,0,1.2,0.5,1.2,1.2v14.7
	C457.4,557.1,456.8,557.6,456.2,557.6z"/>
<path class="st0" d="M508,557.6h-0.2c-0.7,0-1.2-0.5-1.2-1.2v-14.7c0-0.7,0.5-1.2,1.2-1.2h0.2c0.7,0,1.2,0.5,1.2,1.2v14.7
	C509.2,557.1,508.6,557.6,508,557.6z"/>
<path class="st0" d="M552.4,568.8h-0.1c-0.7,0-1.2-0.5-1.2-1.2v-37.2c0-0.7,0.5-1.2,1.2-1.2h0.1c0.7,0,1.2,0.5,1.2,1.2v37.2
	C553.6,568.3,553,568.8,552.4,568.8z"/>
<path class="st0" d="M493.2,568.8H493c-0.7,0-1.2-0.5-1.2-1.2v-37.2c0-0.7,0.5-1.2,1.2-1.2h0.2c0.7,0,1.2,0.5,1.2,1.2v37.2
	C494.4,568.3,493.8,568.8,493.2,568.8z"/>
<circle class="st13" cx="540.4" cy="720.5" r="24.9"/>
<path class="st0" d="M540,702.7h0.7c3.3,0,6,2.7,6,6v13.2c0,3.3-2.7,6-6,6H540c-3.3,0-6-2.7-6-6v-13.2
	C534,705.4,536.7,702.7,540,702.7z"/>
<path class="st0" d="M540.4,732.4c-5.9,0-10.8-4.3-11.7-10.1c-0.1-0.6,0.3-1.1,0.9-1.2s1.1,0.3,1.2,0.9c0.7,5.3,5.7,9,11,8.3
	c4.3-0.6,7.7-4,8.3-8.3c0.1-0.6,0.6-1,1.2-0.9s1,0.6,0.9,1.2c-0.9,5.7-5.6,9.9-11.3,10.1L540.4,732.4z"/>
<path class="st0" d="M540.4,737.1c-0.6,0-1-0.4-1-0.9c0,0,0-0.1,0-0.1v-4.7c0-0.6,0.5-1,1-1s1,0.5,1,1v4.7c0,0.6-0.4,1-0.9,1
	C540.4,737.1,540.4,737.1,540.4,737.1z"/>
<path class="st0" d="M546.6,738.4h-12.5c0-1.3,1-2.3,2.3-2.3l0,0h7.8C545.6,736.1,546.6,737.1,546.6,738.4L546.6,738.4z"/>
<path class="st23" d="M401.1,699.9h88.8c11.7,0,21.1,9.5,21.1,21.1v2.6c0,11.7-9.5,21.1-21.1,21.1h-88.8c-11.7,0-21.1-9.5-21.1-21.1
	v-2.6C379.9,709.4,389.4,699.9,401.1,699.9z"/>
<path class="st24" d="M382.9,623.7h160.7c14.5,0,26.2,11.7,26.2,26.2v3.2c0,14.5-11.7,26.2-26.2,26.2H382.9
	c-14.5,0-26.2-11.7-26.2-26.2v-3.2C356.8,635.4,368.5,623.7,382.9,623.7z"/>
<circle class="st0" cx="386.6" cy="651.5" r="19.2"/>
<path class="st0" d="M415.9,641.8h0.2c0.7,0,1.2,0.5,1.2,1.2v16.6c0,0.7-0.5,1.2-1.2,1.2h-0.2c-0.7,0-1.2-0.5-1.2-1.2V643
	C414.7,642.3,415.3,641.8,415.9,641.8z"/>
<path class="st0" d="M475.1,641.8h0.2c0.7,0,1.2,0.5,1.2,1.2v16.6c0,0.7-0.5,1.2-1.2,1.2h-0.2c-0.7,0-1.2-0.5-1.2-1.2V643
	C473.9,642.3,474.5,641.8,475.1,641.8z"/>
<path class="st0" d="M534.3,641.8h0.1c0.7,0,1.2,0.5,1.2,1.2v16.6c0,0.7-0.5,1.2-1.2,1.2h-0.1c-0.7,0-1.2-0.5-1.2-1.2V643
	C533.1,642.3,533.6,641.8,534.3,641.8z"/>
<path class="st0" d="M423.3,638.2h0.2c0.7,0,1.2,0.5,1.2,1.2v23.8c0,0.7-0.5,1.2-1.2,1.2h-0.2c-0.7,0-1.2-0.5-1.2-1.2v-23.8
	C422.1,638.7,422.7,638.2,423.3,638.2z"/>
<path class="st0" d="M460.3,638.2h0.2c0.7,0,1.2,0.5,1.2,1.2v23.8c0,0.7-0.5,1.2-1.2,1.2h-0.2c-0.7,0-1.2-0.5-1.2-1.2v-23.8
	C459.1,638.7,459.7,638.2,460.3,638.2z"/>
<path class="st0" d="M430.7,644.3h0.2c0.7,0,1.2,0.5,1.2,1.2v11.6c0,0.7-0.5,1.2-1.2,1.2h-0.2c-0.7,0-1.2-0.5-1.2-1.2v-11.6
	C429.5,644.8,430.1,644.3,430.7,644.3z"/>
<path class="st0" d="M512.1,644.3h0.1c0.7,0,1.2,0.5,1.2,1.2v11.6c0,0.7-0.5,1.2-1.2,1.2h-0.1c-0.7,0-1.2-0.5-1.2-1.2v-11.6
	C510.9,644.8,511.5,644.3,512.1,644.3z"/>
<path class="st0" d="M467.7,644.3h0.2c0.7,0,1.2,0.5,1.2,1.2v11.6c0,0.7-0.5,1.2-1.2,1.2h-0.2c-0.7,0-1.2-0.5-1.2-1.2v-11.6
	C466.5,644.8,467.1,644.3,467.7,644.3z"/>
<path class="st0" d="M497.3,644.3h0.2c0.7,0,1.2,0.5,1.2,1.2v11.6c0,0.7-0.5,1.2-1.2,1.2h-0.2c-0.7,0-1.2-0.5-1.2-1.2v-11.6
	C496.1,644.8,496.7,644.3,497.3,644.3z"/>
<path class="st0" d="M519.5,644.3h0.1c0.7,0,1.2,0.5,1.2,1.2v11.6c0,0.7-0.5,1.2-1.2,1.2h-0.1c-0.7,0-1.2-0.5-1.2-1.2v-11.6
	C518.3,644.8,518.9,644.3,519.5,644.3z"/>
<path class="st0" d="M438.1,640.4h0.2c0.7,0,1.2,0.5,1.2,1.2V661c0,0.7-0.5,1.2-1.2,1.2h-0.2c-0.7,0-1.2-0.5-1.2-1.2v-19.4
	C436.9,641,437.5,640.4,438.1,640.4z"/>
<path class="st0" d="M482.5,640.4h0.2c0.7,0,1.2,0.5,1.2,1.2V661c0,0.7-0.5,1.2-1.2,1.2h-0.2c-0.7,0-1.2-0.5-1.2-1.2v-19.4
	C481.3,641,481.9,640.4,482.5,640.4z"/>
<path class="st0" d="M526.9,640.4h0.1c0.7,0,1.2,0.5,1.2,1.2V661c0,0.7-0.5,1.2-1.2,1.2h-0.1c-0.7,0-1.2-0.5-1.2-1.2v-19.4
	C525.7,641,526.3,640.4,526.9,640.4z"/>
<path class="st0" d="M452.9,642.7h0.2c0.7,0,1.2,0.5,1.2,1.2v14.7c0,0.7-0.5,1.2-1.2,1.2h-0.2c-0.7,0-1.2-0.5-1.2-1.2V644
	C451.7,643.3,452.3,642.7,452.9,642.7z"/>
<path class="st0" d="M541.7,642.7h0.1c0.7,0,1.2,0.5,1.2,1.2v14.7c0,0.7-0.5,1.2-1.2,1.2h-0.1c-0.7,0-1.2-0.5-1.2-1.2V644
	C540.5,643.3,541,642.7,541.7,642.7z"/>
<path class="st0" d="M489.9,642.7h0.2c0.7,0,1.2,0.5,1.2,1.2v14.7c0,0.7-0.5,1.2-1.2,1.2h-0.2c-0.7,0-1.2-0.5-1.2-1.2V644
	C488.7,643.3,489.3,642.7,489.9,642.7z"/>
<path class="st0" d="M445.5,631.5h0.2c0.7,0,1.2,0.5,1.2,1.2v37.2c0,0.7-0.5,1.2-1.2,1.2h-0.2c-0.7,0-1.2-0.5-1.2-1.2v-37.2
	C444.3,632,444.9,631.5,445.5,631.5z"/>
<path class="st0" d="M504.7,631.5h0.2c0.7,0,1.2,0.5,1.2,1.2v37.2c0,0.7-0.5,1.2-1.2,1.2h-0.2c-0.7,0-1.2-0.5-1.2-1.2v-37.2
	C503.5,632,504.1,631.5,504.7,631.5z"/>
<path class="st0" d="M415.9,641.8h0.2c0.7,0,1.2,0.5,1.2,1.2v16.6c0,0.7-0.5,1.2-1.2,1.2h-0.2c-0.7,0-1.2-0.5-1.2-1.2V643
	C414.7,642.3,415.3,641.8,415.9,641.8z"/>
<path class="st0" d="M423.3,638.2h0.2c0.7,0,1.2,0.5,1.2,1.2v23.8c0,0.7-0.5,1.2-1.2,1.2h-0.2c-0.7,0-1.2-0.5-1.2-1.2v-23.8
	C422.1,638.7,422.7,638.2,423.3,638.2z"/>
<path class="st0" d="M460.3,638.2h0.2c0.7,0,1.2,0.5,1.2,1.2v23.8c0,0.7-0.5,1.2-1.2,1.2h-0.2c-0.7,0-1.2-0.5-1.2-1.2v-23.8
	C459.1,638.7,459.7,638.2,460.3,638.2z"/>
<path class="st0" d="M430.7,644.3h0.2c0.7,0,1.2,0.5,1.2,1.2v11.6c0,0.7-0.5,1.2-1.2,1.2h-0.2c-0.7,0-1.2-0.5-1.2-1.2v-11.6
	C429.5,644.8,430.1,644.3,430.7,644.3z"/>
<path class="st0" d="M467.7,644.3h0.2c0.7,0,1.2,0.5,1.2,1.2v11.6c0,0.7-0.5,1.2-1.2,1.2h-0.2c-0.7,0-1.2-0.5-1.2-1.2v-11.6
	C466.5,644.8,467.1,644.3,467.7,644.3z"/>
<path class="st0" d="M438.1,640.4h0.2c0.7,0,1.2,0.5,1.2,1.2V661c0,0.7-0.5,1.2-1.2,1.2h-0.2c-0.7,0-1.2-0.5-1.2-1.2v-19.4
	C436.9,641,437.5,640.4,438.1,640.4z"/>
<path class="st0" d="M452.9,642.7h0.2c0.7,0,1.2,0.5,1.2,1.2v14.7c0,0.7-0.5,1.2-1.2,1.2h-0.2c-0.7,0-1.2-0.5-1.2-1.2V644
	C451.7,643.3,452.3,642.7,452.9,642.7z"/>
<path class="st0" d="M445.5,631.5h0.2c0.7,0,1.2,0.5,1.2,1.2v37.2c0,0.7-0.5,1.2-1.2,1.2h-0.2c-0.7,0-1.2-0.5-1.2-1.2v-37.2
	C444.3,632,444.9,631.5,445.5,631.5z"/>
<path class="st24" d="M381.9,660.4c-1,0-1.9-0.8-1.9-1.9l0,0v-14.1c0-1,0.8-1.9,1.9-1.9c1,0,1.9,0.8,1.9,1.9v14.1
	C383.8,659.6,383,660.4,381.9,660.4z"/>
<path class="st24" d="M391.3,660.4c-1,0-1.9-0.8-1.9-1.9l0,0v-14.1c0-1,0.8-1.9,1.9-1.9c1,0,1.9,0.8,1.9,1.9v14.1
	C393.2,659.6,392.3,660.4,391.3,660.4C391.3,660.4,391.3,660.4,391.3,660.4z"/>
<g id="man_2">
	<path class="st25" d="M728.8,716.6c0-18.5-24,2.4-24,2.4s1.2,6.3,1.8,13.1c0.8,7.4-0.7,15.5-3.2,16.9c-26.8,14.8,20.8,10,20.8,10
		l6.5-7.7C730.8,751.2,728.8,741.9,728.8,716.6z"/>
	<path class="st26" d="M666.8,764.3c-0.3,3.4,1.2,9.5,1.2,9.5c22.2,3.2,64.5,0.5,64.5,0.5s0.3-1,1.7-8.4l0,0
		C682.2,770.2,666.8,764.3,666.8,764.3z"/>
	<path class="st0" d="M702,753.9l4.6,1.7c1.1,1.4,2.6,2.3,4.3,2.8c1.6,0.4,2.7,1.8,2.8,3.4l-14.2,2l-5.5-2.7L702,753.9z"/>
	<path class="st17" d="M666.8,764.3c0,0,15.4,5.9,67.4,1.6c1-4.9-1.5-10.8-3.4-14.8c-9.9,5.4-16.1,7-19.9,7.3
		c-4.8,1.6-11.2,3.7-11.5,3.2c-0.6-0.7,7.7-6.2,7.7-6.2c0.5-0.5,0.6-1.3,0.1-1.8c-1.7-2-4.9-5.7-4.9-5.7c-0.9,0.7-1.7,1.2-1.7,1.2
		C697.2,751,666.8,764.3,666.8,764.3z"/>
	<path class="st25" d="M648,716.6c4.3-18-24,2.4-24,2.4l0,0c0.8,7.4-7.8,28.6-10.3,30c-26.8,14.8,20.8,10,20.8,10l6.5-7.7
		C641,751.2,642.5,739.8,648,716.6z"/>
	<path class="st26" d="M577.1,764.3c-0.3,3.4,1.2,9.5,1.2,9.5c22.2,3.2,64.4,0.5,64.4,0.5s0.3-1,1.8-8.4l0,0
		C592.5,770.2,577.1,764.3,577.1,764.3z"/>
	<path class="st0" d="M612.3,753.9l4.6,1.7c1.1,1.4,2.6,2.3,4.2,2.8c1.6,0.4,2.7,1.8,2.8,3.4l-14.2,2l-5.6-2.7L612.3,753.9z"/>
	<path class="st17" d="M577.1,764.3c0,0,15.4,5.9,67.4,1.6c1-4.9-1.5-10.8-3.4-14.8c-9.9,5.4-16.1,7-19.9,7.3
		c-4.8,1.6-11.2,3.7-11.5,3.2c-0.6-0.7,7.7-6.2,7.7-6.2c0.5-0.5,0.6-1.3,0.1-1.8c-1.8-2-4.9-5.7-4.9-5.7c-0.9,0.7-1.6,1.2-1.6,1.2
		C607.5,751,577.1,764.3,577.1,764.3z"/>
	<path class="st17" d="M730,621.2c-1.4-70.7-9.5-103.7-14.4-117.3h0.1c-2.2-6.1-3.7-8.3-3.7-8.3l-7.2-11.8l-2.9,5.1l-8-3.1
		l-26.7-10.4l-14.3,22.1l-1.8,9.1c9.9,0.8,9.8,0.8-0.1,0c-4.5,23.5-16.5,86.1-20.9,110.7c-3.8,21.8-9.3,68.1-12.2,93.1
		c-1.2,10.2-1.9,16.8-1.9,16.8l14.4-0.5L650,726c0,0,2.4-6,5.5-16.9c7-25.7,11.2-52.2,12.5-78.8c0.1-2.4,8-46.5,12.5-71
		c0.2-1.3,0.5-2.6,0.7-3.9c7,43.1,13.9,118.7,16.8,152.3c0.9,10.5,1.4,16.9,1.4,16.9l18.1-0.6l15.9-0.5c0.9-5.4,1-11.2,1.9-17
		C742.5,661.6,730,621.2,730,621.2z"/>
	<path class="st17" d="M717.7,350.5l-0.2,14.2c0,0-7.6,17.2-11.8,14.7c-3.5-2,8.1-20.1,8.1-20.1L717.7,350.5z"/>
	<path class="st27" d="M702.1,389.2c1-6.5,3.1-14.2,3-14.5l-19.9,5.1l-0.8,5.8C690.2,387.5,696.1,388.7,702.1,389.2z"/>
	<path class="st25" d="M684.6,350.1c0,0-6.8,19.9-6.2,26.1s8.2,9.8,17.7,8.4s13.1-10.2,13.1-10.2l6.2-12.7l-2.1-17.9l-25.6-1.8
		L684.6,350.1z"/>
	<path class="st25" d="M712.4,366.7c0,0,4.9-2.6,7.5,1.7s-8,13.2-12.1,5.9L712.4,366.7z"/>
	<path class="st17" d="M711.7,348.6c0,0-19.7-7.6-19.2-0.5c0.3,4.5,8.7,5.2,14.6,5.1c2.8-0.1,5.1,2.1,5.2,4.8c0,0.7-0.1,1.4-0.3,2
		v0.1c-1.3,3-3.5,6.1-2.7,7.5c0.3,0.7,2,1.2,2.5,0.7l7.1-8.5L711.7,348.6z"/>
	<path class="st17" d="M694.2,347.2c0,0-8.1-0.9-10.8-3.5c-3.7-3.5-1.7-12.5,2-13.9c1.7-0.6,3.4,0.3,4.8,1.5
		c2.2,1.9,5.1,2.9,8.1,2.7c6.8-0.4,18.3,0,19.2,7.5c0,0,0.2,1,0.9,1.2c0,0,7.8,1.7,6.9,7.1s-7.7,14.8-7.7,14.8l-2.8-7.7l-2.1-5.9
		L694.2,347.2z"/>
	<path class="st25" d="M685.9,409.3c7.5,3,17.6-0.4,23.7-9.2l-2.6-0.8c-2.3-1.3-4-2.4-4.5-3.5c-0.8-1.4-0.8-3.4-0.2-7.3
		c-6.1-0.5-12.1-2.3-17.5-5.3l-1.8,12.1l-7.5,0.3C675.6,396.4,677.5,405.9,685.9,409.3z"/>
	<path class="st13" d="M746.7,478.1c-0.8-19.9-9.4-39.8-11.6-53c-1-5.8-3.4-11.8-7.8-15.5l-0.3-0.3l0,0c-2-1.9-4.4-3.5-7-4.5
		l-5.2-2.3c-2.8-1.3-5.2-2.4-7.2-3.4c-3,5.8-9.3,9-15.7,8c-6.7-1-11.6-5.8-12.6-12.1c-1.5,0.2-6.3,0.7-10.6,1.1
		c-8.4,0.7-15.8,5.7-19.8,13.2l-0.1,0.2c-6.1,11.9-17.2,22.8-24,41.5c-1.4,3.7-1.7,7.6-0.9,11.5c0,0.1,0,0.2,0.1,0.3
		c2.5,10.6,15.3,14.8,23.9,8.2l4-3.1c-1.3,13-3.7,35.1-3.6,38.4c0,1.1,0.7,2.1,1.7,2.7c15.2,8.2,67.7,6.5,68.7,4.1
		c0.4-0.9-4.4-19.2-7.3-29.4l18.4,8.4c7.7,0.8,5.5-3.8,9.5-10.8C741.2,477.7,746.9,481.9,746.7,478.1z M713.5,461.3l0.7-2
		c0.5-0.7,0.9-1.5,1.2-2.4l0.3,4.6L713.5,461.3z"/>
	<path class="st25" d="M674.3,409.7c-0.3-0.6-0.7-1.1-1.2-1.6c-0.3-0.1-2.9,1.5-1.6,5.1s8.9,13.4,8.9,13.4c0.3,0.9-2.7,9.9-3.1,12.9
		s2.2,5.4,2.2,5.6s14.6,9.1,14.6,9.1l8.1-2.7l3.3-2.2l-14.1-9.6l0.9-7.9c0.3-3-0.3-6.1-1.8-8.7l-8.2-14.3c-0.5-0.8-1.5-1.2-2.3-0.8
		l0,0c-1,0.4-1.4,1.5-1,2.5l0.2,0.4l-1.1-2.1c-0.4-0.8-1.3-1.1-2.1-0.9l-0.3,0.1C674.8,408.2,674.3,408.9,674.3,409.7L674.3,409.7z"
		/>
	<path class="st13" d="M740.8,468.7l-44.3-28.3l-9.6,13.9l39,35.5c5.7,4.3,13.8,3.2,18.1-2.5c4.3-5.7,3.2-13.8-2.5-18.1
		C741.3,469,741.1,468.8,740.8,468.7L740.8,468.7z"/>
	<path class="st17" d="M657,445.6l18.5,1.3c1.4,0.1,2.6-0.9,2.7-2.3c0-0.1,0-0.2,0-0.3l-2.1-37.1c-0.1-1.3-1.1-2.3-2.3-2.4
		l-18.5-1.3c-1.4-0.1-2.6,1-2.7,2.3c0,0.1,0,0.2,0,0.3l2.1,37.1C654.7,444.5,655.7,445.5,657,445.6z"/>
	<path class="st25" d="M666,415.3l-11.7,5.5l0.9-4.1l8.1-3.1c0.8-0.7,1-1.8,0.4-2.7l0,0c-0.6-0.9-1.7-0.8-2.8-0.5
		c-4,1.1-6,0.9-8.9,2.6c-2.2,1.3-5.6,5.5-7.7,8.3c-1.2,1.6-1.5,3.8-0.6,5.7l3.2,7.4c1.3,2.8,4.6,4,7.3,2.7l12.3-4l1.3-0.6h0.1l0,0
		l0.9-0.4c0.9-0.3,1.4-1.2,1.4-2.1c-0.1-1.1-1.1-2-2.2-1.9l-9.3,2l9.4-3.6c1-0.2,1.6-1.2,1.5-2.2c-0.2-1.1-1.2-1.9-2.3-1.7
		c0,0,0,0-0.1,0l-10.9,2.7l11.4-6.5c0.9-0.5,1.3-1.7,0.7-2.6c0,0,0-0.1-0.1-0.1C668,415.1,666.9,414.8,666,415.3z"/>
	<path class="st25" d="M643.4,424.4c0,0,1.3,15.4,3.5,16.9c0.4,0.2,0.7,0.4,1.2,0.5c3.1,0.8,6.2-1,7.2-4l1.6-4.4L643.4,424.4z"/>
	<path class="st16" d="M716.9,482.5c-0.2,0-0.4-0.1-0.6-0.2l-30-27.3c-0.3-0.3-0.4-0.8-0.1-1.2l9.6-13.9c0.3-0.4,0.8-0.5,1.2-0.2
		l44.3,28.3c0.4,0.3,0.5,0.8,0.3,1.2c-0.3,0.4-0.8,0.5-1.2,0.3l-43.6-27.8l-8.7,12.6l29.4,26.8c0.4,0.3,0.4,0.9,0.1,1.2
		C717.3,482.4,717.1,482.5,716.9,482.5z"/>
	<path class="st16" d="M652,468.6L652,468.6c-0.5,0-0.9-0.4-0.8-0.9l0.6-12.8c0-0.5,0.4-0.8,0.8-0.8c0,0,0.1,0,0.1,0
		c0.5,0,0.9,0.4,0.8,0.9c0,0,0,0,0,0l-0.6,12.8C652.9,468.2,652.5,468.6,652,468.6C652,468.6,652,468.6,652,468.6z"/>
</g>
<path class="st28" d="M769.4,253.9c-1.4-2-3.9-5.3-7.6-6.9c-6.6-2.8-34,0.2-35.5,1.5l0,0c-0.3-1.2-6.9-29.5-24.2-34.4
	c-12.3-3.5-24.9,6.1-31.9,24.5c-1.3-1.2-11.7-10.6-22.4-2.3c-5.4,4.2-8.5,10.9-9.9,14.5c-9.8,3.4-20.4,3.1-30-0.9
	c-7-2.8-14.3-1.6-20.8,3.8l-6.6,5.5h189.9C770.1,257.4,769.7,255.6,769.4,253.9z"/>
<path class="st28" d="M805.1,319c-1.8-0.1-3.1-1.7-3-3.4c0-0.1,0-0.1,0-0.2c0.2-4.5,2.5-8.5,6.3-10.9c4.8-2.8,11-1.7,14.4,2.8
	c0.8-11.2,7.5-20.8,16.9-24.2c9.8-3.5,20.7,0.3,27,9.7c0.6-0.7,5.9-6.7,13.2-5.5c6.9,1.1,12.5,8.2,13.2,17.3
	c2.7-0.8,5.7-0.6,8.3,0.7c3.6,1.8,6.2,5.6,7.2,10.3c0.5,2.2-1,4.2-3,4.2L805.1,319z"/>
<path class="st28" d="M87.7,332.7c-3,0-5.4-2.5-5.4-5.5c0-0.1,0-0.3,0-0.4c0.2-2.8,1.6-5.4,3.9-7c3.5-2.2,8.1-1.6,11,1.3
	c0.1-1,0.9-8.4,6.9-12.2s14.6-2.5,20.4,3.8c0.4-10.7,7.4-19.9,17-22.4c9.8-2.6,20.5,2.2,24.9,10.6c1.8,3.6,2.5,7.6,2.1,11.5
	c3.3-2.5,7.9-2.5,11.2,0c3,2.4,4.3,6.3,3.4,10c4.9-3.3,11.1-3,15,0.4l0.1,0.1c3.7,3.3,1.3,9.6-3.6,9.6L87.7,332.7z"/>
<ellipse transform="matrix(0.1649 -0.9863 0.9863 0.1649 -613.9523 693.1628)" class="st13" cx="102.3" cy="709.1" rx="19.3" ry="19.3"/>
<circle class="st26" cx="823.8" cy="644.3" r="19.3"/>
<circle class="st26" cx="252.8" cy="260.5" r="13.6"/>
<circle class="st13" cx="395.6" cy="285" r="11"/>
<g id="floor">
	<path class="st15" d="M879.7,777.5H108c-1.2-0.1-2-1.1-1.9-2.3c0.1-1,0.9-1.8,1.9-1.9h771.7c1.2,0.1,2,1.1,1.9,2.3
		C881.5,776.6,880.7,777.4,879.7,777.5z"/>
</g>
</svg>
